<svg xmlns="http://www.w3.org/2000/svg" width="37" height="34" viewBox="0 0 37 34">
    <g fill="none" fill-rule="evenodd" stroke="#05a4ff" stroke-linecap="round" stroke-linejoin="round" stroke-width="1.5">
        <path d="M19 26.125c3.977-1.512 6.261-7.066 6.261-11.13v-1.59c0-1.127 1.565-3.592 1.565-6.36 0-2.806-1.076-4.01-2.163-5.118-1.371-1.398-3.315-1.16-3.315.347v1.59c0 4.191-5.84 10.335-7.826 10.335H8.826v16.696h3.13c2.686 0 2.419 1.59 6.198 1.59H30.74c1.319 0 3.422-.723 3.913-3.18 0 0 1.41-8.44 1.566-11.13.155-2.69-.536-3.976-3.13-3.976h-6.262M1 32.485h7.826v-20.67H1zM4.913 14.994v2.386"/>
    </g>
</svg>
