<?xml version="1.0" encoding="UTF-8" standalone="no"?>
<svg
   xmlns:dc="http://purl.org/dc/elements/1.1/"
   xmlns:cc="http://creativecommons.org/ns#"
   xmlns:rdf="http://www.w3.org/1999/02/22-rdf-syntax-ns#"
   xmlns:svg="http://www.w3.org/2000/svg"
   xmlns="http://www.w3.org/2000/svg"
   xmlns:sodipodi="http://sodipodi.sourceforge.net/DTD/sodipodi-0.dtd"
   xmlns:inkscape="http://www.inkscape.org/namespaces/inkscape"
   version="1.0"
   width="548.000000pt"
   height="714.000000pt"
   viewBox="0 0 548.000000 714.000000"
   preserveAspectRatio="xMidYMid meet"
   id="svg4563"
   sodipodi:docname="ghost.svg"
   inkscape:version="0.92.3 (2405546, 2018-03-11)">
  <defs
     id="defs4567" />
  <sodipodi:namedview
     pagecolor="#ffffff"
     bordercolor="#666666"
     borderopacity="1"
     objecttolerance="10"
     gridtolerance="10"
     guidetolerance="10"
     inkscape:pageopacity="0"
     inkscape:pageshadow="2"
     inkscape:window-width="1920"
     inkscape:window-height="986"
     id="namedview4565"
     showgrid="false"
     inkscape:zoom="1.5164456"
     inkscape:cx="329.73338"
     inkscape:cy="637.83515"
     inkscape:window-x="-11"
     inkscape:window-y="-11"
     inkscape:window-maximized="1"
     inkscape:current-layer="g4561" />
  <metadata
     id="metadata4549">
Created by potrace 1.15, written by Peter Selinger 2001-2017
<rdf:RDF>
  <cc:Work
     rdf:about="">
    <dc:format>image/svg+xml</dc:format>
    <dc:type
       rdf:resource="http://purl.org/dc/dcmitype/StillImage" />
  </cc:Work>
</rdf:RDF>
</metadata>
  <g
     transform="translate(0.000000,714.000000) scale(0.100000,-0.100000)"
     fill="#000000"
     stroke="none"
     id="g4561">
    <path
       d="M2133 4927 c13 -174 94 -260 247 -261 64 -1 82 3 121 26 72 42 124 137 136 248 l6 59 -39 -10 c-105 -24 -308 -21 -448 7 l-29 6 6 -75z"
       id="path4557" />
    <circle
       style="opacity:1;fill:#000000;fill-opacity:1;stroke-width:1.75221503;stroke-miterlimit:4;stroke-dasharray:none"
       id="path5114"
       cx="2940"
       cy="-5565"
       transform="scale(1,-1)"
       r="225" />
    <circle
       style="opacity:1;fill:#000000;fill-opacity:1;stroke-width:1.75221503;stroke-miterlimit:4;stroke-dasharray:none"
       id="path5114-3"
       cx="1815"
       cy="-5565"
       r="225"
       transform="scale(1,-1)" />
    <ellipse
       style="opacity:1;fill:#000000;fill-opacity:1;stroke-width:2.42459273;stroke-miterlimit:4;stroke-dasharray:none"
       id="path5131"
       cx="3596.25"
       cy="-258.75009"
       transform="scale(1,-1)"
       rx="1796.25"
       ry="161.25" />
    <path
       style="opacity:1;fill:#ce0000;fill-opacity:1;stroke-width:0.30448395;stroke-miterlimit:4;stroke-dasharray:none"
       d="M 604.57699,726.01461 C 555.48279,722.22608 494.5111,710.58724 425.75124,691.87874 330.20664,665.88252 249.36878,611.16761 183.23752,527.73392 c -6.1638,-7.77647 -13.8789,-17.88353 -17.1447,-22.46011 l -5.93779,-8.32108 -22.01315,-9.0186 C 77.751194,463.19258 45.616534,440.95564 32.461726,414.80427 21.403436,392.82072 20.730259,375.03563 30.228869,355.81298 c 8.509462,-17.22086 21.2704,-27.37321 40.55778,-32.26695 9.722951,-2.46698 13.184113,-2.66777 33.136341,-1.92222 l 22.27935,0.83249 -0.83616,-11.52673 c -5.05605,-69.69928 0.54073,-121.10777 17.11186,-157.17898 13.84102,-30.12844 52.02962,-71.862087 84.27134,-92.094252 17.56302,-11.021055 49.8149,-23.045341 73.82726,-27.524603 18.51627,-3.454023 59.21865,-3.453738 77.81354,5.45e-4 27.71264,5.148046 66.08771,20.348502 89.02396,35.262618 11.97267,7.78513 40.15281,36.388502 48.59248,49.322262 21.22936,32.53394 32.79494,69.58923 38.69442,123.97411 1.57373,14.50761 3.00776,26.57902 3.18672,26.82536 0.17894,0.24634 3.97658,-2.03162 8.43919,-5.06211 19.07628,-12.95445 32.57748,-25.72362 64.62751,-26.62949 22.02286,-0.62245 28.89961,4.80987 35.87551,7.44401 16.69144,6.30282 25.02541,25.32288 25.02541,42.9395 0,18.34925 -5.43679,28.65573 -31.9947,60.65205 -40.13809,48.3574 -52.16506,69.4591 -56.75301,99.57495 -2.60955,17.12943 -2.22961,73.96511 0.58905,88.11657 4.37223,21.95141 12.01472,39.16834 25.34949,57.10716 8.50275,11.43847 15.65413,19.44614 45.61885,51.08121 25.60559,27.03293 31.18032,34.43986 35.44805,47.09839 4.73889,14.05606 1.95076,23.09443 -8.55805,27.74298 -11.71187,5.18072 -66.2894,8.80095 -96.97807,6.43276 z m -273.7237,-397.6577 c 6.09762,-2.8935 12.2938,-9.34002 15.99203,-16.63813 3.14284,-6.20207 7.05605,-24.05565 5.59324,-25.51845 -0.41593,-0.41594 -4.53962,-0.14237 -9.16373,0.60795 -11.39879,1.84957 -34.98233,1.61545 -48.63312,-0.48281 -6.16573,-0.94773 -11.38626,-1.58033 -11.60117,-1.40576 -0.21491,0.17455 0.23182,5.28241 0.99273,11.3508 2.9781,23.75076 13.17445,33.92296 34.14884,34.06797 4.93809,0.0342 10.13659,-0.77882 12.67118,-1.98157 z m -74.79312,-91.43008 c 15.0643,-7.68522 20.54089,-25.77531 12.47659,-41.21216 -5.4876,-10.50447 -12.3705,-14.83751 -24.54549,-15.45233 -10.67508,-0.53906 -17.88994,2.08231 -24.21124,8.79663 -10.67994,11.34397 -10.63522,30.71424 0.0975,42.21747 8.61147,9.22972 24.34921,11.68738 36.18267,5.65039 z m 145.74269,1.90443 c 20.51419,-7.32079 27.41877,-32.67287 13.18826,-48.42435 -7.4553,-8.25212 -13.46689,-10.71975 -24.72963,-10.151 -7.62435,0.385 -10.53922,1.18487 -14.94648,4.10146 -8.36799,5.53767 -12.53987,12.79436 -13.18561,22.93538 -0.71269,11.19249 2.13716,18.60392 9.72017,25.27877 8.88132,7.81763 19.41761,10.01955 29.95329,6.25974 z"
       id="path835"
       inkscape:connector-curvature="0"
       transform="matrix(7.4999999,0,0,-7.4999999,0,7140)"
       sodipodi:nodetypes="sssccssssscssssssssccscsssssssssccccscscccscscccsscsscs" />
  </g>
</svg>
