<?xml version="1.0" encoding="UTF-8" standalone="no"?>
<svg
   xmlns:osb="http://www.openswatchbook.org/uri/2009/osb"
   xmlns:dc="http://purl.org/dc/elements/1.1/"
   xmlns:cc="http://creativecommons.org/ns#"
   xmlns:rdf="http://www.w3.org/1999/02/22-rdf-syntax-ns#"
   xmlns:svg="http://www.w3.org/2000/svg"


   xmlns:sodipodi="http://sodipodi.sourceforge.net/DTD/sodipodi-0.dtd"
   xmlns:inkscape="http://www.inkscape.org/namespaces/inkscape"
   version="1.0"
   width="2227.5337"
   height="690.78619"
   viewBox="0 0 2227.5337 690.78619"
   preserveAspectRatio="xMidYMid meet"
   id="svg4563"
   sodipodi:docname="logo.svg"
   inkscape:version="0.92.3 (2405546, 2018-03-11)"
   inkscape:export-filename="C:\Users\peter\Downloads\logo.png"
   inkscape:export-xdpi="96"
   inkscape:export-ydpi="96">
  <defs id="defs4567">

    <linearGradient
       id="fff"
       osb:paint="solid">
      <stop
         style="stopColor:#ce0000;stop-opacity:0;"
         offset="0"
         id="stop1406" />
    </linearGradient>
    <linearGradient
       inkscape:collect="always"
       xlinkHref="#fff"
       id="linearGradient1410"
       x1="146.45474"
       y1="123.13188"
       x2="5509.5967"
       y2="123.13188"
       gradientUnits="userSpaceOnUse" />
  </defs>
  <sodipodi:namedview
     pagecolor="#ffffff"
     bordercolor="#666666"
     borderopacity="1"
     objecttolerance="10"
     gridtolerance="10"
     guidetolerance="10"
     inkscape:pageopacity="0"
     inkscape:pageshadow="2"
     inkscape:window-width="1920"
     inkscape:window-height="986"
     id="namedview4565"
     showgrid="false"
     inkscape:zoom="0.36657181"
     inkscape:cx="820.68546"
     inkscape:cy="567.35528"
     inkscape:window-x="-11"
     inkscape:window-y="-11"
     inkscape:window-maximized="1"
     inkscape:current-layer="g4561"
     inkscape:measure-start="-221.972,263.439"
     inkscape:measure-end="257.859,224.225"
     inkscape:pagecheckerboard="false"
     viewbox-width="100"
     fit-margin-top="0"
     fit-margin-left="0"
     fit-margin-right="0"
     fit-margin-bottom="0"
     units="px" />
  <metadata
     id="metadata4549">
Created by potrace 1.15, written by Peter Selinger 2001-2017
<rdf:RDF>
  <cc:Work
     rdf:about="">
    <dc:format>image/svg+xml</dc:format>
    <dc:type
       rdf:resource="http://purl.org/dc/dcmitype/StillImage" />
    <dc:title />
  </cc:Work>
</rdf:RDF>
</metadata>
  <g
     transform="matrix(0.1,0,0,-0.1,-14.645475,283.23748)"
     id="g4561"
     style="fill:#000000;stroke:none">
    <ellipse
       style="opacity:1;fill:#00aaff;fill-opacity:1;stroke-width:2.42459273;stroke-miterlimit:4;stroke-dasharray:none"
       id="path5131"
       cx="3663.0178"
       cy="3914.2371"
       transform="scale(1,-1)"
       rx="1796.25"
       ry="161.25" />
    <path
       style="opacity:1;fill:#ffffff;fill-opacity:1;stroke:#000000;stroke-width:150;stroke-miterlimit:4;stroke-dasharray:none"
       d="m 4601.0952,-2478.0969 c -368.2065,28.414 -825.4942,115.7053 -1341.1931,256.019 -716.5845,194.9717 -1322.8685,605.3335 -1818.8529,1231.08608 -46.2285,58.3236 -104.0918,134.1265 -128.5853,168.4509 l -44.5334,62.4081 -165.0986,67.6395 c -452.93015,185.5616 -693.9401,352.3386 -792.60116,548.4739 -82.93717,164.8766 -87.986,298.2648 -16.74643,442.43468 63.82097,129.15645 159.52801,205.29907 304.18335,242.00212 72.92213,18.50235 98.88085,20.00827 248.52256,14.41665 l 167.09508,-6.24368 -6.2712,86.45048 c -37.92033,522.74457 4.0555,908.30827 128.339,1178.84237 103.8076,225.9633 390.2221,538.9656 632.035,690.7069 131.7227,82.6579 373.6118,172.84 553.7045,206.4345 138.872,25.9052 444.1398,25.903 583.6015,0 207.8448,-38.6103 495.6578,-152.6138 667.6797,-264.4696 89.795,-58.3885 301.1461,-272.9138 364.4436,-369.917 159.2202,-244.0046 259.0574,-591.3835 307.4562,-998.7982 23.9004,-201.19024 68.6041,-92.38444 69.9463,-94.23199 1.3421,-1.84755 -33.4696,-22.72868 0,0 143.0721,97.15839 244.3311,192.92719 484.7063,199.72119 165.1714,4.6684 216.7471,-36.074 269.0663,-55.8301 125.1858,-47.2711 187.6906,-189.92159 187.6906,-322.04625 0,-137.61937 -40.7759,-214.91797 -239.9603,-454.89037 -301.0356,-362.6805 -391.2379,-520.9432 -425.6475,-746.8121 -19.5717,-128.4707 -16.7221,-554.7383 4.4178,-660.87428 32.7918,-164.6356 90.1104,-293.7625 190.1212,-428.3037 63.7706,-85.7885 117.406,-145.846 342.1414,-383.109 192.0419,-202.747 233.8524,-258.299 265.8604,-353.238 35.5416,-105.4204 14.6307,-173.2082 -64.1854,-208.0723 -87.839,-38.8554 -497.1705,-66.0071 -727.3355,-48.2457 z"
       id="path835"
       inkscape:connector-curvature="0"
       sodipodi:nodetypes="cssccssssscssssssssccscsssssssssc" />
    <text
       xml:space="preserve"
       style="font-style:normal;font-variant:normal;font-weight:normal;font-stretch:normal;font-size:4009.99975586px;line-height:1.25;font-family:'MS PGothic';-inkscape-font-specification:'MS PGothic, Normal';font-variant-ligatures:normal;font-variant-caps:normal;font-variant-numeric:normal;font-feature-settings:normal;text-align:start;letter-spacing:0px;word-spacing:0px;writing-mode:lr-tb;text-anchor:start;fill:#000000;fill-opacity:1;stroke:none;stroke-width:7.5"
       x="4798.5322"
       y="1994.8579"
       id="text837"
       transform="scale(1,-1)"><tspan
         sodipodi:role="line"
         id="tspan835"
         x="4798.5322"
         y="1994.8579"
         style="font-family:'Quicksand';font-style:normal;font-variant:normal;font-weight:normal;font-stretch:normal;font-size:4009.99975586px;stroke-width:7.5">GHOSTIT</tspan></text>
    <circle
       style="opacity:1;fill:#000000;fill-opacity:1;stroke-width:1.75221503;stroke-miterlimit:4;stroke-dasharray:none"
       id="path5114-3"
       cx="3006.7722"
       cy="-1392.0128"
       transform="scale(1,-1)"
       r="225" />
    <circle
       style="opacity:1;fill:#000000;fill-opacity:1;stroke-width:1.75221503;stroke-miterlimit:4;stroke-dasharray:none"
       id="path5114"
       cx="1881.7723"
       cy="-1392.0128"
       transform="scale(1,-1)"
       r="225" />
    <path
       d="m 2199.7723,754.01107 c 13,-174 94,-260 247,-261 64,-1 82,3 121,26 72,42 124,137 136,248 l 6,59 -39,-10 c -105,-24 -308,-21 -448,7 l -29,6 z"
       id="path4557"
       inkscape:connector-curvature="0" />
  </g>
</svg>
