<svg xmlns="http://www.w3.org/2000/svg" xmlns:xlink="http://www.w3.org/1999/xlink" width="195.3153" height="195.3153" viewBox="0 0 195.3153 195.3153"><defs><radialGradient id="a" cx="97.6577" cy="97.6577" r="142.8994" gradientUnits="userSpaceOnUse"><stop offset="0" stopColor="#4dc4ff"/><stop offset="1" stopColor="#0c89db"/></radialGradient></defs><title>agency-social-active</title><circle cx="97.6577" cy="97.6577" r="97.6577" fill="url(#a)"/><rect x="33.4279" y="48.2928" width="111.1474" height="73.7772" rx="3" fill="#f7e5ff"/><rect x="47.6596" y="65.3029" width="82.684" height="6.6042" fill="#e6b3ff"/><rect x="47.6596" y="81.9071" width="82.684" height="6.6042" fill="#e6b3ff"/><rect x="47.6596" y="98.5114" width="35.3545" height="6.6042" fill="#e6b3ff"/><rect x="59.5912" y="110.1273" width="102.0412" height="36.8001" rx="2.886" fill="#7700b3"/><path d="M118.8949,134.9848a9.2131,9.2131,0,0,0,9.2763-9.2764c0-.1411-.0028-.2816-.0092-.4214a6.63,6.63,0,0,0,1.6264-1.6883,6.5,6.5,0,0,1-1.8724.5133,3.2722,3.2722,0,0,0,1.4338-1.8034,6.5373,6.5373,0,0,1-2.07.7914,3.2632,3.2632,0,0,0-5.5559,2.9733,9.2568,9.2568,0,0,1-6.72-3.4065,3.2632,3.2632,0,0,0,1.0094,4.3527,3.2372,3.2372,0,0,1-1.4766-.4078l-.0005.0416a3.2613,3.2613,0,0,0,2.6157,3.1961,3.2555,3.2555,0,0,1-1.4725.0559,3.2637,3.2637,0,0,0,3.0457,2.2645,6.54,6.54,0,0,1-4.0494,1.3956,6.64,6.64,0,0,1-.7777-.0451,9.23,9.23,0,0,0,4.9978,1.4645" fill="#fff"/><path d="M84.1292,120.5817H69.992a.8769.8769,0,0,0-.8769.8771v14.1371a.8767.8767,0,0,0,.8769.8771h7.6109v-6.154H75.5321v-2.3983h2.0708V126.152a2.89,2.89,0,0,1,3.0844-3.17,16.9809,16.9809,0,0,1,1.8506.0945v2.1451l-1.27.0006c-.9956,0-1.1885.4732-1.1885,1.1675v1.5312h2.375l-.309,2.3983h-2.066v6.154h4.05a.8773.8773,0,0,0,.877-.8771V121.4588A.877.877,0,0,0,84.1292,120.5817Z" fill="#fff"/><path d="M106.2215,120.5816H92.6781a1.16,1.16,0,0,0-1.1719,1.1458v13.5991a1.16,1.16,0,0,0,1.1719,1.1467h13.5434a1.1627,1.1627,0,0,0,1.1758-1.1467V121.7274A1.1619,1.1619,0,0,0,106.2215,120.5816ZM96.22,134.1229H93.8607v-7.5837H96.22Zm-1.1792-8.62a1.3669,1.3669,0,1,1,1.3662-1.3669A1.3661,1.3661,0,0,1,95.0409,125.503Zm10.0068,8.62h-2.3569v-3.688c0-.8794-.0147-2.0108-1.2246-2.0108-1.2261,0-1.4136.9585-1.4136,1.9479v3.7509h-2.354v-7.5837h2.2593v1.0367H99.99a2.4763,2.4763,0,0,1,2.23-1.2249c2.3867,0,2.8276,1.57,2.8276,3.6127Z" fill="#fff"/><path d="M152.1318,125.72a5.8328,5.8328,0,0,0-.3693-1.9287,4.0631,4.0631,0,0,0-2.3239-2.3239,5.8333,5.8333,0,0,0-1.9287-.3691c-.8474-.0388-1.118-.0479-3.2759-.0479s-2.4286.0091-3.2759.0478a5.8322,5.8322,0,0,0-1.9287.3693,4.0646,4.0646,0,0,0-2.324,2.3238,5.8333,5.8333,0,0,0-.3691,1.9287c-.0388.8474-.0479,1.1181-.0479,3.276s.0091,2.4286.0479,3.2759a5.8294,5.8294,0,0,0,.3694,1.9287,4.063,4.063,0,0,0,2.3237,2.3238,5.8333,5.8333,0,0,0,1.9287.3693c.8475.0387,1.1181.0478,3.276.0478s2.4286-.0091,3.2759-.0478a5.8322,5.8322,0,0,0,1.9287-.3693,4.0629,4.0629,0,0,0,2.3238-2.3238,5.8328,5.8328,0,0,0,.3693-1.9287c.0387-.8475.0479-1.1181.0479-3.2759S152.1705,126.567,152.1318,125.72Zm-1.43,6.4868a4.3981,4.3981,0,0,1-.2736,1.4754,2.6311,2.6311,0,0,1-1.508,1.508,4.3981,4.3981,0,0,1-1.4754.2736c-.8377.0382-1.0889.0463-3.2107.0463s-2.373-.0081-3.2108-.0463a4.3981,4.3981,0,0,1-1.4754-.2736,2.6317,2.6317,0,0,1-1.508-1.508,4.3962,4.3962,0,0,1-.2735-1.4754c-.0383-.8378-.0464-1.0891-.0464-3.2107s.0081-2.3729.0464-3.2108a4.3962,4.3962,0,0,1,.2735-1.4754,2.6322,2.6322,0,0,1,1.5081-1.508,4.3974,4.3974,0,0,1,1.4753-.2736c.8379-.0382,1.0892-.0463,3.2108-.0463h0c2.1215,0,2.3728.0081,3.2107.0464a4.3962,4.3962,0,0,1,1.4754.2735,2.6317,2.6317,0,0,1,1.508,1.508,4.3981,4.3981,0,0,1,.2736,1.4754c.0382.8378.0463,1.0891.0463,3.2108S150.74,131.3685,150.7017,132.2064Z" fill="#fff"/><polygon points="144.234 121.05 144.234 121.05 144.234 121.05 144.234 121.05" fill="#fff"/><path d="M144.234,124.9154a4.08,4.08,0,1,0,4.08,4.08A4.08,4.08,0,0,0,144.234,124.9154Zm0,6.7287a2.6485,2.6485,0,1,1,2.6485-2.6485A2.6485,2.6485,0,0,1,144.234,131.6441Z" fill="#fff"/><circle cx="148.4753" cy="124.7542" r="0.9535" fill="#fff"/></svg>