<svg xmlns="http://www.w3.org/2000/svg" xmlns:xlink="http://www.w3.org/1999/xlink" width="195.3153" height="195.3153" viewBox="0 0 195.3153 195.3153"><defs><radialGradient id="a" cx="97.6577" cy="97.6577" r="142.8994" gradientUnits="userSpaceOnUse"><stop offset="0" stopColor="#4dc4ff"/><stop offset="1" stopColor="#0c89db"/></radialGradient></defs><title>agency-newsletter-active</title><circle cx="97.6577" cy="97.6577" r="97.6577" fill="url(#a)"/><polygon points="97.665 132.639 42.65 84.635 97.665 36.631 152.665 84.635 97.665 132.639" fill="#7700b3"/><path d="M144.9091,91.4316,97.6958,132.6392,52.3386,93.1407V43.7422a3,3,0,0,1,3-3h86.5705a3,3,0,0,1,3,3Z" fill="#f7e5ff"/><rect x="60.6852" y="53.4845" width="75.9137" height="6.6042" fill="#e6b3ff"/><rect x="60.6852" y="70.0888" width="75.9137" height="6.6042" fill="#e6b3ff"/><rect x="60.6852" y="86.5364" width="75.9137" height="6.6042" fill="#e6b3ff"/><polygon points="131.493 103.141 63.822 103.141 71.406 109.745 123.927 109.745 131.493 103.141" fill="#e6b3ff"/><polygon points="112.469 119.745 82.919 119.745 90.473 126.349 104.903 126.349 112.469 119.745" fill="#e6b3ff"/></svg>