<svg xmlns="http://www.w3.org/2000/svg" width="198.3154" height="198.3154" viewBox="0 0 198.3154 198.3154"><title>agency-social</title><rect x="34.9031" y="49.7931" width="111.1474" height="73.7772" rx="3" fill="#e1f5ff"/><path d="M143.0508,124.07H37.9033a3.5042,3.5042,0,0,1-3.5-3.5V52.793a3.5042,3.5042,0,0,1,3.5-3.5H143.0508a3.5042,3.5042,0,0,1,3.5,3.5V120.57A3.5042,3.5042,0,0,1,143.0508,124.07ZM37.9033,50.293a2.5023,2.5023,0,0,0-2.5,2.5V120.57a2.5023,2.5023,0,0,0,2.5,2.5H143.0508a2.5023,2.5023,0,0,0,2.5-2.5V52.793a2.5023,2.5023,0,0,0-2.5-2.5Z" fill="#0b89db"/><rect x="49.1349" y="66.8032" width="82.684" height="6.6042" fill="#6ec2fa"/><rect x="49.1349" y="83.4074" width="82.684" height="6.6042" fill="#6ec2fa"/><rect x="49.1349" y="100.0117" width="35.3545" height="6.6042" fill="#6ec2fa"/><rect x="61.0665" y="111.6277" width="102.0412" height="36.8001" rx="2.886" fill="#0b89db"/><path d="M120.37,136.4851a9.2132,9.2132,0,0,0,9.2764-9.2764q0-.2116-.0092-.4214a6.6294,6.6294,0,0,0,1.6263-1.6883,6.4994,6.4994,0,0,1-1.8723.5133,3.2717,3.2717,0,0,0,1.4337-1.8034,6.5359,6.5359,0,0,1-2.07.7914,3.2631,3.2631,0,0,0-5.5559,2.9733,9.2567,9.2567,0,0,1-6.7205-3.4065,3.2635,3.2635,0,0,0,1.0094,4.3527,3.2375,3.2375,0,0,1-1.4766-.4078l-.0005.0416a3.2614,3.2614,0,0,0,2.6158,3.1961,3.2555,3.2555,0,0,1-1.4725.0559A3.2636,3.2636,0,0,0,120.2,133.67a6.54,6.54,0,0,1-4.0494,1.3956,6.6172,6.6172,0,0,1-.7777-.0451,9.2287,9.2287,0,0,0,4.9978,1.4645" fill="#fff"/><path d="M85.6045,122.082H71.4673a.877.877,0,0,0-.877.8771v14.1371a.8767.8767,0,0,0,.877.8771h7.6108v-6.154H77.0073V129.421h2.0708v-1.7687a2.89,2.89,0,0,1,3.0845-3.17,16.9463,16.9463,0,0,1,1.8506.0946v2.145l-1.27.0006c-.9956,0-1.1885.4732-1.1885,1.1675v1.5312H83.93l-.3091,2.3983H81.5547v6.154h4.05a.8773.8773,0,0,0,.8769-.8771V122.9591A.8769.8769,0,0,0,85.6045,122.082Z" fill="#fff"/><path d="M107.6968,122.0819H94.1533a1.16,1.16,0,0,0-1.1719,1.1458v13.5991a1.16,1.16,0,0,0,1.1719,1.1467h13.5435a1.1628,1.1628,0,0,0,1.1758-1.1467V123.2277A1.162,1.162,0,0,0,107.6968,122.0819ZM97.6953,135.6232H95.3359V128.04h2.3594Zm-1.1792-8.62a1.3669,1.3669,0,1,1,1.3662-1.367A1.3662,1.3662,0,0,1,96.5161,127.0034Zm10.0068,8.62H104.166v-3.688c0-.8794-.0146-2.0108-1.2246-2.0108-1.2261,0-1.4136.9585-1.4136,1.9479v3.7509h-2.354V128.04h2.2593v1.0367h.0322a2.4764,2.4764,0,0,1,2.23-1.2249c2.3867,0,2.8276,1.57,2.8276,3.6128Z" fill="#fff"/><path d="M153.6071,127.22a5.8328,5.8328,0,0,0-.3693-1.9287,4.0638,4.0638,0,0,0-2.3239-2.3239,5.831,5.831,0,0,0-1.9287-.369c-.8474-.0389-1.1181-.048-3.276-.048s-2.4285.0091-3.2759.0478a5.8328,5.8328,0,0,0-1.9287.3693,4.0646,4.0646,0,0,0-2.324,2.3238,5.831,5.831,0,0,0-.369,1.9287c-.0388.8474-.048,1.1181-.048,3.276s.0092,2.4286.048,3.2759a5.8322,5.8322,0,0,0,.3693,1.9287,4.0635,4.0635,0,0,0,2.3238,2.3238,5.8328,5.8328,0,0,0,1.9287.3693c.8475.0387,1.1181.0479,3.2759.0479s2.4286-.0092,3.276-.0479a5.8328,5.8328,0,0,0,1.9287-.3693,4.0629,4.0629,0,0,0,2.3238-2.3238,5.8328,5.8328,0,0,0,.3693-1.9287c.0387-.8475.0478-1.118.0478-3.2759S153.6458,128.0673,153.6071,127.22Zm-1.43,6.4869a4.3954,4.3954,0,0,1-.2736,1.4753,2.6312,2.6312,0,0,1-1.5079,1.508,4.3955,4.3955,0,0,1-1.4754.2736c-.8377.0382-1.089.0463-3.2108.0463s-2.373-.0081-3.2108-.0463a4.398,4.398,0,0,1-1.4753-.2736,2.6317,2.6317,0,0,1-1.508-1.508,4.3948,4.3948,0,0,1-.2736-1.4753c-.0382-.8379-.0463-1.0892-.0463-3.2108s.0081-2.3729.0463-3.2108a4.3981,4.3981,0,0,1,.2736-1.4754,2.6317,2.6317,0,0,1,1.508-1.508,4.3962,4.3962,0,0,1,1.4754-.2735c.8379-.0383,1.0891-.0464,3.2108-.0464h0c2.1216,0,2.3729.0081,3.2108.0463a4.3929,4.3929,0,0,1,1.4754.2736,2.6306,2.6306,0,0,1,1.5079,1.5079,4.3929,4.3929,0,0,1,.2736,1.4754c.0382.8379.0463,1.0891.0463,3.2108S152.2151,132.8688,152.1769,133.7068Z" fill="#fff"/><polygon points="145.709 122.55 145.709 122.55 145.709 122.55 145.709 122.55" fill="#fff"/><path d="M145.7092,126.4157a4.08,4.08,0,1,0,4.08,4.08A4.08,4.08,0,0,0,145.7092,126.4157Zm0,6.7287a2.6485,2.6485,0,1,1,2.6486-2.6485A2.6485,2.6485,0,0,1,145.7092,133.1444Z" fill="#fff"/><circle cx="149.9506" cy="126.2545" r="0.9535" fill="#fff"/><path d="M99.1572,198.3154a99.1577,99.1577,0,1,1,99.1582-99.1572A99.2691,99.2691,0,0,1,99.1572,198.3154ZM99.1572,3a96.1577,96.1577,0,1,0,96.1582,96.1582A96.2667,96.2667,0,0,0,99.1572,3Z" fill="#0c89db"/></svg>