<svg xmlns="http://www.w3.org/2000/svg" xmlnsXlink="http://www.w3.org/1999/xlink" width="401.4557" height="346.8443" viewBox="0 0 401.4557 346.8443"><defs><radialGradient id="a" cx="195.0459" cy="150.1394" r="352.1598" gradientUnits="userSpaceOnUse"><stop offset="0" stopColor="#e1f5ff"/><stop offset="1" stopColor="#b3e5ff"/></radialGradient><radialGradient id="b" cx="258.3731" cy="239.3718" r="286.745" gradientUnits="userSpaceOnUse"><stop offset="0" stopColor="#b3e5ff"/><stop offset="1" stopColor="#81d5ff"/></radialGradient></defs><title>dashboard-post</title><rect x="56.6276" y="55.814" width="276.8367" height="188.6508" rx="6" fill="url(#a)"/><path d="M327.4645,244.9643H62.6276a6.5075,6.5075,0,0,1-6.5-6.5V61.814a6.5075,6.5075,0,0,1,6.5-6.5H327.4645a6.5075,6.5075,0,0,1,6.5,6.5v176.65A6.5075,6.5075,0,0,1,327.4645,244.9643ZM62.6276,56.314a5.5064,5.5064,0,0,0-5.5,5.5v176.65a5.5064,5.5064,0,0,0,5.5,5.5H327.4645a5.5065,5.5065,0,0,0,5.5-5.5V61.814a5.5065,5.5065,0,0,0-5.5-5.5Z" fill="#0c89db"/><rect x="92.3367" y="87.2093" width="205.4184" height="12" fill="#6ec2fa"/><rect x="92.3367" y="111.2093" width="205.4184" height="12" fill="#6ec2fa"/><rect x="92.3367" y="135.2093" width="205.4184" height="12" fill="#6ec2fa"/><rect x="92.3367" y="159.2093" width="80.9472" height="12" fill="#6ec2fa"/><path d="M394.7741,75.4264H323.5559a6.098,6.098,0,0,0-6.1636,6.0253v71.5106a6.1019,6.1019,0,0,0,6.1636,6.03h71.2182a6.1133,6.1133,0,0,0,6.1818-6.03V81.4517A6.1094,6.1094,0,0,0,394.7741,75.4264Z" fill="#0065a1"/><path d="M329.7739,106.7545h12.4066v39.8788H329.7739Zm6.2067-19.8238a7.1877,7.1877,0,1,1-7.19,7.1871,7.1886,7.1886,0,0,1,7.19-7.1871" fill="#fff"/><path d="M349.9558,106.7545h11.8808v5.4518h.17c1.6525-3.1352,5.6967-6.4414,11.7266-6.4414,12.5493,0,14.8685,8.2573,14.8685,18.9976v21.8708H376.2085V127.24c0-4.6244-.0794-10.5739-6.44-10.5739-6.4492,0-7.4332,5.04-7.4332,10.2429v19.7241H349.9558Z" fill="#fff"/><path d="M78.9534,83.5659a4.6124,4.6124,0,0,0,4.6118-4.6125V4.6122A4.6117,4.6117,0,0,0,78.9534,0H4.6122A4.6116,4.6116,0,0,0,0,4.6122V78.9534a4.6121,4.6121,0,0,0,4.6122,4.6125Z" fill="#3c5a99"/><path d="M57.6588,83.5659V51.2046H68.5209l1.6265-12.6118H57.6588V30.541c0-3.6514,1.0139-6.14,6.25-6.14l6.6782-.003v-11.28a89.268,89.268,0,0,0-9.7314-.4971c-9.6287,0-16.2207,5.8774-16.2207,16.6707v9.3009h-10.89V51.2046h10.89V83.5659Z" fill="#fff"/><path d="M37.3513,346.8443c39.2144,0,60.6576-32.487,60.6576-60.6576q0-1.384-.06-2.7557a43.35,43.35,0,0,0,10.6344-11.04A42.5108,42.5108,0,0,1,96.34,275.7477a21.3935,21.3935,0,0,0,9.3749-11.7919,42.7551,42.7551,0,0,1-13.5377,5.1748,21.3374,21.3374,0,0,0-36.33,19.4419A60.53,60.53,0,0,1,11.9033,266.298a21.3379,21.3379,0,0,0,6.6,28.4615,21.1621,21.1621,0,0,1-9.6555-2.6664c-.0031.0894-.0031.1766-.0031.2722a21.3252,21.3252,0,0,0,17.1039,20.8988,21.2863,21.2863,0,0,1-9.6285.3658,21.3411,21.3411,0,0,0,19.9158,14.8074,42.7683,42.7683,0,0,1-26.4789,9.1256,43.3138,43.3138,0,0,1-5.0854-.2951,60.3481,60.3481,0,0,0,32.68,9.5765" fill="#1da1f2"/><path d="M394.9559,183.2093h-207.37a6,6,0,0,0-6,6V254.79L115.79,278.9762l65.7956-5.9534v16.5116a6,6,0,0,0,6,6h207.37a6,6,0,0,0,6-6V189.2093A6,6,0,0,0,394.9559,183.2093Z" fill="url(#b)"/><path d="M394.9557,296.0347h-207.37a6.5076,6.5076,0,0,1-6.5-6.5V273.57l-69.03,6.2461,69.03-25.374V189.21a6.5075,6.5075,0,0,1,6.5-6.5h207.37a6.5075,6.5075,0,0,1,6.5,6.5V289.5347A6.5076,6.5076,0,0,1,394.9557,296.0347Zm-212.87-23.5586v17.0586a5.5065,5.5065,0,0,0,5.5,5.5h207.37a5.5066,5.5066,0,0,0,5.5-5.5V189.21a5.5065,5.5065,0,0,0-5.5-5.5h-207.37a5.5064,5.5064,0,0,0-5.5,5.5v65.93l-.3277.121-62.2339,22.876Z" fill="#0c89db"/><rect x="206.514" y="205.9798" width="169.5138" height="8.7034" transform="translate(582.5418 420.663) rotate(-180)" fill="#0af"/><rect x="206.514" y="223.3866" width="169.5138" height="8.7034" transform="translate(582.5418 455.4766) rotate(-180)" fill="#0af"/><rect x="206.514" y="240.7934" width="169.5138" height="8.7034" transform="translate(582.5418 490.2902) rotate(-180)" fill="#0af"/><rect x="206.514" y="258.2002" width="119.5808" height="8.7034" transform="translate(532.6088 525.1038) rotate(-180)" fill="#0af"/></svg>