<svg xmlns="http://www.w3.org/2000/svg" xmlnsXlink="http://www.w3.org/1999/xlink" width="401.9561" height="345.7788" viewBox="0 0 401.9561 345.7788"><defs><radialGradient id="a" cx="292.6055" cy="204.4135" r="432.6835" gradientUnits="userSpaceOnUse"><stop offset="0" stopColor="#e1f5ff"/><stop offset="1" stopColor="#b3e5ff"/></radialGradient><radialGradient id="b" cx="106.7537" cy="123.2544" r="436.0904" gradientUnits="userSpaceOnUse"><stop offset="0" stopColor="#b3e5ff"/><stop offset="1" stopColor="#81d5ff"/></radialGradient></defs><title>dashbord-campaign</title><rect x="183.7552" y="63.5484" width="217.7006" height="281.7302" rx="6" fill="url(#a)"/><path d="M395.4561,345.7788H189.7554a6.5075,6.5075,0,0,1-6.5-6.5V69.5483a6.5075,6.5075,0,0,1,6.5-6.5H395.4561a6.5076,6.5076,0,0,1,6.5,6.5V339.2788A6.5076,6.5076,0,0,1,395.4561,345.7788ZM189.7554,64.0483a5.5066,5.5066,0,0,0-5.5,5.5V339.2788a5.5066,5.5066,0,0,0,5.5,5.5H395.4561a5.5069,5.5069,0,0,0,5.5-5.5V69.5483a5.5069,5.5069,0,0,0-5.5-5.5Z" fill="#0c89db"/><path d="M232.1,119.5893a1.6559,1.6559,0,0,0,1.6557-1.6559V91.2448A1.6556,1.6556,0,0,0,232.1,89.5891H205.4109a1.6555,1.6555,0,0,0-1.6557,1.6557v26.6886a1.6557,1.6557,0,0,0,1.6557,1.6559Z" fill="#3c5a99"/><path d="M224.4547,119.5893V107.9715h3.8995l.5839-4.5276h-4.4834v-2.8906c0-1.3109.364-2.2042,2.2438-2.2042l2.3975-.001v-4.05a32.0471,32.0471,0,0,0-3.4936-.1784c-3.4567,0-5.8233,2.11-5.8233,5.9848v3.339h-3.91v4.5276h3.91v11.6178Z" fill="#fff"/><path d="M231.5359,139.5893H205.968a2.1892,2.1892,0,0,0-2.2128,2.1631v25.6729a2.1906,2.1906,0,0,0,2.2128,2.1648h25.5679a2.1947,2.1947,0,0,0,2.2193-2.1648V141.7524A2.1933,2.1933,0,0,0,231.5359,139.5893Z" fill="#0065a1"/><path d="M208.2,150.8364h4.454v14.3168H208.2Zm2.2282-7.117a2.58,2.58,0,1,1-2.5814,2.58,2.5808,2.5808,0,0,1,2.5814-2.58" fill="#fff"/><path d="M215.4457,150.8364h4.2653v1.9572h.061a4.6742,4.6742,0,0,1,4.21-2.3125c4.5053,0,5.3379,2.9644,5.3379,6.82v7.8518h-4.4492v-6.9623c0-1.66-.0285-3.7961-2.3121-3.7961-2.3153,0-2.6686,1.8095-2.6686,3.6773v7.0811h-4.4443Z" fill="#fff"/><path d="M213.19,213.6852c11.3215,0,17.5123-9.3793,17.5123-17.5124q0-.4-.0174-.7956a12.5143,12.5143,0,0,0,3.07-3.1872,12.2735,12.2735,0,0,1-3.5347.969,6.1767,6.1767,0,0,0,2.7067-3.4044,12.3447,12.3447,0,0,1-3.9085,1.494,6.16,6.16,0,0,0-10.4887,5.613,17.4756,17.4756,0,0,1-12.6871-6.4308,6.16,6.16,0,0,0,1.9056,8.217,6.11,6.11,0,0,1-2.7876-.77c-.0009.0259-.0009.051-.0009.0786a6.1568,6.1568,0,0,0,4.938,6.0337,6.1448,6.1448,0,0,1-2.78.1056,6.1613,6.1613,0,0,0,5.75,4.275,12.3475,12.3475,0,0,1-7.6447,2.6347,12.5186,12.5186,0,0,1-1.4682-.0852,17.423,17.423,0,0,0,9.4351,2.7648" fill="#1da1f2"/><rect x="253.7552" y="91.5341" width="128.5284" height="8.7034" transform="translate(636.0388 191.7715) rotate(-180)" fill="#6ec2fa"/><rect x="253.7552" y="108.9409" width="78.8198" height="8.7034" transform="translate(586.3301 226.5851) rotate(-180)" fill="#6ec2fa"/><rect x="253.7552" y="141.5346" width="128.5284" height="8.7034" transform="translate(636.0388 291.7726) rotate(-180)" fill="#6ec2fa"/><rect x="253.7552" y="158.9414" width="100.8488" height="8.7034" transform="translate(608.3592 326.5862) rotate(-180)" fill="#6ec2fa"/><rect x="253.7552" y="188.4395" width="128.5284" height="8.7034" transform="translate(636.0388 385.5824) rotate(-180)" fill="#6ec2fa"/><rect x="253.7552" y="205.8463" width="39.4099" height="8.7034" transform="translate(546.9202 420.3959) rotate(-180)" fill="#6ec2fa"/><path d="M232.1,263.6854a1.6559,1.6559,0,0,0,1.6557-1.6559V235.341a1.6557,1.6557,0,0,0-1.6557-1.6558H205.4109a1.6556,1.6556,0,0,0-1.6557,1.6558v26.6885a1.6557,1.6557,0,0,0,1.6557,1.6559Z" fill="#3c5a99"/><path d="M224.4547,263.6854V252.0677h3.8995l.5839-4.5277h-4.4834v-2.8906c0-1.3108.364-2.2041,2.2438-2.2041l2.3975-.0011v-4.0495a32.0377,32.0377,0,0,0-3.4936-.1785c-3.4567,0-5.8233,2.11-5.8233,5.9848v3.339h-3.91v4.5277h3.91v11.6177Z" fill="#fff"/><rect x="253.7552" y="235.6302" width="128.5284" height="8.7034" transform="translate(636.0388 479.9638) rotate(-180)" fill="#6ec2fa"/><rect x="253.7552" y="253.037" width="100.8488" height="8.7034" transform="translate(608.3592 514.7774) rotate(-180)" fill="#6ec2fa"/><path d="M231.5359,283.6854H205.968a2.1892,2.1892,0,0,0-2.2128,2.1632v25.6728a2.1907,2.1907,0,0,0,2.2128,2.1649h25.5679a2.1948,2.1948,0,0,0,2.2193-2.1649V285.8486A2.1934,2.1934,0,0,0,231.5359,283.6854Z" fill="#0065a1"/><path d="M208.2,294.9325h4.454v14.3168H208.2Zm2.2282-7.1169a2.58,2.58,0,1,1-2.5814,2.58,2.5807,2.5807,0,0,1,2.5814-2.58" fill="#fff"/><path d="M215.4457,294.9325h4.2653V296.89h.061a4.6744,4.6744,0,0,1,4.21-2.3125c4.5053,0,5.3379,2.9644,5.3379,6.82v7.8518h-4.4492V302.287c0-1.66-.0285-3.7961-2.3121-3.7961-2.3153,0-2.6686,1.81-2.6686,3.6773v7.0811h-4.4443Z" fill="#fff"/><rect x="253.7552" y="285.6307" width="128.5284" height="8.7034" transform="translate(636.0388 579.9649) rotate(-180)" fill="#6ec2fa"/><rect x="253.7552" y="303.0375" width="78.8198" height="8.7034" transform="translate(586.3301 614.7785) rotate(-180)" fill="#6ec2fa"/><rect x="0.4999" y="17.0006" width="212.5076" height="212.5076" rx="6" fill="url(#b)"/><path d="M207.0073,230.0083H6.5a6.5075,6.5075,0,0,1-6.5-6.5V23.0005a6.5075,6.5075,0,0,1,6.5-6.5H207.0073a6.5075,6.5075,0,0,1,6.5,6.5V223.5083A6.5075,6.5075,0,0,1,207.0073,230.0083ZM6.5,17.5005a5.5066,5.5066,0,0,0-5.5,5.5V223.5083a5.5066,5.5066,0,0,0,5.5,5.5H207.0073a5.5066,5.5066,0,0,0,5.5-5.5V23.0005a5.5066,5.5066,0,0,0-5.5-5.5Z" fill="#0c89db"/><rect x="0.5" y="50.0015" width="212.5073" height="2" fill="#0af"/><rect x="37.4762" width="10.2004" height="34.0012" rx="4.9179" fill="#0af"/><rect x="101.6535" width="10.2004" height="34.0012" rx="4.9179" fill="#0af"/><rect x="165.8308" width="10.2004" height="34.0012" rx="4.9179" fill="#0af"/><rect x="157.7036" y="121.479" width="25.501" height="4" fill="#0c89db"/><rect x="29.8262" y="155.9946" width="76.876" height="4" fill="#0c89db"/><rect x="47.1998" y="80.9775" width="17.0006" height="17.0006" rx="4" fill="#0af"/><rect x="72.7008" y="80.9775" width="17.0006" height="17.0006" rx="4" fill="#0af"/><rect x="98.2017" y="80.9775" width="17.0006" height="17.0006" rx="4" fill="#0af"/><rect x="123.7026" y="80.9775" width="17.0006" height="17.0006" rx="4" fill="#0af"/><rect x="149.2035" y="80.9775" width="17.0006" height="17.0006" rx="4" fill="#0af"/><rect x="174.7044" y="80.9775" width="17.0006" height="17.0006" rx="4" fill="#0af"/><rect x="21.6989" y="114.9787" width="17.0006" height="17.0006" rx="4" fill="#0af"/><rect x="47.1998" y="114.9787" width="17.0006" height="17.0006" rx="4" fill="#0af"/><rect x="72.7008" y="114.9787" width="17.0006" height="17.0006" rx="4" fill="#0af"/><rect x="98.2017" y="114.9787" width="17.0006" height="17.0006" rx="4" fill="#0af"/><rect x="123.7026" y="114.9787" width="17.0006" height="17.0006" rx="4" fill="#0af"/><rect x="149.2035" y="114.9787" width="17.0006" height="17.0006" rx="4" fill="#0af"/><rect x="174.7044" y="114.9787" width="17.0006" height="17.0006" rx="4" fill="#0af"/><rect x="21.6989" y="148.9799" width="17.0006" height="17.0006" rx="4" fill="#0af"/><rect x="47.1998" y="148.9799" width="17.0006" height="17.0006" rx="4" fill="#0af"/><rect x="72.7008" y="148.9799" width="17.0006" height="17.0006" rx="4" fill="#0af"/><rect x="98.2017" y="148.9799" width="17.0006" height="17.0006" rx="4" fill="#0af"/><rect x="123.7026" y="148.9799" width="17.0006" height="17.0006" rx="4" fill="#0af"/><rect x="149.2035" y="148.9799" width="17.0006" height="17.0006" rx="4" fill="#0af"/><rect x="174.7044" y="148.9799" width="17.0006" height="17.0006" rx="4" fill="#0af"/><rect x="21.6989" y="182.9811" width="17.0006" height="17.0006" rx="4" fill="#0af"/><rect x="47.1998" y="182.9811" width="17.0006" height="17.0006" rx="4" fill="#0af"/><rect x="72.7008" y="182.9811" width="17.0006" height="17.0006" rx="4" fill="#0af"/><rect x="98.2017" y="182.9811" width="17.0006" height="17.0006" rx="4" fill="#0af"/><rect x="123.7026" y="182.9811" width="17.0006" height="17.0006" rx="4" fill="#0af"/><rect x="149.2035" y="182.9811" width="17.0006" height="17.0006" rx="4" fill="#0af"/></svg>