<svg xmlns="http://www.w3.org/2000/svg" xmlnsXlink="http://www.w3.org/1999/xlink" width="361.0235" height="249.9516" viewBox="0 0 361.0235 249.9516"><defs><radialGradient id="a" cx="180.5117" cy="124.9758" r="289.9482" gradientTransform="matrix(-1, 0, 0, 1, 361.0235, 0)" gradientUnits="userSpaceOnUse"><stop offset="0" stopColor="#4dc4ff"/><stop offset="1" stopColor="#0c89db"/></radialGradient><radialGradient id="b" cx="204.4977" cy="118.3036" r="230.4245" gradientTransform="translate(-47.9719)" gradientUnits="userSpaceOnUse"><stop offset="0" stopColor="#f7e5ff"/><stop offset="1" stopColor="#e6b3ff"/></radialGradient><radialGradient id="c" cx="285.487" cy="121.0717" r="85.8234" gradientTransform="translate(-209.9505)" gradientUnits="userSpaceOnUse"><stop offset="0" stopColor="#e1f5ff"/><stop offset="1" stopColor="#b3e5ff"/></radialGradient><radialGradient id="d" cx="286.5522" cy="188.456" r="88.8471" gradientTransform="translate(-212.081)" xlink:href="#c"/></defs><title>home-workflow</title><g style="isolation:isolate"><path d="M72.76,26.6662C58.1906,35.1584,15.35,60.13,3.2714,109.55-10.3438,165.2576,20.2365,231.1342,63.55,246.8518c37.6962,13.6791,52.0739-22.5958,117.2092-18.4186,50.979,3.2695,65.8352,27.0077,107.1623,17.5814,7.2913-1.663,42.5118-10.5409,61.1162-40.186,27.3541-43.587,3.0018-106.9126-24.279-141.4881C267.9758-7.6264,149.0036-17.7762,72.76,26.6662Z" fill="url(#a)"/><ellipse cx="284.3406" cy="226.7043" rx="30.8037" ry="4.9003" fill="#58595b" opacity="0.75" style="mix-blend-mode:overlay"/><path d="M260.7889,219.9526c-9.3841-10.916-29.19-37.118-31.0579-72.7916-.4476-8.5487-2.4479-27.36,7.43-44.9791,3.9731-7.0866,10.5838-15.2475,21.6859-19.0775,12.7311-4.3919,28.1585.325,35.911,10.1909,4.0214,5.1178,6.1824,10.0132,7.6521,22.0605,2.5842,21.1841-2.4418,25.614.1119,42.9666,1.4716,10.0025,3.3419,21.7128,12.1324,32.5136a51.1765,51.1765,0,0,0,13.5876,11.6466,9.97,9.97,0,0,1-4.3678,5.8234c-4.9086,2.7965-9.8267-6.5816-17.9549-5.0044-12.2464,2.3762-4.92,10.5931-14.8013,11.7982-9.948,1.2132-9.584-6.6118-17.9549-6.1266C262.592,209.5861,261.6976,217.68,260.7889,219.9526Z" fill="#58595b" opacity="0.15" style="mix-blend-mode:darken"/><rect x="98.5071" y="48.7714" width="122.0372" height="143.0644" rx="2.76" transform="translate(319.0515 240.6072) rotate(-180)" fill="#58595b" opacity="0.1" style="mix-blend-mode:darken"/><rect x="95.5072" y="46.7714" width="122.0372" height="143.0644" rx="2.76" fill="url(#b)"/><rect x="112.8563" y="84.5082" width="14.511" height="14.511" rx="1.0635" fill="#d580ff"/><rect x="130.9066" y="84.5082" width="68.9912" height="4.2471" fill="#e6b3ff"/><rect x="130.9066" y="94.7721" width="51.9838" height="4.2471" fill="#e6b3ff"/><path d="M113.2406,61.8a.3922.3922,0,0,1-.1172-.288V56.139a.5752.5752,0,0,1,.1709-.418.5567.5567,0,0,1,.414-.1757h.2969a.546.546,0,0,1,.3291.1074.6647.6647,0,0,1,.22.2695l2.043,5.0947,2.043-5.0947a.668.668,0,0,1,.2207-.2695.546.546,0,0,1,.3291-.1074h.2969a.5567.5567,0,0,1,.414.1757.5792.5792,0,0,1,.1709.418v5.3731a.3988.3988,0,0,1-.4052.4043.41.41,0,0,1-.293-.1163.3885.3885,0,0,1-.1211-.288V56.4l-2.0791,5.14a.5951.5951,0,0,1-.2295.2734.63.63,0,0,1-.6924,0,.5951.5951,0,0,1-.23-.2734l-2.0791-5.14v5.1123a.386.386,0,0,1-.122.288.41.41,0,0,1-.292.1163A.3938.3938,0,0,1,113.2406,61.8Z" fill="#7700b3"/><path d="M122.0921,61.8a1.2807,1.2807,0,0,1-.5351-.4726,1.2976,1.2976,0,0,1-.1983-.7158,1.2619,1.2619,0,0,1,.5264-1.0616,2.5367,2.5367,0,0,1,1.5439-.3955h1.0889v-.0722a1.0943,1.0943,0,0,0-.293-.8555,1.3433,1.3433,0,0,0-.913-.2607,3.049,3.049,0,0,0-.6075.0537,5.0155,5.0155,0,0,0-.59.1621.5168.5168,0,0,1-.1172.0176.32.32,0,0,1-.2334-.0987.3291.3291,0,0,1-.1-.2431.347.347,0,0,1,.2344-.3418,3.96,3.96,0,0,1,1.5566-.3243,2.0337,2.0337,0,0,1,1.0488.252,1.5827,1.5827,0,0,1,.63.6523,1.9028,1.9028,0,0,1,.2022.8692v2.5469a.3851.3851,0,0,1-.1211.288.41.41,0,0,1-.293.1163.3987.3987,0,0,1-.4043-.4043v-.2344a2.2608,2.2608,0,0,1-1.6924.6836A1.6663,1.6663,0,0,1,122.0921,61.8Zm1.8047-.7519a2.1173,2.1173,0,0,0,.6211-.4815v-.7558h-.9814q-1.3594,0-1.3584.7109a.6651.6651,0,0,0,.22.5215,1.0857,1.0857,0,0,0,.7334.1992A1.6183,1.6183,0,0,0,123.8968,61.0482Z" fill="#7700b3"/><path d="M126.83,61.8a.3926.3926,0,0,1-.1172-.288V57.6507a.41.41,0,0,1,.1172-.2929.387.387,0,0,1,.2881-.1211.4152.4152,0,0,1,.4141.414v.3867a1.7742,1.7742,0,0,1,1.4131-.8457h.0449a.3772.3772,0,0,1,.2832.1172.3989.3989,0,0,1,.1123.2881.3593.3593,0,0,1-.1172.2783.42.42,0,0,1-.2969.1084h-.0449a1.54,1.54,0,0,0-.792.2119,1.8163,1.8163,0,0,0-.6025.58v2.7364a.386.386,0,0,1-.1221.288.4094.4094,0,0,1-.292.1163A.3938.3938,0,0,1,126.83,61.8Z" fill="#7700b3"/><path d="M130.2777,61.8a.3926.3926,0,0,1-.1172-.288V55.67a.4063.4063,0,0,1,.1172-.292.3842.3842,0,0,1,.2881-.1221.4167.4167,0,0,1,.414.4141v3.6816l2.1416-1.98a.4135.4135,0,0,1,.27-.1172.363.363,0,0,1,.3008.1172.43.43,0,0,1,.0947.2793.4421.4421,0,0,1-.1533.3067l-1.2959,1.16,1.6289,2.16a.3922.3922,0,0,1,.0909.2431.3731.3731,0,0,1-.1172.2881.4207.4207,0,0,1-.2969.1075.3983.3983,0,0,1-.1807-.045.4375.4375,0,0,1-.1523-.125L131.763,59.64l-.7832.7109v1.1612a.386.386,0,0,1-.122.288.41.41,0,0,1-.292.1163A.3938.3938,0,0,1,130.2777,61.8Z" fill="#7700b3"/><path d="M135.3216,61.3363a2.4,2.4,0,0,1-.6172-1.76,2.93,2.93,0,0,1,.2344-1.1787,2,2,0,0,1,.72-.873,2.0726,2.0726,0,0,1,1.1973-.3331,2.095,2.095,0,0,1,1.1524.3106,2.014,2.014,0,0,1,.7373.8281,2.5485,2.5485,0,0,1,.2519,1.1289.3931.3931,0,0,1-.4141.4063h-3.0507a1.48,1.48,0,0,0,.4677.98,1.6138,1.6138,0,0,0,1.1075.3516,2.7035,2.7035,0,0,0,.6611-.0723,2.7942,2.7942,0,0,0,.5537-.207.3539.3539,0,0,1,.1621-.0371.3611.3611,0,0,1,.252.1.3277.3277,0,0,1,.1084.252.3881.3881,0,0,1-.2344.333,2.79,2.79,0,0,1-1.5752.3955A2.2925,2.2925,0,0,1,135.3216,61.3363ZM138.1878,59.2a1.4348,1.4348,0,0,0-.23-.7383,1.242,1.242,0,0,0-.5-.4375,1.378,1.378,0,0,0-1.205,0,1.211,1.211,0,0,0-.4951.4375,1.4609,1.4609,0,0,0-.2256.7383Z" fill="#7700b3"/><path d="M140.349,60.7738v-2.79h-.64a.163.163,0,0,1-.1211-.05.1611.1611,0,0,1-.05-.1211.1859.1859,0,0,1,.0811-.1523l1.2236-1.1973a.2285.2285,0,0,1,.1533-.082.16.16,0,0,1,.1221.0547.1839.1839,0,0,1,.0488.126v.72h1.0176a.3391.3391,0,0,1,.3506.3515.3476.3476,0,0,1-.0986.2471.3334.3334,0,0,1-.252.1035h-1.0176v2.7178q0,.3516.167.4453a.83.83,0,0,0,.418.0957,1.2435,1.2435,0,0,0,.36-.0547c.0235-.0058.05-.0117.0762-.0175a.4933.4933,0,0,1,.1035-.01.3174.3174,0,0,1,.2256.0947.3083.3083,0,0,1,.0986.2295.3409.3409,0,0,1-.207.3154,1.7573,1.7573,0,0,1-.7471.1612Q140.3486,61.9613,140.349,60.7738Z" fill="#7700b3"/><path d="M143.5794,56.2113a.44.44,0,0,1-.1357-.3242v-.0362a.4618.4618,0,0,1,.459-.459h.0547a.462.462,0,0,1,.459.459v.0362a.4618.4618,0,0,1-.459.4589h-.0547A.4407.4407,0,0,1,143.5794,56.2113Zm.0538,5.5888a.3922.3922,0,0,1-.1172-.288V57.6507a.41.41,0,0,1,.1172-.2929.3869.3869,0,0,1,.288-.1211.4009.4009,0,0,1,.4141.414v3.8614a.3857.3857,0,0,1-.1221.288.4092.4092,0,0,1-.292.1163A.3938.3938,0,0,1,143.6332,61.8Z" fill="#7700b3"/><path d="M145.8744,61.8a.3922.3922,0,0,1-.1172-.288V57.6507a.41.41,0,0,1,.1172-.2929.3869.3869,0,0,1,.288-.1211.4152.4152,0,0,1,.4141.414V58.02a2.9943,2.9943,0,0,1,.7373-.6035,1.8716,1.8716,0,0,1,.9365-.2247,1.5546,1.5546,0,0,1,.8594.2344,1.5225,1.5225,0,0,1,.5576.6387,2.0379,2.0379,0,0,1,.1944.8906v2.5567a.3857.3857,0,0,1-.1221.288.4094.4094,0,0,1-.292.1163.3988.3988,0,0,1-.4053-.4043V59.0453q0-1.0972-.99-1.0977a1.432,1.432,0,0,0-.8057.2344,2.9381,2.9381,0,0,0-.67.63v2.7a.3857.3857,0,0,1-.1221.288.4092.4092,0,0,1-.292.1163A.3938.3938,0,0,1,145.8744,61.8Z" fill="#7700b3"/><path d="M152.3265,63.8968a3.4657,3.4657,0,0,1-.873-.333.3423.3423,0,0,1-.1621-.3154.3687.3687,0,0,1,.1035-.2559.3349.3349,0,0,1,.2568-.1133.439.439,0,0,1,.1621.0372,3.2815,3.2815,0,0,0,1.4854.3417q1.3768,0,1.3769-1.4667v-.6036a2.032,2.032,0,0,1-1.539.6836,2.1632,2.1632,0,0,1-1.0313-.2656,2.134,2.134,0,0,1-.8232-.791,2.6989,2.6989,0,0,1,0-2.5654,2.1505,2.1505,0,0,1,.8232-.792,2.1736,2.1736,0,0,1,1.0313-.2657,2.0358,2.0358,0,0,1,1.539.6836v-.2246a.4091.4091,0,0,1,.1162-.2929.3887.3887,0,0,1,.2881-.1211.4135.4135,0,0,1,.4141.414v4.0235a2.528,2.528,0,0,1-.5488,1.7461,1.994,1.994,0,0,1-1.5665.6113A4.268,4.268,0,0,1,152.3265,63.8968Zm1.7285-2.9512a2.7583,2.7583,0,0,0,.6211-.4863V58.6048a2.6724,2.6724,0,0,0-.6211-.4853,1.5054,1.5054,0,0,0-.747-.1807,1.53,1.53,0,0,0-1.1026.4092,1.8516,1.8516,0,0,0,0,2.3672,1.67,1.67,0,0,0,1.85.23Z" fill="#7700b3"/><path d="M160.1839,61.6742a2.2194,2.2194,0,0,1-.8769-.8282,2.6112,2.6112,0,0,1,0-2.538,2.2125,2.2125,0,0,1,.8769-.8282,2.718,2.718,0,0,1,2.02-.167,3.2148,3.2148,0,0,1,.6436.3106.3608.3608,0,0,1,.1807.3154.3571.3571,0,0,1-.1036.2471.3134.3134,0,0,1-.2392.1133.397.397,0,0,1-.1973-.0547,3.4881,3.4881,0,0,0-.5088-.2207,1.7631,1.7631,0,0,0-.5263-.0664,1.6316,1.6316,0,0,0-1.2149.4453,1.7828,1.7828,0,0,0,0,2.3486,1.6321,1.6321,0,0,0,1.2149.4463,1.7541,1.7541,0,0,0,.5263-.0684,3.3816,3.3816,0,0,0,.5088-.2207.4174.4174,0,0,1,.1973-.0537.319.319,0,0,1,.2392.1123.3576.3576,0,0,1-.0771.5625,3.012,3.012,0,0,1-.6436.3106,2.4891,2.4891,0,0,1-.8232.1211A2.5468,2.5468,0,0,1,160.1839,61.6742Z" fill="#7700b3"/><path d="M164.4906,61.8a1.2816,1.2816,0,0,1-.5352-.4726,1.2975,1.2975,0,0,1-.1982-.7158,1.2621,1.2621,0,0,1,.5263-1.0616,2.537,2.537,0,0,1,1.544-.3955h1.0889v-.0722a1.0946,1.0946,0,0,0-.293-.8555,1.3435,1.3435,0,0,0-.9131-.2607,3.048,3.048,0,0,0-.6074.0537,5.0166,5.0166,0,0,0-.59.1621.516.516,0,0,1-.1172.0176.32.32,0,0,1-.2334-.0987.3291.3291,0,0,1-.1-.2431.3471.3471,0,0,1,.2344-.3418,3.9607,3.9607,0,0,1,1.5567-.3243,2.0342,2.0342,0,0,1,1.0488.252,1.5839,1.5839,0,0,1,.63.6523,1.904,1.904,0,0,1,.2021.8692v2.5469a.3848.3848,0,0,1-.1211.288.41.41,0,0,1-.2929.1163.3986.3986,0,0,1-.4043-.4043v-.2344a2.2611,2.2611,0,0,1-1.6924.6836A1.6659,1.6659,0,0,1,164.4906,61.8Zm1.8047-.7519a2.1173,2.1173,0,0,0,.6211-.4815v-.7558h-.9815q-1.3593,0-1.3584.7109a.6654.6654,0,0,0,.22.5215,1.0857,1.0857,0,0,0,.7334.1992A1.6184,1.6184,0,0,0,166.2953,61.0482Z" fill="#7700b3"/><path d="M169.2289,61.8a.3922.3922,0,0,1-.1172-.288V57.6507a.41.41,0,0,1,.1172-.2929.3869.3869,0,0,1,.288-.1211.4152.4152,0,0,1,.4141.414V58.02a2.2367,2.2367,0,0,1,.6074-.5938,1.6449,1.6449,0,0,1,.9219-.2344,1.4023,1.4023,0,0,1,.8643.27,1.5087,1.5087,0,0,1,.5127.6582,1.8123,1.8123,0,0,1,1.6562-.9278,1.3675,1.3675,0,0,1,.8418.252,1.5043,1.5043,0,0,1,.499.6484,2.1545,2.1545,0,0,1,.1621.8282v2.5918a.3848.3848,0,0,1-.1211.288.41.41,0,0,1-.2929.1163.3971.3971,0,0,1-.4043-.4043v-2.43a1.4324,1.4324,0,0,0-.2071-.8594.8349.8349,0,0,0-.7109-.2754,1.1921,1.1921,0,0,0-.7607.2383,2.3116,2.3116,0,0,0-.5352.626v2.7a.3857.3857,0,0,1-.1221.288.4092.4092,0,0,1-.292.1163.3988.3988,0,0,1-.4052-.4043v-2.43a1.4324,1.4324,0,0,0-.2071-.8594.8349.8349,0,0,0-.7109-.2754,1.1921,1.1921,0,0,0-.7607.2383,2.3116,2.3116,0,0,0-.5352.626v2.7a.3857.3857,0,0,1-.1221.288.4092.4092,0,0,1-.292.1163A.3938.3938,0,0,1,169.2289,61.8Z" fill="#7700b3"/><path d="M177.4906,63.8656a.4067.4067,0,0,1-.1172-.293V57.6419a.4.4,0,0,1,.4053-.4052.4062.4062,0,0,1,.292.1172.3844.3844,0,0,1,.122.288v.2334a2.07,2.07,0,0,1,1.5391-.6836,2.1159,2.1159,0,0,1,1.0576.2832,2.1524,2.1524,0,0,1,.81.8282,2.7664,2.7664,0,0,1,0,2.5468,2.1455,2.1455,0,0,1-.81.8282,2.1057,2.1057,0,0,1-1.0576.2832,2.0658,2.0658,0,0,1-1.5391-.6836v2.2949a.4009.4009,0,0,1-.414.4141A.3837.3837,0,0,1,177.4906,63.8656Zm3.1953-3.0918a1.975,1.975,0,0,0,0-2.3946,1.4188,1.4188,0,0,0-1.0713-.4218,1.6935,1.6935,0,0,0-.7783.1836,2.2307,2.2307,0,0,0-.6436.49v1.8906a2.2152,2.2152,0,0,0,.6436.49,1.6965,1.6965,0,0,0,.7783.1855A1.4165,1.4165,0,0,0,180.6859,60.7738Z" fill="#7700b3"/><path d="M183.49,61.8a1.2816,1.2816,0,0,1-.5352-.4726,1.2975,1.2975,0,0,1-.1982-.7158,1.2619,1.2619,0,0,1,.5264-1.0616,2.5367,2.5367,0,0,1,1.5439-.3955h1.0889v-.0722a1.0946,1.0946,0,0,0-.293-.8555,1.3434,1.3434,0,0,0-.9131-.2607,3.0487,3.0487,0,0,0-.6074.0537,5.0155,5.0155,0,0,0-.59.1621.5176.5176,0,0,1-.1172.0176.3194.3194,0,0,1-.2334-.0987.3291.3291,0,0,1-.1-.2431.347.347,0,0,1,.2343-.3418,3.9607,3.9607,0,0,1,1.5567-.3243,2.0342,2.0342,0,0,1,1.0488.252,1.5833,1.5833,0,0,1,.63.6523,1.9027,1.9027,0,0,1,.2021.8692v2.5469a.3848.3848,0,0,1-.1211.288.41.41,0,0,1-.2929.1163.3987.3987,0,0,1-.4043-.4043v-.2344a2.2609,2.2609,0,0,1-1.6924.6836A1.6659,1.6659,0,0,1,183.49,61.8Zm1.8047-.7519a2.1173,2.1173,0,0,0,.6211-.4815v-.7558h-.9815q-1.3593,0-1.3584.7109a.6652.6652,0,0,0,.22.5215,1.0855,1.0855,0,0,0,.7334.1992A1.6183,1.6183,0,0,0,185.2943,61.0482Z" fill="#7700b3"/><path d="M188.1742,56.2113a.44.44,0,0,1-.1358-.3242v-.0362a.462.462,0,0,1,.459-.459h.0547a.462.462,0,0,1,.459.459v.0362a.4618.4618,0,0,1-.459.4589h-.0547A.44.44,0,0,1,188.1742,56.2113Zm.0537,5.5888a.3926.3926,0,0,1-.1172-.288V57.6507a.41.41,0,0,1,.1172-.2929.387.387,0,0,1,.2881-.1211.4009.4009,0,0,1,.414.414v3.8614a.386.386,0,0,1-.122.288.41.41,0,0,1-.292.1163A.3938.3938,0,0,1,188.2279,61.8Z" fill="#7700b3"/><path d="M191.4408,63.8968a3.4665,3.4665,0,0,1-.8731-.333.3425.3425,0,0,1-.1621-.3154.3691.3691,0,0,1,.1035-.2559.3351.3351,0,0,1,.2569-.1133.44.44,0,0,1,.1621.0372,3.2808,3.2808,0,0,0,1.4853.3417q1.377,0,1.377-1.4667v-.6036a2.0324,2.0324,0,0,1-1.5391.6836,2.1628,2.1628,0,0,1-1.0312-.2656,2.1342,2.1342,0,0,1-.8233-.791,2.7,2.7,0,0,1,0-2.5654,2.1508,2.1508,0,0,1,.8233-.792,2.1733,2.1733,0,0,1,1.0312-.2657,2.0362,2.0362,0,0,1,1.5391.6836v-.2246a.4091.4091,0,0,1,.1162-.2929.3885.3885,0,0,1,.2881-.1211.4135.4135,0,0,1,.414.414v4.0235A2.528,2.528,0,0,1,194.06,63.42a1.9938,1.9938,0,0,1-1.5664.6113A4.2674,4.2674,0,0,1,191.4408,63.8968Zm1.7285-2.9512a2.7606,2.7606,0,0,0,.6211-.4863V58.6048a2.6745,2.6745,0,0,0-.6211-.4853,1.5055,1.5055,0,0,0-.7471-.1807,1.53,1.53,0,0,0-1.1025.4092,1.8512,1.8512,0,0,0,0,2.3672,1.67,1.67,0,0,0,1.85.23Z" fill="#7700b3"/><path d="M196.1478,61.8a.3926.3926,0,0,1-.1172-.288V57.6507a.41.41,0,0,1,.1172-.2929.387.387,0,0,1,.2881-.1211.415.415,0,0,1,.414.414V58.02a2.9965,2.9965,0,0,1,.7374-.6035,1.8711,1.8711,0,0,1,.9365-.2247,1.5546,1.5546,0,0,1,.8594.2344,1.5231,1.5231,0,0,1,.5576.6387,2.0378,2.0378,0,0,1,.1943.8906v2.5567a.3857.3857,0,0,1-.1221.288.4092.4092,0,0,1-.292.1163.3988.3988,0,0,1-.4052-.4043V59.0453q0-1.0972-.99-1.0977a1.4317,1.4317,0,0,0-.8056.2344,2.9364,2.9364,0,0,0-.67.63v2.7a.386.386,0,0,1-.122.288.4094.4094,0,0,1-.292.1163A.3938.3938,0,0,1,196.1478,61.8Z" fill="#7700b3"/><rect x="112.8563" y="104.0192" width="14.511" height="14.511" rx="1.0635" fill="#d580ff"/><rect x="130.9066" y="104.0192" width="68.9912" height="4.2471" fill="#e6b3ff"/><rect x="130.9066" y="114.283" width="25.9919" height="4.2471" fill="#e6b3ff"/><path d="M113.7367,78.6292a.346.346,0,0,1-.1035-.2558V73.5169a.3588.3588,0,0,1,.1035-.2607.3412.3412,0,0,1,.2558-.1074H115.6a2.8309,2.8309,0,0,1,1.5489.4043,2.6023,2.6023,0,0,1,.9551,1.0429,2.981,2.981,0,0,1,0,2.6885,2.5986,2.5986,0,0,1-.9551,1.044,2.8317,2.8317,0,0,1-1.5489.4043h-1.6074A.3488.3488,0,0,1,113.7367,78.6292Zm1.7754-.5761a2.3853,2.3853,0,0,0,1.1523-.2686,1.92,1.92,0,0,0,.7676-.7431,2.3665,2.3665,0,0,0,0-2.2012,1.9291,1.9291,0,0,0-.7676-.7442,2.3964,2.3964,0,0,0-1.1523-.2675H114.36v4.2246Z" fill="#7700b3"/><path d="M119.8031,78.6683a1.13,1.13,0,0,1-.4746-.42,1.1558,1.1558,0,0,1-.1758-.6358,1.1254,1.1254,0,0,1,.4668-.9443,2.2637,2.2637,0,0,1,1.373-.3516h.9668v-.0644a.9715.9715,0,0,0-.26-.76,1.1979,1.1979,0,0,0-.8125-.2324,2.7156,2.7156,0,0,0-.5391.0488,4.2346,4.2346,0,0,0-.5234.1446.5134.5134,0,0,1-.1055.0156.2853.2853,0,0,1-.207-.0879.2946.2946,0,0,1-.0879-.2168.3075.3075,0,0,1,.207-.3037,3.5167,3.5167,0,0,1,1.3848-.2881,1.7983,1.7983,0,0,1,.9316.2246,1.402,1.402,0,0,1,.5606.58,1.6923,1.6923,0,0,1,.18.7715v2.2636a.3378.3378,0,0,1-.1074.2559.3573.3573,0,0,1-.26.1045.3585.3585,0,0,1-.3614-.36v-.207a2.01,2.01,0,0,1-1.5039.6074A1.4831,1.4831,0,0,1,119.8031,78.6683ZM121.4085,78a1.8585,1.8585,0,0,0,.5508-.4277v-.6719h-.8711c-.8047,0-1.209.211-1.209.6319a.5931.5931,0,0,0,.1973.4638.97.97,0,0,0,.6524.1758A1.4383,1.4383,0,0,0,121.4085,78Z" fill="#7700b3"/><path d="M124.5082,80.5081a.343.343,0,0,1-.1-.248.3653.3653,0,0,1,.0235-.127l.5195-1.3359-1.5039-3.6641a.4077.4077,0,0,1-.0312-.1523.3566.3566,0,0,1,.1035-.26.3388.3388,0,0,1,.2558-.1084.3607.3607,0,0,1,.2051.0635.376.376,0,0,1,.1309.16l1.2324,3.0566,1.2558-3.04a.3489.3489,0,0,1,.336-.24.3388.3388,0,0,1,.2558.1084.3563.3563,0,0,1,.1036.26.3886.3886,0,0,1-.0235.1357l-2.1836,5.2481a.3605.3605,0,0,1-.3359.248A.3225.3225,0,0,1,124.5082,80.5081Z" fill="#7700b3"/><path d="M130.76,78.6371a.3258.3258,0,0,1-.0957-.24.3375.3375,0,0,1,.0957-.2441.3213.3213,0,0,1,.24-.1h.9512V73.9964l-.8164.4a.499.499,0,0,1-.1836.0479.3281.3281,0,0,1-.3437-.3438.3423.3423,0,0,1,.2089-.3281l1.0879-.5674a.4834.4834,0,0,1,.2227-.0566h.168a.38.38,0,0,1,.3847.3838v4.52h.791a.33.33,0,0,1,.2442.1.3347.3347,0,0,1,.1015.2441.3231.3231,0,0,1-.1015.24.3386.3386,0,0,1-.2442.0957H131A.33.33,0,0,1,130.76,78.6371Z" fill="#7700b3"/><rect x="112.8563" y="136.0007" width="14.511" height="14.511" rx="1.0635" fill="#d580ff"/><rect x="130.9066" y="136.0007" width="68.9912" height="4.2471" fill="#e6b3ff"/><rect x="130.9066" y="146.2646" width="38.3623" height="4.2471" fill="#e6b3ff"/><path d="M113.7367,130.1214a.3444.3444,0,0,1-.1035-.2558v-4.8565a.3564.3564,0,0,1,.1035-.26.3384.3384,0,0,1,.2558-.1084H115.6a2.8309,2.8309,0,0,1,1.5489.4043,2.5977,2.5977,0,0,1,.9551,1.0439,2.9789,2.9789,0,0,1,0,2.6875,2.6,2.6,0,0,1-.9551,1.0449,2.8391,2.8391,0,0,1-1.5489.4033h-1.6074A.3449.3449,0,0,1,113.7367,130.1214Zm1.7754-.5761a2.3741,2.3741,0,0,0,1.1523-.2686,1.9071,1.9071,0,0,0,.7676-.7432,2.3645,2.3645,0,0,0,0-2.2,1.9164,1.9164,0,0,0-.7676-.7441,2.385,2.385,0,0,0-1.1523-.2676H114.36v4.2237Z" fill="#7700b3"/><path d="M119.8031,130.1615a1.1435,1.1435,0,0,1-.4746-.42,1.161,1.161,0,0,1-.1758-.6367,1.1222,1.1222,0,0,1,.4668-.9433,2.2566,2.2566,0,0,1,1.373-.3526h.9668v-.0634a.9739.9739,0,0,0-.26-.7608,1.1979,1.1979,0,0,0-.8125-.2314,2.72,2.72,0,0,0-.5391.0478,4.4164,4.4164,0,0,0-.5234.1445.4481.4481,0,0,1-.1055.0157.2853.2853,0,0,1-.207-.0879.294.294,0,0,1-.0879-.2158.3079.3079,0,0,1,.207-.3047,3.5344,3.5344,0,0,1,1.3848-.2881,1.8081,1.8081,0,0,1,.9316.2246,1.4138,1.4138,0,0,1,.5606.58,1.6953,1.6953,0,0,1,.18.7715v2.2646a.3408.3408,0,0,1-.1074.2559.36.36,0,0,1-.26.1035.3568.3568,0,0,1-.3614-.3594v-.208a2.0065,2.0065,0,0,1-1.5039.6074A1.4964,1.4964,0,0,1,119.8031,130.1615Zm1.6054-.668a1.8777,1.8777,0,0,0,.5508-.4287v-.6719h-.8711c-.8047,0-1.209.211-1.209.6319a.5953.5953,0,0,0,.1973.4648.97.97,0,0,0,.6524.1758A1.45,1.45,0,0,0,121.4085,129.4935Z" fill="#7700b3"/><path d="M124.5082,132.0013a.3463.3463,0,0,1-.1-.248.3665.3665,0,0,1,.0235-.128l.5195-1.3359-1.5039-3.6641a.4081.4081,0,0,1-.0312-.1523.3582.3582,0,0,1,.1035-.26.3388.3388,0,0,1,.2558-.1084.3544.3544,0,0,1,.2051.0645.37.37,0,0,1,.1309.16l1.2324,3.0557,1.2558-3.04a.3489.3489,0,0,1,.336-.24.3388.3388,0,0,1,.2558.1084.3579.3579,0,0,1,.1036.26.3894.3894,0,0,1-.0235.1357l-2.1836,5.2481a.3592.3592,0,0,1-.3359.248A.3255.3255,0,0,1,124.5082,132.0013Z" fill="#7700b3"/><path d="M130.223,130.1087a.3962.3962,0,0,1-.1191-.3,1.3221,1.3221,0,0,1,.2441-.7675,2.7593,2.7593,0,0,1,.5918-.62q.3486-.268.916-.6357.4893-.312.7754-.5283a2.3,2.3,0,0,0,.4805-.4717.8865.8865,0,0,0,.1914-.544.9241.9241,0,0,0-.2989-.7246,1.429,1.429,0,0,0-.9648-.2675,3.32,3.32,0,0,0-1.3672.288.3474.3474,0,0,1-.1523.04.2945.2945,0,0,1-.2168-.0879.3047.3047,0,0,1-.0879-.2246.3164.3164,0,0,1,.1758-.2959,3.9283,3.9283,0,0,1,1.7773-.4082,2.1078,2.1078,0,0,1,.9316.2041,1.6362,1.6362,0,0,1,.6641.5723,1.5034,1.5034,0,0,1,.2442.8476,1.5211,1.5211,0,0,1-.2754.876,3.2283,3.2283,0,0,1-.66.708q-.3838.3046-1,.7041-.5625.3765-.8457.6045a1.3612,1.3612,0,0,0-.3945.4678h2.7832a.34.34,0,0,1,.3437.3437.3211.3211,0,0,1-.1.24.3413.3413,0,0,1-.2441.0957h-3.0879A.4173.4173,0,0,1,130.223,130.1087Z" fill="#7700b3"/><rect x="112.8563" y="167.9926" width="14.511" height="14.511" rx="1.0635" fill="#d580ff"/><rect x="130.9066" y="167.9926" width="68.9912" height="4.2471" fill="#e6b3ff"/><rect x="130.9066" y="178.2565" width="60.9107" height="4.2471" fill="#e6b3ff"/><path d="M113.7367,162.1136a.3446.3446,0,0,1-.1035-.2558v-4.8565a.3568.3568,0,0,1,.1035-.26.3388.3388,0,0,1,.2558-.1084H115.6a2.8317,2.8317,0,0,1,1.5489.4043,2.5986,2.5986,0,0,1,.9551,1.044,2.9789,2.9789,0,0,1,0,2.6875,2.6009,2.6009,0,0,1-.9551,1.0449,2.8391,2.8391,0,0,1-1.5489.4033h-1.6074A.3449.3449,0,0,1,113.7367,162.1136Zm1.7754-.5762a2.374,2.374,0,0,0,1.1523-.2685,1.9071,1.9071,0,0,0,.7676-.7432,2.3645,2.3645,0,0,0,0-2.2,1.9157,1.9157,0,0,0-.7676-.7441,2.385,2.385,0,0,0-1.1523-.2676H114.36v4.2236Z" fill="#7700b3"/><path d="M119.8031,162.1537a1.1435,1.1435,0,0,1-.4746-.42,1.161,1.161,0,0,1-.1758-.6367,1.1222,1.1222,0,0,1,.4668-.9433,2.2566,2.2566,0,0,1,1.373-.3526h.9668v-.0635a.9738.9738,0,0,0-.26-.7607,1.1979,1.1979,0,0,0-.8125-.2314,2.72,2.72,0,0,0-.5391.0478,4.4164,4.4164,0,0,0-.5234.1445.4481.4481,0,0,1-.1055.0157.2853.2853,0,0,1-.207-.0879.294.294,0,0,1-.0879-.2158.3079.3079,0,0,1,.207-.3047,3.5344,3.5344,0,0,1,1.3848-.2881,1.8081,1.8081,0,0,1,.9316.2246,1.4138,1.4138,0,0,1,.5606.58,1.6952,1.6952,0,0,1,.18.7714v2.2647a.3408.3408,0,0,1-.1074.2559.36.36,0,0,1-.26.1035.3568.3568,0,0,1-.3614-.3594v-.208a2.0065,2.0065,0,0,1-1.5039.6074A1.4964,1.4964,0,0,1,119.8031,162.1537Zm1.6054-.668a1.8777,1.8777,0,0,0,.5508-.4287v-.6719h-.8711c-.8047,0-1.209.2109-1.209.6318a.5953.5953,0,0,0,.1973.4649.97.97,0,0,0,.6524.1758A1.4513,1.4513,0,0,0,121.4085,161.4857Z" fill="#7700b3"/><path d="M124.5082,163.9935a.3463.3463,0,0,1-.1-.248.3665.3665,0,0,1,.0235-.128l.5195-1.3359-1.5039-3.6641a.4081.4081,0,0,1-.0312-.1523.3582.3582,0,0,1,.1035-.26.3384.3384,0,0,1,.2558-.1084.3544.3544,0,0,1,.2051.0645.37.37,0,0,1,.1309.16l1.2324,3.0557,1.2558-3.04a.3489.3489,0,0,1,.336-.24.3384.3384,0,0,1,.2558.1084.3579.3579,0,0,1,.1036.26.3894.3894,0,0,1-.0235.1357l-2.1836,5.2481a.3592.3592,0,0,1-.3359.248A.3255.3255,0,0,1,124.5082,163.9935Z" fill="#7700b3"/><path d="M130.264,161.9769a.3455.3455,0,0,1-.1523-.1152.3108.3108,0,0,1-.0567-.1885.3316.3316,0,0,1,.0938-.2354.2926.2926,0,0,1,.2265-.1005.403.403,0,0,1,.1524.0322,3.3862,3.3862,0,0,0,1.2715.2314,2.442,2.442,0,0,0,1.0527-.2031.704.704,0,0,0,.4277-.6846q0-1.0077-1.7675-1.0078h-.1289a.336.336,0,0,1,0-.6719h.0488a2.4885,2.4885,0,0,0,1.2246-.2441.7892.7892,0,0,0,.4238-.7236.7055.7055,0,0,0-.32-.6084,1.6411,1.6411,0,0,0-.9434-.2237,2.9061,2.9061,0,0,0-1.24.2637.3975.3975,0,0,1-.1445.0322.2945.2945,0,0,1-.209-.084.282.282,0,0,1-.0879-.2119.2925.2925,0,0,1,.16-.2724,3.3442,3.3442,0,0,1,1.5839-.4082,2.3482,2.3482,0,0,1,1.4239.3759,1.25,1.25,0,0,1,.5039,1.0645,1.2774,1.2774,0,0,1-.2754.8682,1.6494,1.6494,0,0,1-.6914.4677,1.76,1.76,0,0,1,.8125.4356,1.2914,1.2914,0,0,1,.3555.9883,1.3065,1.3065,0,0,1-.58,1.14,2.5548,2.5548,0,0,1-1.4922.4043A4.3668,4.3668,0,0,1,130.264,161.9769Z" fill="#7700b3"/><rect x="95.5072" y="68.5892" width="122.0371" height="1" fill="#d580ff"/><rect x="48.5287" y="106.0192" width="58.0155" height="34.1051" rx="2.76" transform="translate(155.073 246.1435) rotate(-180)" fill="#58595b" opacity="0.1" style="mix-blend-mode:darken"/><rect x="46.5287" y="104.0192" width="58.0155" height="34.1051" rx="2.76" fill="url(#c)"/><rect x="54.3642" y="108.1511" width="42.3446" height="4.2471" fill="#b3e5ff"/><rect x="85.7198" y="115.1511" width="10.989" height="4.2471" fill="#b3e5ff"/><path d="M74.0862,129.38c-6.375,0-13.15-1.5439-13.15-4.4043s6.7754-4.4043,13.15-4.4043,13.1514,1.544,13.1514,4.4043S80.4612,129.38,74.0862,129.38Zm0-7.8086c-7.16,0-12.15,1.794-12.15,3.4043s4.99,3.4043,12.15,3.4043,12.1514-1.7939,12.1514-3.4043S81.2473,121.5716,74.0862,121.5716Z" fill="#81d5ff"/><path d="M74.0862,135.38c-6.375,0-13.15-1.5439-13.15-4.4043v-6h1v6c0,1.61,4.99,3.4043,12.15,3.4043s12.1514-1.7939,12.1514-3.4043v-6h1v6C87.2376,133.8363,80.4612,135.38,74.0862,135.38Z" fill="#81d5ff"/><polygon points="65.825 128.357 65.499 127.411 73.731 124.57 75.593 120.848 76.488 121.295 74.442 125.382 65.825 128.357" fill="#81d5ff"/><rect x="77.6887" y="122.0986" width="0.999" height="8.7254" transform="translate(-67.3383 156.9224) rotate(-70.0947)" fill="#81d5ff"/><rect x="65.1624" y="127.8841" width="1" height="5.9531" fill="#81d5ff"/><rect x="81.7903" y="127.9466" width="1" height="6.1094" fill="#81d5ff"/><rect x="41.7866" y="166.0192" width="68.9475" height="48.8736" rx="2.76" transform="translate(152.5208 380.912) rotate(-180)" fill="#58595b" opacity="0.1" style="mix-blend-mode:darken"/><rect x="39.9975" y="164.0192" width="68.9475" height="48.8736" rx="2.76" fill="url(#d)"/><polygon points="102.882 207.093 45.638 207.093 45.638 182.788 46.638 182.788 46.638 206.093 102.882 206.093 102.882 207.093" fill="#81d5ff"/><polygon points="50.631 202.796 49.972 202.042 59.105 194.077 68.245 199.464 78.471 191.776 86.714 196.429 101.612 185.963 102.186 186.782 86.772 197.611 78.549 192.969 68.311 200.665 59.218 195.306 50.631 202.796" fill="#81d5ff"/><path d="M99.0658,194.229a.5.5,0,0,1-.2715-.6531l2.9178-7.0719-7.6424.3468a.5.5,0,0,1-.0454-.9991l8.4265-.3822a.5.5,0,0,1,.4851.69l-3.217,7.7976a.5.5,0,0,1-.6531.2715Z" fill="#81d5ff"/><circle cx="59.0969" cy="194.6912" r="2" fill="#81d5ff"/><circle cx="50.3014" cy="202.4191" r="2" fill="#81d5ff"/><circle cx="68.3014" cy="200.0707" r="2" fill="#81d5ff"/><circle cx="78.6037" cy="192.6912" r="2" fill="#81d5ff"/><circle cx="86.8362" cy="197.0201" r="2" fill="#81d5ff"/><rect x="53.299" y="168.9611" width="42.3446" height="4.2471" fill="#b3e5ff"/><rect x="84.6071" y="176.2083" width="10.989" height="4.2471" fill="#b3e5ff"/><path d="M255.7889,216.9526c-9.3841-10.916-29.19-37.118-31.0579-72.7916-.4476-8.5487-2.4479-27.36,7.43-44.9791,3.9731-7.0866,10.5838-15.2475,21.6859-19.0775,12.7311-4.3919,28.1585.325,35.911,10.1909,4.0214,5.1178,6.1824,10.0132,7.6521,22.0605,2.5842,21.1841-2.4418,25.614.1119,42.9666,1.4716,10.0025,3.3419,21.7128,12.1324,32.5136a51.1765,51.1765,0,0,0,13.5876,11.6466,9.97,9.97,0,0,1-4.3678,5.8234c-4.9086,2.7965-9.8267-6.5816-17.9549-5.0044-12.2464,2.3762-4.92,10.5931-14.8013,11.7982-9.948,1.2132-9.584-6.6118-17.9549-6.1266C257.592,206.5861,256.6976,214.68,255.7889,216.9526Z" fill="#fff" opacity="0.95"/><circle cx="271.5862" cy="109.0375" r="3.9691" fill="#58595b"/><circle cx="249.5676" cy="107.6081" r="3.9691" fill="#58595b"/><ellipse cx="260.0866" cy="116.6667" rx="3.9691" ry="3.2564" transform="translate(117.4959 363.4946) rotate(-84.1448)" fill="#58595b"/><g opacity="0.9"><path d="M286.0782,152.9819s-6.5521,6.3479-10.7819,9.134c-3.7,2.4372-7.7546,1.8695-8.6841-1.0766s4.1776-8.0191,7.4943-11.356a40.1268,40.1268,0,0,1,4.8913-4.4093" fill="#fff"/><path d="M270.6645,164.1458a9.1136,9.1136,0,0,0,4.9072-1.6123c4.22-2.78,10.586-8.9316,10.8545-9.1923l-.6953-.7188c-.0654.0635-6.5683,6.3477-10.71,9.0752a7.0719,7.0719,0,0,1-5.9512,1.19,3.0552,3.0552,0,0,1-1.9815-1.9981c-.8232-2.6113,4.209-7.6719,7.2159-10.6953l.1572-.1582a40.6862,40.6862,0,0,1,4.8183-4.3486l-.5634-.8262a40.3282,40.3282,0,0,0-4.9639,4.47l-.1572.1582c-3.5723,3.5928-8.4658,8.5127-7.46,11.7012a4.07,4.07,0,0,0,2.6,2.64A5.7734,5.7734,0,0,0,270.6645,164.1458Z" fill="#a6a8ab"/></g><g opacity="0.9"><path d="M226.2491,135.3855a97.8545,97.8545,0,0,0-9.8974.2093c-5.5793.4-8.6809,1.093-8.2385,4.4418s3.9251,3.5731,9.0355,4.0965,13.3026,1.02,13.3026,1.02" fill="#fff"/><path d="M230.4213,145.6517l.0606-.998c-.082-.0049-8.24-.502-13.2822-1.0176l-.5684-.0586c-5.166-.5235-7.665-.8955-8.0225-3.6065a2.4846,2.4846,0,0,1,.43-1.9892c.9805-1.2031,3.5391-1.6143,7.35-1.8877a97.9331,97.9331,0,0,1,9.8409-.209l.041-1c-.0449,0-4.52-.1777-9.9541.2109-4.1807.3008-6.8389.7657-8.0528,2.2539a3.4274,3.4274,0,0,0-.6464,2.752c.4775,3.6152,4.0166,3.9736,8.914,4.4707l.5674.0576C222.16,145.1488,230.3393,145.6468,230.4213,145.6517Z" fill="#a6a8ab"/></g></g></svg>