<svg xmlns="http://www.w3.org/2000/svg" xmlnsXlink="http://www.w3.org/1999/xlink" width="1440" height="1005.4051" viewBox="0 0 1440 1005.4051"><defs><radialGradient id="a" cx="720" cy="502.7025" r="1214.8393" gradientUnits="userSpaceOnUse"><stop offset="0" stopColor="#4dc4ff"/><stop offset="1" stopColor="#0c89db"/></radialGradient><radialGradient id="b" cx="1208.2176" cy="419.3698" r="226.7554" gradientUnits="userSpaceOnUse"><stop offset="0" stopColor="#e1f5ff"/><stop offset="1" stopColor="#b3e5ff"/></radialGradient><radialGradient id="c" cx="439.7856" cy="771.7566" r="205.0765" gradientUnits="userSpaceOnUse"><stop offset="0" stopColor="#f7e5ff"/><stop offset="1" stopColor="#e6b3ff"/></radialGradient><radialGradient id="d" cx="731.7749" cy="790.2141" r="284.126" xlink:href="#c"/><radialGradient id="e" cx="299.1087" cy="335.6491" r="159.7589" xlink:href="#c"/><radialGradient id="f" cx="564.3924" cy="514.3678" r="291.942" xlink:href="#b"/><radialGradient id="g" cx="808.3906" cy="464.0229" r="265.2119" xlink:href="#b"/><radialGradient id="h" cx="413.0743" cy="499.5106" r="190.2054" xlink:href="#c"/></defs><title>home-main</title><g style="isolation:isolate"><path d="M1440,867.42c-166.2521-10.7877-216.9881-1.8151-219.88,12.9341-2.043,10.4176,20.6815,19.13,18.1079,31.042-4.4679,20.6781-78.4766,19.9972-175.9041,23.2814-87.8541,2.9615-149.8658-4.9695-152.6228,7.7605-2.22,10.2506,36.588,19.6919,35.3535,32.7664-2.1437,22.7028-114.6037,30.665-225.0542,30.18-112.0166.4853-222.91-7.4769-225.0542-30.18-1.2345-13.0745,37.5735-22.5158,35.3535-32.7664-2.757-12.73-64.7687-4.799-152.6228-7.7605-97.4275-3.2842-171.4362-2.6033-175.9041-23.2814-2.5736-11.9117,20.1509-20.6244,18.1079-31.042C216.9881,865.6051,166.2521,856.6325,0,867.42V0H1440Z" fill="url(#a)"/><path d="M0,867.42c166.2521-10.7877,216.9881-1.8151,219.88,12.9341,2.043,10.4176-20.6815,19.13-18.1079,31.042,4.4679,20.6781,78.4766,19.9972,175.9041,23.2814,87.8541,2.9615,149.8658-4.9695,152.6228,7.7605,2.22,10.2506-36.588,19.6919-35.3535,32.7664,2.1437,22.7028,113.0376,30.665,225.0542,30.18,110.4505.4853,222.91-7.4769,225.0542-30.18,1.2345-13.0745-37.5735-22.5158-35.3535-32.7664,2.757-12.73,64.7687-4.799,152.6228-7.7605,97.4275-3.2842,171.4362-2.6033,175.9041-23.2814,2.5736-11.9117-20.1509-20.6244-18.1079-31.042,2.8922-14.7492,53.6282-23.7218,219.88-12.9341V596.5765H0Z" fill="#fff" opacity="0.15"/><path d="M355.8036,512.989c-3.8822-.3309-7.489-.484-10.5141-.5465.2631-46.43-12.9266-62.6324-16.9707-67.1958-16.363-18.468-46.8634-31.8919-73.7247-21.9884-21.7729,8.0276-32.0426,28.0217-34.9224,33.629-8.3156,16.1907-8.6686,31.9764-9.0533,49.15-.1375,6.1538.0679,11.2355.3768,15.6533a103.3545,103.3545,0,0,0-11.5863,7.6282c-6.951,5.54-9.0545,14.6587-4.7428,19.4012,3.0608,3.3666,10.2477,1.2976,17.0911-1.5723a40.4886,40.4886,0,0,1-2.4322,8.0392c-4.2262,10.2941-10.823,17.0805-18.1078,24.5751a127.4381,127.4381,0,0,1-31.0424,23.2812s0,17.6768,13.5806,23.9282c11.3,5.2019,24.4026-13.05,38.8024-8.407,12.9571,4.1771,11.1784,21.1319,23.9284,24.5746,11.7566,3.1745,21.808-13.0734,40.567-9.6871,20.2238,3.6515,12.0321,21.3279,29.2778,21.3279,26.9818-48.7174,35.4473-91.615,37.9712-120.9635,3.4619-.3222,6.9725-.6783,9.9478-1.04,9.962-1.213,16.7512-1.7327,17.614-9.493S366.68,513.9163,355.8036,512.989Z" fill="#58595b"/><path d="M969.8513,764.0729c-25.0441-12.7421-36.4-35.0078-41.3891-45.27-18.6023-38.2626-2.8469-60.1323-20.3709-83.4251-14.5537-19.3448-42.6054-26.0695-68.2277-18.1078-28.845,8.9631-39.0174,38.93-41.3891,45.9163-7.1733,21.131-4.1629,41.3163,2.4237,60.5665-5.9959,2.4364-13.5766,5.7843-18.1661,8.8253-7.4092,4.9094-10.3025,13.8092-6.4231,18.9113s16.8626.1838,25.3626-2.9641c3.1185-1.1547,5.824-2.185,8.0147-3.0314,1.841,4.0818,3.7312,8.12,5.6027,12.1114,10.1023,21.5426,30.282,56.767,69.8436,90.5392,6.3026-25.499,16.4066-30.0452,23.7921-32.6084,16.6855-5.7917,23.3344,7.4022,38.22,2.2093,13.9042-4.85.4837-18.0742,22.7946-28.4214,9.7165-4.506,19.4035,5.1595,28.0438,1.91,6.8639-2.5816,9.8647-11.4443,11.3176-18.1079A85.9213,85.9213,0,0,1,969.8513,764.0729Z" fill="#58595b"/><ellipse cx="1076.7646" cy="644.114" rx="64.0973" ry="11.3557" fill="#58595b" style="mix-blend-mode:overlay"/><ellipse cx="955.2516" cy="865.8807" rx="70.3878" ry="11.3557" fill="#58595b" style="mix-blend-mode:overlay"/><ellipse cx="227.9982" cy="701.3174" rx="83.6765" ry="11.3557" fill="#58595b" style="mix-blend-mode:overlay"/><path d="M1022.2355,587.4142c-16.6742-19.3965-51.867-65.954-55.1857-129.3413-.7955-15.19-4.35-48.6152,13.2026-79.9222,7.06-12.5921,18.806-27.0928,38.5331-33.8982,22.6215-7.804,50.0339.5773,63.8091,18.1078,7.1456,9.0938,8.5974,19.9826,11.209,41.3892,4.5917,37.6415-1.9508,43.3223,2.5866,74.1557,2.615,17.7732,5.9383,38.5808,21.5579,57.7725a90.9383,90.9383,0,0,0,24.1434,20.6946c-2.3049,6.8735-6.2766,9.5014-7.7611,10.3473-8.7218,4.9691-17.4607-11.6946-31.9035-8.8922-21.76,4.2222-8.7413,18.8227-26.3,20.964-17.6762,2.1557-17.03-11.7485-31.9034-10.8862C1025.44,568.9942,1023.85,583.3765,1022.2355,587.4142Z" fill="#58595b" opacity="0.15" style="mix-blend-mode:darken"/><path d="M297.0616,659.4142c31.4893-56.8567,37.767-105.8048,38.8024-134.515,1.8919-52.4807-12.5509-70.206-16.8145-75.0179-16.3631-18.4678-46.8634-31.8917-73.7248-21.9881-21.7728,8.0275-32.0426,28.0217-34.9223,33.6288-8.3156,16.1908-8.6687,31.9764-9.0534,49.15-.5918,26.4509,5.0636,33.6668-1.2933,49.15-4.2263,10.2941-10.8231,17.08-18.1079,24.5748a127.4365,127.4365,0,0,1-31.0423,23.2815s0,17.6766,13.5806,23.9281c11.3,5.2018,24.4025-13.05,38.8024-8.4072,12.9571,4.1773,11.1783,21.1322,23.9284,24.5749,11.7566,3.1745,21.8077-13.0736,40.5666-9.687C288.0074,641.7376,279.8157,659.4142,297.0616,659.4142Z" fill="#58595b" opacity="0.15" style="mix-blend-mode:darken"/><rect x="436.1571" y="356.6474" width="519.0899" height="324.4318" rx="13.9042" fill="#58595b" opacity="0.1" style="mix-blend-mode:darken"/><rect x="225.3499" y="301.4267" width="156.7869" height="77.7143" rx="4.434" fill="#58595b" opacity="0.1" style="mix-blend-mode:darken"/><rect x="374.2375" y="731.5272" width="140.3657" height="89.7283" rx="4.434" fill="#58595b" opacity="0.1" style="mix-blend-mode:darken"/><path d="M806.209,757.1729H675.88a4.4989,4.4989,0,0,0-4.499,4.4989l-6.9521,75.6236a4.4989,4.4989,0,0,0,4.4989,4.4989H813.1611a4.4989,4.4989,0,0,0,4.499-4.4989l-6.9521-75.6236A4.4989,4.4989,0,0,0,806.209,757.1729Z" fill="#58595b" opacity="0.1" style="mix-blend-mode:darken"/><rect x="1108.7326" y="361.0809" width="208.2395" height="125.8473" rx="6.3959" fill="#58595b" opacity="0.1" style="mix-blend-mode:darken"/><rect x="429.205" y="352.0126" width="519.0899" height="324.4318" rx="13.9042" fill="#e1f5ff"/><circle cx="457.5733" cy="371.884" r="6.3728" fill="#24b7ff"/><circle cx="477.3232" cy="371.884" r="6.3728" fill="#4dc4ff"/><circle cx="497.0209" cy="371.884" r="6.3728" fill="#81d5ff"/><rect x="708.9056" y="545.4855" width="208.2395" height="86.7855" rx="6.3959" fill="#58595b" opacity="0.1" style="mix-blend-mode:darken"/><rect x="704.2709" y="540.8508" width="208.2395" height="86.7855" rx="6.3959" fill="#b3e5ff"/><path d="M710.6243,628.7964a7.5429,7.5429,0,0,1-7.468-6.762l2.3038-.24a5.2276,5.2276,0,0,0,5.1778,4.6846Zm186.7837-.0022h-9.3374v-2.3174h9.3374Zm-18.677,0h-9.34v-2.3174h9.34Zm-18.677,0h-9.34v-2.3174h9.34Zm-18.6793,0h-9.3374v-2.3174h9.3374Zm-18.677,0h-9.34v-2.3174h9.34Zm-18.677,0h-9.34v-2.3174h9.34Zm-18.6793,0h-9.3373v-2.3174h9.3373Zm-18.677,0h-9.34v-2.3174h9.34Zm-18.677,0h-9.34v-2.3174h9.34Zm-18.6793,0h-9.3373v-2.3174h9.3373Zm177.5527-.0362-.2263-2.3084a5.2284,5.2284,0,0,0,4.7185-5.1484l2.3173.0271A7.5442,7.5442,0,0,1,906.8608,628.758Zm-201.43-16.1809h-2.3173v-9.34h2.3173Zm208.2375-.5974h-2.3174v-9.34h2.3174ZM705.4306,593.8978h-2.3173v-9.3373h2.3173ZM913.6681,593.3h-2.3174V583.963h2.3174Zm-208.2375-18.08h-2.3173v-9.34h2.3173Zm208.2375-.5974h-2.3174v-9.34h2.3174Zm-208.2375-18.08h-2.3173v-9.2966l2.3173-.043Zm208.2375-.5974h-2.3174v-8.6992a5.1555,5.1555,0,0,0-.0272-.53l2.3084-.2218c.0226.249.0362.5.0362.7514ZM710.131,542.0376l-.2625-2.3038a7.1237,7.1237,0,0,1,.7988-.043h8.67v2.3174h-8.67A4.6634,4.6634,0,0,0,710.131,542.0376Zm196.0554-.0294h-9.4121v-2.3174h9.34Zm-18.7494,0h-9.34v-2.3174h9.34Zm-18.6793,0H859.42v-2.3174h9.3374Zm-18.677,0h-9.34v-2.3174h9.34Zm-18.677,0h-9.34v-2.3174h9.34Zm-18.6793,0H803.387v-2.3174h9.3374Zm-18.677,0h-9.34v-2.3174h9.34Zm-18.677,0h-9.34v-2.3174h9.34Zm-18.6793,0h-9.3373v-2.3174h9.3373Zm-18.677,0h-9.34v-2.3174h9.34Z" fill="#81d5ff"/><rect x="1104.0979" y="356.4462" width="208.2395" height="125.8473" rx="6.3959" fill="url(#b)"/><path d="M1141.1845,377.914a.6076.6076,0,0,1-.1811-.4459V369.17a.8938.8938,0,0,1,.2648-.6472.8555.8555,0,0,1,.6382-.2716h.4594a.8409.8409,0,0,1,.5069.1675,1.0131,1.0131,0,0,1,.3417.4164l3.157,7.8709,3.1547-7.8709a1.0139,1.0139,0,0,1,.3417-.4164.8414.8414,0,0,1,.507-.1675h.4594a.8551.8551,0,0,1,.6381.2716.8934.8934,0,0,1,.2648.6472v8.2986a.6181.6181,0,0,1-.6246.6269.6308.6308,0,0,1-.4526-.181.5964.5964,0,0,1-.1878-.4459v-7.8958l-3.2113,7.9388a.9238.9238,0,0,1-.3553.4232.9716.9716,0,0,1-1.07,0,.9226.9226,0,0,1-.3553-.4232l-3.2113-7.9388v7.8958a.5965.5965,0,0,1-.1879.4459.63.63,0,0,1-.4526.181A.6061.6061,0,0,1,1141.1845,377.914Z" fill="#0d57a4"/><path d="M1154.8579,377.914a1.9832,1.9832,0,0,1-.826-.7287,2.0229,2.0229,0,0,1-.3056-1.1067,1.9453,1.9453,0,0,1,.8125-1.6407,3.9336,3.9336,0,0,1,2.3852-.611h1.6815v-.1109a1.6857,1.6857,0,0,0-.4526-1.3216,2.0732,2.0732,0,0,0-1.41-.4029,4.67,4.67,0,0,0-.9392.0838,7.5706,7.5706,0,0,0-.91.2489.8147.8147,0,0,1-.1811.0272.4925.4925,0,0,1-.3621-.1517.5085.5085,0,0,1-.1516-.3756.534.534,0,0,1,.36-.5273,6.099,6.099,0,0,1,2.4057-.5024,3.1577,3.1577,0,0,1,1.62.3892,2.4635,2.4635,0,0,1,.9731,1.0093,2.9346,2.9346,0,0,1,.3123,1.342v3.9332a.5885.5885,0,0,1-.1878.4459.6293.6293,0,0,1-.45.181.6182.6182,0,0,1-.6269-.6269v-.36a3.4943,3.4943,0,0,1-2.6138,1.0569A2.5842,2.5842,0,0,1,1154.8579,377.914Zm2.7881-1.161a3.2589,3.2589,0,0,0,.9595-.7445v-1.1678h-1.5163q-2.0977,0-2.0978,1.1a1.0329,1.0329,0,0,0,.3394.8056,1.6909,1.6909,0,0,0,1.1338.3055A2.5145,2.5145,0,0,0,1157.646,376.753Z" fill="#0d57a4"/><path d="M1162.1789,377.914a.6076.6076,0,0,1-.1811-.4459V371.505a.63.63,0,0,1,.1811-.4526.5963.5963,0,0,1,.4458-.1879.6376.6376,0,0,1,.6382.64v.5974a2.7453,2.7453,0,0,1,2.1838-1.308h.07a.58.58,0,0,1,.4367.181.6144.6144,0,0,1,.1743.4458.5585.5585,0,0,1-.1811.43.65.65,0,0,1-.4571.1675h-.07a2.3775,2.3775,0,0,0-1.2244.3259,2.8458,2.8458,0,0,0-.9323.8984v4.2251a.5945.5945,0,0,1-.1856.4459.6344.6344,0,0,1-.4526.181A.6076.6076,0,0,1,1162.1789,377.914Z" fill="#0d57a4"/><path d="M1167.5038,377.914a.6079.6079,0,0,1-.181-.4459v-9.0228a.6344.6344,0,0,1,.181-.4526.5964.5964,0,0,1,.4459-.1878.6373.6373,0,0,1,.6381.64v5.6871l3.3109-3.06a.6417.6417,0,0,1,.4164-.181.5672.5672,0,0,1,.4662.181.6694.6694,0,0,1,.1448.4323.6809.6809,0,0,1-.2353.473l-2.0028,1.7923,2.5165,3.338a.606.606,0,0,1,.14.3757.5746.5746,0,0,1-.1811.4435.6521.6521,0,0,1-.4594.1675.6031.6031,0,0,1-.2783-.07.65.65,0,0,1-.2354-.1946l-2.392-3.252-1.2108,1.0976v1.7923a.5947.5947,0,0,1-.1855.4459.6346.6346,0,0,1-.4526.181A.6079.6079,0,0,1,1167.5038,377.914Z" fill="#0d57a4"/><path d="M1175.2978,377.1988a3.7037,3.7037,0,0,1-.9527-2.7179,4.5083,4.5083,0,0,1,.362-1.8218,3.079,3.079,0,0,1,1.1112-1.3487,3.1883,3.1883,0,0,1,1.8489-.516,3.245,3.245,0,0,1,1.781.48,3.1184,3.1184,0,0,1,1.1406,1.2809,3.946,3.946,0,0,1,.3893,1.7449.6085.6085,0,0,1-.64.6246h-4.7139a2.2829,2.2829,0,0,0,.7242,1.5162,2.4846,2.4846,0,0,0,1.7086.5409,4.1628,4.1628,0,0,0,1.0229-.1109,4.21,4.21,0,0,0,.8554-.3191.5716.5716,0,0,1,.6382.0973.4976.4976,0,0,1,.1674.3893.5979.5979,0,0,1-.362.5137,4.345,4.345,0,0,1-2.4328.6133A3.5511,3.5511,0,0,1,1175.2978,377.1988Zm4.4288-3.304a2.2435,2.2435,0,0,0-.3553-1.1383,1.9078,1.9078,0,0,0-.7717-.6744,2.1041,2.1041,0,0,0-1.8625,0,1.8622,1.8622,0,0,0-.7649.6744,2.262,2.262,0,0,0-.3485,1.1383Z" fill="#0d57a4"/><path d="M1183.0646,376.33v-4.3111h-.9889a.2627.2627,0,0,1-.2626-.2648.2883.2883,0,0,1,.1245-.2353l1.8919-1.849a.3461.3461,0,0,1,.2354-.1267.2505.2505,0,0,1,.1878.0837.29.29,0,0,1,.077.1947v1.1134H1185.9a.5256.5256,0,0,1,.3893.1516.5606.5606,0,0,1,0,.7717.5076.5076,0,0,1-.3893.1607H1184.33v4.2c0,.36.086.5907.2557.688a1.2984,1.2984,0,0,0,.6472.1448,1.8972,1.8972,0,0,0,.5567-.0837c.0362-.0091.077-.0181.1177-.0272a.7921.7921,0,0,1,.1607-.0135.4867.4867,0,0,1,.3462.1448.4762.4762,0,0,1,.1539.3553.526.526,0,0,1-.3191.4866,2.7175,2.7175,0,0,1-1.1541.2512Q1183.0646,378.1652,1183.0646,376.33Z" fill="#0d57a4"/><path d="M1188.0546,369.28a.6889.6889,0,0,1-.2082-.5024v-.0543a.7108.7108,0,0,1,.7106-.7084h.0815a.7108.7108,0,0,1,.7106.7084v.0543a.7108.7108,0,0,1-.7106.7106h-.0815A.6928.6928,0,0,1,1188.0546,369.28Zm.0838,8.6336a.6076.6076,0,0,1-.1811-.4459V371.505a.63.63,0,0,1,.1811-.4526.5963.5963,0,0,1,.4458-.1879.616.616,0,0,1,.6382.64v5.9631a.5945.5945,0,0,1-.1856.4459.6344.6344,0,0,1-.4526.181A.6076.6076,0,0,1,1188.1384,377.914Z" fill="#0d57a4"/><path d="M1191.6009,377.914a.6076.6076,0,0,1-.1811-.4459V371.505a.63.63,0,0,1,.1811-.4526.5963.5963,0,0,1,.4458-.1879.6376.6376,0,0,1,.6382.64v.57a4.6306,4.6306,0,0,1,1.14-.9324,2.8927,2.8927,0,0,1,1.4461-.3485,2.418,2.418,0,0,1,1.3285.3621,2.3585,2.3585,0,0,1,.8622.9867,3.16,3.16,0,0,1,.2987,1.3782v3.9467a.5968.5968,0,0,1-.1878.4459.6308.6308,0,0,1-.4526.181.6181.6181,0,0,1-.6246-.6269v-3.8087q0-1.6973-1.53-1.6973a2.2231,2.2231,0,0,0-1.2447.3621,4.5622,4.5622,0,0,0-1.0364.9731v4.1708a.5945.5945,0,0,1-.1856.4459.6344.6344,0,0,1-.4526.181A.6076.6076,0,0,1,1191.6009,377.914Z" fill="#0d57a4"/><path d="M1201.57,381.1547a5.3576,5.3576,0,0,1-1.3488-.516.5257.5257,0,0,1-.2512-.4866.5719.5719,0,0,1,.1607-.396.5168.5168,0,0,1,.3961-.1743.7078.7078,0,0,1,.2512.0566,5.0416,5.0416,0,0,0,2.2924.5273q2.1285,0,2.1273-2.2653v-.9324a3.1286,3.1286,0,0,1-2.3762,1.0568,3.35,3.35,0,0,1-2.865-1.6339,4.1741,4.1741,0,0,1,0-3.9626,3.3171,3.3171,0,0,1,1.2718-1.222,3.3553,3.3553,0,0,1,1.5932-.4119,3.1366,3.1366,0,0,1,2.3762,1.0568v-.3462a.6306.6306,0,0,1,.181-.4526.5967.5967,0,0,1,.4459-.1879.6376.6376,0,0,1,.6382.64v6.2143a3.9174,3.9174,0,0,1-.8464,2.6976,3.0813,3.0813,0,0,1-2.4192.946A6.62,6.62,0,0,1,1201.57,381.1547Zm2.6682-4.5624a4.0822,4.0822,0,0,0,.9595-.749v-2.8651a4.1561,4.1561,0,0,0-.9595-.7513,2.33,2.33,0,0,0-1.1542-.2784,2.36,2.36,0,0,0-1.7018.6337,2.86,2.86,0,0,0,0,3.6571,2.3586,2.3586,0,0,0,1.7018.6314A2.33,2.33,0,0,0,1204.2378,376.5923Z" fill="#0d57a4"/><path d="M1213.7064,377.7193a3.4231,3.4231,0,0,1-1.3556-1.2786,4.0464,4.0464,0,0,1,0-3.9219,3.4238,3.4238,0,0,1,1.3556-1.2786,4.1932,4.1932,0,0,1,3.123-.258,4.9153,4.9153,0,0,1,.9935.48.5522.5522,0,0,1,.1177.869.4811.4811,0,0,1-.3689.1743.6223.6223,0,0,1-.3055-.0838,5.2609,5.2609,0,0,0-.7853-.3394,2.6839,2.6839,0,0,0-.8124-.1041,2.5212,2.5212,0,0,0-1.8784.6879,2.7555,2.7555,0,0,0,0,3.6277,2.5212,2.5212,0,0,0,1.8784.688,2.6871,2.6871,0,0,0,.8124-.1041,5.0316,5.0316,0,0,0,.7853-.3395.6222.6222,0,0,1,.3055-.0837.4887.4887,0,0,1,.3689.1742.5523.5523,0,0,1-.1177.8691,4.915,4.915,0,0,1-.9935.48,4.1919,4.1919,0,0,1-3.123-.258Z" fill="#0d57a4"/><path d="M1220.36,377.914a1.9832,1.9832,0,0,1-.826-.7287,2.0228,2.0228,0,0,1-.3055-1.1067,1.9454,1.9454,0,0,1,.8124-1.6407,3.9339,3.9339,0,0,1,2.3853-.611h1.6814v-.1109a1.6857,1.6857,0,0,0-.4526-1.3216,2.0732,2.0732,0,0,0-1.41-.4029,4.67,4.67,0,0,0-.9392.0838,7.5757,7.5757,0,0,0-.91.2489.8147.8147,0,0,1-.1811.0272.4921.4921,0,0,1-.362-.1517.5082.5082,0,0,1-.1517-.3756.534.534,0,0,1,.36-.5273,6.0981,6.0981,0,0,1,2.4056-.5024,3.1577,3.1577,0,0,1,1.62.3892,2.4638,2.4638,0,0,1,.9732,1.0093,2.9346,2.9346,0,0,1,.3123,1.342v3.9332a.5882.5882,0,0,1-.1879.4459.6291.6291,0,0,1-.45.181.6183.6183,0,0,1-.6269-.6269v-.36a3.4943,3.4943,0,0,1-2.6138,1.0569A2.5842,2.5842,0,0,1,1220.36,377.914Zm2.7881-1.161a3.2563,3.2563,0,0,0,.96-.7445v-1.1678h-1.5162q-2.0979,0-2.0979,1.1a1.033,1.033,0,0,0,.3395.8056,1.6907,1.6907,0,0,0,1.1338.3055A2.5144,2.5144,0,0,0,1223.1479,376.753Z" fill="#0d57a4"/><path d="M1227.6808,377.914a.6076.6076,0,0,1-.1811-.4459V371.505a.63.63,0,0,1,.1811-.4526.5963.5963,0,0,1,.4458-.1879.6376.6376,0,0,1,.6382.64v.57a3.4828,3.4828,0,0,1,.9391-.9188,2.5615,2.5615,0,0,1,1.4258-.3621,2.1647,2.1647,0,0,1,1.3352.4186,2.33,2.33,0,0,1,.792,1.0139,2.8008,2.8008,0,0,1,2.5573-1.4325,2.1251,2.1251,0,0,1,1.3013.3892,2.3322,2.3322,0,0,1,.7717,1.0026,3.3288,3.3288,0,0,1,.2512,1.2786v4.0033a.5965.5965,0,0,1-.1879.4459.6344.6344,0,0,1-.4526.181.6183.6183,0,0,1-.6269-.6269V373.716a2.2165,2.2165,0,0,0-.319-1.3284,1.29,1.29,0,0,0-1.0976-.4255,1.84,1.84,0,0,0-1.1746.3689,3.5375,3.5375,0,0,0-.8282.9663v4.1708a.5965.5965,0,0,1-.1879.4459.6306.6306,0,0,1-.4526.181.6061.6061,0,0,1-.4435-.181.5991.5991,0,0,1-.1811-.4459V373.716a2.2157,2.2157,0,0,0-.3191-1.3284,1.2944,1.2944,0,0,0-1.1-.4255,1.84,1.84,0,0,0-1.1745.3689,3.6146,3.6146,0,0,0-.8283.9663v4.1708a.5945.5945,0,0,1-.1856.4459.6344.6344,0,0,1-.4526.181A.6076.6076,0,0,1,1227.6808,377.914Z" fill="#0d57a4"/><path d="M1240.4444,381.1049a.6308.6308,0,0,1-.181-.4526v-9.1609a.6183.6183,0,0,1,.6268-.6269.6339.6339,0,0,1,.4526.1811.5942.5942,0,0,1,.1856.4458v.36a3.2012,3.2012,0,0,1,2.3785-1.0568,3.26,3.26,0,0,1,1.6339.439,3.3183,3.3183,0,0,1,1.2515,1.2786,4.275,4.275,0,0,1,0,3.9355,3.3183,3.3183,0,0,1-1.2515,1.2786,3.2591,3.2591,0,0,1-1.6339.4391,3.2013,3.2013,0,0,1-2.3785-1.0569v3.544a.6158.6158,0,0,1-.6382.64A.5967.5967,0,0,1,1240.4444,381.1049Zm4.9357-4.7751a3.0433,3.0433,0,0,0,0-3.7,2.1865,2.1865,0,0,0-1.6543-.6517,2.6245,2.6245,0,0,0-1.2016.2851,3.4438,3.4438,0,0,0-.9958.7559v2.9216a3.405,3.405,0,0,0,.9958.7558,2.6246,2.6246,0,0,0,1.2016.2852A2.1866,2.1866,0,0,0,1245.38,376.33Z" fill="#0d57a4"/><path d="M1249.7116,377.914a1.9844,1.9844,0,0,1-.826-.7287,2.0228,2.0228,0,0,1-.3055-1.1067,1.9454,1.9454,0,0,1,.8124-1.6407,3.9341,3.9341,0,0,1,2.3853-.611h1.6815v-.1109a1.6854,1.6854,0,0,0-.4527-1.3216,2.0729,2.0729,0,0,0-1.41-.4029,4.6687,4.6687,0,0,0-.9392.0838,7.5768,7.5768,0,0,0-.91.2489.8132.8132,0,0,1-.181.0272.4923.4923,0,0,1-.3621-.1517.5085.5085,0,0,1-.1516-.3756.5339.5339,0,0,1,.36-.5273,6.0985,6.0985,0,0,1,2.4056-.5024,3.1578,3.1578,0,0,1,1.62.3892,2.4641,2.4641,0,0,1,.9731,1.0093,2.9346,2.9346,0,0,1,.3123,1.342v3.9332a.5885.5885,0,0,1-.1878.4459.6293.6293,0,0,1-.45.181.6182.6182,0,0,1-.6268-.6269v-.36a3.4945,3.4945,0,0,1-2.6139,1.0569A2.5845,2.5845,0,0,1,1249.7116,377.914Zm2.7881-1.161a3.258,3.258,0,0,0,.96-.7445v-1.1678h-1.5163q-2.0979,0-2.0978,1.1a1.0329,1.0329,0,0,0,.3394.8056,1.6909,1.6909,0,0,0,1.1338.3055A2.5141,2.5141,0,0,0,1252.5,376.753Z" fill="#0d57a4"/><path d="M1256.9489,369.28a.6885.6885,0,0,1-.2082-.5024v-.0543a.7108.7108,0,0,1,.7106-.7084h.0815a.7108.7108,0,0,1,.7106.7084v.0543a.7108.7108,0,0,1-.7106.7106h-.0815A.6927.6927,0,0,1,1256.9489,369.28Zm.0837,8.6336a.6079.6079,0,0,1-.181-.4459V371.505a.6306.6306,0,0,1,.181-.4526.5964.5964,0,0,1,.4458-.1879.616.616,0,0,1,.6382.64v5.9631a.5947.5947,0,0,1-.1855.4459.6347.6347,0,0,1-.4527.181A.6078.6078,0,0,1,1257.0326,377.914Z" fill="#0d57a4"/><path d="M1261.9978,381.1547a5.3561,5.3561,0,0,1-1.3488-.516.5255.5255,0,0,1-.2512-.4866.5714.5714,0,0,1,.1607-.396.5166.5166,0,0,1,.396-.1743.7073.7073,0,0,1,.2512.0566,5.0418,5.0418,0,0,0,2.2925.5273q2.1283,0,2.1272-2.2653v-.9324a3.1285,3.1285,0,0,1-2.3762,1.0568,3.35,3.35,0,0,1-2.865-1.6339,4.1748,4.1748,0,0,1,0-3.9626,3.3171,3.3171,0,0,1,1.2718-1.222,3.3556,3.3556,0,0,1,1.5932-.4119,3.1364,3.1364,0,0,1,2.3762,1.0568v-.3462a.63.63,0,0,1,.1811-.4526.5963.5963,0,0,1,.4458-.1879.6376.6376,0,0,1,.6382.64v6.2143a3.9174,3.9174,0,0,1-.8464,2.6976,3.0813,3.0813,0,0,1-2.4192.946A6.6188,6.6188,0,0,1,1261.9978,381.1547Zm2.6681-4.5624a4.0822,4.0822,0,0,0,.9595-.749v-2.8651a4.1561,4.1561,0,0,0-.9595-.7513,2.3294,2.3294,0,0,0-1.1541-.2784,2.3605,2.3605,0,0,0-1.7019.6337,2.86,2.86,0,0,0,0,3.6571,2.359,2.359,0,0,0,1.7019.6314A2.3294,2.3294,0,0,0,1264.6659,376.5923Z" fill="#0d57a4"/><path d="M1269.269,377.914a.6076.6076,0,0,1-.1811-.4459V371.505a.63.63,0,0,1,.1811-.4526.5963.5963,0,0,1,.4458-.1879.6376.6376,0,0,1,.6382.64v.57a4.6291,4.6291,0,0,1,1.1406-.9324,2.8921,2.8921,0,0,1,1.446-.3485,2.418,2.418,0,0,1,1.3285.3621,2.3585,2.3585,0,0,1,.8622.9867,3.16,3.16,0,0,1,.2987,1.3782v3.9467a.5968.5968,0,0,1-.1878.4459.6308.6308,0,0,1-.4526.181.6181.6181,0,0,1-.6246-.6269v-3.8087q0-1.6973-1.53-1.6973a2.2225,2.2225,0,0,0-1.2446.3621,4.5625,4.5625,0,0,0-1.0365.9731v4.1708a.5945.5945,0,0,1-.1856.4459.6344.6344,0,0,1-.4526.181A.6076.6076,0,0,1,1269.269,377.914Z" fill="#0d57a4"/><polygon points="1272.51 442.714 1139.854 442.714 1139.854 386.391 1142.171 386.391 1142.171 440.397 1272.51 440.397 1272.51 442.714" fill="#81d5ff"/><polygon points="1151.423 432.755 1149.897 431.008 1171.061 412.55 1192.241 425.033 1215.94 407.221 1235.04 417.999 1269.565 393.749 1270.896 395.645 1235.176 420.738 1216.121 409.981 1192.395 427.817 1171.324 415.397 1151.423 432.755" fill="#81d5ff"/><path d="M1263.6656,412.9017a1.1592,1.1592,0,0,1-.6291-1.5135L1269.7974,395l-17.71.8037a1.1589,1.1589,0,1,1-.1058-2.3154l19.5274-.8857a1.16,1.16,0,0,1,1.1242,1.6l-7.4545,18.07a1.16,1.16,0,0,1-1.5135.6292Z" fill="#81d5ff"/><rect x="1141.0134" y="455.7118" width="131.497" height="8.0442" fill="#b3e5ff"/><circle cx="1171.0426" cy="413.9729" r="4.6347" fill="#81d5ff"/><circle cx="1150.6601" cy="431.8812" r="4.6347" fill="#81d5ff"/><circle cx="1192.3728" cy="426.4391" r="4.6347" fill="#81d5ff"/><circle cx="1216.247" cy="409.3381" r="4.6347" fill="#81d5ff"/><circle cx="1235.3249" cy="419.3698" r="4.6347" fill="#81d5ff"/><rect x="369.6027" y="726.8924" width="140.3657" height="89.7283" rx="4.434" fill="url(#c)"/><path d="M389.6527,747.7223a.6076.6076,0,0,1-.181-.4458v-8.4389a.6255.6255,0,0,1,.181-.45.5891.5891,0,0,1,.4436-.19h3.2814a3.4784,3.4784,0,0,1,2.3016.6835,2.5023,2.5023,0,0,1,.4322,3.1773,2.35,2.35,0,0,1-.98.7966,3.0953,3.0953,0,0,1,1.3692.8509,2.0986,2.0986,0,0,1,.534,1.4733,2.4754,2.4754,0,0,1-.8622,2.0028,4.19,4.19,0,0,1-2.7111.7219h-3.3652A.6061.6061,0,0,1,389.6527,747.7223Zm3.3924-5.3249a2.7738,2.7738,0,0,0,1.738-.4164,1.4429,1.4429,0,0,0,.5-1.1678,1.2287,1.2287,0,0,0-.5341-1.0433,2.4493,2.4493,0,0,0-1.4687-.3915h-2.5437v3.019Zm.2919,4.3247a3.2882,3.2882,0,0,0,1.9123-.4187,1.3782,1.3782,0,0,0,.5635-1.1813q0-1.5819-2.4622-1.5842h-2.6139v3.1842Z" fill="#7700b3"/><path d="M398.94,747.7925a.6114.6114,0,0,1-.181-.4458v-9.0228a.6347.6347,0,0,1,.181-.4527.5968.5968,0,0,1,.4459-.1878.6158.6158,0,0,1,.6381.64v9.0228a.5981.5981,0,0,1-.1855.4458.6346.6346,0,0,1-.4526.181A.6079.6079,0,0,1,398.94,747.7925Z" fill="#7700b3"/><path d="M403.4732,747.5843a3.1377,3.1377,0,0,1-1.2446-1.3013,4.4589,4.4589,0,0,1,0-3.8494,3.1242,3.1242,0,0,1,1.2446-1.3013,4.0374,4.0374,0,0,1,3.7409,0,3.1534,3.1534,0,0,1,1.2514,1.3013,4.3769,4.3769,0,0,1,0,3.8494,3.1672,3.1672,0,0,1-1.2514,1.3013,4.0554,4.0554,0,0,1-3.7409,0Zm2.9692-.96a2.1169,2.1169,0,0,0,.8622-.835,2.7913,2.7913,0,0,0,.3417-1.4461,2.7539,2.7539,0,0,0-.3417-1.43,2.07,2.07,0,0,0-.8622-.8282,2.43,2.43,0,0,0-1.0908-.258,2.4682,2.4682,0,0,0-1.1067.258,2.0553,2.0553,0,0,0-.8554.8282,2.7987,2.7987,0,0,0-.3327,1.43,2.8371,2.8371,0,0,0,.3327,1.4461,2.1018,2.1018,0,0,0,.8554.835,2.4133,2.4133,0,0,0,1.1067.2626A2.3761,2.3761,0,0,0,406.4424,746.6247Z" fill="#7700b3"/><path d="M412.358,751.0332a5.3523,5.3523,0,0,1-1.3488-.516.5254.5254,0,0,1-.2512-.4866.5714.5714,0,0,1,.1607-.396.509.509,0,0,1,.396-.1742.707.707,0,0,1,.2512.0565,5.04,5.04,0,0,0,2.2925.5273q2.1284,0,2.1273-2.2653v-.9324a3.1287,3.1287,0,0,1-2.3762,1.0569,3.38,3.38,0,0,1-1.5932-.41,3.3423,3.3423,0,0,1-1.2719-1.2244,4.1748,4.1748,0,0,1,0-3.9626,3.3637,3.3637,0,0,1,2.8651-1.6339,3.1363,3.1363,0,0,1,2.3762,1.0569v-.3463a.6308.6308,0,0,1,.181-.4526.5884.5884,0,0,1,.4458-.1878.6373.6373,0,0,1,.6382.64v6.2144a3.9173,3.9173,0,0,1-.8464,2.6975,3.0885,3.0885,0,0,1-2.4192.946A6.6188,6.6188,0,0,1,412.358,751.0332Zm2.6681-4.5623a4.0908,4.0908,0,0,0,.96-.7514v-2.865a4.2029,4.2029,0,0,0-.96-.7491,2.33,2.33,0,0,0-1.1541-.2783,2.36,2.36,0,0,0-1.7018.6336,2.86,2.86,0,0,0,0,3.6571,2.3586,2.3586,0,0,0,1.7018.6314A2.33,2.33,0,0,0,415.0261,746.4709Z" fill="#7700b3"/><rect x="388.1231" y="760.9232" width="25.417" height="25.417" rx="1.8983" fill="#d580ff"/><rect x="425.1269" y="760.9232" width="66.3211" height="8.0442" fill="#e6b3ff"/><rect x="425.1269" y="778.296" width="53.344" height="8.0442" fill="#e6b3ff"/><path d="M796.94,747.9034H666.61a4.499,4.499,0,0,0-4.499,4.499l-6.9521,75.6235a4.499,4.499,0,0,0,4.499,4.499H803.8917a4.499,4.499,0,0,0,4.4989-4.499l-6.9521-75.6235A4.4989,4.4989,0,0,0,796.94,747.9034Z" fill="url(#d)"/><polygon points="684.528 761.258 680.775 819.17 687.799 819.17 691.552 761.258 684.528 761.258" fill="#e6b3ff"/><polygon points="707.432 761.258 705.996 819.17 713.021 819.17 714.456 761.258 707.432 761.258" fill="#e6b3ff"/><polygon points="730.388 761.258 731.269 819.17 738.293 819.17 737.412 761.258 730.388 761.258" fill="#e6b3ff"/><path d="M753.0475,773.4756l1.5142,32.5663a4.1959,4.1959,0,0,0,4.1914,4.0011h22.23a4.196,4.196,0,0,0,4.1914-4.3908L783.66,773.0859a4.1959,4.1959,0,0,0-4.1914-4.0011h-22.23A4.196,4.196,0,0,0,753.0475,773.4756Z" fill="#d580ff"/><rect x="220.7152" y="296.792" width="156.7869" height="77.7143" rx="4.434" fill="url(#e)"/><rect x="247.4462" y="313.0585" width="25.417" height="25.417" rx="1.8983" fill="#d580ff"/><rect x="284.45" y="313.0585" width="66.3211" height="8.0442" fill="#e6b3ff"/><rect x="284.45" y="330.4313" width="53.344" height="8.0442" fill="#e6b3ff"/><rect x="269.0056" y="350.841" width="60.206" height="17.2186" rx="2.3174" fill="#7700b3"/><path d="M285.9527,364.4805a.6081.6081,0,0,1-.1811-.4459v-8.5091a.6294.6294,0,0,1,.1811-.45.5868.5868,0,0,1,.4436-.1878h3.1705a4.5784,4.5784,0,0,1,2.1567.4435,2.7585,2.7585,0,0,1,1.1949,1.1406,3.2943,3.2943,0,0,1,0,3.0031,2.7585,2.7585,0,0,1-1.1949,1.1406,4.5772,4.5772,0,0,1-2.1567.4458h-2.53v2.9736a.5969.5969,0,0,1-.1878.4459.6308.6308,0,0,1-.4526.181A.6062.6062,0,0,1,285.9527,364.4805Zm3.49-4.6167a2.9061,2.9061,0,0,0,1.996-.5409,1.8646,1.8646,0,0,0,0-2.6975,2.8939,2.8939,0,0,0-1.996-.5432h-2.4056v3.7816Z" fill="#fff"/><path d="M295.9215,364.2723a3.125,3.125,0,0,1-1.2447-1.3013,4.4591,4.4591,0,0,1,0-3.8495,3.1242,3.1242,0,0,1,1.2447-1.3012,4.0372,4.0372,0,0,1,3.7408,0,3.1546,3.1546,0,0,1,1.2515,1.3012,4.378,4.378,0,0,1,0,3.8495,3.1554,3.1554,0,0,1-1.2515,1.3013,4.0372,4.0372,0,0,1-3.7408,0Zm2.9691-.96a2.1171,2.1171,0,0,0,.8622-.8351,2.7909,2.7909,0,0,0,.3417-1.446,2.7536,2.7536,0,0,0-.3417-1.43,2.071,2.071,0,0,0-.8622-.8283,2.43,2.43,0,0,0-1.0908-.258,2.4678,2.4678,0,0,0-1.1066.258,2.0564,2.0564,0,0,0-.8555.8283,2.7984,2.7984,0,0,0-.3326,1.43,2.8367,2.8367,0,0,0,.3326,1.446,2.1023,2.1023,0,0,0,.8555.8351,2.4163,2.4163,0,0,0,1.1066.2648A2.38,2.38,0,0,0,298.8906,363.3127Z" fill="#fff"/><path d="M302.8871,364.1048a.5313.5313,0,0,1-.2376-.4594.5653.5653,0,0,1,.1539-.3893.5032.5032,0,0,1,.3893-.1652.6289.6289,0,0,1,.2512.0543,5.31,5.31,0,0,0,.8893.3056,4.1,4.1,0,0,0,1,.1131q1.5446,0,1.5434-.9889a.5263.5263,0,0,0-.353-.4866,7.5136,7.5136,0,0,0-1.161-.3757,10.0782,10.0782,0,0,1-1.3555-.4028,2.3721,2.3721,0,0,1-.9188-.6314,1.6057,1.6057,0,0,1-.3825-1.12,1.9992,1.9992,0,0,1,.7015-1.5841,2.9719,2.9719,0,0,1,2.01-.6133,5.8282,5.8282,0,0,1,2.0164.3485.5218.5218,0,0,1,.2988.2082.5532.5532,0,0,1,.1041.3191.542.542,0,0,1-.1585.3892.5263.5263,0,0,1-.3983.1675.78.78,0,0,1-.1787-.0272,5.3312,5.3312,0,0,0-1.5864-.2512,2.1693,2.1693,0,0,0-1.1746.2716.8069.8069,0,0,0-.4232.7015.6448.6448,0,0,0,.3893.6133,5.6373,5.6373,0,0,0,1.2085.3757,11.6346,11.6346,0,0,1,1.3352.41,2.2163,2.2163,0,0,1,.8826.6314,1.7116,1.7116,0,0,1,.3688,1.1542,1.8419,1.8419,0,0,1-.7015,1.4755,3.02,3.02,0,0,1-1.9825.5839A5.1589,5.1589,0,0,1,302.8871,364.1048Z" fill="#fff"/><path d="M310.1606,362.8963v-4.3111h-.9889a.2629.2629,0,0,1-.2626-.2648.2883.2883,0,0,1,.1245-.2353l1.8919-1.849a.3461.3461,0,0,1,.2354-.1267.2505.2505,0,0,1,.1878.0837.29.29,0,0,1,.077.1947v1.1134h1.57a.5256.5256,0,0,1,.3893.1516.5606.5606,0,0,1,0,.7717.5076.5076,0,0,1-.3893.1607h-1.57v4.2c0,.36.086.5907.2557.688a1.2984,1.2984,0,0,0,.6472.1448,1.8972,1.8972,0,0,0,.5567-.0837c.0362-.0091.077-.0181.1177-.0272a.7921.7921,0,0,1,.1607-.0135.4867.4867,0,0,1,.3462.1448.476.476,0,0,1,.1539.3553.526.526,0,0,1-.3191.4866,2.7175,2.7175,0,0,1-1.1541.2512Q310.1607,364.7317,310.1606,362.8963Z" fill="#fff"/><path d="M894.4022,850.4621c-39.5616-33.7718-59.7413-68.9963-69.8436-90.5389-13.6315-29.0674-28.32-60.5275-16.8145-94.4192,2.3717-6.986,12.5442-36.9533,41.3891-45.9162,25.6223-7.9616,53.674-1.2368,68.2277,18.1078,17.524,23.2927,1.7686,45.1626,20.3709,83.4252,4.989,10.2617,16.345,32.5274,41.3891,45.2695a85.9226,85.9226,0,0,0,39.45,9.0539c-1.4529,6.6635-4.4537,15.5264-11.3175,18.1077-8.64,3.2495-18.3276-6.4163-28.0438-1.91-22.3108,10.3473-8.8907,23.5713-22.7948,28.4216-14.886,5.1928-21.535-8.001-38.2205-2.21C910.8084,820.4171,900.7048,824.9635,894.4022,850.4621Z" fill="#58595b" opacity="0.15" style="mix-blend-mode:darken"/><rect x="373.1838" y="455.4945" width="89.0504" height="97.3018" rx="6.9521" fill="#58595b" opacity="0.1" style="mix-blend-mode:darken"/><rect x="455.7587" y="405.734" width="226.537" height="226.537" rx="6.3961" fill="#58595b" opacity="0.1" style="mix-blend-mode:darken"/><rect x="451.1239" y="401.0993" width="226.537" height="226.537" rx="6.3961" fill="url(#f)"/><path d="M671.2653,628.7942H457.52a7.5614,7.5614,0,0,1-7.5541-7.5541V407.4944A7.5614,7.5614,0,0,1,457.52,399.94H671.2653a7.5613,7.5613,0,0,1,7.554,7.5541V621.24A7.5613,7.5613,0,0,1,671.2653,628.7942ZM457.52,402.2577a5.2425,5.2425,0,0,0-5.2368,5.2367V621.24a5.2426,5.2426,0,0,0,5.2368,5.2367H671.2653a5.2425,5.2425,0,0,0,5.2367-5.2367V407.4944a5.2425,5.2425,0,0,0-5.2367-5.2367Z" fill="#81d5ff"/><rect x="451.1242" y="436.1854" width="226.5365" height="2.3174" fill="#81d5ff"/><rect x="500.9069" y="469.2998" width="18.123" height="18.123" rx="4.2641" fill="#81d5ff"/><rect x="528.0914" y="469.2998" width="18.123" height="18.123" rx="4.2641" fill="#81d5ff"/><rect x="555.2758" y="469.2998" width="18.123" height="18.123" rx="4.2641" fill="#81d5ff"/><rect x="582.4603" y="469.2998" width="18.123" height="18.123" rx="4.2641" fill="#81d5ff"/><rect x="609.6447" y="469.2998" width="18.123" height="18.123" rx="4.2641" fill="#81d5ff"/><rect x="636.8291" y="469.2998" width="18.123" height="18.123" rx="4.2641" fill="#81d5ff"/><rect x="473.7225" y="505.5457" width="18.123" height="18.123" rx="4.2641" fill="#81d5ff"/><rect x="500.9069" y="505.5457" width="18.123" height="18.123" rx="4.2641" fill="#81d5ff"/><rect x="528.0914" y="505.5457" width="18.123" height="18.123" rx="4.2641" fill="#81d5ff"/><rect x="473.7225" y="541.7916" width="18.123" height="18.123" rx="4.2641" fill="#81d5ff"/><rect x="500.9069" y="541.7916" width="18.123" height="18.123" rx="4.2641" fill="#81d5ff"/><rect x="528.0914" y="541.7916" width="18.123" height="18.123" rx="4.2641" fill="#81d5ff"/><rect x="555.2758" y="541.7916" width="18.123" height="18.123" rx="4.2641" fill="#81d5ff"/><rect x="582.4603" y="541.7916" width="18.123" height="18.123" rx="4.2641" fill="#81d5ff"/><rect x="609.6447" y="541.7916" width="18.123" height="18.123" rx="4.2641" fill="#81d5ff"/><rect x="636.8291" y="541.7916" width="18.123" height="18.123" rx="4.2641" fill="#81d5ff"/><rect x="473.7225" y="578.0375" width="18.123" height="18.123" rx="4.2641" fill="#81d5ff"/><rect x="500.9069" y="578.0375" width="18.123" height="18.123" rx="4.2641" fill="#81d5ff"/><rect x="528.0914" y="578.0375" width="18.123" height="18.123" rx="4.2641" fill="#81d5ff"/><rect x="555.2758" y="578.0375" width="18.123" height="18.123" rx="4.2641" fill="#81d5ff"/><rect x="582.4603" y="578.0375" width="18.123" height="18.123" rx="4.2641" fill="#81d5ff"/><rect x="609.6447" y="578.0375" width="18.123" height="18.123" rx="4.2641" fill="#81d5ff"/><rect x="564.3381" y="512.2897" width="81.5515" height="4.6347" fill="#4dc4ff"/><rect x="517.9899" y="414.9321" width="92.6948" height="11.5869" fill="#81d5ff"/><path d="M493.3483,429.4505a1.1489,1.1489,0,0,1-.5794-.1561l-13.1076-7.5654a1.1572,1.1572,0,0,1,0-2.0051l13.1076-7.5676a1.1579,1.1579,0,1,1,1.1587,2.005l-11.37,6.5652,11.37,6.5628a1.1585,1.1585,0,0,1-.5793,2.1612Z" fill="#81d5ff"/><path d="M635.4977,429.4505a1.1585,1.1585,0,0,1-.5794-2.1612l11.3673-6.5628-11.3673-6.5652a1.1579,1.1579,0,1,1,1.1587-2.005l13.1054,7.5676a1.1572,1.1572,0,0,1,0,2.0051l-13.1054,7.5654A1.1489,1.1489,0,0,1,635.4977,429.4505Z" fill="#81d5ff"/><rect x="555.2758" y="505.5457" width="18.123" height="18.123" rx="4.2641" fill="#81d5ff"/><rect x="582.4603" y="505.5457" width="18.123" height="18.123" rx="4.2641" fill="#81d5ff"/><rect x="609.6447" y="505.5457" width="18.123" height="18.123" rx="4.2641" fill="#81d5ff"/><rect x="636.8291" y="505.5457" width="18.123" height="18.123" rx="4.2641" fill="#81d5ff"/><rect x="708.9056" y="405.734" width="208.2395" height="125.8473" rx="6.3959" fill="#58595b" opacity="0.1" style="mix-blend-mode:darken"/><rect x="704.2709" y="401.0993" width="208.2395" height="125.8473" rx="6.3959" fill="url(#g)"/><path d="M906.114,528.1062H710.6673a7.5633,7.5633,0,0,1-7.554-7.5563V407.4944a7.5614,7.5614,0,0,1,7.554-7.5541H906.114a7.5614,7.5614,0,0,1,7.5541,7.5541V520.55A7.5633,7.5633,0,0,1,906.114,528.1062ZM710.6673,402.2577a5.2425,5.2425,0,0,0-5.2367,5.2367V520.55a5.2444,5.2444,0,0,0,5.2367,5.239H906.114a5.2444,5.2444,0,0,0,5.2367-5.239V407.4944a5.2425,5.2425,0,0,0-5.2367-5.2367Z" fill="#81d5ff"/><path d="M840.9945,461.3053H715.8588a3.48,3.48,0,0,1-3.4761-3.476V413.7472a3.48,3.48,0,0,1,3.4761-3.4761H840.9945a3.48,3.48,0,0,1,3.4761,3.4761v44.0821A3.48,3.48,0,0,1,840.9945,461.3053ZM715.8588,412.5885a1.1609,1.1609,0,0,0-1.1587,1.1587v44.0821a1.1609,1.1609,0,0,0,1.1587,1.1587H840.9945a1.1609,1.1609,0,0,0,1.1587-1.1587V413.7472a1.1609,1.1609,0,0,0-1.1587-1.1587Z" fill="#81d5ff"/><rect x="725.342" y="475.5197" width="23.1737" height="23.1737" rx="2.3174" fill="#81d5ff"/><rect x="757.7852" y="475.5197" width="35.4072" height="8.0442" fill="#81d5ff"/><rect x="757.7852" y="490.6492" width="14.9827" height="8.0442" fill="#81d5ff"/><path d="M704.2709,510.2321H912.51a0,0,0,0,1,0,0v10.3185a6.3959,6.3959,0,0,1-6.3959,6.3959H710.6668a6.3959,6.3959,0,0,1-6.3959-6.3959V510.2321a0,0,0,0,1,0,0Z" fill="#81d5ff"/><rect x="720.4925" y="418.3813" width="66.3211" height="8.0442" fill="#81d5ff"/><path d="M734.64,454.69h-1.0568v-2.3173H734.64a1.1635,1.1635,0,0,0,.6042-.1675l1.19,1.9869A3.4817,3.4817,0,0,1,734.64,454.69Zm-3.3742,0h-2.3174v-2.3173h2.3174Zm-4.6348,0h-2.3173v-2.3173h2.3173Zm-5.0194-.21a3.4679,3.4679,0,0,1-2.1952-2.51l2.2631-.5024a1.1624,1.1624,0,0,0,.7332.8351Zm14.1871-3.2v-2.32h2.3174v2.254Zm-14.1464-1.8738h-2.3173v-2.3174h2.3173Zm16.4638-2.7632h-2.3174v-2.3174h2.3174Zm-16.4638-1.8716h-2.3173v-2.3173h2.3173Zm16.4638-2.7631h-2.3174v-2.3174h2.3174Zm-16.4638-1.8716h-2.3173v-.7513a3.4807,3.4807,0,0,1,.7649-2.1771l1.8059,1.4529a1.1427,1.1427,0,0,0-.2535.7242Zm13.7368-1.6362a.9447.9447,0,0,0-.7446-.2738h-2.3219v-2.3174h2.331a3.45,3.45,0,0,1,2.2336.826Zm-5.3838-.2738h-2.3174v-2.3174h2.3174Zm-4.6348,0h-2.3173v-2.3174H725.37Z" fill="#81d5ff"/><rect x="856.0574" y="401.099" width="2.3174" height="109.1337" fill="#81d5ff"/><path d="M900.9225,484.7234h-32.12a3.48,3.48,0,0,1-3.4761-3.476V443.873a3.48,3.48,0,0,1,3.4761-3.476h32.12a3.48,3.48,0,0,1,3.4761,3.476v37.3744A3.48,3.48,0,0,1,900.9225,484.7234Zm-32.12-42.0091a1.1609,1.1609,0,0,0-1.1587,1.1587v37.3744a1.1609,1.1609,0,0,0,1.1587,1.1587h32.12a1.1609,1.1609,0,0,0,1.1587-1.1587V443.873a1.1609,1.1609,0,0,0-1.1587-1.1587Z" fill="#81d5ff"/><path d="M900.9225,427.5835h-32.12a3.48,3.48,0,0,1-3.4761-3.476v-9.4754a3.48,3.48,0,0,1,3.4761-3.4761h32.12a3.48,3.48,0,0,1,3.4761,3.4761v9.4754A3.48,3.48,0,0,1,900.9225,427.5835Zm-32.12-14.11a1.1609,1.1609,0,0,0-1.1587,1.1587v9.4754a1.1609,1.1609,0,0,0,1.1587,1.1587h32.12a1.1609,1.1609,0,0,0,1.1587-1.1587v-9.4754a1.1609,1.1609,0,0,0-1.1587-1.1587Z" fill="#81d5ff"/><circle cx="866.4865" cy="462.1737" r="4.8453" fill="#81d5ff"/><rect x="368.5491" y="450.8597" width="89.0504" height="97.3018" rx="6.9521" fill="url(#h)"/><rect x="384.1071" y="462.6449" width="57.9343" height="11.5869" rx="1.935" fill="#e6b3ff"/><rect x="384.1071" y="489.6641" width="13.9042" height="13.9042" rx="1.0384" fill="#d580ff"/><rect x="407.2808" y="489.6641" width="34.7606" height="5.7934" fill="#e6b3ff"/><rect x="407.2808" y="497.7748" width="26.4494" height="5.7934" fill="#e6b3ff"/><rect x="384.1071" y="515.1551" width="13.9042" height="13.9042" rx="1.0384" fill="#d580ff"/><rect x="407.2808" y="515.1551" width="34.7606" height="5.7934" fill="#e6b3ff"/><rect x="407.2808" y="523.2659" width="30.1099" height="5.7934" fill="#e6b3ff"/><path d="M306.3311,654.78c31.4893-56.8568,37.767-105.8049,38.8024-134.515,1.8919-52.4807-12.551-70.2061-16.8146-75.018-16.363-18.4677-46.8633-31.8917-73.7247-21.988-21.7729,8.0275-32.0426,28.0216-34.9223,33.6287-8.3156,16.1908-8.6687,31.9764-9.0534,49.15-.5918,26.451,5.0636,33.6668-1.2933,49.15-4.2263,10.2942-10.8231,17.08-18.1079,24.5749a127.4344,127.4344,0,0,1-31.0423,23.2814s0,17.6767,13.5806,23.9282c11.3,5.2017,24.4025-13.0495,38.8023-8.4072,12.9572,4.1772,11.1784,21.1322,23.9285,24.5748,11.7565,3.1745,21.8077-13.0736,40.5666-9.687C297.2768,637.1028,289.0852,654.78,306.3311,654.78Z" fill="#fff" opacity="0.95"/><circle cx="267.6527" cy="471.5915" r="6.6292" fill="#58595b"/><circle cx="304.48" cy="472.9682" r="6.6292" fill="#58595b"/><ellipse cx="285.4593" cy="486.2266" rx="5.4388" ry="6.6292" fill="#58595b"/><g opacity="0.9"><path d="M223.1211,515.0908s-15.7671,7.8952-23.7125,14.2276c-6.9507,5.5395-9.0539,14.6587-4.7426,19.4012s16.8144-1.2934,25.006-5.1737,11.21-6.2042,11.21-6.2042" fill="#fff"/><path d="M199.4949,551.6217a7.3218,7.3218,0,0,1-5.6871-2.1228,10.6467,10.6467,0,0,1-2.4939-8.1379,19.1155,19.1155,0,0,1,7.3731-12.947c7.9478-6.3388,23.2664-14.0332,23.9159-14.3591a1.1588,1.1588,0,1,1,1.0365,2.073c-.1561.0769-15.7509,7.9116-23.5086,14.0966a16.7849,16.7849,0,0,0-6.5063,11.322,8.2536,8.2536,0,0,0,1.8987,6.3954c3.6571,4.0283,15.93-1.7855,23.26-5.257l.3938-.1879c7.9365-3.7566,10.969-6.0514,10.9984-6.074a1.1588,1.1588,0,0,1,1.4122,1.8376c-.1268.0973-3.209,2.4441-11.4194,6.332l-.3915.1856C213.3991,547.8016,205.3358,551.6217,199.4949,551.6217Z" fill="#a6a8ab"/></g><g opacity="0.9"><path d="M336.51,512.504a160.545,160.545,0,0,1,19.2934.485c10.876.9275,16.9221,2.533,16.06,10.2934s-7.6515,8.28-17.6134,9.4931-25.9315,2.3632-25.9315,2.3632" fill="#fff"/><path d="M328.3171,536.2985a1.1591,1.1591,0,0,1-.0815-2.3151c.1607-.0113,16.0542-1.1632,25.8736-2.3581l1.1157-.1358c9.9665-1.2017,14.789-2.0571,15.4861-8.3371a6.4767,6.4767,0,0,0-1.1022-5.04c-2.0458-2.4916-6.8366-3.3652-13.9042-3.9694a160.7093,160.7093,0,0,0-19.1386-.482,1.1578,1.1578,0,0,1-.1132-2.3129,162.0431,162.0431,0,0,1,19.451.4866c7.8664.67,12.922,1.6724,15.4974,4.8067,1.4008,1.7063,1.93,3.9219,1.6136,6.7688-.9324,8.38-8.2489,9.2627-17.5116,10.3806l-1.1134.1336c-9.876,1.2039-25.826,2.36-25.9867,2.3716C328.3737,536.2985,328.3465,536.2985,328.3171,536.2985Z" fill="#a6a8ab"/></g><rect x="763.199" y="737.7231" width="6.3663" height="47.1106" transform="translate(762.7733 -318.9407) rotate(45)" fill="#58595b"/><path d="M783.2088,740.9785h3.31a1.5279,1.5279,0,0,1,1.5279,1.5279v2.1082a0,0,0,0,1,0,0h-6.3663a0,0,0,0,1,0,0v-2.1082a1.5279,1.5279,0,0,1,1.5279-1.5279Z" transform="translate(755.1178 -337.4226) rotate(45)" fill="#58595b"/><polygon points="745.225 782.436 751.374 780.788 746.872 776.286 745.225 782.436" fill="#58595b"/><path d="M885.1328,848.1447c-39.5617-33.7718-59.7414-68.9963-69.8436-90.5389-13.6316-29.0674-28.32-60.5275-16.8145-94.4191,2.3716-6.986,12.5441-36.9533,41.389-45.9162,25.6223-7.9617,53.674-1.2369,68.2278,18.1078,17.5239,23.2927,1.7685,45.1625,20.3709,83.4251,4.9889,10.2617,16.3449,32.5274,41.389,45.2695a85.9213,85.9213,0,0,0,39.45,9.0539c-1.4529,6.6636-4.4537,15.5265-11.3175,18.1078-8.64,3.2494-18.3276-6.4163-28.0438-1.91-22.3108,10.3473-8.8907,23.5713-22.7948,28.4216-14.886,5.1928-21.535-8.001-38.2205-2.21C901.5389,818.1,891.4354,822.6461,885.1328,848.1447Z" fill="#fff" opacity="0.95"/><circle cx="863.4682" cy="664.4179" r="6.6292" fill="#58595b"/><circle cx="828.131" cy="674.8788" r="6.6292" fill="#58595b"/><ellipse cx="849.8442" cy="689.9617" rx="5.4388" ry="6.6292" transform="translate(-144.4837 232.1471) rotate(-14.3495)" fill="#58595b"/><g opacity="0.9"><path d="M809.9083,720.282s-18.7067,6.6842-27.1761,12.2964c-7.4091,4.91-10.3028,13.8095-6.4233,18.9114s16.863.184,25.363-2.964,14.0185-5.3989,14.0185-5.3989" fill="#fff"/><path d="M782.198,754.86c-2.9216,0-5.343-.7377-6.8118-2.6681a10.65,10.65,0,0,1-1.7719-8.3236,19.1345,19.1345,0,0,1,8.4774-12.2567c8.491-5.6259,26.6588-12.1458,27.4282-12.42a1.1582,1.1582,0,1,1,.7785,2.1816c-.1855.0656-18.67,6.7009-26.9258,12.1707a16.7815,16.7815,0,0,0-7.4726,10.711,8.24,8.24,0,0,0,1.3329,6.5335c3.2905,4.3383,16.0179-.38,23.624-3.1955l.4119-.1539c8.3824-3.1049,13.9291-5.3634,13.9857-5.386a1.1582,1.1582,0,1,1,.8736,2.1453c-.0544.0227-5.6328,2.2948-14.0536,5.4133l-.4142.1539C795.5365,752.0357,787.9123,754.86,782.198,754.86Z" fill="#a6a8ab"/></g><g opacity="0.9"><path d="M922.5387,716.4355a160.5392,160.5392,0,0,1-4.1,18.8589c-2.9538,10.5083-5.6663,16.1453-13.1267,13.8408s-6.6957-9.0705-6.0159-19.083,2.5494-25.9139,2.5494-25.9139" fill="#fff"/><path d="M908.3635,750.8069a11.4709,11.4709,0,0,1-3.3924-.5658c-8.0587-2.4871-7.5495-9.842-6.9091-19.1522l.077-1.1157c.6766-9.9258,2.5369-25.81,2.555-25.9709a1.16,1.16,0,0,1,2.3038.2716c-.02.1584-1.8739,15.9885-2.546,25.8577l-.0769,1.1179c-.69,10.0163-.7559,14.9136,5.28,16.7783a6.49,6.49,0,0,0,5.16-.1357c2.831-1.5412,4.5894-6.0831,6.5085-12.913a161.09,161.09,0,0,0,4.069-18.7042,1.1585,1.1585,0,0,1,2.2947.3213,163.6078,163.6078,0,0,1-4.1323,19.012c-2.1363,7.5993-4.069,12.3812-7.6333,14.3206A7.3025,7.3025,0,0,1,908.3635,750.8069Z" fill="#a6a8ab"/></g><path d="M816.25,689.2585a5.5032,5.5032,0,0,1-5.2458-3.8517l-2.9442-9.4053a5.4924,5.4924,0,0,1,3.6005-6.8842l21.4176-6.7077A5.4981,5.4981,0,0,1,839.96,666.01l2.9465,9.4053a5.5006,5.5006,0,0,1-3.6005,6.8842l-21.4176,6.7077A5.5016,5.5016,0,0,1,816.25,689.2585Zm17.1743-25.7423.3462,1.1067-21.4175,6.7077a3.1721,3.1721,0,0,0-2.082,3.9784l2.9465,9.4053a3.1757,3.1757,0,0,0,3.9784,2.08l21.4176-6.7077a3.1766,3.1766,0,0,0,2.08-3.9785l-2.9442-9.4053a3.1711,3.1711,0,0,0-3.9785-2.08Z" fill="#929497"/><path d="M879.6928,659.7505a1.1586,1.1586,0,0,1-.5477-2.1793l22.1237-11.872a1.1583,1.1583,0,0,1,1.0953,2.0413l-22.1236,11.872A1.1637,1.1637,0,0,1,879.6928,659.7505Z" fill="#929497"/><rect x="840.1167" y="668.489" width="9.6267" height="2.3181" transform="translate(-158.2721 274.78) rotate(-16.9136)" fill="#929497"/><path d="M800.0966,681.8583a1.1586,1.1586,0,0,1-.1585-2.306l10.1974-1.4325a1.1585,1.1585,0,1,1,.3213,2.2947L800.26,681.847A1.3115,1.3115,0,0,1,800.0966,681.8583Z" fill="#929497"/><path d="M855.7134,677.14a5.5,5.5,0,0,1-5.2344-3.854l-2.9442-9.403a5.5016,5.5016,0,0,1,3.6005-6.8843l21.4176-6.7077a5.4924,5.4924,0,0,1,6.8842,3.6006l2.9442,9.403a5.5024,5.5024,0,0,1-3.6005,6.8842l-21.4176,6.7077A5.5123,5.5123,0,0,1,855.7134,677.14Zm18.487-24.785a3.2288,3.2288,0,0,0-.9551.1471v.0022l-21.4175,6.7077a3.1775,3.1775,0,0,0-2.08,3.9785l2.9443,9.403a3.1721,3.1721,0,0,0,3.9784,2.082l21.4176-6.71a3.1783,3.1783,0,0,0,2.08-3.9784l-2.9442-9.403a3.1764,3.1764,0,0,0-3.0234-2.2291Z" fill="#929497"/><path d="M1012.966,582.78c-16.6742-19.3965-51.867-65.9541-55.1857-129.3414-.7955-15.19-4.35-48.6152,13.2026-79.9221,7.06-12.5921,18.806-27.0929,38.5331-33.8982,22.6215-7.804,50.0339.5773,63.8092,18.1077,7.1456,9.0938,8.5973,19.9827,11.2089,41.3893,4.5917,37.6415-1.9508,43.3223,2.5867,74.1557,2.6149,17.7732,5.9382,38.5808,21.5578,57.7724a90.9331,90.9331,0,0,0,24.1435,20.6946c-2.305,6.8736-6.2766,9.5015-7.7612,10.3473-8.7218,4.9692-17.4606-11.6946-31.9034-8.8922-21.76,4.2223-8.7414,18.8227-26.3,20.9641-17.6762,2.1557-17.0295-11.7485-31.9034-10.8862C1016.17,564.3594,1014.5807,578.7417,1012.966,582.78Z" fill="#fff" opacity="0.95"/><g opacity="0.9"><path d="M969.2961,443.5712s-24.5825.3266-34.4816,2.615c-8.66,2.0019-14.4887,9.3235-12.6431,15.4613s15.7293,6.0816,24.7934,6.1119,19.7412-.7657,19.7412-.7657" fill="#fff"/><path d="M947.4532,468.9183H946.96l-.4255-.0023c-9.8782-.0294-23.409-.07-25.4729-6.934a10.6457,10.6457,0,0,1,1.256-8.4163,19.1433,19.1433,0,0,1,12.2363-8.5091c9.9054-2.29,33.7173-2.63,34.7266-2.6433h.0159a1.1588,1.1588,0,0,1,.0158,2.3174c-.2444.0023-24.5723.3508-34.2378,2.5844a16.79,16.79,0,0,0-10.7518,7.4138,8.2569,8.2569,0,0,0-1.0432,6.5855c1.57,5.2186,15.1489,5.2593,23.2619,5.2842l.4277.0023h.4866c8.8078,0,19.0595-.7536,19.1636-.7627a1.185,1.185,0,0,1,1.2424,1.0705,1.16,1.16,0,0,1-1.07,1.2424C966.6847,468.1579,956.3516,468.9183,947.4532,468.9183Z" fill="#a6a8ab"/></g><g opacity="0.9"><path d="M1080.822,427.2063a160.5448,160.5448,0,0,1,18.7921-4.3964c10.7584-1.8454,17.0139-1.8167,18.1367,5.91s-5.3159,9.9422-14.65,13.6283-24.4973,8.8267-24.4973,8.8267" fill="#fff"/><path d="M1078.6042,452.3346a1.1587,1.1587,0,0,1-.3712-2.2563c.1494-.052,15.2417-5.1756,24.4433-8.8078l1.0365-.41c9.3464-3.6775,13.8-5.721,12.89-11.9739a6.4849,6.4849,0,0,0-2.3378-4.6007c-2.6093-1.8988-7.4681-1.5367-14.4541-.3327a160.2361,160.2361,0,0,0-18.6431,4.3586,1.16,1.16,0,1,1-.6925-2.2132,163.9126,163.9126,0,0,1,18.9418-4.4311c7.7827-1.3352,12.9266-1.6452,16.21.7423,1.7878,1.299,2.8582,3.3086,3.27,6.1419,1.2107,8.3484-5.6509,11.0483-14.3365,14.4655l-1.0342.4073c-9.2536,3.6549-24.398,8.7965-24.5519,8.8486A1.1814,1.1814,0,0,1,1078.6042,452.3346Z" fill="#a6a8ab"/></g><circle cx="1000.4625" cy="393.0943" r="6.7036" fill="#58595b"/><circle cx="1036.534" cy="393.0943" r="6.7036" fill="#58595b"/><path d="M1026.08,411.29c-.6088.4612-4.8153.6923-7.9274.6917-3.051-.0006-7.0579-.0127-7.7147-.6119-.7585,5.8679,3.5366,10.6123,7.5814,10.614C1022.7282,421.9854,1026.8707,417.39,1026.08,411.29Z" fill="#58595b"/></g></svg>