<svg xmlns="http://www.w3.org/2000/svg" xmlnsXlink="http://www.w3.org/1999/xlink" width="419.547" height="292.3003" viewBox="0 0 419.547 292.3003"><defs><radialGradient id="a" cx="209.7735" cy="146.1501" r="332.0961" gradientTransform="matrix(-1, 0, 0, 1, 419.547, 0)" gradientUnits="userSpaceOnUse"><stop offset="0" stopColor="#4dc4ff"/><stop offset="1" stopColor="#0c89db"/></radialGradient><radialGradient id="b" cx="162.6661" cy="171.57" r="328.3069" gradientTransform="translate(94.2147)" gradientUnits="userSpaceOnUse"><stop offset="0" stopColor="#e1f5ff"/><stop offset="1" stopColor="#b3e5ff"/></radialGradient><radialGradient id="c" cx="270.4708" cy="79.4663" r="126.996" gradientTransform="translate(-121.3947)" gradientUnits="userSpaceOnUse"><stop offset="0" stopColor="#f7e5ff"/><stop offset="1" stopColor="#e6b3ff"/></radialGradient></defs><title>home-instructions</title><g style="isolation:isolate"><path d="M7.8889,212.7339c3.1219,9.192,19.5374,57.526,62.5115,74.7906,37.8645,15.2119,55.2632-10.2022,121.116-16.7442,92.863-9.2253,130.1355,34.1722,178.0461,3.907,29.011-18.3264,39.1865-49.2994,42.9768-60.8371,13.0291-39.6593,9.2432-95.6662-22.8838-122.79C358.3347,64.6161,329.01,90.0511,267.4234,59.804,238.7473,45.72,226.63,27.3705,197.656,13.4785A140.9245,140.9245,0,0,0,96.0747,6.2227C24.1978,27.9821-18.5652,134.8424,7.8889,212.7339Z" fill="url(#a)"/><rect x="149.3044" y="114.1062" width="221.153" height="118.9276" rx="6.0443" transform="translate(519.7617 347.14) rotate(-180)" fill="#58595b" opacity="0.1" style="mix-blend-mode:darken"/><rect x="146.3044" y="112.1062" width="221.153" height="118.9276" rx="6.0443" fill="url(#b)"/><path d="M275.5112,168.4081H157.2544a2.6936,2.6936,0,0,1-2.69-2.69V124.0585a2.6936,2.6936,0,0,1,2.69-2.69H275.5112a2.6928,2.6928,0,0,1,2.69,2.69v41.6592A2.6928,2.6928,0,0,1,275.5112,168.4081Zm-118.2568-46.04a1.6929,1.6929,0,0,0-1.69,1.69v41.6592a1.6929,1.6929,0,0,0,1.69,1.69H275.5112a1.6921,1.6921,0,0,0,1.69-1.69V124.0585a1.6921,1.6921,0,0,0-1.69-1.69Z" fill="#81d5ff"/><path d="M146.3044,215.2384h221.153a0,0,0,0,1,0,0V224.99a6.0443,6.0443,0,0,1-6.0443,6.0443H152.3486a6.0443,6.0443,0,0,1-6.0443-6.0443v-9.7512A0,0,0,0,1,146.3044,215.2384Z" fill="#81d5ff"/><path d="M175.0024,162.1562h-.4179v-1h.4179a1.6765,1.6765,0,0,0,.4434-.0586l.2656.9629A2.6451,2.6451,0,0,1,175.0024,162.1562Zm-1.4179,0h-1v-1h1Zm-2,0h-1v-1h1Zm-2,0h-1v-1h1Zm-2,0h-1v-1h1Zm-2,0h-1v-1h1Zm-2.0518-.0166a2.6523,2.6523,0,0,1-1.1514-.4024l.5371-.8437a1.6575,1.6575,0,0,0,.72.2519Zm13.249-.6553-.6621-.75a1.6973,1.6973,0,0,0,.4453-.6211l.9239.3808A2.6957,2.6957,0,0,1,176.7817,161.4843Zm-15.2539-.6153a2.664,2.664,0,0,1-.3828-1.1562l.9961-.09a1.6732,1.6732,0,0,0,.24.7246Zm16.1651-1.5429h-1v-1h1Zm-15.5586-.6582h-1v-1h1Zm15.5586-1.3418h-1v-1h1Zm-15.5586-.6582h-1v-1h1Zm15.5586-1.3418h-1v-1h1Zm-15.5586-.6582h-1v-1h1Zm15.5586-1.3418h-1v-1h1Zm-15.5586-.6582h-1v-1h1Zm15.5586-1.3418h-1v-1h1Zm-15.5586-.6582h-1v-1h1Zm15.5586-1.3418h-1v-1h1Zm-15.5586-.6582h-1v-.38a2.6512,2.6512,0,0,1,.1054-.751l.961.2793a1.6267,1.6267,0,0,0-.0664.47Zm14.3994-1.0987a1.6942,1.6942,0,0,0-.4746-.6l.625-.7813a2.7066,2.7066,0,0,1,.7539.9561Zm-13.958-.42-.7383-.6758a2.7243,2.7243,0,0,1,1.001-.6894l.3672.93A1.723,1.723,0,0,0,162.5757,147.1493Zm12.7949-.5117a1.699,1.699,0,0,0-.3682-.04h-1v-1h1a2.7106,2.7106,0,0,1,.585.0634Zm-2.3682-.04h-1v-1h1Zm-2,0h-1v-1h1Zm-2,0h-1v-1h1Zm-2,0h-1v-1h1Zm-2,0h-1v-1h1Z" fill="#81d5ff"/><rect x="285.8618" y="112.1064" width="1" height="103.1318" fill="#81d5ff"/><path d="M352.6235,204.8339h-55.833a2.6919,2.6919,0,0,1-2.6894-2.69V152.5273a2.6919,2.6919,0,0,1,2.6894-2.69h55.833a2.6929,2.6929,0,0,1,2.6905,2.69v49.6171A2.6929,2.6929,0,0,1,352.6235,204.8339Zm-55.833-53.9961a1.6913,1.6913,0,0,0-1.6894,1.69v49.6171a1.6913,1.6913,0,0,0,1.6894,1.69h55.833a1.6921,1.6921,0,0,0,1.6905-1.69V152.5273a1.6921,1.6921,0,0,0-1.6905-1.69Z" fill="#81d5ff"/><path d="M354.6177,136.54H296.7905a2.6927,2.6927,0,0,1-2.6894-2.69v-8.9551a2.6927,2.6927,0,0,1,2.6894-2.69h57.8272a2.6936,2.6936,0,0,1,2.69,2.69V133.85A2.6936,2.6936,0,0,1,354.6177,136.54ZM296.7905,123.204a1.6921,1.6921,0,0,0-1.6894,1.69V133.85a1.692,1.692,0,0,0,1.6894,1.69h57.8272a1.6929,1.6929,0,0,0,1.69-1.69v-8.9551a1.6929,1.6929,0,0,0-1.69-1.69Z" fill="#81d5ff"/><circle cx="294.6007" cy="177.3358" r="4.5789" fill="#81d5ff"/><rect x="155.0642" y="176.0111" width="14.511" height="14.511" rx="1.0635" fill="#81d5ff"/><rect x="173.1144" y="176.0111" width="33.4339" height="4.2471" fill="#b3e5ff"/><rect x="173.1144" y="186.275" width="19.8568" height="4.2471" fill="#b3e5ff"/><rect x="155.0642" y="195.4928" width="14.511" height="14.511" rx="1.0635" fill="#81d5ff"/><rect x="173.1144" y="195.4928" width="33.4339" height="4.2471" fill="#b3e5ff"/><rect x="173.1144" y="205.7567" width="19.8568" height="4.2471" fill="#b3e5ff"/><rect x="160.4759" y="127.9918" width="63.8326" height="4.2471" fill="#b3e5ff"/><rect x="299.1796" y="155.0383" width="30.2584" height="4.2471" fill="#b3e5ff"/><rect x="308.3424" y="164.9685" width="35.2202" height="4.2471" fill="#b3e5ff"/><circle cx="304.0842" cy="167.0921" r="2.1235" fill="#81d5ff"/><rect x="308.3424" y="174.2156" width="35.2202" height="4.2471" fill="#b3e5ff"/><circle cx="304.0842" cy="176.3392" r="2.1235" fill="#81d5ff"/><rect x="308.3424" y="183.4627" width="35.2202" height="4.2471" fill="#b3e5ff"/><circle cx="304.0842" cy="185.5863" r="2.1235" fill="#81d5ff"/><rect x="118.18" y="42.7822" width="66.0667" height="77.3682" rx="6.0443" transform="translate(302.4267 162.9327) rotate(-180)" fill="#58595b" opacity="0.1" style="mix-blend-mode:darken"/><rect x="116.0428" y="40.7822" width="66.0667" height="77.3682" rx="6.0443" fill="url(#c)"/><path d="M134.1127,70.8612H125.24a1.5649,1.5649,0,0,1-1.5635-1.5634V60.4247a1.565,1.565,0,0,1,1.5635-1.5635h8.873a1.565,1.565,0,0,1,1.5635,1.5635v8.8731A1.5649,1.5649,0,0,1,134.1127,70.8612Zm-8.873-11a.5644.5644,0,0,0-.5635.5635v8.8731a.5643.5643,0,0,0,.5635.5634h8.873a.5643.5643,0,0,0,.5635-.5634V60.4247a.5644.5644,0,0,0-.5635-.5635Z" fill="#d580ff"/><rect x="140.6352" y="59.3617" width="33.4339" height="4.2471" fill="#e6b3ff"/><rect x="140.6352" y="66.1146" width="24.7778" height="4.2471" fill="#e6b3ff"/><path d="M134.1127,88.8612H125.24a1.5649,1.5649,0,0,1-1.5635-1.5634V78.4247a1.565,1.565,0,0,1,1.5635-1.5635h8.873a1.565,1.565,0,0,1,1.5635,1.5635v8.8731A1.5649,1.5649,0,0,1,134.1127,88.8612Zm-8.873-11a.5644.5644,0,0,0-.5635.5635v8.8731a.5643.5643,0,0,0,.5635.5634h8.873a.5643.5643,0,0,0,.5635-.5634V78.4247a.5644.5644,0,0,0-.5635-.5635Z" fill="#d580ff"/><rect x="140.6352" y="77.3617" width="33.4339" height="4.2471" fill="#e6b3ff"/><rect x="140.6352" y="84.1146" width="19.8568" height="4.2471" fill="#e6b3ff"/><path d="M134.1127,106.8612H125.24a1.5649,1.5649,0,0,1-1.5635-1.5634V96.4247a1.565,1.565,0,0,1,1.5635-1.5635h8.873a1.565,1.565,0,0,1,1.5635,1.5635v8.8731A1.5649,1.5649,0,0,1,134.1127,106.8612Zm-8.873-11a.5644.5644,0,0,0-.5635.5635v8.8731a.5643.5643,0,0,0,.5635.5634h8.873a.5643.5643,0,0,0,.5635-.5634V96.4247a.5644.5644,0,0,0-.5635-.5635Z" fill="#d580ff"/><rect x="140.6352" y="95.3617" width="33.4339" height="4.2471" fill="#e6b3ff"/><rect x="140.6352" y="102.1146" width="27.6593" height="4.2471" fill="#e6b3ff"/><path d="M125.1665,52.8456a.3923.3923,0,0,1-.1172-.2881V47.0038a.4061.4061,0,0,1,.1172-.292.3844.3844,0,0,1,.288-.122.4167.4167,0,0,1,.4141.414v5.5537a.3857.3857,0,0,1-.1221.2881.4092.4092,0,0,1-.292.1162A.3937.3937,0,0,1,125.1665,52.8456Z" fill="#7700b3"/><path d="M127.479,52.8456a.3923.3923,0,0,1-.1172-.2881V48.6962a.4067.4067,0,0,1,.1172-.293.3836.3836,0,0,1,.288-.1211.4152.4152,0,0,1,.4141.4141v.3691a2.9988,2.9988,0,0,1,.7373-.6035,1.8727,1.8727,0,0,1,.9365-.2246,1.5538,1.5538,0,0,1,.8594.2344,1.5105,1.5105,0,0,1,.5576.6387,2.0379,2.0379,0,0,1,.1944.8906v2.5566a.3861.3861,0,0,1-.1221.2881.4093.4093,0,0,1-.292.1162.3986.3986,0,0,1-.4053-.4043V50.0907q0-1.0971-.99-1.0976a1.4327,1.4327,0,0,0-.8057.2343,2.9426,2.9426,0,0,0-.67.63v2.7a.3857.3857,0,0,1-.1221.2881.4092.4092,0,0,1-.292.1162A.3937.3937,0,0,1,127.479,52.8456Z" fill="#7700b3"/><path d="M132.69,52.6024a.3444.3444,0,0,1-.1524-.2968.3568.3568,0,0,1,.0987-.252.3276.3276,0,0,1,.2519-.1084.3888.3888,0,0,1,.1621.0362,3.7343,3.7343,0,0,0,.5762.1982,2.6847,2.6847,0,0,0,.6475.0713q.999,0,.999-.6387a.3413.3413,0,0,0-.23-.3154,4.7447,4.7447,0,0,0-.751-.2422,6.8143,6.8143,0,0,1-.8779-.2617,1.5482,1.5482,0,0,1-.5937-.4092,1.04,1.04,0,0,1-.2471-.7246,1.3,1.3,0,0,1,.4541-1.0264,1.9214,1.9214,0,0,1,1.3008-.3955,3.7656,3.7656,0,0,1,1.3047.2246.338.338,0,0,1,.1933.1358.3606.3606,0,0,1,.0674.207.3522.3522,0,0,1-.1035.2519.3415.3415,0,0,1-.2559.1075.5168.5168,0,0,1-.1172-.0176,3.4424,3.4424,0,0,0-1.0263-.1621,1.4055,1.4055,0,0,0-.7608.1758.5233.5233,0,0,0-.2744.4541.4148.4148,0,0,0,.252.3955,3.5072,3.5072,0,0,0,.7832.2431,7.4382,7.4382,0,0,1,.8642.2657,1.4266,1.4266,0,0,1,.5713.41,1.1074,1.1074,0,0,1,.2383.7461,1.1882,1.1882,0,0,1-.4541.9541,1.951,1.951,0,0,1-1.2822.3779A3.3534,3.3534,0,0,1,132.69,52.6024Z" fill="#7700b3"/><path d="M137.3979,51.8192v-2.79h-.64a.17.17,0,0,1-.1709-.1709.1888.1888,0,0,1,.081-.1533l1.2236-1.1973a.2309.2309,0,0,1,.1534-.081.16.16,0,0,1,.122.0547.1835.1835,0,0,1,.0489.1259v.72h1.0175a.3536.3536,0,0,1,.252.5986.3337.3337,0,0,1-.252.1035h-1.0175V51.747q0,.3516.167.4453a.8294.8294,0,0,0,.4179.0947,1.246,1.246,0,0,0,.36-.0537c.0234-.0059.05-.0117.0761-.0185a.5027.5027,0,0,1,.1036-.0088.3173.3173,0,0,1,.2255.0947.3063.3063,0,0,1,.0987.23.3421.3421,0,0,1-.2071.3154,1.7718,1.7718,0,0,1-.747.1611Q137.3974,53.0067,137.3979,51.8192Z" fill="#7700b3"/><path d="M140.6821,52.8456a.3927.3927,0,0,1-.1172-.2881V48.6962a.4071.4071,0,0,1,.1172-.293.3837.3837,0,0,1,.2881-.1211.415.415,0,0,1,.414.4141v.3867a1.7741,1.7741,0,0,1,1.4131-.8457h.0449a.3772.3772,0,0,1,.2832.1172.3985.3985,0,0,1,.1123.2881.3607.3607,0,0,1-.1171.2783.42.42,0,0,1-.2969.1084h-.0449a1.53,1.53,0,0,0-.792.2119,1.8147,1.8147,0,0,0-.6026.58v2.7363a.386.386,0,0,1-.122.2881.41.41,0,0,1-.292.1162A.3938.3938,0,0,1,140.6821,52.8456Z" fill="#7700b3"/><path d="M144.7192,52.7733a1.5206,1.5206,0,0,1-.5586-.64,2.0373,2.0373,0,0,1-.1934-.8906V48.6874a.3838.3838,0,0,1,.1211-.2881.4071.4071,0,0,1,.293-.1172.4.4,0,0,1,.4053.4053v2.4658q0,1.0988.9892,1.0977a1.4368,1.4368,0,0,0,.8057-.2334,2.9234,2.9234,0,0,0,.6709-.63v-2.7a.3834.3834,0,0,1,.1211-.2881.407.407,0,0,1,.293-.1172.3988.3988,0,0,1,.4043.4053v3.86a.41.41,0,0,1-.1163.2929.3848.3848,0,0,1-.288.1211.4135.4135,0,0,1-.4141-.414V52.18a2.9938,2.9938,0,0,1-.7383.6025,1.8584,1.8584,0,0,1-.9355.2246A1.5592,1.5592,0,0,1,144.7192,52.7733Z" fill="#7700b3"/><path d="M150.4194,52.7187a2.2109,2.2109,0,0,1-.877-.8272,2.6114,2.6114,0,0,1,0-2.5381,2.2138,2.2138,0,0,1,.877-.8281,2.5353,2.5353,0,0,1,1.1972-.2881,2.49,2.49,0,0,1,.8233.1211,3.1117,3.1117,0,0,1,.6435.3106.3577.3577,0,0,1,.0772.5625.316.316,0,0,1-.2393.1123.4049.4049,0,0,1-.1972-.0538,3.52,3.52,0,0,0-.5088-.2207,1.7607,1.7607,0,0,0-.5264-.0673,1.6312,1.6312,0,0,0-1.2148.4453,1.7841,1.7841,0,0,0,0,2.35,1.6312,1.6312,0,0,0,1.2148.4453,1.76,1.76,0,0,0,.5264-.0674,3.4008,3.4008,0,0,0,.5088-.2207.4058.4058,0,0,1,.1972-.0537.3156.3156,0,0,1,.2393.1123.3577.3577,0,0,1-.0772.5625,3.1117,3.1117,0,0,1-.6435.3106,2.49,2.49,0,0,1-.8233.121A2.5364,2.5364,0,0,1,150.4194,52.7187Z" fill="#7700b3"/><path d="M154.56,51.8192v-2.79h-.64a.17.17,0,0,1-.1709-.1709.1888.1888,0,0,1,.081-.1533l1.2236-1.1973a.2309.2309,0,0,1,.1534-.081.16.16,0,0,1,.122.0547.1835.1835,0,0,1,.0489.1259v.72h1.0175a.3536.3536,0,0,1,.252.5986.3337.3337,0,0,1-.252.1035h-1.0175V51.747q0,.3516.167.4453a.8294.8294,0,0,0,.4179.0947,1.246,1.246,0,0,0,.36-.0537c.0234-.0059.05-.0117.0762-.0185a.5009.5009,0,0,1,.1035-.0088.3175.3175,0,0,1,.2256.0947.3066.3066,0,0,1,.0986.23.342.342,0,0,1-.207.3154,1.7723,1.7723,0,0,1-.7471.1611Q154.56,53.0067,154.56,51.8192Z" fill="#7700b3"/><path d="M157.7915,47.2558a.4375.4375,0,0,1-.1358-.3233v-.0361a.462.462,0,0,1,.459-.459h.0547a.462.462,0,0,1,.459.459v.0361a.4636.4636,0,0,1-.459.459h-.0547A.4374.4374,0,0,1,157.7915,47.2558Zm.0537,5.59a.3923.3923,0,0,1-.1172-.2881V48.6962a.4067.4067,0,0,1,.1172-.293.3837.3837,0,0,1,.2881-.1211.4009.4009,0,0,1,.414.4141v3.8613a.3857.3857,0,0,1-.1221.2881.4091.4091,0,0,1-.2919.1162A.3938.3938,0,0,1,157.8452,52.8456Z" fill="#7700b3"/><path d="M160.7788,52.71a2.01,2.01,0,0,1-.8057-.8409,2.8759,2.8759,0,0,1,0-2.4931,2.0118,2.0118,0,0,1,.8057-.8418,2.6159,2.6159,0,0,1,2.4209,0,2.0513,2.0513,0,0,1,.8095.8418,2.8408,2.8408,0,0,1,0,2.4931,2.049,2.049,0,0,1-.8095.8409,2.6167,2.6167,0,0,1-2.4209,0Zm1.9209-.6211a1.3709,1.3709,0,0,0,.5586-.54,2.083,2.083,0,0,0,0-1.8623A1.3477,1.3477,0,0,0,162.7,49.15a1.5818,1.5818,0,0,0-.7061-.166,1.6037,1.6037,0,0,0-.7158.166,1.3249,1.3249,0,0,0-.5537.5361,2.1168,2.1168,0,0,0,0,1.8623,1.3476,1.3476,0,0,0,.5537.54,1.5592,1.5592,0,0,0,.7158.1709A1.5379,1.5379,0,0,0,162.7,52.0888Z" fill="#7700b3"/><path d="M165.5581,52.8456a.3923.3923,0,0,1-.1172-.2881V48.6962a.4067.4067,0,0,1,.1172-.293.3836.3836,0,0,1,.288-.1211.4152.4152,0,0,1,.4141.4141v.3691a2.9988,2.9988,0,0,1,.7373-.6035,1.8727,1.8727,0,0,1,.9365-.2246,1.5538,1.5538,0,0,1,.8594.2344,1.5105,1.5105,0,0,1,.5576.6387,2.0379,2.0379,0,0,1,.1944.8906v2.5566a.3861.3861,0,0,1-.1221.2881.4093.4093,0,0,1-.292.1162.3986.3986,0,0,1-.4053-.4043V50.0907q0-1.0971-.99-1.0976a1.4327,1.4327,0,0,0-.8057.2343,2.9426,2.9426,0,0,0-.67.63v2.7a.3857.3857,0,0,1-.1221.2881.4092.4092,0,0,1-.292.1162A.3937.3937,0,0,1,165.5581,52.8456Z" fill="#7700b3"/><path d="M170.768,52.6024a.3446.3446,0,0,1-.1523-.2968.3567.3567,0,0,1,.0986-.252.3277.3277,0,0,1,.252-.1084.3888.3888,0,0,1,.1621.0362,3.7368,3.7368,0,0,0,.5761.1982,2.6847,2.6847,0,0,0,.6475.0713q.999,0,.999-.6387a.3411.3411,0,0,0-.23-.3154,4.7463,4.7463,0,0,0-.7509-.2422,6.8212,6.8212,0,0,1-.878-.2617,1.549,1.549,0,0,1-.5937-.4092,1.04,1.04,0,0,1-.2471-.7246,1.3,1.3,0,0,1,.4541-1.0264,1.9214,1.9214,0,0,1,1.3008-.3955,3.7652,3.7652,0,0,1,1.3047.2246.3377.3377,0,0,1,.1933.1358.36.36,0,0,1,.0674.207.3522.3522,0,0,1-.1035.2519.3415.3415,0,0,1-.2559.1075.5161.5161,0,0,1-.1171-.0176,3.4435,3.4435,0,0,0-1.0264-.1621,1.4058,1.4058,0,0,0-.7608.1758.5233.5233,0,0,0-.2744.4541.4148.4148,0,0,0,.252.3955,3.5107,3.5107,0,0,0,.7832.2431,7.432,7.432,0,0,1,.8642.2657,1.426,1.426,0,0,1,.5713.41,1.1074,1.1074,0,0,1,.2383.7461,1.1882,1.1882,0,0,1-.4541.9541,1.951,1.951,0,0,1-1.2822.3779A3.3534,3.3534,0,0,1,170.768,52.6024Z" fill="#7700b3"/><path d="M128.2641,86.5829a.4979.4979,0,0,1-.3848-.1806l-2.2714-2.7432a.5.5,0,0,1,.7695-.6387l1.8115,2.1885,6.5947-11.4912a.5.5,0,1,1,.8672.498l-6.9531,12.1162a.4994.4994,0,0,1-.3906.2491C128.2924,86.5819,128.2778,86.5829,128.2641,86.5829Z" fill="#7700b3"/><path d="M128.2641,68.5829a.4979.4979,0,0,1-.3848-.1806l-2.2714-2.7432a.5.5,0,0,1,.7695-.6387l1.8115,2.1885,6.5947-11.4912a.5.5,0,1,1,.8672.498l-6.9531,12.1162a.4994.4994,0,0,1-.3906.2491C128.2924,68.5819,128.2778,68.5829,128.2641,68.5829Z" fill="#7700b3"/><path d="M120.4934,247.6873a254.9341,254.9341,0,0,0,19.2556-49.3952c7.48-27.3893,6.1436-40.88,5.0235-47.7209-1.385-8.4578-3.093-18.0475-11.1629-26.2325-10.302-10.4489-23.5622-11.093-25.6743-11.1627-1.7707-.0585-18.56-.3536-29.0232,12-7.1374,8.4266-8.78,15.8716-9.3489,30.2791-.6376,16.1673,4.0384,19.0987,2.93,34.1859-.47,6.3958-.9631,19.7267-9.4883,32.6511a55.2621,55.2621,0,0,1-13.6743,14.2326c1.9439,2.1208,4.939,4.6535,8.93,5.2093,9.45,1.3158,15.0337-9.7661,21.9534-7.814,6.3925,1.8034,5.5937,12.38,11.1628,13.3953,6.6939,1.22,11.6726-13.3637,18.9766-12.6511C114.7334,235.0914,118.0313,240.8316,120.4934,247.6873Z" fill="#58595b" opacity="0.15" style="mix-blend-mode:darken"/><polygon points="159.722 163.669 183.659 128.781 182.489 127.945 157.887 162.358 159.722 163.669" fill="#58595b"/><path d="M124.4934,245.6873a254.9341,254.9341,0,0,0,19.2556-49.3952c7.48-27.3893,6.1436-40.88,5.0235-47.7209-1.385-8.4578-3.093-18.0475-11.1629-26.2325-10.302-10.4489-23.5622-11.093-25.6743-11.1627-1.7707-.0585-18.56-.3536-29.0232,12-7.1374,8.4266-8.78,15.8716-9.3489,30.2791-.6376,16.1673,4.0384,19.0987,2.93,34.1859-.47,6.3958-.9631,19.7267-9.4883,32.6511a55.2621,55.2621,0,0,1-13.6743,14.2326c1.9439,2.1208,4.939,4.6535,8.93,5.2093,9.45,1.3158,15.0337-9.7661,21.9534-7.814,6.3925,1.8034,5.5937,12.38,11.1628,13.3953,6.6939,1.22,11.6726-13.3637,18.9766-12.6511C118.7334,233.0914,122.0313,238.8316,124.4934,245.6873Z" fill="#fff" opacity="0.95"/><circle cx="128.0063" cy="142.7236" r="4.8965" fill="#58595b"/><circle cx="101.6584" cy="144.7236" r="4.8965" fill="#58595b"/><path d="M109.2945,157.0141c.4447.3368,3.5173.5056,5.79.5052,2.2284,0,5.1553-.0093,5.635-.4469.554,4.2861-2.5832,7.7516-5.5377,7.7528C111.7427,164.8266,108.7168,161.47,109.2945,157.0141Z" fill="#58595b"/><path d="M116.7388,144.4989a10.2676,10.2676,0,1,1,10.2676,10.2666A10.28,10.28,0,0,1,116.7388,144.4989Zm1,0a9.2676,9.2676,0,1,0,9.2676-9.2675A9.2776,9.2776,0,0,0,117.7388,144.4989Z" fill="#929497"/><path d="M89.188,145.8075a10.2676,10.2676,0,1,1,10.2676,10.2676A10.28,10.28,0,0,1,89.188,145.8075Zm1,0a9.2676,9.2676,0,1,0,9.2676-9.2676A9.2778,9.2778,0,0,0,90.188,145.8075Z" fill="#929497"/><path d="M109.0874,142.4306c.3858-.3994,1.45-1.5,4.5918-1.36,2.6621.126,3.1817.6475,3.5615,1.0283l.3848-.3222.3232-.3838c-.6181-.62-1.4062-1.1885-4.2226-1.32-3.5889-.1729-4.8955,1.1845-5.3242,1.6289Z" fill="#929497"/><path d="M135.75,140.65a.44.44,0,0,0,.0616-.0039.4991.4991,0,0,0,.4355-.5566,7.7071,7.7071,0,0,1,3.2783-6.5c1.7276-.9483,4.586-.3721,5.041-.2276a.5.5,0,1,0,.3047-.9531c-.6631-.2119-3.78-.8233-5.8281.3057a8.6006,8.6006,0,0,0-3.7881,7.496A.5.5,0,0,0,135.75,140.65Z" fill="#929497"/><path d="M89.9028,144.2733a.5.5,0,0,0,.4268-.7607,19.0762,19.0762,0,0,0-6.0225-5.709,13.7538,13.7538,0,0,0-8.9228-.9736.5174.5174,0,0,0-.4248.583.4847.4847,0,0,0,.56.4082,12.8529,12.8529,0,0,1,8.3232.8672,18.2017,18.2017,0,0,1,5.6338,5.3457A.5.5,0,0,0,89.9028,144.2733Z" fill="#929497"/><g opacity="0.9"><path d="M82.9964,175.1257a40.1367,40.1367,0,0,1,6.4056,1.5283c4.51,1.3409,11.4225,3.3486,12.0175,6.38s-2.6923,5.4714-7.1079,5.104c-5.0474-.42-13.8394-2.8548-13.8394-2.8548" fill="#fff"/><path d="M95.189,188.6747a7.5913,7.5913,0,0,0,5.7021-2.1738,4.0734,4.0734,0,0,0,1.0186-3.5635c-.6426-3.2793-7.292-5.2549-12.1475-6.6973l-.2178-.0654a40.4762,40.4762,0,0,0-6.499-1.5469l-.0986.9952a40.6263,40.6263,0,0,1,6.3125,1.5107l.2187.0645c4.085,1.2138,10.9239,3.246,11.4512,5.9326a3.0536,3.0536,0,0,1-.7832,2.7031,7.1044,7.1044,0,0,1-5.792,1.8057c-4.9443-.4112-13.6611-2.8145-13.748-2.8379l-.2676.9629c.3613.1005,8.8955,2.4521,13.9326,2.8711C94.5806,188.662,94.8872,188.6747,95.189,188.6747Z" fill="#a6a8ab"/></g><g opacity="0.9"><path d="M141.1021,167.2854a107.8986,107.8986,0,0,1,10.0533-4.1566c5.7912-2.06,9.2174-2.7336,10.2446.82s-2.38,5.3154-7.2928,8.0949-12.94,6.8917-12.94,6.8917" fill="#fff"/><path d="M141.395,179.3808c.0811-.041,8.0928-4.1485,12.958-6.9014l.5469-.31c4.69-2.6465,8.0791-4.56,6.9805-8.3593a3.7026,3.7026,0,0,0-1.832-2.4444c-1.8614-.9551-4.7315-.249-9.0606,1.292-5.6377,2.0059-10.0615,4.1563-10.1055,4.1777l.44.8985c.043-.0215,4.4189-2.1485,10.0019-4.1348,3.97-1.4131,6.7374-2.1289,8.2686-1.3437a2.7625,2.7625,0,0,1,1.3271,1.832c.8418,2.9111-1.52,4.3945-6.5107,7.2119l-.5478.3086c-4.8477,2.7432-12.8409,6.8408-12.9209,6.8818Z" fill="#a6a8ab"/></g><ellipse cx="90.0819" cy="256.7054" rx="34.0012" ry="4.9003" fill="#58595b" style="mix-blend-mode:overlay"/></g></svg>