<svg xmlns="http://www.w3.org/2000/svg" xmlns:xlink="http://www.w3.org/1999/xlink" width="466.7114" height="309.2882" viewBox="0 0 466.7114 309.2882"><defs><radialGradient id="a" cx="233.3557" cy="154.6441" r="415.2807" gradientTransform="matrix(-1, 0, 0, 1, 466.7114, 0)" gradientUnits="userSpaceOnUse"><stop offset="0" stop-color="#4dc4ff"/><stop offset="1" stop-color="#0c89db"/></radialGradient><radialGradient id="b" cx="256.1319" cy="158.3613" r="304.8247" gradientTransform="matrix(1, 0, 0, -1, -45.5524, 316.7227)" gradientUnits="userSpaceOnUse"><stop offset="0" stop-color="#e1f5ff"/><stop offset="1" stop-color="#b3e5ff"/></radialGradient><radialGradient id="c" cx="365.1334" cy="72.7409" r="133.24" gradientTransform="translate(-263.5555)" gradientUnits="userSpaceOnUse"><stop offset="0" stop-color="#f7e5ff"/><stop offset="1" stop-color="#e6b3ff"/></radialGradient><radialGradient id="d" cx="87.7998" cy="190.5496" r="83.3976" gradientTransform="translate(243.2819 30.3978) rotate(-15.485)" xlink:href="#c"/><radialGradient id="e" cx="365.1334" cy="194.0925" r="125.6358" gradientTransform="translate(-263.5555)" gradientUnits="userSpaceOnUse"><stop offset="0" stop-color="#81d5ff"/><stop offset="1" stop-color="#4dc4ff"/></radialGradient></defs><title>home-schedule</title><g style="isolation:isolate"><path d="M22.1621,130.7008c-17.89,50.2846-26.4,64.4791-20.093,91.98,8.5762,37.3957,48.4882,62.2324,112.422,77.0231,74.1478,17.1536,235.5735,12.8371,291.67-25.6744,16.7662-11.51,56.6475-43.5148,60.2788-90.4184,4.9141-63.4718-58.1671-117.04-91.5347-135.0695C305.6964,11.1459,61.4417-26.8075,32.1563,26.0418,15.0149,56.9757,35.2783,93.8345,22.1621,130.7008Z" fill="url(#a)"/><rect x="116.2128" y="62.9946" width="194.7334" height="194.7334" rx="5.4982" transform="translate(427.159 320.7227) rotate(-180)" fill="#58595b" opacity="0.1" style="mix-blend-mode:darken"/><rect x="113.2128" y="60.9946" width="194.7334" height="194.7334" rx="5.4982" transform="translate(421.159 316.7227) rotate(-180)" fill="url(#b)"/><rect x="140.5227" y="156.5673" width="70.1045" height="4" fill="#4dc4ff"/><rect x="113.2132" y="91.6523" width="194.7334" height="1" fill="#81d5ff"/><rect x="249.5736" y="119.6204" width="15.5787" height="15.5787" rx="3.6654" transform="translate(514.7258 254.8195) rotate(-180)" fill="#81d5ff"/><rect x="226.2055" y="119.6204" width="15.5787" height="15.5787" rx="3.6654" transform="translate(467.9898 254.8195) rotate(-180)" fill="#81d5ff"/><rect x="202.8375" y="119.6204" width="15.5787" height="15.5787" rx="3.6654" transform="translate(421.2537 254.8195) rotate(-180)" fill="#81d5ff"/><rect x="179.4695" y="119.6204" width="15.5787" height="15.5787" rx="3.6654" transform="translate(374.5177 254.8195) rotate(-180)" fill="#81d5ff"/><rect x="156.1015" y="119.6204" width="15.5787" height="15.5787" rx="3.6654" transform="translate(327.7817 254.8195) rotate(-180)" fill="#81d5ff"/><rect x="272.9416" y="119.6204" width="15.5787" height="15.5787" rx="3.6654" transform="translate(561.4618 254.8195) rotate(-180)" fill="#81d5ff"/><path d="M276.0852,166.3564a.5185.5185,0,0,1,.5215-.5h3.999a.5.5,0,0,1,0,1h-4.042A.4819.4819,0,0,1,276.0852,166.3564Zm8.02,0a.5.5,0,0,1,.5-.5h.25a3.1465,3.1465,0,0,0,2.7021-1.5157.5006.5006,0,1,1,.8535.5235,4.1434,4.1434,0,0,1-3.5556,1.9922h-.25A.5.5,0,0,1,284.1048,166.3564Zm-11.2159-1.7842a4.1864,4.1864,0,0,1-.4472-1.8809v-2.2822a.5.5,0,0,1,1,0v2.2822a3.1191,3.1191,0,0,0,.34,1.4278.5005.5005,0,0,1-.8926.4531Zm15.1319-3.8692v-3.999a.5.5,0,0,1,1,0v3.999a.5.5,0,0,1-1,0ZM272.4417,156.41v-1.9668a4.1553,4.1553,0,0,1,.624-2.1924.5.5,0,0,1,.85.5273,3.1591,3.1591,0,0,0-.4736,1.6651V156.41a.5.5,0,0,1-1,0Zm15.23-3.4121a3.1633,3.1633,0,0,0-2.7988-1.7207.5.5,0,0,1,.0029-1h.003a4.157,4.157,0,0,1,3.6816,2.2636.4984.4984,0,0,1-.2158.6729.4931.4931,0,0,1-.2285.0556A.4993.4993,0,0,1,287.6721,152.998Zm-11.2929-2.22a.5.5,0,0,1,.5-.5h3.999a.5.5,0,0,1,0,1h-3.999A.5.5,0,0,1,276.3792,150.7782Z" fill="#4dc4ff"/><rect x="249.5736" y="150.7778" width="15.5787" height="15.5787" rx="3.6654" transform="translate(514.7258 317.1342) rotate(-180)" fill="#81d5ff"/><rect x="226.2055" y="150.7778" width="15.5787" height="15.5787" rx="3.6654" transform="translate(467.9898 317.1342) rotate(-180)" fill="#81d5ff"/><rect x="202.8375" y="150.7778" width="15.5787" height="15.5787" rx="3.6654" transform="translate(421.2537 317.1342) rotate(-180)" fill="#81d5ff"/><rect x="179.4695" y="150.7778" width="15.5787" height="15.5787" rx="3.6654" transform="translate(374.5177 317.1342) rotate(-180)" fill="#81d5ff"/><rect x="156.1015" y="150.7778" width="15.5787" height="15.5787" rx="3.6654" transform="translate(327.7817 317.1342) rotate(-180)" fill="#81d5ff"/><rect x="132.7335" y="150.7778" width="15.5787" height="15.5787" rx="3.6654" transform="translate(281.0457 317.1342) rotate(-180)" fill="#81d5ff"/><rect x="272.9416" y="181.9351" width="15.5787" height="15.5787" rx="3.6654" transform="translate(561.4618 379.4489) rotate(-180)" fill="#81d5ff"/><rect x="249.5736" y="181.9351" width="15.5787" height="15.5787" rx="3.6654" transform="translate(514.7258 379.4489) rotate(-180)" fill="#81d5ff"/><rect x="226.2055" y="181.9351" width="15.5787" height="15.5787" rx="3.6654" transform="translate(467.9898 379.4489) rotate(-180)" fill="#81d5ff"/><rect x="202.8375" y="181.9351" width="15.5787" height="15.5787" rx="3.6654" transform="translate(421.2537 379.4489) rotate(-180)" fill="#81d5ff"/><rect x="179.4695" y="181.9351" width="15.5787" height="15.5787" rx="3.6654" transform="translate(374.5177 379.4489) rotate(-180)" fill="#81d5ff"/><rect x="156.1015" y="181.9351" width="15.5787" height="15.5787" rx="3.6654" transform="translate(327.7817 379.4489) rotate(-180)" fill="#81d5ff"/><rect x="132.7335" y="181.9351" width="15.5787" height="15.5787" rx="3.6654" transform="translate(281.0457 379.4489) rotate(-180)" fill="#81d5ff"/><rect x="132.7335" y="213.0925" width="15.5787" height="15.5787" rx="3.6654" transform="translate(281.0457 441.7636) rotate(-180)" fill="#81d5ff"/><rect x="249.5736" y="213.0925" width="15.5787" height="15.5787" rx="3.6654" transform="translate(514.7258 441.7636) rotate(-180)" fill="#81d5ff"/><rect x="226.2055" y="213.0925" width="15.5787" height="15.5787" rx="3.6654" transform="translate(467.9898 441.7636) rotate(-180)" fill="#81d5ff"/><rect x="202.8375" y="213.0925" width="15.5787" height="15.5787" rx="3.6654" transform="translate(421.2537 441.7636) rotate(-180)" fill="#81d5ff"/><rect x="179.4695" y="213.0925" width="15.5787" height="15.5787" rx="3.6654" transform="translate(374.5177 441.7636) rotate(-180)" fill="#81d5ff"/><rect x="156.1015" y="213.0925" width="15.5787" height="15.5787" rx="3.6654" transform="translate(327.7817 441.7636) rotate(-180)" fill="#81d5ff"/><rect x="170.7862" y="72.8855" width="79.6814" height="9.9602" transform="translate(421.2537 155.7311) rotate(-180)" fill="#b3e5ff"/><polygon points="271.9 84.803 283.916 77.865 271.9 70.928 271.4 71.793 281.916 77.865 271.4 83.937 271.9 84.803" fill="#81d5ff"/><polygon points="149.207 84.803 149.707 83.937 139.191 77.865 149.707 71.793 149.207 70.928 137.191 77.865 149.207 84.803" fill="#81d5ff"/><rect x="52.5573" y="49.4516" width="102.0412" height="50.5785" rx="2.8858" transform="translate(207.1558 149.4818) rotate(-180)" fill="#58595b" opacity="0.1" style="mix-blend-mode:darken"/><rect x="50.5573" y="47.4516" width="102.0412" height="50.5785" rx="2.8858" fill="url(#c)"/><rect x="66.7256" y="58.8094" width="15" height="15" rx="1.1203" fill="#d580ff"/><rect x="81.9861" y="82.6282" width="39.1837" height="11.2063" rx="1.5082" fill="#7700b3"/><rect x="89.7256" y="58.8711" width="46.2957" height="4.2471" fill="#e6b3ff"/><rect x="89.7256" y="69.5622" width="27.4776" height="4.2471" fill="#e6b3ff"/><path d="M93.0628,91.5048a.39.39,0,0,1-.1172-.2871V85.7089a.4032.4032,0,0,1,.1172-.292.3809.3809,0,0,1,.2881-.1221h2.0517a2.9582,2.9582,0,0,1,1.3946.2881,1.7774,1.7774,0,0,1,.7744.7383,2.1313,2.1313,0,0,1,0,1.9434,1.7723,1.7723,0,0,1-.7744.7382,2.9461,2.9461,0,0,1-1.3946.2881H93.7649v1.9268a.3838.3838,0,0,1-.122.2871.4065.4065,0,0,1-.292.1172A.3911.3911,0,0,1,93.0628,91.5048Zm2.2588-2.9883a1.8706,1.8706,0,0,0,1.291-.3506,1.206,1.206,0,0,0,0-1.7461,1.8757,1.8757,0,0,0-1.291-.3506H93.7649v2.4473Z" fill="#fff"/><path d="M99.5159,91.37a2.0058,2.0058,0,0,1-.8056-.8418,2.8739,2.8739,0,0,1,0-2.4922,2.0069,2.0069,0,0,1,.8056-.8418,2.6167,2.6167,0,0,1,2.4209,0,2.0461,2.0461,0,0,1,.81.8418,2.8389,2.8389,0,0,1,0,2.4922,2.0449,2.0449,0,0,1-.81.8418,2.6159,2.6159,0,0,1-2.4209,0Zm1.9209-.6211a1.3688,1.3688,0,0,0,.5586-.54,1.8036,1.8036,0,0,0,.22-.9365,1.7847,1.7847,0,0,0-.22-.9258,1.3465,1.3465,0,0,0-.5586-.5361,1.5821,1.5821,0,0,0-.706-.167,1.6054,1.6054,0,0,0-.7159.167,1.3254,1.3254,0,0,0-.5537.5361,1.8146,1.8146,0,0,0-.2158.9258,1.8339,1.8339,0,0,0,.2158.9365,1.3473,1.3473,0,0,0,.5537.54,1.5586,1.5586,0,0,0,.7159.1709A1.536,1.536,0,0,0,101.4368,90.7489Z" fill="#fff"/><path d="M104.0237,91.2626a.346.346,0,0,1-.1523-.2969.3566.3566,0,0,1,.0986-.2519.3282.3282,0,0,1,.252-.1094.3918.3918,0,0,1,.1621.0371,3.6259,3.6259,0,0,0,.5762.1973,2.6332,2.6332,0,0,0,.6474.0722q.999,0,.999-.6386a.34.34,0,0,0-.2294-.3155,4.7428,4.7428,0,0,0-.751-.2431,6.82,6.82,0,0,1-.878-.2608,1.5477,1.5477,0,0,1-.5937-.4091,1.0422,1.0422,0,0,1-.2471-.7247,1.3,1.3,0,0,1,.4541-1.0263,1.9218,1.9218,0,0,1,1.3008-.3955,3.742,3.742,0,0,1,1.3047.2246.3367.3367,0,0,1,.1934.1347.3633.3633,0,0,1,.0673.2071.3517.3517,0,0,1-.1035.2519.3384.3384,0,0,1-.2558.1084.4729.4729,0,0,1-.1172-.0185,3.4759,3.4759,0,0,0-1.0264-.1621,1.4063,1.4063,0,0,0-.7607.1757.5259.5259,0,0,0-.2744.4551.4147.4147,0,0,0,.2519.3955,3.5581,3.5581,0,0,0,.7832.2432,7.4429,7.4429,0,0,1,.8643.2656,1.4276,1.4276,0,0,1,.5713.41,1.1075,1.1075,0,0,1,.2382.7461,1.1882,1.1882,0,0,1-.4541.9541,1.9514,1.9514,0,0,1-1.2822.3779A3.3545,3.3545,0,0,1,104.0237,91.2626Z" fill="#fff"/><path d="M108.7317,90.4794v-2.791h-.64a.1618.1618,0,0,1-.1211-.0488.1644.1644,0,0,1-.05-.1211.1887.1887,0,0,1,.0811-.1534l1.2236-1.1972a.2311.2311,0,0,1,.1533-.0811.1571.1571,0,0,1,.1221.0547.1817.1817,0,0,1,.0488.125v.7207h1.0176a.3529.3529,0,0,1,.2519.5977.33.33,0,0,1-.2519.1035H109.55v2.7187q0,.3516.167.4454a.84.84,0,0,0,.418.0947,1.28,1.28,0,0,0,.36-.0537c.0235-.0059.05-.0118.0762-.0186a.508.508,0,0,1,.1035-.0088.3206.3206,0,0,1,.2256.0938.31.31,0,0,1,.0986.23.3408.3408,0,0,1-.207.3145,1.7581,1.7581,0,0,1-.7471.1621Q108.7312,91.6669,108.7317,90.4794Z" fill="#fff"/><path d="M326.7806,237.21c-12.2573-33.1316-11.6168-59.9466-9.8189-75.4577,3.2868-28.3534,12.5-36.6931,15.1859-38.929,10.3063-8.5812,27.7951-13.293,41.4159-5.7691,11.0405,6.0986,14.919,17.6837,16.0066,20.9326,3.14,9.3813,2.0357,17.892.8342,27.1509-1.8509,14.2608-5.4813,17.6742-3.3352,26.5146,1.4267,5.8776,4.4147,10.0648,7.7144,14.689a69.2649,69.2649,0,0,0,14.77,15.0548s-1.45,9.4978-9.2591,11.7432c-6.4982,1.8683-12.0416-9.0126-20.1594-7.699-7.3045,1.182-7.7391,10.4379-14.8721,11.2422-6.5772.7417-10.6454-8.8128-21.0024-8.5313C333.095,228.4547,336.0469,238.6242,326.7806,237.21Z" fill="#58595b" opacity="0.15" style="mix-blend-mode:darken"/><path d="M322.7806,234.21c-12.2573-33.1316-11.6168-59.9466-9.8189-75.4577,3.2868-28.3534,12.5-36.6931,15.1859-38.929,10.3063-8.5812,27.7951-13.293,41.4159-5.7691,11.0405,6.0986,14.919,17.6837,16.0066,20.9326,3.14,9.3813,2.0357,17.892.8342,27.1509-1.8509,14.2608-5.4813,17.6742-3.3352,26.5146,1.4267,5.8776,4.4147,10.0648,7.7144,14.689a69.2649,69.2649,0,0,0,14.77,15.0548s-1.45,9.4978-9.2591,11.7432c-6.4982,1.8683-12.0416-9.0126-20.1594-7.699-7.3045,1.182-7.7391,10.4379-14.8721,11.2422-6.5772.7417-10.6454-8.8128-21.0024-8.5313C329.095,225.4547,332.0469,235.6242,322.7806,234.21Z" fill="#fff" opacity="0.95"/><circle cx="334.8757" cy="133.2033" r="3.3331" fill="#58595b"/><circle cx="353.3977" cy="133.7216" r="3.3331" fill="#58595b"/><ellipse cx="344.7954" cy="143.8554" rx="2.7346" ry="3.3331" transform="translate(-1.3358 3.2444) rotate(-0.5381)" fill="#58595b"/><g opacity="0.9"><path d="M317.9841,167.8281s-9.12-.2144-14.1176.6106c-4.3717.7217-6.9636,3.89-5.6466,6.6848s8.5109,3.0535,13.2115,3.2528a40.1223,40.1223,0,0,0,6.5848-.082" fill="#fff"/><path d="M314.57,178.9472a26.9278,26.9278,0,0,0,3.5205-.1592l-.1475-.9883a40.573,40.573,0,0,1-6.49.0762l-.2305-.0088c-4.2568-.1807-11.3828-.4814-12.55-2.9561a3.0541,3.0541,0,0,1,.0987-2.8134,7.08,7.08,0,0,1,5.1767-3.166c4.8946-.8067,13.9346-.6055,14.0244-.6036l.0235-1c-.376-.0078-9.2246-.207-14.21.6172a7.9685,7.9685,0,0,0-5.9,3.6875,4.0727,4.0727,0,0,0-.1172,3.7041c1.4248,3.0225,8.3536,3.3155,13.4121,3.5293l.23.01C312.6526,178.9276,313.7,178.9472,314.57,178.9472Z" fill="#a6a8ab"/></g><rect x="350.7006" y="177.1259" width="58.2792" height="28.8871" rx="1.6482" transform="translate(797.0386 274.7729) rotate(164.515)" fill="#58595b" opacity="0.1" style="mix-blend-mode:darken"/><rect x="349.6292" y="176.1456" width="58.2792" height="28.8871" rx="1.6482" transform="matrix(0.9636, -0.2675, 0.2675, 0.9636, -37.1787, 108.2621)" fill="url(#d)"/><rect x="358.4501" y="186.945" width="8.567" height="8.567" rx="0.6398" transform="translate(-37.934 103.9961) rotate(-15.515)" fill="#d580ff"/><rect x="369.9457" y="195.9138" width="22.3792" height="6.4003" rx="0.8614" transform="translate(-39.3727 109.2057) rotate(-15.515)" fill="#7700b3"/><rect x="369.9699" y="181.1865" width="26.441" height="2.4257" transform="translate(-34.8268 109.1464) rotate(-15.515)" fill="#e6b3ff"/><rect x="371.7991" y="188.5075" width="15.6934" height="2.4257" transform="translate(-36.9143 108.465) rotate(-15.515)" fill="#e6b3ff"/><path d="M376.9531,202.27a.2233.2233,0,0,1-.1078-.1415l-.8413-3.0308a.2311.2311,0,0,1,.019-.1789.22.22,0,0,1,.14-.11l1.13-.3141a1.6947,1.6947,0,0,1,.8114-.0546,1.012,1.012,0,0,1,.5388.2881,1.2209,1.2209,0,0,1,.2968,1.07,1.0019,1.0019,0,0,1-.3134.5233,1.6753,1.6753,0,0,1-.7233.3719l-.9014.25.2943,1.06a.2193.2193,0,0,1-.0235.177.236.236,0,0,1-.1426.11A.226.226,0,0,1,376.9531,202.27Zm.7866-1.99a1.0692,1.0692,0,0,0,.6574-.3905.6883.6883,0,0,0-.2672-.96,1.069,1.069,0,0,0-.7646.0037l-.8563.2377.3743,1.3473Z" fill="#fff"/><path d="M380.4834,201.2091a1.1561,1.1561,0,0,1-.5722-.34,1.65,1.65,0,0,1-.381-1.3717,1.1647,1.1647,0,0,1,.315-.5869,1.3934,1.3934,0,0,1,.6235-.3484,1.3672,1.3672,0,0,1,.7084-.0212,1.1706,1.1706,0,0,1,.5757.34,1.627,1.627,0,0,1,.3805,1.3709,1.1763,1.1763,0,0,1-.318.5876,1.4928,1.4928,0,0,1-1.3319.37Zm.9618-.6348a.7787.7787,0,0,0,.2257-.3829,1.0323,1.0323,0,0,0-.0212-.5489,1.0112,1.0112,0,0,0-.2642-.4758.7469.7469,0,0,0-.389-.2095.8852.8852,0,0,0-.414.0164.9017.9017,0,0,0-.3673.2.7511.7511,0,0,0-.2242.38,1.2177,1.2177,0,0,0,.2853,1.0248.7574.7574,0,0,0,.3875.2126.8731.8731,0,0,0,.4194-.015A.86.86,0,0,0,381.4452,200.5743Z" fill="#fff"/><path d="M382.9486,200.4616a.2024.2024,0,0,1-.1293-.1411.208.208,0,0,1,.017-.1537.1812.1812,0,0,1,.1212-.0979.22.22,0,0,1,.0951-.0048,2.1679,2.1679,0,0,0,.3477.0212,1.5735,1.5735,0,0,0,.3673-.06q.5493-.1522.4524-.5042a.1953.1953,0,0,0-.175-.1376,2.5834,2.5834,0,0,0-.4513-.0193,3.7662,3.7662,0,0,1-.5221-.01.8864.8864,0,0,1-.3893-.134.5912.5912,0,0,1-.2466-.3611.7409.7409,0,0,1,.0927-.6345,1.1005,1.1005,0,0,1,.6555-.4166,2.1566,2.1566,0,0,1,.7532-.0755.197.197,0,0,1,.127.0445.2145.2145,0,0,1,.0672.1043.204.204,0,0,1-.0169.1537.1958.1958,0,0,1-.1251.0991.2541.2541,0,0,1-.0673.0074,1.9542,1.9542,0,0,0-.59.0685.812.812,0,0,0-.3918.2126.2972.2972,0,0,0-.0807.2923.2367.2367,0,0,0,.1988.1791,2.057,2.057,0,0,0,.4676.0141,4.0037,4.0037,0,0,1,.5158.0148.8108.8108,0,0,1,.3786.1371.6353.6353,0,0,1,.2446.3748.6764.6764,0,0,1-.1055.5943,1.1057,1.1057,0,0,1-.6472.4037A1.9262,1.9262,0,0,1,382.9486,200.4616Z" fill="#fff"/><path d="M385.4188,199.3111l-.4262-1.536-.3516.0974a.0954.0954,0,0,1-.1191-.0674.1057.1057,0,0,1,.02-.0967l.4907-.8462a.1326.1326,0,0,1,.0718-.0682.0968.0968,0,0,1,.0753.0116.1064.1064,0,0,1,.0465.0621l.11.3962.5591-.1559a.1982.1982,0,0,1,.1538.017.1932.1932,0,0,1,.0932.1228.1968.1968,0,0,1-.0172.1516.188.188,0,0,1-.1227.0954l-.56.1551.4157,1.4957c.0354.1291.0888.2029.16.2206a.4781.4781,0,0,0,.2443-.0124.686.686,0,0,0,.19-.0843c.0126-.0076.0256-.0143.0395-.0215a.255.255,0,0,1,.0553-.0218.18.18,0,0,1,.1377.0187.1732.1732,0,0,1,.0905.1108.1945.1945,0,0,1-.0661.2048.9963.9963,0,0,1-.3859.2034Q385.6007,199.9646,385.4188,199.3111Z" fill="#fff"/><g opacity="0.9"><path d="M378.4415,170.9827a107.91,107.91,0,0,1,5.7327,9.2456c2.9724,5.38,4.1929,8.6518.8527,10.242s-5.631-1.4855-9.171-5.8827-8.9-11.65-8.9-11.65" fill="#fff"/><path d="M383.2786,191.4032a4.5217,4.5217,0,0,0,1.9629-.4814,3.701,3.701,0,0,0,2.1152-2.2041c.64-1.99-.5225-4.709-2.7451-8.7315-2.8936-5.2373-5.7334-9.2529-5.7617-9.2929l-.8164.5781c.0283.04,2.8379,4.0127,5.7031,9.1992,2.0371,3.6875,3.1943,6.3018,2.668,7.9414a2.7637,2.7637,0,0,1-1.5928,1.6074c-2.7363,1.2969-4.582-.7871-8.1738-5.2568l-.3926-.4883c-3.4932-4.3388-8.833-11.5615-8.8867-11.6338l-.8047.5938c.0537.0732,5.4062,7.3115,8.9121,11.667l.3926.4883C378.5784,188.7753,380.6907,191.4032,383.2786,191.4032Z" fill="#a6a8ab"/></g><rect x="52.5573" y="170.8032" width="102.0412" height="50.5785" rx="2.8858" transform="translate(207.1558 392.185) rotate(-180)" fill="#58595b" opacity="0.1" style="mix-blend-mode:darken"/><rect x="50.5573" y="168.8032" width="102.0412" height="50.5785" rx="2.8858" fill="url(#e)"/><path d="M71.7415,182.3827a.4006.4006,0,0,1-.18-.1494.37.37,0,0,1-.0722-.22.377.377,0,0,1,.1035-.2656.3438.3438,0,0,1,.2656-.1123.4254.4254,0,0,1,.1709.0351,4.3029,4.3029,0,0,0,1.7734.3692q1.5747,0,1.5743-1.0352a.5765.5765,0,0,0-.2022-.4492,1.4544,1.4544,0,0,0-.5-.2832q-.2959-.1041-.8457-.2481a10.8156,10.8156,0,0,1-1.1787-.3642,2.0545,2.0545,0,0,1-.7744-.5264,1.3261,1.3261,0,0,1-.3233-.9355,1.6813,1.6813,0,0,1,.27-.9317,1.8446,1.8446,0,0,1,.7968-.666,2.9348,2.9348,0,0,1,1.2637-.248,5.1353,5.1353,0,0,1,1.791.2968.3517.3517,0,0,1,.253.36.3923.3923,0,0,1-.1.2607.3258.3258,0,0,1-.2607.1172.4106.4106,0,0,1-.1445-.0361,4.3911,4.3911,0,0,0-1.4483-.2432,2.2146,2.2146,0,0,0-1.1572.2695.8434.8434,0,0,0-.4453.7569.6936.6936,0,0,0,.2119.5263,1.4346,1.4346,0,0,0,.5313.3145,8.0095,8.0095,0,0,0,.8681.2393,9.0455,9.0455,0,0,1,1.1475.3418,1.8871,1.8871,0,0,1,.7471.53,1.44,1.44,0,0,1,.31.9727,1.5142,1.5142,0,0,1-.2881.9043,1.8831,1.8831,0,0,1-.81.626,3.0336,3.0336,0,0,1-1.2061.2246A5.3354,5.3354,0,0,1,71.7415,182.3827Z" fill="#0d57a4"/><path d="M78.2122,182.5263a2.206,2.206,0,0,1-.8769-.8281,2.61,2.61,0,0,1,0-2.5372,2.206,2.206,0,0,1,.8769-.8281,2.5361,2.5361,0,0,1,1.1973-.289,2.4882,2.4882,0,0,1,.8232.122,3.1125,3.1125,0,0,1,.6436.3106.3577.3577,0,0,1,.0771.5625.3156.3156,0,0,1-.2392.1123.4059.4059,0,0,1-.1973-.0537,3.386,3.386,0,0,0-.5088-.2207,1.7572,1.7572,0,0,0-.5264-.0674,1.6312,1.6312,0,0,0-1.2148.4453,1.7841,1.7841,0,0,0,0,2.35,1.6312,1.6312,0,0,0,1.2148.4453,1.7261,1.7261,0,0,0,.5264-.0683,3.3793,3.3793,0,0,0,.5088-.22.4059.4059,0,0,1,.1973-.0537.3156.3156,0,0,1,.2392.1123.3577.3577,0,0,1-.0771.5625,3.06,3.06,0,0,1-.6436.31,2.4623,2.4623,0,0,1-.8232.1221A2.5354,2.5354,0,0,1,78.2122,182.5263Z" fill="#0d57a4"/><path d="M82.2,182.6532a.3933.3933,0,0,1-.1172-.289v-5.8409a.403.403,0,0,1,.1172-.2919.3806.3806,0,0,1,.2881-.1221.4169.4169,0,0,1,.4141.414v2.3487a2.972,2.972,0,0,1,.7373-.6026,1.8724,1.8724,0,0,1,.9365-.2255,1.5546,1.5546,0,0,1,.8594.2343,1.5231,1.5231,0,0,1,.5576.6387,2.0454,2.0454,0,0,1,.1943.8916v2.5557a.3866.3866,0,0,1-.122.289.41.41,0,0,1-.292.1162.3986.3986,0,0,1-.4053-.4052v-2.4659q0-1.0971-.99-1.0976a1.431,1.431,0,0,0-.8057.2334,2.9417,2.9417,0,0,0-.67.6309v2.6992a.3863.3863,0,0,1-.1221.289.4093.4093,0,0,1-.292.1162A.3938.3938,0,0,1,82.2,182.6532Z" fill="#0d57a4"/><path d="M87.9017,182.1884a2.3957,2.3957,0,0,1-.6172-1.7588,2.9222,2.9222,0,0,1,.2344-1.1787,2,2,0,0,1,.72-.8731,2.0656,2.0656,0,0,1,1.1972-.3339,2.0945,2.0945,0,0,1,1.1524.31,2.02,2.02,0,0,1,.7373.8281,2.5514,2.5514,0,0,1,.2519,1.13.3931.3931,0,0,1-.414.4053H88.1126a1.4781,1.4781,0,0,0,.4678.9805,1.6139,1.6139,0,0,0,1.1074.3515,2.6594,2.6594,0,0,0,.6611-.0722,2.7292,2.7292,0,0,0,.5537-.2071.3752.3752,0,0,1,.4141.0625.3273.3273,0,0,1,.1084.252.3892.3892,0,0,1-.2344.334,3.2855,3.2855,0,0,1-.6933.2968,3.23,3.23,0,0,1-.8819.0987A2.2924,2.2924,0,0,1,87.9017,182.1884Zm2.8662-2.1367a1.4418,1.4418,0,0,0-.23-.7383,1.2406,1.2406,0,0,0-.5-.4365,1.3693,1.3693,0,0,0-1.2051,0,1.2091,1.2091,0,0,0-.4951.4365,1.4691,1.4691,0,0,0-.2256.7383Z" fill="#0d57a4"/><path d="M93.4993,182.5312a2.1469,2.1469,0,0,1-.8105-.8282,2.7656,2.7656,0,0,1,0-2.5468,2.1469,2.1469,0,0,1,.8105-.8282,2.1172,2.1172,0,0,1,1.0576-.2841,2.07,2.07,0,0,1,1.5391.6845v-2.2051a.3935.3935,0,0,1,.1211-.2968.4109.4109,0,0,1,.293-.1172.3788.3788,0,0,1,.2871.1221.403.403,0,0,1,.1172.2919v5.8409a.3986.3986,0,0,1-.4043.4052.41.41,0,0,1-.293-.1162.3854.3854,0,0,1-.1211-.289V182.13a2.0664,2.0664,0,0,1-1.5391.6846A2.1162,2.1162,0,0,1,93.4993,182.5312Zm1.9531-.6661a2.2243,2.2243,0,0,0,.6436-.4912v-1.89a2.2386,2.2386,0,0,0-.6436-.49,1.7011,1.7011,0,0,0-.7792-.1846,1.4124,1.4124,0,0,0-1.07.4228,1.97,1.97,0,0,0,0,2.3936,1.41,1.41,0,0,0,1.07.4238A1.7011,1.7011,0,0,0,95.4524,181.8651Z" fill="#0d57a4"/><path d="M99.0433,182.581a1.5214,1.5214,0,0,1-.5586-.64,2.0436,2.0436,0,0,1-.1934-.8906V178.495a.3858.3858,0,0,1,.1211-.289.41.41,0,0,1,.293-.1162.3986.3986,0,0,1,.4053.4052V180.96q0,1.0986.9892,1.0986a1.4368,1.4368,0,0,0,.8057-.2334,2.9268,2.9268,0,0,0,.6709-.6309V178.495a.3854.3854,0,0,1,.1211-.289.41.41,0,0,1,.2929-.1162.397.397,0,0,1,.4043.4052v3.86a.4062.4062,0,0,1-.1162.292.3824.3824,0,0,1-.2881.122.415.415,0,0,1-.414-.414v-.3682a2.9943,2.9943,0,0,1-.7383.6026,1.8689,1.8689,0,0,1-.9356.2246A1.56,1.56,0,0,1,99.0433,182.581Z" fill="#0d57a4"/><path d="M103.9339,182.6532a.3933.3933,0,0,1-.1172-.289v-5.8409a.403.403,0,0,1,.1172-.2919.3806.3806,0,0,1,.2881-.1221.4007.4007,0,0,1,.414.414v5.8409a.3866.3866,0,0,1-.122.289.4093.4093,0,0,1-.292.1162A.3938.3938,0,0,1,103.9339,182.6532Z" fill="#0d57a4"/><path d="M106.3958,182.1884a2.3962,2.3962,0,0,1-.6172-1.7588,2.9222,2.9222,0,0,1,.2344-1.1787,2,2,0,0,1,.72-.8731,2.0659,2.0659,0,0,1,1.1973-.3339,2.0944,2.0944,0,0,1,1.1523.31,2.0188,2.0188,0,0,1,.7373.8281,2.5515,2.5515,0,0,1,.252,1.13.3931.3931,0,0,1-.4141.4053h-3.0508a1.4781,1.4781,0,0,0,.4678.9805,1.6141,1.6141,0,0,0,1.1074.3515,2.6608,2.6608,0,0,0,.6612-.0722,2.7337,2.7337,0,0,0,.5537-.2071.375.375,0,0,1,.414.0625.3273.3273,0,0,1,.1084.252.3893.3893,0,0,1-.2343.334,3.2884,3.2884,0,0,1-.6934.2968,3.229,3.229,0,0,1-.8818.0987A2.2926,2.2926,0,0,1,106.3958,182.1884Zm2.8662-2.1367a1.4418,1.4418,0,0,0-.23-.7383,1.2393,1.2393,0,0,0-.5-.4365,1.3693,1.3693,0,0,0-1.2051,0,1.21,1.21,0,0,0-.4951.4365,1.4691,1.4691,0,0,0-.2256.7383Z" fill="#0d57a4"/><path d="M113.7718,182.6532a.3933.3933,0,0,1-.1172-.289v-5.5078a.41.41,0,0,1,.1172-.293.387.387,0,0,1,.2881-.1211h2.0517a2.9464,2.9464,0,0,1,1.3946.2881,1.783,1.783,0,0,1,.7744.7383,2.134,2.134,0,0,1,0,1.9443,1.7811,1.7811,0,0,1-.7744.7373,2.9464,2.9464,0,0,1-1.3946.2881h-1.6377v1.9258a.3866.3866,0,0,1-.122.289.4093.4093,0,0,1-.292.1162A.3938.3938,0,0,1,113.7718,182.6532Zm2.2588-2.9882a1.87,1.87,0,0,0,1.291-.3516,1.206,1.206,0,0,0,0-1.7461,1.8706,1.8706,0,0,0-1.291-.3506h-1.5567v2.4483Z" fill="#0d57a4"/><path d="M120.2249,182.5175a2.0163,2.0163,0,0,1-.8057-.8408,2.8792,2.8792,0,0,1,0-2.4942,2.0163,2.0163,0,0,1,.8057-.8408,2.6089,2.6089,0,0,1,2.4209,0,2.055,2.055,0,0,1,.81.8408,2.8432,2.8432,0,0,1,0,2.4942,2.055,2.055,0,0,1-.81.8408,2.6159,2.6159,0,0,1-2.4209,0Zm1.9209-.6211a1.3764,1.3764,0,0,0,.5586-.54,2.0852,2.0852,0,0,0,0-1.8633,1.3447,1.3447,0,0,0-.5586-.5352,1.57,1.57,0,0,0-.706-.166,1.5922,1.5922,0,0,0-.7159.166,1.3231,1.3231,0,0,0-.5537.5352,2.1189,2.1189,0,0,0,0,1.8633,1.3541,1.3541,0,0,0,.5537.54,1.5583,1.5583,0,0,0,.7159.1709A1.5363,1.5363,0,0,0,122.1458,181.8964Z" fill="#0d57a4"/><path d="M124.7327,182.4091a.3436.3436,0,0,1-.1523-.2969.36.36,0,0,1,.0986-.2519.3266.3266,0,0,1,.252-.1075.4052.4052,0,0,1,.1621.0352,3.7322,3.7322,0,0,0,.5761.1992,2.7313,2.7313,0,0,0,.6475.0713q.999,0,.999-.64a.341.341,0,0,0-.23-.3145,4.653,4.653,0,0,0-.7509-.2422,6.8212,6.8212,0,0,1-.878-.2617,1.54,1.54,0,0,1-.5937-.41,1.0357,1.0357,0,0,1-.2471-.7236,1.2985,1.2985,0,0,1,.4541-1.0264,1.9221,1.9221,0,0,1,1.3008-.3964,3.7657,3.7657,0,0,1,1.3047.2255.3382.3382,0,0,1,.1933.1358.36.36,0,0,1,.0674.207.3525.3525,0,0,1-.1035.252.3414.3414,0,0,1-.2559.1074.5161.5161,0,0,1-.1171-.0176,3.4435,3.4435,0,0,0-1.0264-.1621,1.4052,1.4052,0,0,0-.7607.1758.5218.5218,0,0,0-.2745.4531.4162.4162,0,0,0,.252.3965,3.5636,3.5636,0,0,0,.7832.2432,7.4429,7.4429,0,0,1,.8643.2656,1.4328,1.4328,0,0,1,.5712.4092,1.1115,1.1115,0,0,1,.2383.747,1.1893,1.1893,0,0,1-.4541.9541,1.9508,1.9508,0,0,1-1.2822.378A3.3442,3.3442,0,0,1,124.7327,182.4091Z" fill="#0d57a4"/><path d="M129.4407,181.6259v-2.7891h-.64a.17.17,0,0,1-.1709-.1718.1885.1885,0,0,1,.081-.1524l1.2237-1.1973a.2307.2307,0,0,1,.1533-.081.1628.1628,0,0,1,.1221.0537.1864.1864,0,0,1,.0488.127v.72h1.0176a.3407.3407,0,0,1,.2519.0986.3448.3448,0,0,1,.0987.252.35.35,0,0,1-.0987.248.337.337,0,0,1-.2519.1035h-1.0176v2.7178q0,.35.167.4453a.8294.8294,0,0,0,.4179.0947,1.2137,1.2137,0,0,0,.36-.0546c.0234-.0059.05-.0118.0762-.0176a.5009.5009,0,0,1,.1035-.0088.3174.3174,0,0,1,.2256.0947.3046.3046,0,0,1,.0986.2285.3423.3423,0,0,1-.207.3164,1.7709,1.7709,0,0,1-.7471.1612Q129.44,182.8144,129.4407,181.6259Z" fill="#0d57a4"/><path d="M109.861,207.4391a9.2132,9.2132,0,0,0,9.2764-9.2763q0-.2118-.0093-.4215a6.6281,6.6281,0,0,0,1.6264-1.6883,6.5,6.5,0,0,1-1.8724.5133,3.2716,3.2716,0,0,0,1.4338-1.8033,6.54,6.54,0,0,1-2.07.7913,3.2632,3.2632,0,0,0-5.5559,2.9733,9.2567,9.2567,0,0,1-6.72-3.4064,3.263,3.263,0,0,0,1.0094,4.3526,3.236,3.236,0,0,1-1.4766-.4078l-.0005.0416a3.2613,3.2613,0,0,0,2.6157,3.1961,3.2555,3.2555,0,0,1-1.4725.0559,3.2638,3.2638,0,0,0,3.0458,2.2646,6.5411,6.5411,0,0,1-4.0495,1.3955,6.6184,6.6184,0,0,1-.7777-.0451,9.2287,9.2287,0,0,0,4.9978,1.4645" fill="#fff"/><path d="M75.0949,193.036H60.9582a.8769.8769,0,0,0-.877.877V208.05a.8768.8768,0,0,0,.877.8772H68.569v-6.1541H66.4982v-2.3984H68.569v-1.7685a2.89,2.89,0,0,1,3.0845-3.17,16.9663,16.9663,0,0,1,1.8506.0945v2.145l-1.27,0c-.9956,0-1.1884.4734-1.1884,1.1677v1.531h2.375l-.3091,2.3984H71.0456v6.1541h4.0493a.8775.8775,0,0,0,.8774-.8772V193.913A.8773.8773,0,0,0,75.0949,193.036Z" fill="#fff"/><path d="M97.1877,193.036H83.6442a1.1593,1.1593,0,0,0-1.1719,1.1458v13.5989a1.16,1.16,0,0,0,1.1719,1.1469H97.1877a1.1629,1.1629,0,0,0,1.1757-1.1469V194.1818A1.1618,1.1618,0,0,0,97.1877,193.036ZM87.1862,206.5773H84.8268v-7.5837h2.3594Zm-1.1792-8.62a1.367,1.367,0,1,1,1.3662-1.3669A1.3662,1.3662,0,0,1,86.007,197.9574Zm10.0068,8.62H93.6574v-3.688c0-.8794-.0151-2.011-1.2251-2.011-1.2261,0-1.4136.9585-1.4136,1.948v3.751h-2.354v-7.5837H90.924V200.03h.0322a2.4764,2.4764,0,0,1,2.23-1.2249c2.3867,0,2.8276,1.57,2.8276,3.6128Z" fill="#fff"/><path d="M143.098,198.174a5.8345,5.8345,0,0,0-.3694-1.9287,4.0629,4.0629,0,0,0-2.3239-2.324,5.8305,5.8305,0,0,0-1.9287-.369c-.8473-.0389-1.118-.048-3.2759-.048s-2.4286.0091-3.2759.0478a5.8322,5.8322,0,0,0-1.9287.3693,4.0646,4.0646,0,0,0-2.324,2.3238,5.834,5.834,0,0,0-.3691,1.9288c-.0388.8473-.0479,1.118-.0479,3.2759s.0091,2.4286.0479,3.2759a5.8294,5.8294,0,0,0,.3694,1.9287,4.0622,4.0622,0,0,0,2.3237,2.3238,5.8306,5.8306,0,0,0,1.9288.3694c.8474.0386,1.118.0478,3.2759.0478s2.4286-.0092,3.2759-.0478a5.8294,5.8294,0,0,0,1.9287-.3694,4.0629,4.0629,0,0,0,2.3238-2.3238,5.8345,5.8345,0,0,0,.3694-1.9287c.0386-.8474.0478-1.118.0478-3.2759S143.1366,199.0213,143.098,198.174Zm-1.43,6.4868a4.3987,4.3987,0,0,1-.2736,1.4754,2.6312,2.6312,0,0,1-1.508,1.5079,4.3955,4.3955,0,0,1-1.4754.2736c-.8377.0382-1.0889.0463-3.2107.0463s-2.373-.0081-3.2108-.0463a4.3981,4.3981,0,0,1-1.4754-.2736,2.6319,2.6319,0,0,1-1.508-1.5079,4.3962,4.3962,0,0,1-.2735-1.4754c-.0383-.8379-.0464-1.0892-.0464-3.2108s.0081-2.3729.0464-3.2108a4.3962,4.3962,0,0,1,.2735-1.4754,2.6322,2.6322,0,0,1,1.5081-1.508,4.3962,4.3962,0,0,1,1.4754-.2735c.8378-.0383,1.0891-.0464,3.2107-.0464h0c2.1215,0,2.3728.0081,3.2107.0463a4.3981,4.3981,0,0,1,1.4754.2736,2.6311,2.6311,0,0,1,1.508,1.5079,4.3981,4.3981,0,0,1,.2736,1.4754c.0382.8379.0463,1.0892.0463,3.2108S141.706,203.8228,141.6678,204.6608Z" fill="#fff"/><polygon points="135.2 193.504 135.2 193.504 135.2 193.504 135.2 193.504" fill="#fff"/><path d="M135.2,197.37a4.08,4.08,0,1,0,4.08,4.08A4.08,4.08,0,0,0,135.2,197.37Zm0,6.7287a2.6485,2.6485,0,1,1,2.6485-2.6485A2.6485,2.6485,0,0,1,135.2,204.0984Z" fill="#fff"/><circle cx="139.4414" cy="197.2085" r="0.9535" fill="#fff"/><ellipse cx="361.9134" cy="252.8278" rx="35.5259" ry="4.9003" fill="#58595b" style="mix-blend-mode:overlay"/></g></svg>