<svg xmlns="http://www.w3.org/2000/svg" xmlns:xlink="http://www.w3.org/1999/xlink" width="195.3153" height="195.3153" viewBox="0 0 195.3153 195.3153"><defs><radialGradient id="a" cx="97.6577" cy="97.6577" r="142.8994" gradientUnits="userSpaceOnUse"><stop offset="0" stop-color="#4dc4ff"/><stop offset="1" stop-color="#0c89db"/></radialGradient></defs><title>agency-blog-active</title><circle cx="97.6577" cy="97.6577" r="97.6577" fill="url(#a)"/><rect x="51.3725" y="37.7592" width="92.5704" height="119.797" rx="3" fill="#f7e5ff"/><rect x="59.7191" y="50.5014" width="23.2085" height="23.2085" rx="3" fill="#d580ff"/><rect x="91.2328" y="50.5014" width="44.4" height="6.6042" fill="#e6b3ff"/><rect x="91.2328" y="67.1057" width="44.4" height="6.6042" fill="#e6b3ff"/><rect x="59.7191" y="83.5534" width="75.9137" height="6.6042" fill="#e6b3ff"/><rect x="59.7191" y="100.1576" width="75.9137" height="6.6042" fill="#e6b3ff"/><rect x="78.0841" y="133.229" width="39.1837" height="11.2063" rx="1.5082" fill="#7700b3"/><rect x="59.7191" y="116.7618" width="63.776" height="6.6042" fill="#e6b3ff"/><path d="M89.1614,142.1061a.3927.3927,0,0,1-.1172-.2881V136.31a.4069.4069,0,0,1,.1172-.2929.3833.3833,0,0,1,.2881-.1211h2.0518a2.9586,2.9586,0,0,1,1.3945.2871,1.7874,1.7874,0,0,1,.7744.7383,2.1331,2.1331,0,0,1,0,1.9443,1.775,1.775,0,0,1-.7744.7373,2.9334,2.9334,0,0,1-1.3945.2891H89.8636v1.9257a.3861.3861,0,0,1-.1221.2881.4093.4093,0,0,1-.292.1162A.3938.3938,0,0,1,89.1614,142.1061Zm2.2588-2.9883a1.8711,1.8711,0,0,0,1.291-.35,1.206,1.206,0,0,0,0-1.7461,1.87,1.87,0,0,0-1.291-.3516H89.8636v2.4482Z" fill="#fff"/><path d="M95.6145,141.97a2.01,2.01,0,0,1-.8056-.8408,2.8761,2.8761,0,0,1,0-2.4932,2.0116,2.0116,0,0,1,.8056-.8418,2.6159,2.6159,0,0,1,2.4209,0,2.0509,2.0509,0,0,1,.81.8418,2.841,2.841,0,0,1,0,2.4932,2.049,2.049,0,0,1-.81.8408,2.6159,2.6159,0,0,1-2.4209,0Zm1.9209-.6211a1.367,1.367,0,0,0,.5586-.5391,1.8086,1.8086,0,0,0,.22-.9365,1.786,1.786,0,0,0-.22-.9268,1.3445,1.3445,0,0,0-.5586-.5351,1.57,1.57,0,0,0-.706-.167,1.5927,1.5927,0,0,0-.7158.167,1.3236,1.3236,0,0,0-.5538.5351,1.8159,1.8159,0,0,0-.2158.9268,1.8389,1.8389,0,0,0,.2158.9365,1.3458,1.3458,0,0,0,.5538.5391,1.5477,1.5477,0,0,0,.7158.1719A1.5259,1.5259,0,0,0,97.5354,141.3493Z" fill="#fff"/><path d="M100.1223,141.863a.3448.3448,0,0,1-.1523-.2969.36.36,0,0,1,.0986-.252.3277.3277,0,0,1,.252-.1084.405.405,0,0,1,.1621.0362,3.6211,3.6211,0,0,0,.5762.1982,2.6794,2.6794,0,0,0,.6474.0713q.999,0,.9991-.6387a.34.34,0,0,0-.23-.3144,4.6376,4.6376,0,0,0-.751-.2432,6.83,6.83,0,0,1-.8779-.2607,1.54,1.54,0,0,1-.5938-.41,1.0387,1.0387,0,0,1-.2471-.7246,1.2965,1.2965,0,0,1,.4541-1.0254,1.922,1.922,0,0,1,1.3008-.3965,3.7652,3.7652,0,0,1,1.3047.2246.3434.3434,0,0,1,.1934.1358.3606.3606,0,0,1,.0674.207.3522.3522,0,0,1-.1036.252.342.342,0,0,1-.2558.1084.4738.4738,0,0,1-.1172-.0186,3.4425,3.4425,0,0,0-1.0264-.1621,1.4054,1.4054,0,0,0-.7607.1758.5233.5233,0,0,0-.2744.4541.417.417,0,0,0,.2519.3965,3.5727,3.5727,0,0,0,.7832.2422,7.6232,7.6232,0,0,1,.8643.2656,1.4461,1.4461,0,0,1,.5713.41,1.11,1.11,0,0,1,.2382.7461,1.19,1.19,0,0,1-.4541.9551,1.9507,1.9507,0,0,1-1.2822.377A3.3545,3.3545,0,0,1,100.1223,141.863Z" fill="#fff"/><path d="M104.83,141.08v-2.79h-.64a.1628.1628,0,0,1-.1211-.05.1611.1611,0,0,1-.05-.1211.1859.1859,0,0,1,.0811-.1523l1.2236-1.1973a.2285.2285,0,0,1,.1533-.082.16.16,0,0,1,.1221.0547.1839.1839,0,0,1,.0488.1259v.72h1.0176a.3392.3392,0,0,1,.3506.3515.3474.3474,0,0,1-.0987.2471.3335.3335,0,0,1-.2519.1035h-1.0176v2.7178q0,.3516.167.4453a.83.83,0,0,0,.418.0957,1.2435,1.2435,0,0,0,.36-.0547c.0235-.0058.05-.0117.0762-.0176a.5.5,0,0,1,.1035-.01.3174.3174,0,0,1,.2256.0947.3083.3083,0,0,1,.0986.2295.3409.3409,0,0,1-.207.3154,1.7573,1.7573,0,0,1-.7471.1612Q104.83,142.2673,104.83,141.08Z" fill="#fff"/></svg>