<svg xmlns="http://www.w3.org/2000/svg" width="52" height="51" viewBox="0 0 52 51">
    <g fill="none" fill-rule="evenodd" stroke="#04CDFA" stroke-width="2">
        <path d="M4.75 44.669L16 33.439M9.75 27.201V1h32.5V27.2"/>
        <path d="M9.75 12.229s-5.156 4.055-6.25 4.99c-1.093.936-2.5 1.95-2.5 3.744v24.953a3.746 3.746 0 0 0 3.75 3.743H26M47.25 44.669L36 33.439M42.25 12.229s5.157 4.055 6.25 4.99c1.094.936 2.5 1.95 2.5 3.744v24.953a3.747 3.747 0 0 1-3.75 3.743H26"/>
        <path d="M47.25 22.21l-12.5 12.477c-2.5 2.132-4.26 2.495-6.25 2.495h-5c-1.99 0-3.75-.363-6.25-2.495L4.75 22.21M16.417 9.318h20M16.417 14.309h20M16.417 19.3h10"/>
    </g>
</svg>
