<?xml version="1.0" encoding="UTF-8"?>
<svg width="257px" height="971px" viewBox="0 0 257 971" version="1.1" xmlns="http://www.w3.org/2000/svg" xmlns:xlink="http://www.w3.org/1999/xlink">
    <!-- Generator: Sketch 53.2 (72643) - https://sketchapp.com -->
    <title>timeline</title>
    <desc>Created with Sketch.</desc>
    <g id="Prototype" stroke="none" stroke-width="1" fill="none" fill-rule="evenodd">
        <g id="Ghostit-Agency/Blog-Posts" transform="translate(-251.000000, -1008.000000)" fill="#0B89DB">
            <g id="timeline" transform="translate(251.000000, 1008.000000)">
                <circle id="Oval" cx="19" cy="19" r="19"></circle>
                <circle id="Oval" cx="19" cy="952" r="19"></circle>
                <circle id="Oval" cx="19.5" cy="190.5" r="12.5"></circle>
                <polygon id="Line-3" fill-rule="nonzero" points="17.5 36.5 20.5 36.5 20.5 934.5 17.5 934.5"></polygon>
                <polygon id="Line-4" fill-rule="nonzero" points="30.5 192.5 30.5 189.5 233.5 189.5 233.5 192.5"></polygon>
                <circle id="Oval" cx="19.5" cy="485.5" r="12.5"></circle>
                <polygon id="Line-4" fill-rule="nonzero" points="30.5 487.5 30.5 484.5 233.5 484.5 233.5 487.5"></polygon>
                <circle id="Oval" cx="19.5" cy="780.5" r="12.5"></circle>
                <polygon id="Line-4" fill-rule="nonzero" points="30.5 782.5 30.5 779.5 233.5 779.5 233.5 782.5"></polygon>
                <circle id="Oval" cx="244.5" cy="190.5" r="12.5"></circle>
                <circle id="Oval" cx="244.5" cy="485.5" r="12.5"></circle>
                <circle id="Oval" cx="244.5" cy="780.5" r="12.5"></circle>
            </g>
        </g>
    </g>
</svg>