<svg xmlns="http://www.w3.org/2000/svg" width="198.3154" height="198.3154" viewBox="0 0 198.3154 198.3154"><title>agency-blog</title><rect x="52.8722" y="39.2595" width="92.5704" height="119.797" rx="3" fill="#e1f5ff"/><path d="M142.4424,159.5566h-86.57a3.5042,3.5042,0,0,1-3.5-3.5V42.26a3.5042,3.5042,0,0,1,3.5-3.5h86.57a3.5042,3.5042,0,0,1,3.5,3.5V156.0566A3.5042,3.5042,0,0,1,142.4424,159.5566ZM55.8721,39.76a2.5023,2.5023,0,0,0-2.5,2.5V156.0566a2.5023,2.5023,0,0,0,2.5,2.5h86.57a2.5023,2.5023,0,0,0,2.5-2.5V42.26a2.5023,2.5023,0,0,0-2.5-2.5Z" fill="#0b89db"/><rect x="61.2188" y="52.0018" width="23.2085" height="23.2085" rx="3" fill="#0af"/><rect x="92.7325" y="52.0018" width="44.4" height="6.6042" fill="#6ec2fa"/><rect x="92.7325" y="68.606" width="44.4" height="6.6042" fill="#6ec2fa"/><rect x="61.2188" y="85.0537" width="75.9137" height="6.6042" fill="#6ec2fa"/><rect x="61.2188" y="101.6579" width="75.9137" height="6.6042" fill="#6ec2fa"/><rect x="79.5838" y="134.7294" width="39.1837" height="11.2063" rx="1.5082" fill="#0b89db"/><rect x="61.2188" y="118.2621" width="63.776" height="6.6042" fill="#6ec2fa"/><path d="M90.6611,143.6064a.3926.3926,0,0,1-.1172-.288V137.81a.4063.4063,0,0,1,.1172-.292.3845.3845,0,0,1,.2881-.1221H93.001a2.958,2.958,0,0,1,1.3945.2881,1.7819,1.7819,0,0,1,.7744.7383,2.1331,2.1331,0,0,1,0,1.9443,1.7745,1.7745,0,0,1-.7744.7373,2.9459,2.9459,0,0,1-1.3945.2881H91.3633v1.9268a.3857.3857,0,0,1-.1221.288.4092.4092,0,0,1-.292.1163A.3942.3942,0,0,1,90.6611,143.6064Zm2.2588-2.9882a1.87,1.87,0,0,0,1.291-.3516,1.2058,1.2058,0,0,0,0-1.7461,1.8757,1.8757,0,0,0-1.291-.3506H91.3633v2.4483Z" fill="#fff"/><path d="M97.1143,143.4707a2.01,2.01,0,0,1-.8057-.8408,2.8761,2.8761,0,0,1,0-2.4932,2.0124,2.0124,0,0,1,.8057-.8418,2.6159,2.6159,0,0,1,2.4209,0,2.0519,2.0519,0,0,1,.8095.8418,2.841,2.841,0,0,1,0,2.4932,2.0494,2.0494,0,0,1-.8095.8408,2.6159,2.6159,0,0,1-2.4209,0Zm1.9209-.6211a1.3707,1.3707,0,0,0,.5586-.54,2.083,2.083,0,0,0,0-1.8623,1.3486,1.3486,0,0,0-.5586-.5362,1.5831,1.5831,0,0,0-.7061-.166,1.6051,1.6051,0,0,0-.7158.166,1.3257,1.3257,0,0,0-.5537.5362,2.1168,2.1168,0,0,0,0,1.8623,1.3473,1.3473,0,0,0,.5537.54,1.5579,1.5579,0,0,0,.7158.1709A1.5367,1.5367,0,0,0,99.0352,142.85Z" fill="#fff"/><path d="M101.6221,143.3633a.3446.3446,0,0,1-.1524-.2969.3564.3564,0,0,1,.0987-.2519.3273.3273,0,0,1,.2519-.1084.39.39,0,0,1,.1621.0361,3.7237,3.7237,0,0,0,.5762.1982,2.68,2.68,0,0,0,.6475.0713q.999,0,.999-.6387a.3415.3415,0,0,0-.23-.3154,4.7589,4.7589,0,0,0-.751-.2422,6.7984,6.7984,0,0,1-.8779-.2617,1.5483,1.5483,0,0,1-.5938-.4092,1.04,1.04,0,0,1-.247-.7246,1.2992,1.2992,0,0,1,.4541-1.0263,1.9213,1.9213,0,0,1,1.3007-.3956,3.7625,3.7625,0,0,1,1.3047.2247.3378.3378,0,0,1,.1934.1357.3608.3608,0,0,1,.0674.207.3525.3525,0,0,1-.1035.252.3414.3414,0,0,1-.2559.1074.5168.5168,0,0,1-.1172-.0176,3.4425,3.4425,0,0,0-1.0264-.1621,1.4054,1.4054,0,0,0-.7607.1758.5234.5234,0,0,0-.2744.4541.4149.4149,0,0,0,.2519.3955,3.51,3.51,0,0,0,.7832.2432,7.4429,7.4429,0,0,1,.8643.2656,1.4259,1.4259,0,0,1,.5713.41,1.1069,1.1069,0,0,1,.2383.746,1.1882,1.1882,0,0,1-.4541.9541,1.9513,1.9513,0,0,1-1.2823.378A3.3543,3.3543,0,0,1,101.6221,143.3633Z" fill="#fff"/><path d="M106.33,142.58v-2.79h-.64a.17.17,0,0,1-.1709-.1709.189.189,0,0,1,.0811-.1533l1.2236-1.1972a.2307.2307,0,0,1,.1533-.0811.16.16,0,0,1,.1221.0547.1839.1839,0,0,1,.0488.126v.72h1.0176a.3536.3536,0,0,1,.252.5986.3334.3334,0,0,1-.252.1035h-1.0176v2.7178q0,.3516.167.4453a.83.83,0,0,0,.418.0948,1.2433,1.2433,0,0,0,.36-.0538c.0234-.0058.05-.0117.0761-.0185a.5016.5016,0,0,1,.1035-.0088.3174.3174,0,0,1,.2256.0947.3065.3065,0,0,1,.0987.23.342.342,0,0,1-.2071.3154,1.7707,1.7707,0,0,1-.747.1612Q106.33,143.7676,106.33,142.58Z" fill="#fff"/><path d="M99.1572,198.3154a99.1577,99.1577,0,1,1,99.1582-99.1572A99.2691,99.2691,0,0,1,99.1572,198.3154ZM99.1572,3a96.1577,96.1577,0,1,0,96.1582,96.1582A96.2667,96.2667,0,0,0,99.1572,3Z" fill="#0c89db"/></svg>