<svg xmlns="http://www.w3.org/2000/svg" xmlns:xlink="http://www.w3.org/1999/xlink" width="48" height="60"><defs><path id="A" d="M0 60.197h48V0H0z"/></defs><g fill="none" fill-rule="evenodd"><g stroke="#04cdfa" stroke-width="2"><path d="M17.684 56.435h1.263C21.79 56.435 20 57.69 24 57.69h11.368m7.58-18.812h-3.8a2.518 2.518 0 0 0-2.526 2.508 2.518 2.518 0 0 0 2.527 2.509h3.79a2.518 2.518 0 0 0 2.526-2.509 2.518 2.518 0 0 0-2.526-2.508zM45.473 48.9v2.508a2.518 2.518 0 0 1-2.526 2.508h-3.8a2.518 2.518 0 0 1-2.526-2.508 2.518 2.518 0 0 1 2.527-2.508h1.263"/><path d="M42.947 53.926v2.51a2.518 2.518 0 0 1-2.526 2.508h-2.527a2.518 2.518 0 0 1-2.526-2.508 2.518 2.518 0 0 1 2.526-2.509h1.264"/></g><mask id="B" fill="#fff"><use xlink:href="#A"/></mask><g stroke="#04cdfa" stroke-width="2"><path d="M10.105 57.7h7.58V36.37h-7.58zm29.053-13.796h1.263a2.518 2.518 0 0 0-2.527 2.508 2.518 2.518 0 0 0 2.527 2.508h3.8a2.518 2.518 0 0 0 2.525-2.508 2.518 2.518 0 0 0-2.526-2.508h-1.263" mask="url(#B)"/><path d="M25.632 49.44c4.208-1.564 5.947-5.103 7.2-9.3v-3.76c0-.64.598-1.84.598-4.706 0-2.9-.693-3.973-1.938-5.57-1.257-1.616-3.713-1.316-3.713.243V27.6c0 3.485-1.27 6.037-3.602 8.64L20.2 38.877h-2.526m-6.316-25.082h20.2m-20.2 5.016h20.2m-20.2 5.017h10.105M6.315 56.435H1.263V1.254h34.105l6.316 6.27v27.6m-7.58-31.362v5.016h5.053" mask="url(#B)"/></g></g></svg>