<svg xmlns="http://www.w3.org/2000/svg" width="54" height="63" viewBox="0 0 54 63">
    <g fill="none" fill-rule="evenodd" stroke="#04CDFA" stroke-width="2">
        <path d="M50.4 6.242H53v27.521H34.794L32.2 36.384H21.8l-2.593-2.62H1V6.241h2.6"/>
        <path d="M6.2 28.521h13c2.52 0 4.225.71 5.2 2.621H27V8.862C27 4.606 24.46 1 19.2 1h-13V28.52zM47.8 28.521h-13c-2.52 0-4.225.71-5.2 2.621H27V8.862C27 4.606 29.54 1 34.8 1h13V28.52zM46.5 61.285h-5.2a2.612 2.612 0 0 1-2.6-2.621V49.49a2.612 2.612 0 0 1 2.6-2.621h5.2c1.435 0 2.6 1.174 2.6 2.62v9.175a2.612 2.612 0 0 1-2.6 2.62zM43.9 46.869v-1.31c0-2.171-1.746-3.932-3.9-3.932H10.1c-2.154 0-3.9-1.76-3.9-3.932v-3.932M43.9 49.49v3.931"/>
    </g>
</svg>
