<svg xmlns="http://www.w3.org/2000/svg" xmlns:xlink="http://www.w3.org/1999/xlink" width="195.3153" height="195.3153" viewBox="0 0 195.3153 195.3153"><defs><radialGradient id="a" cx="97.6577" cy="97.6577" r="142.8994" gradientUnits="userSpaceOnUse"><stop offset="0" stop-color="#4dc4ff"/><stop offset="1" stop-color="#0c89db"/></radialGradient></defs><title>agency-newsletter-active</title><circle cx="97.6577" cy="97.6577" r="97.6577" fill="url(#a)"/><polyline points="42.682 84.635 97.696 36.631 152.696 84.635" fill="#e6b3ff"/><polygon points="43.011 85.012 42.353 84.259 97.696 35.967 153.026 84.259 152.368 85.012 97.696 37.295 43.011 85.012" fill="#d580ff"/><rect x="42.1083" y="83.3041" width="111.1474" height="73.7772" rx="3" fill="#e6b3ff"/><path d="M150.2562,157.5808H45.1087a3.5042,3.5042,0,0,1-3.5-3.5V86.3045a3.5042,3.5042,0,0,1,3.5-3.5H150.2562a3.5042,3.5042,0,0,1,3.5,3.5v67.7763A3.5042,3.5042,0,0,1,150.2562,157.5808ZM45.1087,83.8045a2.5023,2.5023,0,0,0-2.5,2.5v67.7763a2.5023,2.5023,0,0,0,2.5,2.5H150.2562a2.5023,2.5023,0,0,0,2.5-2.5V86.3045a2.5023,2.5023,0,0,0-2.5-2.5Z" fill="#d580ff"/><polygon points="97.665 132.639 42.65 84.635 97.665 36.631 152.665 84.635 97.665 132.639" fill="#7700b3"/><path d="M144.9091,91.4316,97.6958,132.6392,52.3386,93.1407V43.7422a3,3,0,0,1,3-3h86.5705a3,3,0,0,1,3,3Z" fill="#f7e5ff"/><rect x="60.6852" y="53.4845" width="75.9137" height="6.6042" fill="#e6b3ff"/><rect x="60.6852" y="70.0888" width="75.9137" height="6.6042" fill="#e6b3ff"/><rect x="60.6852" y="86.5364" width="75.9137" height="6.6042" fill="#e6b3ff"/><polygon points="131.493 103.141 63.822 103.141 71.406 109.745 123.927 109.745 131.493 103.141" fill="#e6b3ff"/><polygon points="112.469 119.745 82.919 119.745 90.473 126.349 104.903 126.349 112.469 119.745" fill="#e6b3ff"/><path d="M150.2562,157.5808a.4984.4984,0,0,1-.3623-.1553l-36.5986-38.373a.5.5,0,0,1,.7246-.6895l36.5976,38.3731a.4995.4995,0,0,1-.3613.8447Z" fill="#d580ff"/><path d="M97.6956,133.1394a.502.502,0,0,1-.3291-.123L42.3529,85.0125a.5.5,0,1,1,.6582-.7539l54.6845,47.7168,54.6719-47.7168a.5.5,0,1,1,.6582.7539l-55.001,48.0039A.5016.5016,0,0,1,97.6956,133.1394Z" fill="#d580ff"/><path d="M45.1087,157.5808a.5.5,0,0,1-.3623-.8447L81.264,118.2732a.5.5,0,1,1,.7246.6895L45.471,157.4255A.4966.4966,0,0,1,45.1087,157.5808Z" fill="#d580ff"/></svg>