<svg xmlns="http://www.w3.org/2000/svg" xmlns:xlink="http://www.w3.org/1999/xlink" width="100" height="75"><defs><path id="A" d="M0 0h68.75v59.375H0z"/><path id="B" d="M0 75h100V0H0z"/></defs><g fill="none" fill-rule="evenodd"><path fill="#363f40" d="M81.25 0v3.125h7.166l-29.04 29.04-12.502-12.5-27.666 27.666 2.2 2.2 25.456-25.46 12.5 12.5 31.25-31.248V12.5h3.126V0zM60.3 62.5l-3.125 3.125h-14.33L39.7 62.5H0v5.334L7.165 75h85.67L100 67.834V62.5H60.3zm-1.83 6.25l3.125-3.125h35.3v.915l-5.334 5.333H8.46L3.125 66.54v-.915h35.292l3.123 3.125h16.92z"/><g transform="translate(6.25)"><mask id="C" fill="#fff"><use xlink:href="#A"/></mask><path fill="#363f40" d="M3.125 6.25A3.128 3.128 0 0 1 6.25 3.125h62.5V0H6.25A6.256 6.256 0 0 0 0 6.25v53.125h3.125V6.25z" mask="url(#C)"/></g><mask id="D" fill="#fff"><use xlink:href="#B"/></mask><path d="M90.625 59.375h3.125V18.75h-3.125zM75 9.375V6.25H12.5v50h75v-37.5h-3.125v34.375h-68.75V9.375zM35.938 50h3.124v-9.375h-3.124zm-6.25 0h3.125v-3.125h-3.126zm12.5 0h3.124V34.375h-3.124zm6.25 0h3.124V34.375h-3.124zm6.25 0h3.124v-9.375h-3.124zm6.25 0h3.124v-9.375h-3.124zm6.25 0h3.124V34.375h-3.124zm6.25 0h3.124V28.125h-3.124z" mask="url(#D)" fill="#363f40"/></g></svg>