<svg xmlns="http://www.w3.org/2000/svg" xmlns:xlink="http://www.w3.org/1999/xlink" width="48" height="60" viewBox="0 0 48 60">
    <defs>
        <path id="a" d="M0 60.197h48V0H0z"/>
    </defs>
    <g fill="none" fill-rule="evenodd">
        <path stroke="#04CDFA" stroke-width="2" d="M17.684 56.435h1.263c2.842 0 1.053 1.254 5.053 1.254h11.368M42.947 38.877h-3.79a2.518 2.518 0 0 0-2.526 2.508 2.518 2.518 0 0 0 2.527 2.509h3.789a2.518 2.518 0 0 0 2.526-2.509 2.518 2.518 0 0 0-2.526-2.508zM45.473 48.91v2.508a2.518 2.518 0 0 1-2.526 2.508h-3.79a2.518 2.518 0 0 1-2.526-2.508 2.518 2.518 0 0 1 2.527-2.508h1.263"/>
        <path stroke="#04CDFA" stroke-width="2" d="M42.947 53.926v2.509a2.518 2.518 0 0 1-2.526 2.508h-2.527a2.518 2.518 0 0 1-2.526-2.508 2.518 2.518 0 0 1 2.526-2.509h1.264"/>
        <mask id="b" fill="#fff">
            <use xlink:href="#a"/>
        </mask>
        <path stroke="#04CDFA" stroke-width="2" d="M10.105 57.69h7.58V36.37h-7.58zM39.158 43.894h1.263a2.518 2.518 0 0 0-2.527 2.508 2.518 2.518 0 0 0 2.527 2.508h3.79a2.518 2.518 0 0 0 2.525-2.508 2.518 2.518 0 0 0-2.526-2.508h-1.263" mask="url(#b)"/>
        <path stroke="#04CDFA" stroke-width="2" d="M25.632 49.44c4.208-1.564 5.947-5.103 7.21-9.309v-3.762c0-.64.598-1.841.598-4.706 0-2.9-.693-3.973-1.938-5.57-1.257-1.616-3.713-1.316-3.713.243v1.254c0 3.485-1.27 6.037-3.602 8.64l-3.977 2.647h-2.526M11.368 13.795h20.21M11.368 18.811h20.21M11.368 23.828h10.105" mask="url(#b)"/>
        <path stroke="#04CDFA" stroke-width="2" d="M6.315 56.435H1.263V1.254h34.105l6.316 6.27v27.59" mask="url(#b)"/>
        <path stroke="#04CDFA" stroke-width="2" d="M34.105 3.762v5.016h5.053" mask="url(#b)"/>
    </g>
</svg>
