<svg xmlns="http://www.w3.org/2000/svg" width="52" height="51" fill="none" stroke="#04cdfa" stroke-width="2"><path d="M4.75 44.67L16 33.44M9.75 27.2V1h32.5v26.2"/><path d="M9.75 12.23l-6.25 5c-1.093.936-2.5 1.95-2.5 3.744v24.953a3.746 3.746 0 0 0 3.75 3.743H26m21.25-5L36 33.44m6.25-21.2l6.25 5c1.094.936 2.5 1.95 2.5 3.744v24.953a3.747 3.747 0 0 1-3.75 3.743H26M47.25 22.2l-12.5 12.477c-2.5 2.132-4.26 2.495-6.25 2.495h-5c-2 0-3.75-.363-6.25-2.495L4.75 22.2M16.417 9.318h20m-20 5h20m-20 5h10"/></svg>