<svg xmlns="http://www.w3.org/2000/svg" xmlns:xlink="http://www.w3.org/1999/xlink" width="516" height="498" viewBox="0 0 516 498">
    <defs>
        <linearGradient id="b" x1="10.866%" x2="86.61%" y1="72.35%" y2="23.531%">
            <stop offset="0%" stop-color="#04DFFA"/>
            <stop offset="100%" stop-color="#05A4FF"/>
        </linearGradient>
        <path id="a" d="M175.93 361.07c40.037-20.914 76.929-52.398 98.209-95.422 22.103-44.693 25.602-97.361 37.47-146.606 11.867-49.24 37.258-100.568 81.332-115.083 48.342-15.923 98.365 18.734 133.787 58.532 35.42 39.798 66.285 87.895 112.51 110.256 82.661 39.996 184.285-16.256 266.676 24.4 39.16 19.319 68.947 60.457 77.492 107.016 8.545 46.564-4.37 97.333-33.603 132.082-60.813 72.3-173.461 66.47-231.74 141.287-28.782 36.953-38.92 87.442-63.311 128.093-26.91 44.842-71.602 76.042-119.704 83.57-48.103 7.523-98.836-8.748-135.884-43.579-50.268-47.263-78.898-127.818-142.366-147.503-58.397-18.107-122.433 25.023-180.06 4.109-33.452-12.138-68.976-42.938-75.086-81.42-8.168-51.438 14.7-93.937 52.223-112.27 15.6-7.625 32.755-13.73 48.72-18.586 25.042-7.61 49.811-16.588 73.336-28.875z"/>
    </defs>
    <use fill="url(#b)" fill-rule="evenodd" transform="translate(0 -293)" xlink:href="#a"/>
</svg>
