<svg xmlns="http://www.w3.org/2000/svg" width="603" height="758" viewBox="0 0 603 758">
    <defs>
        <linearGradient id="a" x1="73.148%" x2="24.329%" y1="85.813%" y2="10.069%">
            <stop offset="0%" stop-color="#04D5FA"/>
            <stop offset="100%" stop-color="#05A4FF"/>
        </linearGradient>
    </defs>
    <path fill="url(#a)" fill-rule="evenodd" d="M155.721 139.1c.002-20.552-2.739-40.732-6.527-60.594-2.411-12.663-4.388-26.597-4.75-40.034-.874-32.316 20.295-63.56 58.886-76.963 28.87-10.027 63.06 2.811 83.572 21.119 35.338 31.537 28.625 91.053 62.297 124.148 36.6 35.969 102.766 25.766 153.695 42.575 37.535 12.39 67.161 40.944 79.352 76.479 12.188 35.536 6.742 77.478-14.588 112.34-19.339 31.6-50.65 57.121-65.837 90.349-30.748 67.278 14.046 141.85-14.042 209.925-13.497 32.722-43.997 60.238-79.347 71.586-35.347 11.347-74.624 6.229-102.175-13.32-57.975-41.123-55.77-131.076-113.385-172.627-32.215-23.238-76.702-26.525-117.09-35.976-40.386-9.45-82.494-30.74-88.952-69.536-5.89-35.37 20.483-71.588 50.303-97.826 29.823-26.24 65.045-48.042 88.011-79.574 22.108-30.357 30.573-67.091 30.577-102.07z" transform="translate(14 42)"/>
</svg>
