<svg xmlns="http://www.w3.org/2000/svg" xmlns:xlink="http://www.w3.org/1999/xlink" width="516" height="498"><defs><linearGradient id="A" x1="10.866%" x2="86.61%" y1="72.35%" y2="23.531%"><stop offset="0%" stop-color="#04dffa"/><stop offset="100%" stop-color="#05a4ff"/></linearGradient><path id="B" d="M175.93 361.07c40.037-20.914 76.93-52.398 98.21-95.422 22.103-44.693 25.602-97.36 37.47-146.606C323.476 69.802 348.867 18.474 392.94 3.96c48.342-15.923 98.365 18.734 133.787 58.532s66.285 87.895 112.5 110.256c82.66 39.996 184.285-16.256 266.676 24.4 39.16 19.32 68.947 60.457 77.492 107.016s-4.37 97.333-33.603 132.082c-60.813 72.3-173.46 66.47-231.74 141.287-28.782 36.953-38.92 87.442-63.31 128.093-26.9 44.842-71.602 76.042-119.704 83.57-48.103 7.523-98.836-8.748-135.884-43.58-50.268-47.263-78.898-127.818-142.366-147.503-58.397-18.107-122.433 25.023-180.06 4.11-33.452-12.138-68.976-42.938-75.086-81.42-8.168-51.438 14.7-93.937 52.223-112.27 15.6-7.625 32.755-13.73 48.72-18.586 25.042-7.6 49.81-16.588 73.336-28.875z"/></defs><use fill="url(#A)" fill-rule="evenodd" xlink:href="#B" y="-293"/></svg>