<svg xmlns="http://www.w3.org/2000/svg" width="603" height="758"><defs><linearGradient id="A" x1="73.148%" x2="24.329%" y1="85.813%" y2="10.069%"><stop offset="0%" stop-color="#04d5fa"/><stop offset="100%" stop-color="#05a4ff"/></linearGradient></defs><path fill="url(#A)" fill-rule="evenodd" d="M169.72 181.1c.002-20.552-2.74-40.732-6.527-60.594-2.41-12.663-4.388-26.597-4.75-40.034-.874-32.316 20.295-63.56 58.886-76.963 28.87-10.027 63.06 2.81 83.572 21.12 35.338 31.537 28.625 91.053 62.297 124.148 36.6 35.97 102.766 25.766 153.695 42.575 37.535 12.4 67.16 40.944 79.352 76.48s6.742 77.478-14.588 112.34c-19.34 31.6-50.65 57.12-65.837 90.35-30.748 67.278 14.046 141.85-14.042 209.925-13.497 32.722-43.997 60.238-79.347 71.586s-74.624 6.23-102.175-13.32c-57.975-41.123-55.77-131.076-113.385-172.627-32.215-23.238-76.702-26.525-117.1-35.976S7.288 499.367.83 460.57c-5.9-35.37 20.483-71.588 50.303-97.826s65.045-48.042 88.01-79.574c22.108-30.357 30.573-67.09 30.577-102.07z"/></svg>