<svg xmlns="http://www.w3.org/2000/svg" xmlns:xlink="http://www.w3.org/1999/xlink" width="329" height="327" viewBox="0 0 329 327">
    <defs>
        <radialGradient id="c" cy="22.539%" r="81.508%" fx="50%" fy="22.539%">
            <stop offset="0%" stop-color="#FFF" stop-opacity=".73"/>
            <stop offset="100%" stop-color="#FFF" stop-opacity=".047"/>
        </radialGradient>
        <circle id="b" cx="74.5" cy="74.5" r="74.5"/>
        <filter id="a" width="294.6%" height="294.6%" x="-97.3%" y="-102.7%" filterUnits="objectBoundingBox">
            <feOffset dy="-8" in="SourceAlpha" result="shadowOffsetOuter1"/>
            <feGaussianBlur in="shadowOffsetOuter1" result="shadowBlurOuter1" stdDeviation="47"/>
            <feColorMatrix in="shadowBlurOuter1" values="0 0 0 0 0.0196078431 0 0 0 0 0.752941176 0 0 0 0 0.996078431 0 0 0 0.531165082 0"/>
        </filter>
    </defs>
    <g fill="none" fill-rule="evenodd">
        <g transform="translate(90 97)">
            <use fill="#000" filter="url(#a)" xlink:href="#b"/>
            <use fill="url(#c)" xlink:href="#b"/>
        </g>
        <g fill="#FFF">
            <path d="M174.333 130.658h1.867a.934.934 0 0 1 0 1.866h-1.867a.934.934 0 0 0 0 1.867h1.867a.934.934 0 0 1 0 1.867h-1.867a.934.934 0 0 0 0 1.866.934.934 0 0 1 0 1.867h-7.819a8.38 8.38 0 0 1-2.656-.431l-3.525-1.175v-11.549c1.464-.278 2.897-1.205 4.191-2.723 1.263-1.482 2.287-3.447 2.74-5.257l.331-1.327h.205c1.03 0 1.867.837 1.867 1.867v.932c0 1.253-.392 3.657-.894 4.73h-1.906a.934.934 0 0 0 0 1.866h9.333a.934.934 0 0 1 0 1.867h-1.867a.934.934 0 0 0 0 1.867zm-15.866 8.4a.934.934 0 0 1-.934.933h-4.666v-14.933h4.666c.515 0 .934.418.934.933v13.067zm19.818-9.334a2.79 2.79 0 0 0 .715-1.866c0-1.544-1.256-2.8-2.8-2.8h-5.434c.538-1.634.767-3.8.767-4.73v-.932a3.738 3.738 0 0 0-3.733-3.734h-.933a.933.933 0 0 0-.906.707l-.508 2.034c-.712 2.849-2.974 5.992-5.315 6.563a2.804 2.804 0 0 0-2.605-1.775h-5.6a.934.934 0 0 0-.933.933v16.8c0 .516.418.934.933.934h5.6a2.803 2.803 0 0 0 2.528-1.596l3.207 1.069c1.048.35 2.14.527 3.246.527h7.82a2.803 2.803 0 0 0 2.603-3.832 2.805 2.805 0 0 0 2.063-2.702c0-.716-.27-1.37-.715-1.866a2.79 2.79 0 0 0 0-3.734z"/>
            <path d="M155.667 136.258a.933.933 0 1 1 0 1.867.933.933 0 0 1 0-1.867M168.733 110a.933.933 0 0 0-.933.933v1.93a.933.933 0 0 0 1.867 0v-1.93a.933.933 0 0 0-.934-.933M164.774 114.116l-1.32-1.32a.933.933 0 1 0-1.32 1.32l1.32 1.32a.933.933 0 0 0 1.32-1.32M175.333 112.796a.933.933 0 0 0-1.32 0l-1.32 1.32a.933.933 0 0 0 1.32 1.32l1.32-1.32a.933.933 0 0 0 0-1.32"/>
        </g>
        <text fill="#FFF" font-family="Quicksand-Regular, Quicksand" font-size="35" letter-spacing="-.438" transform="translate(90 97)">
            <tspan x="30.617" y="87">34.5 K</tspan>
        </text>
    </g>
</svg>
