<svg xmlns="http://www.w3.org/2000/svg" xmlns:xlink="http://www.w3.org/1999/xlink" width="159" height="159" viewBox="0 0 159 159">
    <defs>
        <radialGradient id="c" cx="54.046%" cy="21.13%" r="90.113%" fx="54.046%" fy="21.13%">
            <stop offset="0%" stop-color="#04F0FA" stop-opacity=".079"/>
            <stop offset="100%" stop-color="#04F0FA"/>
        </radialGradient>
        <circle id="b" cx="37.5" cy="37.5" r="37.5"/>
        <filter id="a" width="305.3%" height="305.3%" x="-102.7%" y="-73.3%" filterUnits="objectBoundingBox">
            <feOffset dy="22" in="SourceAlpha" result="shadowOffsetOuter1"/>
            <feGaussianBlur in="shadowOffsetOuter1" result="shadowBlurOuter1" stdDeviation="22"/>
            <feColorMatrix in="shadowBlurOuter1" values="0 0 0 0 0.0156862745 0 0 0 0 0.749019608 0 0 0 0 0.992156863 0 0 0 0.203719429 0"/>
        </filter>
    </defs>
    <g fill="none" fill-rule="evenodd">
        <g transform="translate(42 20)">
            <use fill="#000" filter="url(#a)" xlink:href="#b"/>
            <use fill="url(#c)" xlink:href="#b"/>
        </g>
        <text fill="#FFF" font-family="Quicksand-Medium, Quicksand" font-size="17" font-weight="400" letter-spacing="-.212" transform="translate(42 20)">
            <tspan x="14.346" y="47">93.5 K</tspan>
        </text>
        <path fill="#FFF" d="M75.587 31.176a4.211 4.211 0 0 0-3.14 1.37c-.822.896-1.276 2.135-1.276 3.49 0 1.428.53 2.705 1.715 4.141 1.145 1.389 2.85 2.847 4.823 4.536l.004.003c.69.59 1.471 1.26 2.285 1.974.82-.716 1.602-1.386 2.294-1.978 1.973-1.688 3.677-3.146 4.823-4.535 1.185-1.436 1.714-2.713 1.714-4.142 0-1.354-.454-2.593-1.277-3.49a4.211 4.211 0 0 0-3.139-1.369c-.889 0-1.705.284-2.426.844-.642.499-1.09 1.13-1.352 1.57a.733.733 0 0 1-.635.363.733.733 0 0 1-.635-.363c-.262-.44-.71-1.071-1.352-1.57a3.875 3.875 0 0 0-2.426-.844M80 47.866a1.17 1.17 0 0 1-.773-.291 231.97 231.97 0 0 0-2.274-1.964l-.004-.003c-2.015-1.724-3.755-3.213-4.965-4.68C70.63 39.288 70 37.734 70 36.035c0-1.65.564-3.172 1.587-4.287a5.368 5.368 0 0 1 4-1.748c1.155 0 2.212.366 3.143 1.09.47.364.895.81 1.27 1.331.375-.52.8-.967 1.27-1.332A5.018 5.018 0 0 1 84.414 30c1.544 0 2.965.621 4 1.748C89.438 32.863 90 34.385 90 36.035c0 1.699-.63 3.253-1.984 4.893-1.21 1.467-2.95 2.956-4.965 4.68-.688.588-1.468 1.256-2.278 1.967a1.17 1.17 0 0 1-.773.292"/>
    </g>
</svg>
