<svg xmlns="http://www.w3.org/2000/svg" xmlns:xlink="http://www.w3.org/1999/xlink" width="219" height="221" viewBox="0 0 219 221">
    <defs>
        <radialGradient id="c" cx="54.046%" cy="21.13%" r="90.113%" fx="54.046%" fy="21.13%">
            <stop offset="0%" stop-color="#04F0FA" stop-opacity=".079"/>
            <stop offset="100%" stop-color="#04F0FA"/>
        </radialGradient>
        <circle id="b" cx="67.5" cy="67.5" r="67.5"/>
        <filter id="a" width="214.1%" height="214.1%" x="-57%" y="-40.7%" filterUnits="objectBoundingBox">
            <feOffset dy="22" in="SourceAlpha" result="shadowOffsetOuter1"/>
            <feGaussianBlur in="shadowOffsetOuter1" result="shadowBlurOuter1" stdDeviation="22"/>
            <feColorMatrix in="shadowBlurOuter1" values="0 0 0 0 0.0156862745 0 0 0 0 0.749019608 0 0 0 0 0.992156863 0 0 0 0.203719429 0"/>
        </filter>
    </defs>
    <g fill="none" fill-rule="evenodd">
        <g transform="translate(42 21)">
            <use fill="#000" filter="url(#a)" xlink:href="#b"/>
            <use fill="url(#c)" xlink:href="#b"/>
        </g>
        <g fill="#FFF">
            <path d="M119.333 54.869h1.867a.94.94 0 0 1 .933.942.94.94 0 0 1-.933.943h-1.867a.938.938 0 0 0-.933.943c0 .52.418.943.933.943h1.867a.94.94 0 0 1 .933.943.94.94 0 0 1-.933.943h-1.867a.938.938 0 0 0-.933.943c0 .52.418.942.933.942a.94.94 0 0 1 .934.943.94.94 0 0 1-.934.943h-7.819a8.303 8.303 0 0 1-2.656-.435l-3.525-1.187V51.008c1.464-.281 2.897-1.218 4.191-2.75 1.263-1.498 2.287-3.483 2.74-5.312l.331-1.34h.205c1.03 0 1.867.846 1.867 1.885v.943c0 1.266-.392 3.694-.894 4.777h-1.906a.938.938 0 0 0-.934.943c0 .52.418.943.934.943h9.333a.94.94 0 0 1 .933.943.94.94 0 0 1-.933.943h-1.867a.938.938 0 0 0-.933.943c0 .52.418.943.933.943zm-15.866 8.485a.94.94 0 0 1-.934.943h-4.666V49.211h4.666a.94.94 0 0 1 .934.943v13.2zm19.818-9.428A2.835 2.835 0 0 0 124 52.04c0-1.56-1.256-2.829-2.8-2.829h-5.434c.538-1.65.767-3.839.767-4.777v-.943c0-2.079-1.675-3.771-3.733-3.771h-.933a.935.935 0 0 0-.906.714l-.508 2.055c-.712 2.877-2.974 6.052-5.315 6.63a2.804 2.804 0 0 0-2.605-1.793h-5.6a.938.938 0 0 0-.933.943V65.24c0 .52.418.943.933.943h5.6c1.113 0 2.077-.66 2.528-1.612l3.207 1.08a10.15 10.15 0 0 0 3.246.532h7.82c1.543 0 2.8-1.27 2.8-2.829 0-.367-.07-.72-.197-1.042a2.83 2.83 0 0 0 2.063-2.73c0-.723-.27-1.384-.715-1.885a2.835 2.835 0 0 0 .715-1.886c0-.723-.27-1.384-.715-1.885z"/>
            <path d="M100.667 60.526c.515 0 .933.422.933.943 0 .52-.418.942-.933.942a.938.938 0 0 1-.934-.942c0-.521.418-.943.934-.943M113.733 34a.938.938 0 0 0-.933.943v1.948c0 .521.418.943.933.943a.938.938 0 0 0 .934-.943v-1.948a.938.938 0 0 0-.934-.943M109.774 38.158l-1.32-1.334a.927.927 0 0 0-1.32 0 .95.95 0 0 0 0 1.334l1.32 1.333a.927.927 0 0 0 1.32 0 .95.95 0 0 0 0-1.333M120.333 36.824a.927.927 0 0 0-1.32 0l-1.32 1.334a.95.95 0 0 0 0 1.333.927.927 0 0 0 1.32 0l1.32-1.333a.95.95 0 0 0 0-1.334"/>
        </g>
        <text fill="#FFF" font-family="Quicksand-Regular, Quicksand" font-size="30" letter-spacing="-.375" transform="translate(42 21)">
            <tspan x="30.585" y="87">66.1 K</tspan>
        </text>
    </g>
</svg>
