<svg xmlns="http://www.w3.org/2000/svg" width="678" height="810" viewBox="0 0 678 810">
    <defs>
        <linearGradient id="a" x1="10.866%" x2="86.61%" y1="72.35%" y2="23.531%">
            <stop offset="0%" stop-color="#04F0FA"/>
            <stop offset="100%" stop-color="#05A4FF"/>
        </linearGradient>
    </defs>
    <path fill="url(#a)" fill-rule="evenodd" d="M585.413 1655.67c-36.879 18.955-75.736 32.808-115.522 41.407-126.816 27.405-274.332 8.171-366.025-114.625-48.144-64.473-70.51-159.361-42.774-236.586 21.049-58.608 66.723-99.437 114.177-129.94 47.454-30.503 98.74-53.592 142.59-90.64 41.659-35.196 75.108-81.721 111.6-124.029 36.493-42.308 77.969-81.696 127.89-97.18 49.92-15.484 109.923-1.862 142.743 46.462 25.623 37.726 30.651 89.549 24.59 136.444-6.065 46.894-21.894 90.846-34.104 135.877-12.21 45.032-20.887 93.31-12.175 140.09 7.293 39.156 26.45 75.311 29.2 115.128 2.832 41.044-12.667 81.231-36.132 111.007-23.466 29.78-54.293 50.258-86.058 66.584z" transform="translate(-49 -898)"/>
</svg>
