<svg xmlns="http://www.w3.org/2000/svg" xmlns:xlink="http://www.w3.org/1999/xlink" width="321.5187" height="313.6367" viewBox="0 0 321.5187 313.6367"><defs><radialGradient id="a" cx="171.1416" cy="141.3646" r="372.8752" gradientUnits="userSpaceOnUse"><stop offset="0" stop-color="#e1f5ff"/><stop offset="1" stop-color="#b3e5ff"/></radialGradient><radialGradient id="b" cx="208.5189" cy="200.6366" r="302.3474" gradientUnits="userSpaceOnUse"><stop offset="0" stop-color="#b3e5ff"/><stop offset="1" stop-color="#81d5ff"/></radialGradient></defs><title>dashboard-templates</title><rect x="62.2913" y="0.4995" width="217.7006" height="281.7302" rx="6" fill="url(#a)"/><path d="M273.9923,282.73H68.2911a6.5076,6.5076,0,0,1-6.5-6.5V6.5a6.5076,6.5076,0,0,1,6.5-6.5H273.9923a6.5075,6.5075,0,0,1,6.5,6.5V276.23A6.5075,6.5075,0,0,1,273.9923,282.73ZM68.2911,1a5.5069,5.5069,0,0,0-5.5,5.5V276.23a5.5069,5.5069,0,0,0,5.5,5.5H273.9923a5.5069,5.5069,0,0,0,5.5-5.5V6.5a5.5069,5.5069,0,0,0-5.5-5.5Z" fill="#0c89db"/><path d="M110.6356,56.54a1.6559,1.6559,0,0,0,1.6557-1.6559V28.196a1.6557,1.6557,0,0,0-1.6557-1.6558H83.9471a1.6556,1.6556,0,0,0-1.6558,1.6558V54.8845A1.6557,1.6557,0,0,0,83.9471,56.54Z" fill="#3c5a99"/><path d="M102.9909,56.54V44.9227h3.9l.5839-4.5277h-4.4834V37.5044c0-1.3108.364-2.2041,2.2437-2.2041l2.3975-.0011V31.25a32.0377,32.0377,0,0,0-3.4936-.1785c-3.4567,0-5.8232,2.11-5.8232,5.9848v3.339H94.4058v4.5277h3.9095V56.54Z" fill="#fff"/><path d="M110.072,76.54H84.5041a2.1893,2.1893,0,0,0-2.2128,2.1632v25.6729a2.1907,2.1907,0,0,0,2.2128,2.1648H110.072a2.1947,2.1947,0,0,0,2.2193-2.1648V78.7036A2.1934,2.1934,0,0,0,110.072,76.54Z" fill="#0065a1"/><path d="M86.7364,87.7875h4.4541v14.3168H86.7364Zm2.2283-7.1169a2.58,2.58,0,1,1-2.5815,2.58,2.5807,2.5807,0,0,1,2.5815-2.58" fill="#fff"/><path d="M93.9819,87.7875h4.2653v1.9572h.061a4.6741,4.6741,0,0,1,4.21-2.3125c4.5053,0,5.3379,2.9644,5.3379,6.82v7.8518h-4.4492V95.142c0-1.66-.0285-3.7961-2.3121-3.7961-2.3153,0-2.6685,1.81-2.6685,3.6773v7.0811H93.9819Z" fill="#fff"/><path d="M91.7261,150.6363c11.3215,0,17.5123-9.3793,17.5123-17.5123q0-.4-.0173-.7956a12.5177,12.5177,0,0,0,3.07-3.1873,12.2729,12.2729,0,0,1-3.5346.969,6.1766,6.1766,0,0,0,2.7066-3.4044,12.3432,12.3432,0,0,1-3.9084,1.494,6.16,6.16,0,0,0-10.4887,5.6131,17.4759,17.4759,0,0,1-12.6872-6.4309,6.16,6.16,0,0,0,1.9056,8.2171,6.11,6.11,0,0,1-2.7876-.77c-.0009.0258-.0009.051-.0009.0786a6.1567,6.1567,0,0,0,4.9381,6.0336,6.1452,6.1452,0,0,1-2.78.1056,6.1614,6.1614,0,0,0,5.75,4.2751,12.3478,12.3478,0,0,1-7.6447,2.6346,12.497,12.497,0,0,1-1.4682-.0852,17.4233,17.4233,0,0,0,9.4351,2.7648" fill="#1da1f2"/><rect x="132.2913" y="28.4852" width="128.5284" height="8.7034" transform="translate(393.111 65.6738) rotate(-180)" fill="#6ec2fa"/><rect x="132.2913" y="45.892" width="78.8198" height="8.7034" transform="translate(343.4024 100.4874) rotate(-180)" fill="#6ec2fa"/><rect x="132.2913" y="78.4857" width="128.5284" height="8.7034" transform="translate(393.111 165.6749) rotate(-180)" fill="#6ec2fa"/><rect x="132.2913" y="95.8925" width="100.8488" height="8.7034" transform="translate(365.4314 200.4885) rotate(-180)" fill="#6ec2fa"/><rect x="132.2913" y="125.3906" width="128.5284" height="8.7034" transform="translate(393.111 259.4846) rotate(-180)" fill="#6ec2fa"/><rect x="132.2913" y="142.7974" width="39.4099" height="8.7034" transform="translate(303.9925 294.2982) rotate(-180)" fill="#6ec2fa"/><path d="M110.6356,200.6366a1.6559,1.6559,0,0,0,1.6557-1.6559V172.2921a1.6557,1.6557,0,0,0-1.6557-1.6558H83.9471a1.6556,1.6556,0,0,0-1.6558,1.6558v26.6886a1.6557,1.6557,0,0,0,1.6558,1.6559Z" fill="#3c5a99"/><path d="M102.9909,200.6366V189.0188h3.9l.5839-4.5276h-4.4834v-2.8906c0-1.3109.364-2.2042,2.2437-2.2042l2.3975-.001v-4.05a32.0471,32.0471,0,0,0-3.4936-.1784c-3.4567,0-5.8232,2.11-5.8232,5.9848v3.339H94.4058v4.5276h3.9095v11.6178Z" fill="#fff"/><rect x="132.2913" y="172.5814" width="128.5284" height="8.7034" transform="translate(393.111 353.8661) rotate(-180)" fill="#6ec2fa"/><rect x="132.2913" y="189.9882" width="100.8488" height="8.7034" transform="translate(365.4314 388.6797) rotate(-180)" fill="#6ec2fa"/><path d="M110.072,220.6366H84.5041A2.1892,2.1892,0,0,0,82.2913,222.8v25.6729a2.1907,2.1907,0,0,0,2.2128,2.1648H110.072a2.1947,2.1947,0,0,0,2.2193-2.1648V222.8A2.1933,2.1933,0,0,0,110.072,220.6366Z" fill="#0065a1"/><path d="M86.7364,231.8836h4.4541V246.2H86.7364Zm2.2283-7.1169a2.58,2.58,0,1,1-2.5815,2.58,2.5808,2.5808,0,0,1,2.5815-2.58" fill="#fff"/><path d="M93.9819,231.8836h4.2653v1.9573h.061a4.6739,4.6739,0,0,1,4.21-2.3125c4.5053,0,5.3379,2.9644,5.3379,6.82V246.2h-4.4492v-6.9622c0-1.66-.0285-3.7961-2.3121-3.7961-2.3153,0-2.6685,1.8095-2.6685,3.6772V246.2H93.9819Z" fill="#fff"/><rect x="132.2913" y="222.5819" width="128.5284" height="8.7034" transform="translate(393.111 453.8672) rotate(-180)" fill="#6ec2fa"/><rect x="132.2913" y="239.9887" width="78.8198" height="8.7034" transform="translate(343.4024 488.6808) rotate(-180)" fill="#6ec2fa"/><rect y="43.7293" width="25" height="185" fill="#0c89db"/><path d="M6,26.4505H19a6,6,0,0,1,6,6v8.2788a0,0,0,0,1,0,0H0a0,0,0,0,1,0,0V32.4505A6,6,0,0,1,6,26.4505Z" fill="#0c89db"/><polygon points="12.5 253.727 25 232.076 0 232.076 12.5 253.727" fill="#0c89db"/><polygon points="271.019 88.137 271.019 263.137 96.019 263.137 96.019 313.137 271.019 313.137 321.019 313.137 321.019 263.137 321.019 88.137 271.019 88.137" fill="url(#b)"/><path d="M321.5187,313.6367h-226v-51h175v-175h51Zm-225-1h224v-224h-49v175h-175Z" fill="#0c89db"/><rect x="111.9542" y="263.0176" width="2" height="17.5" fill="#0c89db"/><rect x="129.4542" y="263.0176" width="2" height="17.5" fill="#0c89db"/><rect x="146.9542" y="263.0176" width="2" height="17.5" fill="#0c89db"/><rect x="164.4542" y="263.0176" width="2" height="17.5" fill="#0c89db"/><rect x="181.9542" y="263.0176" width="2" height="25" fill="#0c89db"/><rect x="199.3644" y="263.0176" width="2" height="17.5" fill="#0c89db"/><rect x="216.2687" y="263.0176" width="2" height="17.5" fill="#0c89db"/><rect x="233.7687" y="263.0176" width="2" height="17.5" fill="#0c89db"/><rect x="251.2687" y="263.0176" width="2" height="17.5" fill="#0c89db"/><rect x="270.6114" y="245.5908" width="17.5" height="2" fill="#0c89db"/><rect x="270.6114" y="228.0908" width="17.5" height="2" fill="#0c89db"/><rect x="270.6114" y="210.5908" width="17.5" height="2" fill="#0c89db"/><rect x="270.6114" y="193.0908" width="17.5" height="2" fill="#0c89db"/><rect x="270.6114" y="175.5908" width="25" height="2" fill="#0c89db"/><rect x="270.6114" y="158.1797" width="17.5" height="2" fill="#0c89db"/><rect x="270.6114" y="141.2754" width="17.5" height="2" fill="#0c89db"/><rect x="270.6114" y="123.7754" width="17.5" height="2" fill="#0c89db"/><rect x="270.6114" y="106.2754" width="17.5" height="2" fill="#0c89db"/></svg>