<svg xmlns="http://www.w3.org/2000/svg" width="92" height="90" viewBox="0 0 92 90">
    <g fill="none" fill-rule="evenodd">
        <path fill="#4A4A4A" d="M29.612 20.83L42.873 9.737A5.362 5.362 0 0 0 46 10.74a5.362 5.362 0 0 0 3.127-1.002L62.388 20.83H29.612zm19.08-15.46A2.69 2.69 0 0 1 46 8.053 2.69 2.69 0 0 1 43.31 5.37 2.69 2.69 0 0 1 46 2.687a2.69 2.69 0 0 1 2.692 2.683zM0 24.03v62.767A3.211 3.211 0 0 0 3.213 90h85.576A3.21 3.21 0 0 0 92 86.797V41.644c0-.742-.603-1.344-1.348-1.344-.743 0-1.347.602-1.347 1.344v45.153a.517.517 0 0 1-.516.517H3.213a.517.517 0 0 1-.517-.517V24.031c0-.285.231-.516.517-.516h85.576c.285 0 .516.232.516.516v11.43c0 .742.604 1.342 1.347 1.342.745 0 1.348-.6 1.348-1.343V24.03a3.21 3.21 0 0 0-3.211-3.2H66.576l-.052-.05L50.862 7.683a5.32 5.32 0 0 0 .525-2.312C51.387 2.41 48.971 0 46 0c-2.97 0-5.386 2.409-5.386 5.37 0 .827.188 1.611.525 2.312L25.476 20.781l-.05.048H3.212A3.211 3.211 0 0 0 0 24.031z"/>
        <path fill="#C1C1C1" d="M80.306 38.423a.515.515 0 0 1-.517.513H12.21a.514.514 0 0 1-.514-.513v-5.236c0-.284.23-.513.515-.513H79.789c.285 0 .517.23.517.513v5.236zm0 11.797a.515.515 0 0 1-.517.513h-8.157a.515.515 0 0 1-.516-.513v-8.097c0-.282.231-.512.516-.512h8.157c.285 0 .517.23.517.512v8.097zm0 11.797a.515.515 0 0 1-.517.512h-8.157a.514.514 0 0 1-.516-.512v-8.098c0-.282.231-.512.516-.512h8.157c.285 0 .517.23.517.512v8.098zm0 11.796a.516.516 0 0 1-.517.513h-8.157a.516.516 0 0 1-.516-.513v-8.097c0-.283.231-.513.516-.513h8.157c.285 0 .517.23.517.513v8.097zM68.422 50.22a.515.515 0 0 1-.517.513h-8.158a.515.515 0 0 1-.516-.513v-8.097c0-.282.232-.512.516-.512h8.158c.285 0 .517.23.517.512v8.097zm0 11.797a.515.515 0 0 1-.517.512h-8.158a.515.515 0 0 1-.516-.512v-8.098c0-.282.232-.512.516-.512h8.158c.285 0 .517.23.517.512v8.098zm0 11.796a.516.516 0 0 1-.517.513h-8.158a.516.516 0 0 1-.516-.513v-8.097c0-.282.232-.513.516-.513h8.158c.285 0 .517.231.517.513v8.097zM56.537 50.22a.515.515 0 0 1-.517.513h-8.156a.515.515 0 0 1-.517-.513v-8.097c0-.282.232-.512.517-.512h8.156c.285 0 .517.23.517.512v8.097zm0 11.797a.515.515 0 0 1-.517.512h-8.157a.514.514 0 0 1-.516-.512v-8.098c0-.282.231-.512.516-.512h8.157c.285 0 .517.23.517.512v8.098zm0 11.796a.516.516 0 0 1-.517.513h-8.156a.516.516 0 0 1-.517-.513v-8.097c0-.282.232-.513.517-.513h8.156c.285 0 .517.231.517.513v8.097zM44.653 50.22a.515.515 0 0 1-.517.513H35.98a.515.515 0 0 1-.516-.513v-8.097c0-.282.232-.512.516-.512h8.157c.285 0 .517.23.517.512v8.097zm0 11.797a.515.515 0 0 1-.517.512H35.98a.515.515 0 0 1-.516-.512v-8.098c0-.282.232-.512.516-.512h8.157c.285 0 .517.23.517.512v8.098zm0 11.796a.516.516 0 0 1-.517.513H35.98a.516.516 0 0 1-.516-.513v-8.097c0-.282.232-.513.516-.513h8.157c.285 0 .517.231.517.513v8.097zM32.768 50.22a.515.515 0 0 1-.517.513h-8.156a.515.515 0 0 1-.516-.513v-8.097c0-.282.23-.512.516-.512h8.156c.285 0 .517.23.517.512v8.097zm0 11.797a.515.515 0 0 1-.517.512h-8.156a.514.514 0 0 1-.516-.512v-8.098c0-.282.23-.512.516-.512h8.156c.285 0 .517.23.517.512v8.098zm0 11.796a.516.516 0 0 1-.517.513h-8.156a.515.515 0 0 1-.516-.513v-8.097c0-.282.23-.513.516-.513h8.156c.285 0 .517.231.517.513v8.097zM20.884 50.22a.515.515 0 0 1-.517.513H12.21a.514.514 0 0 1-.515-.513v-8.097c0-.282.23-.512.515-.512h8.157c.286 0 .517.23.517.512v8.097zm0 11.797a.515.515 0 0 1-.517.512H12.21a.514.514 0 0 1-.515-.512v-8.098c0-.282.23-.512.515-.512h8.157c.286 0 .517.23.517.512v8.098zm0 11.796a.515.515 0 0 1-.517.513H12.21a.515.515 0 0 1-.515-.513v-8.097c0-.282.23-.513.515-.513h8.157c.286 0 .517.231.517.513v8.097zM83 33.187C83 31.429 81.56 30 79.79 30H12.21C10.44 30 9 31.429 9 33.187v5.236c0 .69.225 1.328.6 1.85a3.16 3.16 0 0 0-.6 1.85v8.097c0 .69.225 1.327.6 1.85-.375.522-.6 1.16-.6 1.849v8.098c0 .69.225 1.327.6 1.849a3.16 3.16 0 0 0-.6 1.85v8.097C9 75.57 10.44 77 12.21 77h8.157c.695 0 1.338-.223 1.865-.597a3.203 3.203 0 0 0 1.863.597h8.156c.696 0 1.34-.223 1.864-.597.527.374 1.17.597 1.864.597h8.157c.695 0 1.337-.223 1.864-.597a3.207 3.207 0 0 0 1.864.597h8.156a3.21 3.21 0 0 0 1.864-.597c.527.374 1.17.597 1.864.597h8.157c.695 0 1.337-.223 1.864-.597a3.207 3.207 0 0 0 1.864.597h8.156C81.56 77 83 75.57 83 73.813v-8.097c0-.69-.225-1.327-.601-1.85.376-.522.601-1.16.601-1.85V53.92c0-.69-.225-1.327-.601-1.85.376-.522.601-1.16.601-1.85v-8.097c0-.689-.225-1.327-.601-1.85A3.15 3.15 0 0 0 83 38.424v-5.236zM10.571 84h2.858c.869 0 1.571-.671 1.571-1.5 0-.828-.702-1.5-1.571-1.5h-2.858C9.703 81 9 81.672 9 82.5c0 .829.703 1.5 1.571 1.5M64.421 81c-.785 0-1.421.672-1.421 1.5 0 .83.636 1.5 1.421 1.5H84.58c.784 0 1.421-.67 1.421-1.5 0-.828-.637-1.5-1.421-1.5H64.42z"/>
        <path fill="#05A4FF" d="M66.742 60H40.258C39.566 60 39 59.325 39 58.5s.566-1.5 1.258-1.5h26.484c.692 0 1.258.675 1.258 1.5s-.566 1.5-1.258 1.5M54.737 71H16.263C15.568 71 15 70.325 15 69.5s.568-1.5 1.263-1.5h38.474c.695 0 1.263.675 1.263 1.5s-.568 1.5-1.263 1.5"/>
    </g>
</svg>
