<svg xmlns="http://www.w3.org/2000/svg" width="100" height="80" fill-rule="evenodd"><path fill="#505050" d="M2.99 3.1L3 3.103c.007-.048.072-.114.12-.114h6.055v5.725H2.99V3.1zm9.163 5.604V2.99h65.584c.048 0 .114.065.12.114l.002.007v5.604H12.153zm54.756 63.48c0-.825-.67-1.494-1.495-1.494H3.1a.121.121 0 0 1-.121-.12V11.7h74.87v19.12a1.494 1.494 0 1 0 2.988 0V3.1A3.113 3.113 0 0 0 77.736 0H3.1A3.114 3.114 0 0 0 0 3.11v67.468a3.11 3.11 0 0 0 3.11 3.11h62.303c.826 0 1.495-.668 1.495-1.494z"/><path fill="#58585b" d="M12.872 19.363a.954.954 0 0 0-.953.953v4.67c0 .525.427.952.953.952h4.668a.955.955 0 0 0 .954-.953v-4.67a.955.955 0 0 0-.954-.953h-4.668zm4.668 9.23h-4.668a3.612 3.612 0 0 1-3.608-3.608v-4.67a3.612 3.612 0 0 1 3.608-3.608h4.668a3.613 3.613 0 0 1 3.609 3.608v4.67c0 1.99-1.62 3.607-3.6 3.607z"/><path fill="#c1c1c1" d="M66.934 21.034h-39.85a1.327 1.327 0 1 1 0-2.655h39.85a1.327 1.327 0 1 1 0 2.655M45.42 26.786H27.085a1.327 1.327 0 1 1 0-2.655h18.337a1.327 1.327 0 1 1 0 2.655"/><path fill="#58585b" d="M12.872 54.32a.954.954 0 0 0-.953.953v4.67c0 .525.427.953.953.953h4.668a.955.955 0 0 0 .954-.953v-4.67a.955.955 0 0 0-.954-.952h-4.668zm4.668 9.23h-4.668a3.612 3.612 0 0 1-3.608-3.608v-4.67a3.612 3.612 0 0 1 3.608-3.607h4.668a3.613 3.613 0 0 1 3.609 3.608v4.67c0 2-1.62 3.608-3.6 3.608z"/><path fill="#c1c1c1" d="M50.66 56H26.962c-.665 0-1.205-.594-1.205-1.328s.54-1.327 1.205-1.327H50.66c.665 0 1.204.593 1.204 1.327s-.54 1.327-1.204 1.327m-5.24 5.753H27.085a1.328 1.328 0 0 1 0-2.655h18.337a1.328 1.328 0 0 1 0 2.655m7.768-23.43H27.086a1.327 1.327 0 1 1 0-2.655H53.2a1.327 1.327 0 1 1 0 2.655m-7.77 5.753H27.085a1.327 1.327 0 1 1 0-2.655h18.337a1.327 1.327 0 1 1 0 2.655"/><path fill="#58585b" d="M15.248 37.095a2.769 2.769 0 0 0-2.765 2.766 2.769 2.769 0 0 0 2.765 2.765 2.769 2.769 0 0 0 2.766-2.765 2.769 2.769 0 0 0-2.766-2.766m0 8.186a5.427 5.427 0 0 1-5.42-5.42 5.427 5.427 0 0 1 5.42-5.42 5.427 5.427 0 0 1 5.42 5.42 5.427 5.427 0 0 1-5.42 5.42"/><path d="M71.422 59c-4.27 0-7.745-3.475-7.745-7.746s3.475-7.745 7.745-7.745a7.76 7.76 0 0 1 7.746 7.745A7.76 7.76 0 0 1 71.422 59m0-18.146c-5.734 0-10.4 4.666-10.4 10.4s4.666 10.4 10.4 10.4 10.4-4.664 10.4-10.4-4.666-10.4-10.4-10.4m24.636 35.204a3.049 3.049 0 0 1-4.31-.003L80.916 65.28a17.102 17.102 0 0 0 4.34-4.274L96.058 71.75a3.049 3.049 0 0 1 0 4.307M57.133 51.254a14.31 14.31 0 0 1 14.29-14.291 14.31 14.31 0 0 1 14.29 14.29 14.31 14.31 0 0 1-14.29 14.29 14.31 14.31 0 0 1-14.29-14.29m40.8 18.618L86.646 58.646a16.803 16.803 0 0 0 1.722-7.392c0-9.345-7.602-16.946-16.946-16.946s-16.944 7.6-16.944 16.946 7.6 16.944 16.944 16.944c2.53 0 4.924-.573 7.082-1.57l11.37 11.307a5.682 5.682 0 0 0 4.03 1.667c1.46 0 2.92-.555 4.03-1.667a5.706 5.706 0 0 0-.002-8.064" fill="#05a4ff"/></svg>