<svg xmlns="http://www.w3.org/2000/svg" width="78" height="91" fill-rule="evenodd"><path fill="#4a4a4a" d="M76.667 35.437c.736 0 1.333-.598 1.333-1.336V8.46c0-.737-.597-1.336-1.333-1.336h-12.02L65.87 3.72a1.35 1.35 0 0 0-.802-1.71L59.72.08a1.344 1.344 0 0 0-1.705.803l-2.243 6.24H29.3l-3-6.358a1.331 1.331 0 0 0-1.775-.636l-5.14 2.436a1.35 1.35 0 0 0-.634 1.778l1.312 2.78H8.44c-.736 0-1.333.598-1.333 1.336v72.747H1.333C.597 81.206 0 81.804 0 82.54 0 87.205 3.786 91 8.44 91h61.12c4.654 0 8.44-3.795 8.44-8.46V40.587a1.334 1.334 0 0 0-2.665 0V82.54a5.79 5.79 0 0 1-5.775 5.788 5.79 5.79 0 0 1-5.774-5.788c0-.737-.597-1.335-1.333-1.335H9.773V9.795h11.56l3.505 7.427c.3.658 1.117.948 1.774.637l5.14-2.437a1.35 1.35 0 0 0 .635-1.778l-1.816-3.85h24.24l-1.615 4.493c-.25.694.1 1.46.803 1.71l5.348 1.932a1.35 1.35 0 0 0 1.706-.804l2.634-7.33h11.648V34.1c0 .738.596 1.336 1.332 1.336zM63.4 88.33H8.44c-2.726 0-5.017-1.902-5.62-4.452h58.406a8.448 8.448 0 0 0 2.184 4.452zM26.677 14.873L21.74 4.408l2.73-1.294 4.938 10.464-2.73 1.295zm32.32.09l-2.842-1.027 3.914-10.9L62.91 4.07l-3.914 10.9z"/><path fill="#c1c1c1" d="M23.33 58c-.735 0-1.33.672-1.33 1.5s.595 1.5 1.33 1.5h11.34c.734 0 1.33-.672 1.33-1.5s-.595-1.5-1.33-1.5H23.33zm37.392 0H40.278c-.706 0-1.278.672-1.278 1.5s.572 1.5 1.278 1.5h20.444c.706 0 1.278-.672 1.278-1.5s-.572-1.5-1.278-1.5m1.96 7H23.318C22.6 65 22 65.672 22 66.5s.6 1.5 1.318 1.5h39.364C63.4 68 64 67.328 64 66.5s-.6-1.5-1.318-1.5m-39.324 6c-.75 0-1.358.67-1.358 1.5s.608 1.5 1.358 1.5h20.284c.75 0 1.358-.672 1.358-1.5s-.608-1.5-1.358-1.5H23.358zm39.3 0H48.342C47.6 71 47 71.67 47 72.5s.6 1.5 1.342 1.5h14.316C63.4 74 64 73.328 64 72.5s-.6-1.5-1.342-1.5"/><path fill="#05a4ff" d="M49.67 51A1.34 1.34 0 0 0 51 49.68V24.317c0-.93-1-1.58-1.852-1.214l-19.6 8.347h-5.395c-2.295 0-4.163 1.857-4.163 4.14v2.818c0 2.282 1.868 4.14 4.163 4.14h.09v7.132c0 .73.594 1.32 1.328 1.32h4.25c.734 0 1.33-.59 1.33-1.32v-6.45l17.988 7.664c.168.072.346.107.523.107zM22.657 38.408V35.6c0-.826.676-1.497 1.506-1.497h4.34v5.81h-4.34c-.83 0-1.506-.67-1.506-1.496zm4.25 9.95h1.595v-5.81h-1.595v5.81zm21.435-.682l-17.183-7.32v-6.712l17.183-7.32v21.354zM65 37.5c0-.828-.65-1.5-1.452-1.5h-3.096C59.65 36 59 36.672 59 37.5s.65 1.5 1.452 1.5h3.096C64.35 39 65 38.328 65 37.5M59.3 33a1.29 1.29 0 0 0 .65-.175l2.4-1.39c.622-.36.835-1.158.476-1.782a1.297 1.297 0 0 0-1.775-.477l-2.4 1.39A1.306 1.306 0 0 0 59.3 33m-.65 10.436l2.4 1.393a1.308 1.308 0 0 0 1.776-.478 1.308 1.308 0 0 0-.476-1.783l-2.4-1.393a1.296 1.296 0 0 0-1.776.478 1.309 1.309 0 0 0 .476 1.783"/></svg>