<svg xmlns="http://www.w3.org/2000/svg" xmlns:xlink="http://www.w3.org/1999/xlink" width="401.956" height="345.779"><defs><radialGradient id="A" cx="292.606" cy="204.414" r="432.684" gradientUnits="userSpaceOnUse"><stop offset="0" stop-color="#e1f5ff"/><stop offset="1" stop-color="#b3e5ff"/></radialGradient><radialGradient id="B" cx="106.754" cy="123.254" r="436.09" gradientUnits="userSpaceOnUse"><stop offset="0" stop-color="#b3e5ff"/><stop offset="1" stop-color="#81d5ff"/></radialGradient><path id="C" d="M208.2 150.836h4.454v14.317H208.2zm2.228-7.117a2.58 2.58 0 1 1-2.581 2.58 2.581 2.581 0 0 1 2.581-2.58"/><path id="D" d="M215.446 150.836h4.265v1.957h.06a4.674 4.674 0 0 1 4.21-2.312c4.505 0 5.338 2.964 5.338 6.82v7.852h-4.45v-6.962c0-1.66-.03-3.796-2.312-3.796-2.315 0-2.67 1.8-2.67 3.677v7.08h-4.444z"/><path id="E" d="M382.284 100.237H253.755v-8.703h128.528z"/></defs><rect x="183.755" y="63.548" width="217.701" height="281.73" rx="6" fill="url(#A)"/><path d="M395.456 345.78h-205.7a6.508 6.508 0 0 1-6.5-6.5V69.548a6.508 6.508 0 0 1 6.5-6.5h205.7a6.508 6.508 0 0 1 6.5 6.5v269.73a6.508 6.508 0 0 1-6.5 6.5zm-205.7-281.73a5.507 5.507 0 0 0-5.5 5.5v269.73a5.507 5.507 0 0 0 5.5 5.5h205.7a5.507 5.507 0 0 0 5.5-5.5V69.548a5.507 5.507 0 0 0-5.5-5.5z" fill="#0c89db"/><path d="M232.1 119.59a1.656 1.656 0 0 0 1.656-1.656v-26.69a1.656 1.656 0 0 0-1.656-1.656h-26.69a1.656 1.656 0 0 0-1.656 1.656v26.69a1.656 1.656 0 0 0 1.656 1.656z" fill="#3c5a99"/><path d="M224.455 119.59v-11.618h3.9l.584-4.528h-4.483v-2.89c0-1.31.364-2.204 2.244-2.204l2.398-.001v-4.05a32.047 32.047 0 0 0-3.494-.178c-3.457 0-5.823 2.1-5.823 5.985v3.34h-3.9v4.528h3.9v11.618z" fill="#fff"/><path d="M231.536 139.59h-25.568a2.189 2.189 0 0 0-2.213 2.163v25.673a2.191 2.191 0 0 0 2.213 2.165h25.568a2.195 2.195 0 0 0 2.219-2.165v-25.673a2.193 2.193 0 0 0-2.219-2.163z" fill="#0065a1"/><g fill="#fff"><use xlink:href="#C"/><use xlink:href="#D"/></g><path d="M213.2 213.685c11.322 0 17.512-9.38 17.512-17.512q0-.4-.017-.796a12.514 12.514 0 0 0 3.07-3.187 12.274 12.274 0 0 1-3.535.969 6.177 6.177 0 0 0 2.707-3.404 12.345 12.345 0 0 1-3.908 1.494 6.16 6.16 0 0 0-10.489 5.613 17.476 17.476 0 0 1-12.687-6.431 6.16 6.16 0 0 0 1.906 8.217 6.11 6.11 0 0 1-2.788-.77c-.001.026-.001.05-.001.08a6.157 6.157 0 0 0 4.938 6.034 6.145 6.145 0 0 1-2.78.106 6.161 6.161 0 0 0 5.75 4.275 12.348 12.348 0 0 1-7.645 2.635 12.519 12.519 0 0 1-1.468-.085 17.423 17.423 0 0 0 9.435 2.765" fill="#1da1f2"/><g fill="#6ec2fa"><use xlink:href="#E"/><path d="M332.575 117.644h-78.82v-8.703h78.82z"/><use xlink:href="#E" y="50.001"/><path d="M354.604 167.645h-100.85v-8.703h100.85z"/><use xlink:href="#E" y="96.906"/><path d="M293.165 214.55h-39.4v-8.703h39.4z"/></g><path d="M232.1 263.685a1.656 1.656 0 0 0 1.656-1.656V235.34a1.656 1.656 0 0 0-1.656-1.656h-26.69a1.656 1.656 0 0 0-1.656 1.656v26.688a1.656 1.656 0 0 0 1.656 1.656z" fill="#3c5a99"/><path d="M224.455 263.685v-11.618h3.9l.584-4.528h-4.483v-2.89c0-1.31.364-2.204 2.244-2.204l2.398-.001v-4.05a32.038 32.038 0 0 0-3.494-.179c-3.457 0-5.823 2.1-5.823 5.985v3.34h-3.9v4.528h3.9v11.618z" fill="#fff"/><g fill="#6ec2fa"><use xlink:href="#E" y="144.097"/><path d="M354.604 261.74h-100.85v-8.703h100.85z"/></g><path d="M231.536 283.685h-25.568a2.189 2.189 0 0 0-2.213 2.163v25.673a2.191 2.191 0 0 0 2.213 2.165h25.568a2.195 2.195 0 0 0 2.219-2.165V285.85a2.193 2.193 0 0 0-2.219-2.163z" fill="#0065a1"/><g fill="#fff"><use xlink:href="#C" y="144.097"/><use xlink:href="#D" y="144.097"/></g><g fill="#6ec2fa"><use xlink:href="#E" y="194.097"/><path d="M332.575 311.74h-78.82v-8.703h78.82z"/></g><rect x=".5" y="17.001" width="212.508" height="212.508" rx="6" fill="url(#B)"/><path d="M207.007 230.008H6.5a6.508 6.508 0 0 1-6.5-6.5V23a6.508 6.508 0 0 1 6.5-6.5h200.507a6.508 6.508 0 0 1 6.5 6.5v200.508a6.508 6.508 0 0 1-6.5 6.5zM6.5 17.5a5.507 5.507 0 0 0-5.5 5.5v200.508a5.507 5.507 0 0 0 5.5 5.5h200.507a5.507 5.507 0 0 0 5.5-5.5V23a5.507 5.507 0 0 0-5.5-5.5z" fill="#0c89db"/><g fill="#0af"><path d="M.5 50h212.507v2H.5z"/><rect x="37.476" width="10.2" height="34.001" rx="4.918"/><rect x="101.654" width="10.2" height="34.001" rx="4.918"/><rect x="165.831" width="10.2" height="34.001" rx="4.918"/></g><path d="M157.704 121.48h25.5v4h-25.5zM29.826 155.995h76.876v4H29.826z" fill="#0c89db"/><g fill="#0af"><rect x="47.2" y="80.978" width="17.001" height="17.001" rx="4"/><rect x="72.701" y="80.978" width="17.001" height="17.001" rx="4"/><rect x="98.202" y="80.978" width="17.001" height="17.001" rx="4"/><rect x="123.703" y="80.978" width="17.001" height="17.001" rx="4"/><rect x="149.204" y="80.978" width="17.001" height="17.001" rx="4"/><rect x="174.704" y="80.978" width="17.001" height="17.001" rx="4"/><rect x="21.699" y="114.979" width="17.001" height="17.001" rx="4"/><rect x="47.2" y="114.979" width="17.001" height="17.001" rx="4"/><rect x="72.701" y="114.979" width="17.001" height="17.001" rx="4"/><rect x="98.202" y="114.979" width="17.001" height="17.001" rx="4"/><rect x="123.703" y="114.979" width="17.001" height="17.001" rx="4"/><rect x="149.204" y="114.979" width="17.001" height="17.001" rx="4"/><rect x="174.704" y="114.979" width="17.001" height="17.001" rx="4"/><rect x="21.699" y="148.98" width="17.001" height="17.001" rx="4"/><rect x="47.2" y="148.98" width="17.001" height="17.001" rx="4"/><rect x="72.701" y="148.98" width="17.001" height="17.001" rx="4"/><rect x="98.202" y="148.98" width="17.001" height="17.001" rx="4"/><rect x="123.703" y="148.98" width="17.001" height="17.001" rx="4"/><rect x="149.204" y="148.98" width="17.001" height="17.001" rx="4"/><rect x="174.704" y="148.98" width="17.001" height="17.001" rx="4"/><rect x="21.699" y="182.981" width="17.001" height="17.001" rx="4"/><rect x="47.2" y="182.981" width="17.001" height="17.001" rx="4"/><rect x="72.701" y="182.981" width="17.001" height="17.001" rx="4"/><rect x="98.202" y="182.981" width="17.001" height="17.001" rx="4"/><rect x="123.703" y="182.981" width="17.001" height="17.001" rx="4"/><rect x="149.204" y="182.981" width="17.001" height="17.001" rx="4"/></g></svg>