<svg xmlns="http://www.w3.org/2000/svg" xmlns:xlink="http://www.w3.org/1999/xlink" viewBox="0 0 401.96 345.78"><defs><style>.cls-1{fill:url(#radial-gradient);}.cls-2{fill:#0c89db;}.cls-3{fill:#3c5a99;}.cls-4{fill:#fff;}.cls-5{fill:#0065a1;}.cls-6{fill:#1da1f2;}.cls-7{fill:#6ec2fa;}.cls-8{fill:url(#radial-gradient-2);}.cls-9{fill:#0af;}</style><radialGradient id="radial-gradient" cx="292.61" cy="204.41" r="432.68" gradientUnits="userSpaceOnUse"><stop offset="0" stop-color="#e1f5ff"/><stop offset="1" stop-color="#b3e5ff"/></radialGradient><radialGradient id="radial-gradient-2" cx="106.75" cy="123.25" r="436.09" gradientUnits="userSpaceOnUse"><stop offset="0" stop-color="#b3e5ff"/><stop offset="1" stop-color="#81d5ff"/></radialGradient></defs><title>Asset 45</title><g id="Layer_2" data-name="Layer 2"><g id="Linework"><rect class="cls-1" x="183.76" y="63.55" width="217.7" height="281.73" rx="6"/><path class="cls-2" d="M395.46,345.78H189.76a6.51,6.51,0,0,1-6.5-6.5V69.55a6.5,6.5,0,0,1,6.5-6.5h205.7a6.51,6.51,0,0,1,6.5,6.5V339.28A6.51,6.51,0,0,1,395.46,345.78ZM189.76,64.05a5.5,5.5,0,0,0-5.5,5.5V339.28a5.5,5.5,0,0,0,5.5,5.5h205.7a5.51,5.51,0,0,0,5.5-5.5V69.55a5.51,5.51,0,0,0-5.5-5.5Z"/><path id="Blue" class="cls-3" d="M232.1,119.59a1.66,1.66,0,0,0,1.66-1.66V91.24a1.66,1.66,0,0,0-1.66-1.65H205.41a1.65,1.65,0,0,0-1.65,1.65v26.69a1.65,1.65,0,0,0,1.65,1.66Z"/><path id="f" class="cls-4" d="M224.45,119.59V108h3.9l.59-4.53h-4.49v-2.89c0-1.31.37-2.2,2.25-2.2h2.4v-4a30.83,30.83,0,0,0-3.5-.18c-3.45,0-5.82,2.11-5.82,6v3.34h-3.91V108h3.91v11.62Z"/><path class="cls-5" d="M231.54,139.59H206a2.19,2.19,0,0,0-2.21,2.16v25.68a2.19,2.19,0,0,0,2.21,2.16h25.57a2.2,2.2,0,0,0,2.22-2.16V141.75A2.2,2.2,0,0,0,231.54,139.59Z"/><path class="cls-4" d="M208.2,150.84h4.45v14.31H208.2Zm2.23-7.12a2.58,2.58,0,1,1-2.58,2.58,2.59,2.59,0,0,1,2.58-2.58"/><path class="cls-4" d="M215.45,150.84h4.26v1.95h.06a4.7,4.7,0,0,1,4.21-2.31c4.51,0,5.34,3,5.34,6.82v7.85h-4.45v-7c0-1.66,0-3.8-2.31-3.8s-2.67,1.81-2.67,3.68v7.08h-4.44Z"/><g id="layer1"><path id="path3611" class="cls-6" d="M213.19,213.69c11.32,0,17.51-9.38,17.51-17.52,0-.26,0-.53,0-.79a12.62,12.62,0,0,0,3.08-3.19,12.37,12.37,0,0,1-3.54,1,6.18,6.18,0,0,0,2.71-3.41,12.35,12.35,0,0,1-3.91,1.5,6.16,6.16,0,0,0-10.65,4.21,5.89,5.89,0,0,0,.16,1.4,17.47,17.47,0,0,1-12.69-6.43,6.17,6.17,0,0,0,1.91,8.22,6.12,6.12,0,0,1-2.79-.77V198a6.15,6.15,0,0,0,4.94,6,6.11,6.11,0,0,1-2.78.11,6.16,6.16,0,0,0,5.75,4.27,12.37,12.37,0,0,1-7.65,2.64,11.8,11.8,0,0,1-1.46-.09,17.36,17.36,0,0,0,9.43,2.77"/></g><rect class="cls-7" x="253.76" y="91.53" width="128.53" height="8.7" transform="translate(636.04 191.77) rotate(-180)"/><rect class="cls-7" x="253.76" y="108.94" width="78.82" height="8.7" transform="translate(586.33 226.59) rotate(-180)"/><rect class="cls-7" x="253.76" y="141.53" width="128.53" height="8.7" transform="translate(636.04 291.77) rotate(-180)"/><rect class="cls-7" x="253.76" y="158.94" width="100.85" height="8.7" transform="translate(608.36 326.59) rotate(-180)"/><rect class="cls-7" x="253.76" y="188.44" width="128.53" height="8.7" transform="translate(636.04 385.58) rotate(-180)"/><rect class="cls-7" x="253.76" y="205.85" width="39.41" height="8.7" transform="translate(546.92 420.4) rotate(-180)"/><path id="Blue-2" data-name="Blue" class="cls-3" d="M232.1,263.69a1.67,1.67,0,0,0,1.66-1.66V235.34a1.66,1.66,0,0,0-1.66-1.65H205.41a1.65,1.65,0,0,0-1.65,1.65V262a1.66,1.66,0,0,0,1.65,1.66Z"/><path id="f-2" data-name="f" class="cls-4" d="M224.45,263.69V252.07h3.9l.59-4.53h-4.49v-2.89c0-1.31.37-2.2,2.25-2.2h2.4v-4.05a34.6,34.6,0,0,0-3.5-.17c-3.45,0-5.82,2.11-5.82,6v3.34h-3.91v4.53h3.91v11.62Z"/><rect class="cls-7" x="253.76" y="235.63" width="128.53" height="8.7" transform="translate(636.04 479.96) rotate(-180)"/><rect class="cls-7" x="253.76" y="253.04" width="100.85" height="8.7" transform="translate(608.36 514.78) rotate(-180)"/><path class="cls-5" d="M231.54,283.69H206a2.18,2.18,0,0,0-2.21,2.16v25.67a2.19,2.19,0,0,0,2.21,2.17h25.57a2.2,2.2,0,0,0,2.22-2.17V285.85A2.19,2.19,0,0,0,231.54,283.69Z"/><path class="cls-4" d="M208.2,294.93h4.45v14.32H208.2Zm2.23-7.11a2.58,2.58,0,1,1-2.58,2.58,2.58,2.58,0,0,1,2.58-2.58"/><path class="cls-4" d="M215.45,294.93h4.26v2h.06a4.68,4.68,0,0,1,4.21-2.31c4.51,0,5.34,3,5.34,6.82v7.85h-4.45v-7c0-1.66,0-3.8-2.31-3.8s-2.67,1.81-2.67,3.68v7.08h-4.44Z"/><rect class="cls-7" x="253.76" y="285.63" width="128.53" height="8.7" transform="translate(636.04 579.96) rotate(-180)"/><rect class="cls-7" x="253.76" y="303.04" width="78.82" height="8.7" transform="translate(586.33 614.78) rotate(-180)"/><rect class="cls-8" x="0.5" y="17" width="212.51" height="212.51" rx="6"/><path class="cls-2" d="M207,230H6.5a6.51,6.51,0,0,1-6.5-6.5V23a6.51,6.51,0,0,1,6.5-6.5H207a6.51,6.51,0,0,1,6.5,6.5V223.51A6.51,6.51,0,0,1,207,230ZM6.5,17.5A5.51,5.51,0,0,0,1,23V223.51A5.51,5.51,0,0,0,6.5,229H207a5.51,5.51,0,0,0,5.5-5.5V23a5.51,5.51,0,0,0-5.5-5.5Z"/><rect class="cls-9" x="0.5" y="50" width="212.51" height="2"/><rect class="cls-9" x="37.48" width="10.2" height="34" rx="4.92"/><rect class="cls-9" x="101.65" width="10.2" height="34" rx="4.92"/><rect class="cls-9" x="165.83" width="10.2" height="34" rx="4.92"/><rect class="cls-2" x="157.7" y="121.48" width="25.5" height="4"/><rect class="cls-2" x="29.83" y="155.99" width="76.88" height="4"/><rect class="cls-9" x="47.2" y="80.98" width="17" height="17" rx="4"/><rect class="cls-9" x="72.7" y="80.98" width="17" height="17" rx="4"/><rect class="cls-9" x="98.2" y="80.98" width="17" height="17" rx="4"/><rect class="cls-9" x="123.7" y="80.98" width="17" height="17" rx="4"/><rect class="cls-9" x="149.2" y="80.98" width="17" height="17" rx="4"/><rect class="cls-9" x="174.7" y="80.98" width="17" height="17" rx="4"/><rect class="cls-9" x="21.7" y="114.98" width="17" height="17" rx="4"/><rect class="cls-9" x="47.2" y="114.98" width="17" height="17" rx="4"/><rect class="cls-9" x="72.7" y="114.98" width="17" height="17" rx="4"/><rect class="cls-9" x="98.2" y="114.98" width="17" height="17" rx="4"/><rect class="cls-9" x="123.7" y="114.98" width="17" height="17" rx="4"/><rect class="cls-9" x="149.2" y="114.98" width="17" height="17" rx="4"/><rect class="cls-9" x="174.7" y="114.98" width="17" height="17" rx="4"/><rect class="cls-9" x="21.7" y="148.98" width="17" height="17" rx="4"/><rect class="cls-9" x="47.2" y="148.98" width="17" height="17" rx="4"/><rect class="cls-9" x="72.7" y="148.98" width="17" height="17" rx="4"/><rect class="cls-9" x="98.2" y="148.98" width="17" height="17" rx="4"/><rect class="cls-9" x="123.7" y="148.98" width="17" height="17" rx="4"/><rect class="cls-9" x="149.2" y="148.98" width="17" height="17" rx="4"/><rect class="cls-9" x="174.7" y="148.98" width="17" height="17" rx="4"/><rect class="cls-9" x="21.7" y="182.98" width="17" height="17" rx="4"/><rect class="cls-9" x="47.2" y="182.98" width="17" height="17" rx="4"/><rect class="cls-9" x="72.7" y="182.98" width="17" height="17" rx="4"/><rect class="cls-9" x="98.2" y="182.98" width="17" height="17" rx="4"/><rect class="cls-9" x="123.7" y="182.98" width="17" height="17" rx="4"/><rect class="cls-9" x="149.2" y="182.98" width="17" height="17" rx="4"/></g></g></svg>