<svg xmlns="http://www.w3.org/2000/svg" width="92" height="90" fill-rule="evenodd"><path fill="#4a4a4a" d="M29.612 20.83l13.26-11.093a5.362 5.362 0 0 0 6.254.001l13.26 11.092H29.612zm19.08-15.46a2.69 2.69 0 1 1-5.382 0 2.69 2.69 0 1 1 5.382 0zM0 24.03v62.767A3.211 3.211 0 0 0 3.213 90H88.79A3.21 3.21 0 0 0 92 86.797V41.644c0-.742-.603-1.344-1.348-1.344s-1.347.602-1.347 1.344v45.153a.517.517 0 0 1-.516.517H3.213a.517.517 0 0 1-.517-.517V24.03c0-.285.23-.516.517-.516H88.79c.285 0 .516.232.516.516v11.43c0 .742.604 1.342 1.347 1.342S92 36.203 92 35.46V24.03a3.21 3.21 0 0 0-3.211-3.2H66.576l-.052-.05L50.862 7.683a5.32 5.32 0 0 0 .525-2.312C51.387 2.4 48.97 0 46 0s-5.386 2.41-5.386 5.37a5.32 5.32 0 0 0 .525 2.312L25.426 20.83H3.212A3.211 3.211 0 0 0 0 24.031z"/><path fill="#c1c1c1" d="M80.306 38.423a.515.515 0 0 1-.517.513H12.2a.514.514 0 0 1-.514-.513v-5.236c0-.284.23-.513.515-.513H79.79c.285 0 .517.23.517.513v5.236zm0 11.797a.515.515 0 0 1-.517.513h-8.157a.515.515 0 0 1-.516-.513v-8.097c0-.282.23-.512.516-.512h8.157c.285 0 .517.23.517.512v8.097zm0 11.797a.515.515 0 0 1-.517.512h-8.157a.514.514 0 0 1-.516-.512V53.92c0-.282.23-.512.516-.512h8.157c.285 0 .517.23.517.512v8.098zm0 11.796a.516.516 0 0 1-.517.513h-8.157a.516.516 0 0 1-.516-.513v-8.097c0-.283.23-.513.516-.513h8.157c.285 0 .517.23.517.513v8.097zM68.422 50.22a.515.515 0 0 1-.517.513h-8.158a.515.515 0 0 1-.516-.513v-8.097c0-.282.232-.512.516-.512h8.158c.285 0 .517.23.517.512v8.097zm0 11.797a.515.515 0 0 1-.517.512h-8.158a.515.515 0 0 1-.516-.512V53.92c0-.282.232-.512.516-.512h8.158c.285 0 .517.23.517.512v8.098zm0 11.796a.516.516 0 0 1-.517.513h-8.158a.516.516 0 0 1-.516-.513v-8.097c0-.282.232-.513.516-.513h8.158c.285 0 .517.23.517.513v8.097zM56.537 50.22a.515.515 0 0 1-.517.513h-8.156a.515.515 0 0 1-.517-.513v-8.097c0-.282.232-.512.517-.512h8.156c.285 0 .517.23.517.512v8.097zm0 11.797a.515.515 0 0 1-.517.512h-8.157a.514.514 0 0 1-.516-.512V53.92c0-.282.23-.512.516-.512h8.157c.285 0 .517.23.517.512v8.098zm0 11.796a.516.516 0 0 1-.517.513h-8.156a.516.516 0 0 1-.517-.513v-8.097c0-.282.232-.513.517-.513h8.156c.285 0 .517.23.517.513v8.097zM44.653 50.22a.515.515 0 0 1-.517.513H35.98a.515.515 0 0 1-.516-.513v-8.097c0-.282.232-.512.516-.512h8.157c.285 0 .517.23.517.512v8.097zm0 11.797a.515.515 0 0 1-.517.512H35.98a.515.515 0 0 1-.516-.512V53.92c0-.282.232-.512.516-.512h8.157c.285 0 .517.23.517.512v8.098zm0 11.796a.516.516 0 0 1-.517.513H35.98a.516.516 0 0 1-.516-.513v-8.097c0-.282.232-.513.516-.513h8.157c.285 0 .517.23.517.513v8.097zM32.768 50.22a.515.515 0 0 1-.517.513h-8.156a.515.515 0 0 1-.516-.513v-8.097c0-.282.23-.512.516-.512h8.156c.285 0 .517.23.517.512v8.097zm0 11.797a.515.515 0 0 1-.517.512h-8.156a.514.514 0 0 1-.516-.512V53.92c0-.282.23-.512.516-.512h8.156c.285 0 .517.23.517.512v8.098zm0 11.796a.516.516 0 0 1-.517.513h-8.156a.515.515 0 0 1-.516-.513v-8.097c0-.282.23-.513.516-.513h8.156c.285 0 .517.23.517.513v8.097zM20.884 50.22a.515.515 0 0 1-.517.513H12.2a.514.514 0 0 1-.515-.513v-8.097c0-.282.23-.512.515-.512h8.157c.286 0 .517.23.517.512v8.097zm0 11.797a.515.515 0 0 1-.517.512H12.2a.514.514 0 0 1-.515-.512V53.92c0-.282.23-.512.515-.512h8.157c.286 0 .517.23.517.512v8.098zm0 11.796a.515.515 0 0 1-.517.513H12.2a.515.515 0 0 1-.515-.513v-8.097c0-.282.23-.513.515-.513h8.157c.286 0 .517.23.517.513v8.097zM83 33.187C83 31.43 81.56 30 79.8 30H12.2C10.44 30 9 31.43 9 33.187v5.236a3.16 3.16 0 0 0 .6 1.85 3.16 3.16 0 0 0-.6 1.85v8.097c0 .7.225 1.327.6 1.85a3.16 3.16 0 0 0-.6 1.849v8.098a3.16 3.16 0 0 0 .6 1.849 3.16 3.16 0 0 0-.6 1.85v8.097C9 75.57 10.44 77 12.2 77h8.157c.695 0 1.338-.223 1.865-.597a3.203 3.203 0 0 0 1.863.597h8.156a3.2 3.2 0 0 0 1.864-.597 3.21 3.21 0 0 0 1.864.597h8.157A3.21 3.21 0 0 0 46 76.403a3.207 3.207 0 0 0 1.864.597h8.156a3.21 3.21 0 0 0 1.864-.597 3.21 3.21 0 0 0 1.864.597h8.157a3.21 3.21 0 0 0 1.864-.597 3.207 3.207 0 0 0 1.864.597h8.156c1.77 0 3.21-1.43 3.21-3.187v-8.097c0-.7-.225-1.327-.6-1.85.376-.522.6-1.16.6-1.85V53.92c0-.7-.225-1.327-.6-1.85.376-.522.6-1.16.6-1.85v-8.097a3.16 3.16 0 0 0-.601-1.85A3.15 3.15 0 0 0 83 38.424v-5.236zM10.57 84h2.858c.87 0 1.57-.67 1.57-1.5s-.702-1.5-1.57-1.5H10.57C9.703 81 9 81.672 9 82.5s.703 1.5 1.57 1.5m53.85-3c-.785 0-1.42.672-1.42 1.5s.636 1.5 1.42 1.5h20.16c.784 0 1.42-.67 1.42-1.5s-.637-1.5-1.42-1.5H64.42z"/><path fill="#05a4ff" d="M66.742 60H40.258C39.566 60 39 59.325 39 58.5s.566-1.5 1.258-1.5h26.484c.692 0 1.258.675 1.258 1.5s-.566 1.5-1.258 1.5M54.737 71H16.263C15.568 71 15 70.325 15 69.5s.568-1.5 1.263-1.5h38.474c.695 0 1.263.675 1.263 1.5s-.568 1.5-1.263 1.5"/></svg>