<svg xmlns="http://www.w3.org/2000/svg" xmlns:xlink="http://www.w3.org/1999/xlink" width="585" height="482" viewBox="0 0 585 482">
    <defs>
        <linearGradient id="a" x1="94.596%" x2="12.858%" y1="50%" y2="10.527%">
            <stop offset="0%" stop-color="#00397B"/>
            <stop offset="100%" stop-color="#038EDE"/>
        </linearGradient>
        <path id="c" d="M50 60h447v366c0 11.046-8.954 20-20 20H70c-11.046 0-20-8.954-20-20V60z"/>
        <filter id="b" width="118.8%" height="121.8%" x="-9.4%" y="-7.8%" filterUnits="objectBoundingBox">
            <feOffset dy="12" in="SourceAlpha" result="shadowOffsetOuter1"/>
            <feGaussianBlur in="shadowOffsetOuter1" result="shadowBlurOuter1" stdDeviation="12"/>
            <feColorMatrix in="shadowBlurOuter1" values="0 0 0 0 0.0180516098 0 0 0 0 0.643776875 0 0 0 0 1 0 0 0 0.256651947 0"/>
        </filter>
        <rect id="e" width="297" height="148" x="260" y="103" rx="10"/>
        <filter id="d" width="115.8%" height="131.8%" x="-7.9%" y="-12.5%" filterUnits="objectBoundingBox">
            <feOffset dy="5" in="SourceAlpha" result="shadowOffsetOuter1"/>
            <feGaussianBlur in="shadowOffsetOuter1" result="shadowBlurOuter1" stdDeviation="7"/>
            <feColorMatrix in="shadowBlurOuter1" values="0 0 0 0 0.0180516098 0 0 0 0 0.686470283 0 0 0 0 1 0 0 0 0.183763587 0"/>
        </filter>
        <linearGradient id="f" x1="37.236%" x2="37.236%" y1="8.555%" y2="91.889%">
            <stop offset="0%" stop-color="#04F0FA"/>
            <stop offset="100%" stop-color="#05A4FF"/>
        </linearGradient>
        <rect id="g" width="202" height="115" rx="10"/>
        <filter id="h" width="123.3%" height="140.9%" x="-11.6%" y="-16.1%" filterUnits="objectBoundingBox">
            <feOffset dy="5" in="SourceAlpha" result="shadowOffsetOuter1"/>
            <feGaussianBlur in="shadowOffsetOuter1" result="shadowBlurOuter1" stdDeviation="7"/>
            <feColorMatrix in="shadowBlurOuter1" values="0 0 0 0 0.0180516098 0 0 0 0 0.686470283 0 0 0 0 1 0 0 0 0.183763587 0"/>
        </filter>
        <linearGradient id="j" x1="8.45%" x2="98.431%" y1="8.569%" y2="84.416%">
            <stop offset="0%" stop-color="#04DCFA"/>
            <stop offset="100%" stop-color="#05A4FF"/>
        </linearGradient>
        <path id="l" d="M1 43.886C21.34 15.962 39.103 2 54.286 2c22.776 0 24.065 47.932 53.287 47.932 29.222 0 34.808-19.432 52.427-19.432s19.768 19.432 52.427 19.432c32.66 0 32.66-27.205 53.716-27.205C287.2 22.727 287.2 59 319 59"/>
        <filter id="k" width="107.5%" height="152.6%" x="-3.8%" y="-14%" filterUnits="objectBoundingBox">
            <feMorphology in="SourceAlpha" operator="dilate" radius="1" result="shadowSpreadOuter1"/>
            <feOffset dy="10" in="shadowSpreadOuter1" result="shadowOffsetOuter1"/>
            <feMorphology in="SourceAlpha" radius="1" result="shadowInner"/>
            <feOffset dy="10" in="shadowInner" result="shadowInner"/>
            <feComposite in="shadowOffsetOuter1" in2="shadowInner" operator="out" result="shadowOffsetOuter1"/>
            <feGaussianBlur in="shadowOffsetOuter1" result="shadowBlurOuter1" stdDeviation="2"/>
            <feColorMatrix in="shadowBlurOuter1" values="0 0 0 0 0 0 0 0 0 0 0 0 0 0 0 0 0 0 0.0730581975 0"/>
        </filter>
    </defs>
    <g fill="none" fill-rule="evenodd" transform="translate(14)">
        <path fill="url(#a)" d="M70 0h407c11.046 0 20 8.954 20 20v40H50V20C50 8.954 58.954 0 70 0z"/>
        <g fill="#FFF" transform="translate(78 25)">
            <circle cx="5" cy="5" r="5"/>
            <circle cx="28" cy="5" r="5"/>
            <circle cx="51" cy="5" r="5"/>
        </g>
        <use fill="#000" filter="url(#b)" xlink:href="#c"/>
        <use fill="#FFF" xlink:href="#c"/>
        <use fill="#000" filter="url(#d)" xlink:href="#e"/>
        <use fill="#FFF" xlink:href="#e"/>
        <circle cx="419" cy="145" r="19" fill="#C2DCF0" opacity=".524"/>
        <circle cx="419" cy="202" r="19" fill="#C2DCF0" opacity=".524"/>
        <rect width="85" height="4" x="451" y="130" fill="#C2DCF0" rx="2"/>
        <rect width="85" height="4" x="451" y="187" fill="#C2DCF0" rx="2"/>
        <rect width="87" height="4" x="451" y="142" fill="#C2DCF0" rx="2"/>
        <rect width="87" height="4" x="451" y="199" fill="#C2DCF0" rx="2"/>
        <rect width="57" height="4" x="451" y="154" fill="#E2F5FB" rx="2"/>
        <rect width="57" height="4" x="451" y="211" fill="#E2F5FB" rx="2"/>
        <rect width="6" height="101" x="290" y="127" fill="#E9FAFF" rx="3"/>
        <rect width="6" height="36" x="290" y="192" fill="url(#f)" rx="3"/>
        <rect width="6" height="101" x="309" y="127" fill="#E9FAFF" rx="3"/>
        <rect width="6" height="101" x="328" y="127" fill="#E9FAFF" rx="3"/>
        <rect width="6" height="101" x="347" y="127" fill="#E9FAFF" rx="3"/>
        <rect width="6" height="60" x="309" y="168" fill="url(#f)" rx="3"/>
        <rect width="6" height="101" x="366" y="127" fill="#E9FAFF" rx="3"/>
        <rect width="6" height="86" x="347" y="142" fill="url(#f)" rx="3"/>
        <rect width="6" height="69" x="366" y="159" fill="url(#f)" rx="3"/>
        <rect width="6" height="40" x="328" y="188" fill="url(#f)" rx="3"/>
        <g transform="translate(0 183)">
            <mask id="i" fill="#fff">
                <use xlink:href="#g"/>
            </mask>
            <use fill="#000" filter="url(#h)" xlink:href="#g"/>
            <use fill="#FFF" xlink:href="#g"/>
            <path fill="url(#f)" d="M-23.37 186.434C5.142 175.281-1.428 65.007 15.393 65.007c16.822 0 15.64 40.019 36.515 40.019S73.254 37.16 89.768 37.16c16.515 0 21.174 68.844 42.404 67.865 21.23-.98 20.346-42.306 40.32-42.306 19.976 0 22.247 52.479 38.958 52.479 11.14 0 7.576 15.993-10.692 47.979-98.654 27.753-173.364 35.505-224.128 23.256z" mask="url(#i)" transform="rotate(2 97.205 114.61)"/>
        </g>
        <rect width="61" height="6" x="103" y="118" fill="#C2DCF0" opacity=".351" rx="3"/>
        <rect width="376" height="95" x="86" y="323" fill="url(#j)" rx="10"/>
        <g stroke="#E0F7FE" stroke-linecap="square" opacity=".273">
            <path d="M123.5 323.5v94M160.25 323.5v94M198.25 323.5v94M236.25 323.5v94M274.25 323.5v94M312.25 323.5v94M350.25 323.5v94M388.25 323.5v94M426.25 323.5v94"/>
        </g>
        <g transform="matrix(-1 0 0 1 431 341)">
            <use fill="#000" filter="url(#k)" xlink:href="#l"/>
            <use stroke="#FFF" stroke-width="2" xlink:href="#l"/>
            <circle cx="3" cy="45" r="4" fill="#05CEFC" stroke="#FFF" stroke-width="2"/>
            <circle cx="109" cy="51" r="4" fill="#05CEFC" stroke="#FFF" stroke-width="2"/>
            <circle cx="162" cy="31" r="4" fill="#05CEFC" stroke="#FFF" stroke-width="2"/>
            <circle cx="215" cy="51" r="4" fill="#05CEFC" stroke="#FFF" stroke-width="2"/>
            <circle cx="268" cy="24" r="4" fill="#05CEFC" stroke="#FFF" stroke-width="2"/>
            <circle cx="55" cy="3" r="4" fill="#05CEFC" stroke="#FFF" stroke-width="2"/>
        </g>
        <circle cx="84.5" cy="90.5" r="6.5" fill="#C2DCF0"/>
        <circle cx="84.5" cy="120.5" r="6.5" fill="#C2DCF0"/>
        <rect width="61" height="6" x="103" y="88" fill="#C2DCF0" opacity=".351" rx="3"/>
        <circle cx="271.5" cy="287.5" r="6.5" fill="#C2DCF0"/>
        <rect width="171" height="6" x="290" y="285" fill="#C2DCF0" opacity=".351" rx="3"/>
        <rect width="41" height="4" x="17" y="200" fill="#00AAEF" rx="2"/>
        <circle cx="84.5" cy="151.5" r="6.5" fill="#C2DCF0"/>
        <rect width="61" height="6" x="103" y="149" fill="#C2DCF0" opacity=".351" rx="3"/>
        <circle cx="209.5" cy="118.5" r="22.5" fill="#C2DCF0" opacity=".742"/>
        <path stroke="#FFF" stroke-linecap="round" stroke-linejoin="round" stroke-width="4" d="M201 118.5l7.043 6.5L219 112"/>
    </g>
</svg>
