<svg xmlns="http://www.w3.org/2000/svg" width="568" height="333"><defs><linearGradient id="A" x1="10.866%" x2="86.61%" y1="72.35%" y2="23.531%"><stop offset="0%" stop-color="#04f0fa"/><stop offset="100%" stop-color="#05a4ff"/></linearGradient></defs><path fill="url(#A)" fill-rule="evenodd" d="M36.766 172.394c21.326-29.193 48.912-52.712 78.128-73.11 79.313-55.382 172.56-89.272 268.774-97.7 31.665-2.77 64.182-2.75 95.044 6.787s60.13 29.603 76.097 59.102c21.408 39.545 15.2 90.175-7.413 127.344s-59.196 62.554-97.624 80.745c-94.738 44.85-202.5 50.942-307.498 56.37-27.16 1.402-54.923 2.736-81.33-5.303C37.528 319.5 16.82 304.332 4.7 281.75c-11.533-21.503.63-50.648 9.654-70.887 6.093-13.663 13.686-26.538 22.402-38.47z"/></svg>