<svg xmlns="http://www.w3.org/2000/svg" xmlns:xlink="http://www.w3.org/1999/xlink" width="358" height="273"><style><![CDATA[.B{opacity:.455}.C{stroke:#c2dcf0}.D{stroke-linejoin:square}]]></style><defs><rect id="A" width="334" height="249" rx="10"/><filter id="B" width="112%" height="116.1%" x="-6%" y="-6.4%"><feOffset dy="4" in="SourceAlpha"/><feGaussianBlur stdDeviation="6"/><feComposite in2="SourceAlpha" operator="out"/><feColorMatrix values="0 0 0 0 0.00636668858 0 0 0 0 0.237824784 0 0 0 0 0.415869473 0 0 0 0.0974014946 0"/></filter><linearGradient id="C" x1="91.26%" x2="10.714%" y1="93.739%" y2="9.492%"><stop offset="0%" stop-color="#fd5642"/><stop offset="100%" stop-color="#ff9464"/></linearGradient><rect id="D" width="29" height="29" x="35" y="180" rx="2"/><filter id="E" width="282.8%" height="282.8%" x="-91.4%" y="-63.8%"><feOffset dy="8" in="SourceAlpha"/><feGaussianBlur stdDeviation="7.5"/><feColorMatrix values="0 0 0 0 0.97254902 0 0 0 0 0.317647059 0 0 0 0 0.239215686 0 0 0 0.35 0"/></filter><rect id="F" width="265" height="38" x="35" y="56" rx="5"/><filter id="G" width="107.5%" height="152.6%" x="-3.8%" y="-21.1%"><feOffset dy="2" in="SourceAlpha"/><feGaussianBlur stdDeviation="3"/><feComposite in2="SourceAlpha" operator="out"/><feColorMatrix values="0 0 0 0 0.0180516098 0 0 0 0 0.686470283 0 0 0 0 1 0 0 0 0.183763587 0"/></filter><rect id="H" width="265" height="38" x="35" y="125" rx="5"/><linearGradient id="I" x1="24.329%" x2="73.148%" y1="10.069%" y2="85.813%"><stop offset="0%" stop-color="#04dcfa"/><stop offset="100%" stop-color="#05a4ff"/></linearGradient></defs><g fill="none" fill-rule="evenodd" transform="translate(12 8)"><use fill="#000" filter="url(#B)" xlink:href="#A"/><rect width="333" height="248" x=".5" y=".5" fill="#fff" rx="10" class="C D"/><use fill="#000" filter="url(#E)" xlink:href="#D"/><use fill="url(#C)" xlink:href="#D"/><path d="M49.5 187.326v14.348m7.174-7.174H42.326" stroke="#fff" stroke-linecap="round" stroke-linejoin="round" stroke-width="2"/><use fill="#000" filter="url(#G)" xlink:href="#F"/><rect width="264" height="37" x="35.5" y="56.5" fill="#fff" rx="5" class="C D"/><use fill="#000" filter="url(#G)" xlink:href="#H"/><rect width="264" height="37" x="35.5" y="125.5" fill="#fff" rx="5" class="C D"/><g fill="url(#I)"><circle cx="57" cy="75" r="15"/><circle cx="57" cy="144" r="15"/></g><path fill="#fff" d="M55.513 71.97H54v2.525h1.513V82h3.108v-7.505h2.085l.3-2.534h-2.363v-1.726c0-.26.34-.606.674-.606H61V67h-2.303c-3.26 0-3.184 2.53-3.184 2.906v2.064z"/><g fill="#c2dcf0"><rect width="135" height="4" x="84" y="73" rx="2"/><rect width="50" height="5" x="37" y="38" rx="2.5"/><rect width="50" height="5" x="37" y="107" rx="2.5"/><rect width="85" height="4" x="84" y="142" rx="2"/><rect width="20" height="20" x="272" y="65" rx="2" class="B"/><rect width="20" height="20" x="272" y="134" rx="2" class="B"/><rect width="20" height="20" x="248" y="65" rx="2" class="B"/><rect width="20" height="20" x="248" y="134" rx="2" class="B"/><rect width="20" height="20" x="224" y="134" rx="2" class="B"/></g><path fill="#fff" d="M66 138.658a6.96 6.96 0 0 1-2.003.556 3.526 3.526 0 0 0 1.533-1.955 6.898 6.898 0 0 1-2.216.856A3.457 3.457 0 0 0 60.77 137c-1.925 0-3.487 1.583-3.487 3.534 0 .278.03.546.1.805-2.898-.148-5.467-1.553-7.2-3.693a3.56 3.56 0 0 0-.47 1.778 3.55 3.55 0 0 0 1.55 2.942 3.46 3.46 0 0 1-1.58-.441v.043c0 1.713 1.203 3.142 2.8 3.465a3.36 3.36 0 0 1-.92.125 3.37 3.37 0 0 1-.655-.063c.444 1.404 1.73 2.426 3.258 2.453A6.94 6.94 0 0 1 49 149.413 9.783 9.783 0 0 0 54.346 151c6.417 0 9.923-5.384 9.923-10.055 0-.154-.003-.307-.01-.458a7.112 7.112 0 0 0 1.741-1.83"/></g></svg>