<svg xmlns="http://www.w3.org/2000/svg" xmlns:xlink="http://www.w3.org/1999/xlink" width="358" height="273"><style><![CDATA[.B{fill:#000}.C{stroke:#c2dcf0}.D{stroke-linejoin:square}.E{opacity:.453}.F{fill:url(#J)}]]></style><defs><rect id="A" width="334" height="249" rx="10"/><filter id="B" width="112%" height="116.1%" x="-6%" y="-6.4%"><feOffset dy="4" in="SourceAlpha"/><feGaussianBlur stdDeviation="6"/><feComposite in2="SourceAlpha" operator="out"/><feColorMatrix values="0 0 0 0 0.00636668858 0 0 0 0 0.237824784 0 0 0 0 0.415869473 0 0 0 0.0974014946 0"/></filter><rect id="C" width="89" height="38" x="35" y="32" rx="5"/><filter id="D" width="122.5%" height="152.6%" x="-11.2%" y="-21.1%"><feOffset dy="2" in="SourceAlpha"/><feGaussianBlur stdDeviation="3"/><feComposite in2="SourceAlpha" operator="out"/><feColorMatrix values="0 0 0 0 0.0180516098 0 0 0 0 0.686470283 0 0 0 0 1 0 0 0 0.183763587 0"/></filter><rect id="E" width="161" height="101" x="35" y="110" rx="5"/><filter id="F" width="112.4%" height="119.8%" x="-6.2%" y="-7.9%"><feOffset dy="2" in="SourceAlpha"/><feGaussianBlur stdDeviation="3"/><feComposite in2="SourceAlpha" operator="out"/><feColorMatrix values="0 0 0 0 0.0180516098 0 0 0 0 0.686470283 0 0 0 0 1 0 0 0 0.183763587 0"/></filter><rect id="G" width="89" height="179" x="214" y="32" rx="5"/><filter id="H" width="122.5%" height="111.2%" x="-11.2%" y="-4.5%"><feOffset dy="2" in="SourceAlpha"/><feGaussianBlur stdDeviation="3"/><feComposite in2="SourceAlpha" operator="out"/><feColorMatrix values="0 0 0 0 0.0180516098 0 0 0 0 0.686470283 0 0 0 0 1 0 0 0 0.183763587 0"/></filter><linearGradient id="I" x1="24.329%" x2="73.148%" y1="10.069%" y2="85.813%"><stop offset="0%" stop-color="#04dcfa"/><stop offset="100%" stop-color="#05a4ff"/></linearGradient><linearGradient id="J" x1="91.26%" x2="10.714%" y1="93.739%" y2="9.492%"><stop offset="0%" stop-color="#fd5642"/><stop offset="100%" stop-color="#ff9464"/></linearGradient><circle id="K" cx="237" cy="90" r="5"/><filter id="L" width="630%" height="630%" x="-265%" y="-185%"><feOffset dy="8" in="SourceAlpha"/><feGaussianBlur stdDeviation="7.5"/><feColorMatrix values="0 0 0 0 0.97254902 0 0 0 0 0.317647059 0 0 0 0 0.239215686 0 0 0 0.35 0"/></filter><circle id="M" cx="237" cy="107" r="5"/><circle id="N" cx="237" cy="124" r="5"/></defs><g fill="none" fill-rule="evenodd" transform="translate(12 8)"><use filter="url(#B)" xlink:href="#A" class="B"/><rect width="333" height="248" x=".5" y=".5" fill="#fff" rx="10" class="C D"/><use filter="url(#D)" xlink:href="#C" class="B"/><rect width="88" height="37" x="35.5" y="32.5" fill="#fff" rx="5" class="C D"/><use filter="url(#F)" xlink:href="#E" class="B"/><rect width="160" height="100" x="35.5" y="110.5" fill="#fff" rx="5" class="C D"/><g fill="#c2dcf0"><rect width="20" height="20" x="162" y="175" rx="2" class="E"/><rect width="20" height="20" x="138" y="175" rx="2" class="E"/></g><use filter="url(#H)" xlink:href="#G" class="B"/><rect width="88" height="178" x="214.5" y="32.5" fill="#fff" rx="5" class="C D"/><circle cx="55.5" cy="51.5" r="12.5" fill="url(#I)"/><use filter="url(#L)" xlink:href="#K" class="B"/><use xlink:href="#K" class="F"/><use filter="url(#L)" xlink:href="#M" class="B"/><use xlink:href="#M" class="F"/><use filter="url(#L)" xlink:href="#N" class="B"/><use xlink:href="#N" class="F"/><path fill="#fff" d="M54.513 47.97H53v2.525h1.513V58h3.108v-7.505h2.085l.3-2.534h-2.363v-1.726c0-.26.34-.606.674-.606H60V43h-2.303c-3.26 0-3.184 2.53-3.184 2.906v2.064zm1 141H54v2.525h1.513V199h3.108v-7.505h2.085l.3-2.534h-2.363v-1.726c0-.26.34-.606.674-.606H61V184h-2.303c-3.26 0-3.184 2.53-3.184 2.906v2.064z"/><g fill="#c2dcf0"><rect width="33" height="4" x="76" y="49" rx="2"/><rect width="50" height="4" x="47" y="123" rx="2" class="E"/><rect width="50" height="4" x="231" y="48" rx="2" class="E"/><rect width="35" height="4" x="248" y="87" rx="2"/><rect width="35" height="4" x="248" y="105" rx="2"/><rect width="35" height="4" x="248" y="123" rx="2"/><rect width="40" height="4" x="35" y="85" opacity=".402" rx="2"/></g><rect width="29" height="29" x="47" y="170" fill="url(#I)" rx="2"/><path d="M61.5 177.326v14.348m7.174-7.174H54.326" stroke="#fff" stroke-linecap="round" stroke-linejoin="round" stroke-width="2"/><path stroke-linecap="square" d="M36.398 159.5h158.204m19.898-92h87" class="C"/></g></svg>