<svg xmlns="http://www.w3.org/2000/svg" xmlns:xlink="http://www.w3.org/1999/xlink" width="1172.6505" height="580.4445" viewBox="0 0 1172.6505 580.4445">
  <defs>
    <radialGradient id="a" cx="1063.896" cy="122.5778" r="226.7554" gradientUnits="userSpaceOnUse">
      <stop offset="0" stop-color="#e1f5ff"/>
      <stop offset="1" stop-color="#b3e5ff"/>
    </radialGradient>
    <radialGradient id="b" cx="295.4639" cy="474.9646" r="205.0765" gradientUnits="userSpaceOnUse">
      <stop offset="0" stop-color="#f7e5ff"/>
      <stop offset="1" stop-color="#e6b3ff"/>
    </radialGradient>
    <radialGradient id="c" cx="587.4532" cy="493.4221" r="284.126" xlink:href="#b"/>
    <radialGradient id="d" cx="154.787" cy="38.8571" r="159.7589" xlink:href="#b"/>
    <radialGradient id="e" cx="420.0707" cy="217.5758" r="291.942" xlink:href="#a"/>
    <radialGradient id="f" cx="664.069" cy="167.231" r="265.2119" xlink:href="#a"/>
    <radialGradient id="g" cx="268.7526" cy="202.7187" r="190.2054" xlink:href="#b"/>
  </defs>
  <g >
    <path d="M211.482,216.1971c-3.8823-.331-7.4891-.4841-10.5142-.5466.2631-46.43-12.9266-62.6323-16.9707-67.1958-16.363-18.4679-46.8633-31.8918-73.7247-21.9884C88.5,134.4939,78.23,154.488,75.35,160.0953c-8.3156,16.1908-8.6686,31.9764-9.0533,49.15-.1375,6.1539.0679,11.2356.3768,15.6533a103.3545,103.3545,0,0,0-11.5863,7.6282c-6.951,5.54-9.0545,14.6587-4.7428,19.4012,3.0608,3.3666,10.2477,1.2976,17.0912-1.5722a40.5,40.5,0,0,1-2.4323,8.0392c-4.2262,10.2941-10.823,17.08-18.1078,24.5751a127.4392,127.4392,0,0,1-31.0424,23.2812s0,17.6767,13.5806,23.9281c11.3,5.2019,24.4026-13.05,38.8024-8.407,12.9572,4.1771,11.1784,21.1319,23.9285,24.5746,11.7565,3.1745,21.8079-13.0734,40.5669-9.687,20.2238,3.6514,12.0321,21.3279,29.2778,21.3279,26.9818-48.7174,35.4474-91.6151,37.9712-120.9635,3.4619-.3222,6.9725-.6784,9.9479-1.0405,9.9619-1.213,16.7511-1.7326,17.6139-9.4929S222.3582,217.1243,211.482,216.1971Z" fill="#58595b"/>
    <path d="M825.53,467.2809c-25.0441-12.7421-36.4-35.0077-41.389-45.27-18.6024-38.2626-2.847-60.1322-20.371-83.425-14.5537-19.3449-42.6054-26.07-68.2277-18.1079-28.8449,8.9631-39.0174,38.93-41.3891,45.9163-7.1733,21.131-4.1629,41.3164,2.4238,60.5665-5.996,2.4365-13.5767,5.7844-18.1662,8.8253-7.4092,4.91-10.3025,13.8092-6.4231,18.9113s16.8626.1839,25.3627-2.9641c3.1185-1.1547,5.8239-2.1849,8.0146-3.0313,1.841,4.0817,3.7312,8.12,5.6027,12.1113,10.1023,21.5426,30.282,56.7671,69.8436,90.5392,6.3026-25.499,16.4066-30.0452,23.7921-32.6083,16.6855-5.7918,23.3344,7.4021,38.22,2.2093,13.9042-4.85.4837-18.0742,22.7947-28.4215,9.7164-4.506,19.4034,5.1595,28.0438,1.91,6.8638-2.5816,9.8646-11.4443,11.3175-18.1078A85.923,85.923,0,0,1,825.53,467.2809Z" fill="#58595b"/>
    <ellipse cx="932.443" cy="347.322" rx="64.0973" ry="11.3557" fill="#2CA1F2" opacity="0.75" style="mix-blend-mode:overlay"/>
    <ellipse cx="810.9299" cy="569.0888" rx="70.3878" ry="11.3557" fill="#2CA1F2" opacity="0.75" style="mix-blend-mode:overlay"/>
    <ellipse cx="83.6765" cy="404.5254" rx="83.6765" ry="11.3557" fill="#2CA1F2" opacity="0.75" style="mix-blend-mode:overlay"/>
    <path d="M877.9138,290.6222c-16.6742-19.3964-51.867-65.954-55.1857-129.3413-.7955-15.19-4.35-48.6152,13.2026-79.9222,7.06-12.592,18.806-27.0928,38.5331-33.8982,22.6215-7.8039,50.0339.5774,63.8092,18.1078,7.1456,9.0938,8.5973,19.9827,11.2089,41.3892,4.5917,37.6415-1.9508,43.3224,2.5867,74.1557,2.6149,17.7732,5.9382,38.5808,21.5578,57.7725A90.935,90.935,0,0,0,997.77,259.58c-2.305,6.8735-6.2766,9.5015-7.7612,10.3473-8.7218,4.9692-17.4606-11.6946-31.9034-8.8922-21.76,4.2223-8.7414,18.8227-26.3,20.9641-17.6762,2.1557-17.0295-11.7485-31.9034-10.8862C881.1178,272.2022,879.5285,286.5845,877.9138,290.6222Z" fill="#58595b" opacity="0.15" style="mix-blend-mode:darken"/>
    <path d="M152.74,362.6222c31.4893-56.8567,37.767-105.8048,38.8024-134.5149,1.8919-52.4807-12.5509-70.2061-16.8145-75.018-16.363-18.4678-46.8634-31.8917-73.7247-21.988C79.23,139.1288,68.96,159.1229,66.0807,164.73c-8.3156,16.1908-8.6686,31.9764-9.0534,49.15-.5918,26.451,5.0636,33.6668-1.2933,49.15-4.2263,10.2941-10.8231,17.08-18.1079,24.5749A127.4344,127.4344,0,0,1,6.5838,310.8857s0,17.6767,13.5806,23.9282c11.3,5.2017,24.4025-13.05,38.8024-8.4072,12.9571,4.1772,11.1783,21.1322,23.9284,24.5748,11.7566,3.1745,21.8078-13.0736,40.5666-9.687C143.6857,344.9456,135.4941,362.6222,152.74,362.6222Z" fill="#58595b" opacity="0.15" style="mix-blend-mode:darken"/>
    <rect x="291.8354" y="59.8554" width="519.0899" height="324.4318" rx="13.9042" fill="#58595b" opacity="0.1" style="mix-blend-mode:darken"/>
    <rect x="81.0282" y="4.6347" width="156.7869" height="77.7143" rx="4.434" fill="#58595b" opacity="0.1" style="mix-blend-mode:darken"/>
    <rect x="229.9158" y="434.7352" width="140.3657" height="89.7283" rx="4.434" fill="#58595b" opacity="0.1" style="mix-blend-mode:darken"/>
    <path d="M661.8873,460.3809H531.5581a4.499,4.499,0,0,0-4.499,4.499l-6.9521,75.6235a4.499,4.499,0,0,0,4.499,4.499H668.84a4.499,4.499,0,0,0,4.4989-4.499L666.3863,464.88A4.499,4.499,0,0,0,661.8873,460.3809Z" fill="#58595b" opacity="0.1" style="mix-blend-mode:darken"/>
    <rect x="964.4109" y="64.2889" width="208.2395" height="125.8473" rx="6.3959" fill="#58595b" opacity="0.1" style="mix-blend-mode:darken"/>
    <rect x="284.8833" y="55.2207" width="519.0899" height="324.4318" rx="13.9042" fill="#e1f5ff"/>
    <circle cx="313.2517" cy="75.0921" r="6.3728" fill="#24b7ff"/>
    <circle cx="333.0015" cy="75.0921" r="6.3728" fill="#4dc4ff"/>
    <circle cx="352.6992" cy="75.0921" r="6.3728" fill="#81d5ff"/>
    <rect x="564.5839" y="248.6936" width="208.2395" height="86.7855" rx="6.3959" fill="#58595b" opacity="0.1" style="mix-blend-mode:darken"/>
    <rect x="559.9492" y="244.0588" width="208.2395" height="86.7855" rx="6.3959" fill="#b3e5ff"/>
    <path d="M566.3027,332.0045a7.5431,7.5431,0,0,1-7.4681-6.7621l2.3038-.24a5.2275,5.2275,0,0,0,5.1778,4.6845Zm186.7836-.0023h-9.3374v-2.3174h9.3374Zm-18.677,0h-9.34v-2.3174h9.34Zm-18.677,0h-9.34v-2.3174h9.34Zm-18.6793,0h-9.3373v-2.3174h9.3373Zm-18.677,0h-9.34v-2.3174h9.34Zm-18.677,0h-9.34v-2.3174h9.34Zm-18.6792,0h-9.3374v-2.3174H641.02Zm-18.6771,0h-9.34v-2.3174h9.34Zm-18.677,0h-9.34v-2.3174h9.34Zm-18.6792,0h-9.3374v-2.3174h9.3374Zm177.5526-.0362-.2263-2.3083a5.2286,5.2286,0,0,0,4.7185-5.1485l2.3173.0272A7.5442,7.5442,0,0,1,762.5391,331.966Zm-201.43-16.1809h-2.3174v-9.34h2.3174Zm208.2374-.5974H767.029v-9.34h2.3174ZM561.109,297.1059h-2.3174v-9.3374h2.3174Zm208.2374-.5975H767.029V287.171h2.3174ZM561.109,278.4289h-2.3174v-9.34h2.3174Zm208.2374-.5975H767.029v-9.34h2.3174Zm-208.2374-18.08h-2.3174v-9.2966l2.3174-.043Zm208.2374-.5974H767.029v-8.6992a5.1536,5.1536,0,0,0-.0271-.5295l2.3083-.2218c.0226.2489.0362.5.0362.7513ZM565.8093,245.2457l-.2625-2.3038a7.1019,7.1019,0,0,1,.7989-.043h8.67v2.3173h-8.67A4.6413,4.6413,0,0,0,565.8093,245.2457Zm196.0554-.03h-9.412v-2.3173h9.34Zm-18.7494,0h-9.34v-2.3173h9.34Zm-18.6793,0h-9.3373v-2.3173h9.3373Zm-18.677,0h-9.34v-2.3173h9.34Zm-18.677,0h-9.34v-2.3173h9.34Zm-18.6793,0h-9.3373v-2.3173h9.3373Zm-18.677,0h-9.34v-2.3173h9.34Zm-18.677,0h-9.34v-2.3173h9.34Zm-18.6792,0h-9.3374v-2.3173H612.37Zm-18.6771,0h-9.34v-2.3173h9.34Z" fill="#81d5ff"/>
    <rect x="959.7762" y="59.6542" width="208.2395" height="125.8473" rx="6.3959" fill="url(#a)"/>
    <path d="M996.8628,81.122a.6078.6078,0,0,1-.181-.4458V72.3775a.8937.8937,0,0,1,.2647-.6472.8559.8559,0,0,1,.6382-.2716h.4594a.8409.8409,0,0,1,.5069.1675,1.0141,1.0141,0,0,1,.3418.4164l3.1569,7.8709,3.1547-7.8709a1.0147,1.0147,0,0,1,.3417-.4164.8414.8414,0,0,1,.507-.1675h.4594a.8559.8559,0,0,1,.6382.2716.8937.8937,0,0,1,.2647.6472v8.2987a.6181.6181,0,0,1-.6246.6268.6308.6308,0,0,1-.4526-.181.5963.5963,0,0,1-.1878-.4458V72.78l-3.2113,7.9388a.9248.9248,0,0,1-.3553.4232.9721.9721,0,0,1-1.07,0,.9242.9242,0,0,1-.3553-.4232L997.9468,72.78v7.8958a.5967.5967,0,0,1-.1878.4458.6308.6308,0,0,1-.4526.181A.6062.6062,0,0,1,996.8628,81.122Z" fill="#0d57a4"/>
    <path d="M1010.5362,81.122a1.9825,1.9825,0,0,1-.826-.7287,2.0228,2.0228,0,0,1-.3055-1.1067,1.9454,1.9454,0,0,1,.8124-1.6407,3.9339,3.9339,0,0,1,2.3853-.611h1.6814V76.924a1.6857,1.6857,0,0,0-.4526-1.3216,2.0732,2.0732,0,0,0-1.41-.4028,4.6706,4.6706,0,0,0-.9392.0837,7.5757,7.5757,0,0,0-.91.2489.8148.8148,0,0,1-.181.0272.4925.4925,0,0,1-.3621-.1516.5084.5084,0,0,1-.1517-.3757.534.534,0,0,1,.36-.5273,6.1,6.1,0,0,1,2.4056-.5024,3.1577,3.1577,0,0,1,1.62.3893,2.4626,2.4626,0,0,1,.9732,1.0093,2.9343,2.9343,0,0,1,.3123,1.342v3.9332a.5881.5881,0,0,1-.1879.4458.6291.6291,0,0,1-.45.181.6183.6183,0,0,1-.6269-.6268v-.36a3.4943,3.4943,0,0,1-2.6138,1.0569A2.5828,2.5828,0,0,1,1010.5362,81.122Zm2.7881-1.161a3.2563,3.2563,0,0,0,.96-.7445V78.0488h-1.5162q-2.0979,0-2.0979,1.1a1.0327,1.0327,0,0,0,.3395.8056,1.6907,1.6907,0,0,0,1.1338.3056A2.5145,2.5145,0,0,0,1013.3243,79.961Z" fill="#0d57a4"/>
    <path d="M1017.8572,81.122a.6075.6075,0,0,1-.1811-.4458V74.713a.63.63,0,0,1,.1811-.4526.5962.5962,0,0,1,.4458-.1878.6374.6374,0,0,1,.6382.64v.5975a2.7452,2.7452,0,0,1,2.1838-1.3081h.07a.58.58,0,0,1,.4368.1811.6147.6147,0,0,1,.1742.4458.5589.5589,0,0,1-.181.43.651.651,0,0,1-.4572.1674h-.07a2.3781,2.3781,0,0,0-1.2243.3259,2.8451,2.8451,0,0,0-.9324.8984v4.2252a.5944.5944,0,0,1-.1856.4458.6344.6344,0,0,1-.4526.181A.6076.6076,0,0,1,1017.8572,81.122Z" fill="#0d57a4"/>
    <path d="M1023.1821,81.122a.6078.6078,0,0,1-.181-.4458V71.6534a.6347.6347,0,0,1,.181-.4527.5969.5969,0,0,1,.4459-.1878.6374.6374,0,0,1,.6382.6405V77.34l3.3108-3.06a.6417.6417,0,0,1,.4164-.1811.567.567,0,0,1,.4662.1811.6691.6691,0,0,1,.1448.4322.68.68,0,0,1-.2353.473l-2.0028,1.7923,2.5165,3.338a.606.606,0,0,1,.14.3757.5749.5749,0,0,1-.181.4436.6523.6523,0,0,1-.4594.1674.6045.6045,0,0,1-.2784-.07.6524.6524,0,0,1-.2354-.1946l-2.392-3.2521-1.2107,1.0976v1.7924a.5948.5948,0,0,1-.1856.4458.6344.6344,0,0,1-.4526.181A.608.608,0,0,1,1023.1821,81.122Z" fill="#0d57a4"/>
    <path d="M1030.9761,80.4069a3.7039,3.7039,0,0,1-.9527-2.718,4.5058,4.5058,0,0,1,.3621-1.8217,3.0784,3.0784,0,0,1,1.1111-1.3488,3.1886,3.1886,0,0,1,1.8489-.516,3.2448,3.2448,0,0,1,1.7811.48,3.1176,3.1176,0,0,1,1.14,1.2809,3.9452,3.9452,0,0,1,.3893,1.7448.6085.6085,0,0,1-.64.6246h-4.7139a2.2833,2.2833,0,0,0,.7242,1.5162,2.4846,2.4846,0,0,0,1.7086.5409,3.9087,3.9087,0,0,0,1.8783-.43.5716.5716,0,0,1,.6382.0973.4976.4976,0,0,1,.1675.3893.5978.5978,0,0,1-.3621.5137,4.3444,4.3444,0,0,1-2.4328.6133A3.5512,3.5512,0,0,1,1030.9761,80.4069Zm4.4288-3.3041a2.2435,2.2435,0,0,0-.3553-1.1383,1.9093,1.9093,0,0,0-.7717-.6744,2.1041,2.1041,0,0,0-1.8625,0,1.8636,1.8636,0,0,0-.7649.6744,2.263,2.263,0,0,0-.3485,1.1383Z" fill="#0d57a4"/>
    <path d="M1038.7429,79.5378V75.2267h-.9889a.2626.2626,0,0,1-.2625-.2648.2883.2883,0,0,1,.1244-.2353l1.8919-1.8489a.3459.3459,0,0,1,.2354-.1268.2506.2506,0,0,1,.1878.0838.29.29,0,0,1,.077.1946v1.1134h1.5705a.5254.5254,0,0,1,.3893.1516.5606.5606,0,0,1,0,.7717.5071.5071,0,0,1-.3893.1607h-1.5705v4.2c0,.36.086.5906.2557.6879a1.2984,1.2984,0,0,0,.6472.1449,1.8973,1.8973,0,0,0,.5567-.0838c.0363-.009.077-.0181.1177-.0271a.7841.7841,0,0,1,.1607-.0136.4871.4871,0,0,1,.3463.1448.4764.4764,0,0,1,.1538.3553.5259.5259,0,0,1-.3191.4866,2.7157,2.7157,0,0,1-1.1541.2512Q1038.7429,81.3732,1038.7429,79.5378Z" fill="#0d57a4"/>
    <path d="M1043.733,72.4884a.6885.6885,0,0,1-.2082-.5024v-.0543a.7108.7108,0,0,1,.7106-.7083h.0814a.7108.7108,0,0,1,.7106.7083v.0543a.7108.7108,0,0,1-.7106.7106h-.0814A.6921.6921,0,0,1,1043.733,72.4884Zm.0837,8.6336a.6078.6078,0,0,1-.181-.4458V74.713a.6308.6308,0,0,1,.181-.4526.5962.5962,0,0,1,.4458-.1878.6158.6158,0,0,1,.6382.64v5.9632a.5944.5944,0,0,1-.1856.4458.6344.6344,0,0,1-.4526.181A.6076.6076,0,0,1,1043.8167,81.122Z" fill="#0d57a4"/>
    <path d="M1047.2792,81.122a.6075.6075,0,0,1-.1811-.4458V74.713a.63.63,0,0,1,.1811-.4526.5962.5962,0,0,1,.4458-.1878.6374.6374,0,0,1,.6382.64v.57a4.6337,4.6337,0,0,1,1.1406-.9324,2.8922,2.8922,0,0,1,1.4461-.3485,2.4179,2.4179,0,0,1,1.3284.3621,2.3585,2.3585,0,0,1,.8622.9867,3.1607,3.1607,0,0,1,.2987,1.3782v3.9468a.5963.5963,0,0,1-.1878.4458.6308.6308,0,0,1-.4526.181.6181.6181,0,0,1-.6246-.6268V76.8674q0-1.6972-1.53-1.6973a2.2233,2.2233,0,0,0-1.2446.3621,4.5609,4.5609,0,0,0-1.0365.9732v4.1708a.5944.5944,0,0,1-.1856.4458.6344.6344,0,0,1-.4526.181A.6076.6076,0,0,1,1047.2792,81.122Z" fill="#0d57a4"/>
    <path d="M1057.2479,84.3627a5.3514,5.3514,0,0,1-1.3487-.516.5254.5254,0,0,1-.2512-.4866.572.572,0,0,1,.1606-.396.5168.5168,0,0,1,.3961-.1742.707.707,0,0,1,.2512.0565,5.04,5.04,0,0,0,2.2924.5273q2.1285,0,2.1273-2.2653V80.176a3.1287,3.1287,0,0,1-2.3762,1.0569,3.35,3.35,0,0,1-2.865-1.634,4.1741,4.1741,0,0,1,0-3.9626,3.3185,3.3185,0,0,1,1.2718-1.222,3.3567,3.3567,0,0,1,1.5932-.4119,3.1363,3.1363,0,0,1,2.3762,1.0569V74.713a.63.63,0,0,1,.1811-.4526.5962.5962,0,0,1,.4458-.1878.6374.6374,0,0,1,.6382.64v6.2144a3.9173,3.9173,0,0,1-.8464,2.6975,3.0813,3.0813,0,0,1-2.4192.946A6.62,6.62,0,0,1,1057.2479,84.3627Zm2.6682-4.5623a4.08,4.08,0,0,0,.96-.7491v-2.865a4.1539,4.1539,0,0,0-.96-.7514,2.3305,2.3305,0,0,0-1.1542-.2783,2.36,2.36,0,0,0-1.7018.6336,2.86,2.86,0,0,0,0,3.6571,2.3583,2.3583,0,0,0,1.7018.6314A2.3305,2.3305,0,0,0,1059.9161,79.8Z" fill="#0d57a4"/>
    <path d="M1069.3847,80.9274a3.4247,3.4247,0,0,1-1.3556-1.2787,4.0462,4.0462,0,0,1,0-3.9218,3.424,3.424,0,0,1,1.3556-1.2787,4.1932,4.1932,0,0,1,3.123-.258,4.9207,4.9207,0,0,1,.9935.48.5522.5522,0,0,1,.1177.869.4811.4811,0,0,1-.3689.1743.6223.6223,0,0,1-.3055-.0838,5.2609,5.2609,0,0,0-.7853-.3394,2.6839,2.6839,0,0,0-.8124-.1041,2.5212,2.5212,0,0,0-1.8784.688,2.7557,2.7557,0,0,0,0,3.6276,2.5212,2.5212,0,0,0,1.8784.688,2.6839,2.6839,0,0,0,.8124-.1041,5.022,5.022,0,0,0,.7853-.34.6232.6232,0,0,1,.3055-.0837.4888.4888,0,0,1,.3689.1743.5522.5522,0,0,1-.1177.869,4.9207,4.9207,0,0,1-.9935.48,4.1932,4.1932,0,0,1-3.123-.258Z" fill="#0d57a4"/>
    <path d="M1076.0381,81.122a1.9837,1.9837,0,0,1-.826-.7287,2.0228,2.0228,0,0,1-.3055-1.1067,1.9454,1.9454,0,0,1,.8124-1.6407,3.9339,3.9339,0,0,1,2.3853-.611h1.6814V76.924a1.6854,1.6854,0,0,0-.4526-1.3216,2.0732,2.0732,0,0,0-1.41-.4028,4.6689,4.6689,0,0,0-.9391.0837,7.5718,7.5718,0,0,0-.91.2489.8148.8148,0,0,1-.181.0272.4926.4926,0,0,1-.3621-.1516.5083.5083,0,0,1-.1516-.3757.5339.5339,0,0,1,.36-.5273,6.1,6.1,0,0,1,2.4056-.5024,3.1578,3.1578,0,0,1,1.62.3893,2.4629,2.4629,0,0,1,.9731,1.0093,2.9343,2.9343,0,0,1,.3123,1.342v3.9332a.5881.5881,0,0,1-.1879.4458.6291.6291,0,0,1-.45.181.6183.6183,0,0,1-.6269-.6268v-.36a3.4943,3.4943,0,0,1-2.6138,1.0569A2.5828,2.5828,0,0,1,1076.0381,81.122Zm2.7881-1.161a3.2563,3.2563,0,0,0,.9595-.7445V78.0488H1078.27q-2.0979,0-2.0979,1.1a1.0327,1.0327,0,0,0,.34.8056,1.6907,1.6907,0,0,0,1.1338.3056A2.5145,2.5145,0,0,0,1078.8262,79.961Z" fill="#0d57a4"/>
    <path d="M1083.3591,81.122a.6075.6075,0,0,1-.1811-.4458V74.713a.63.63,0,0,1,.1811-.4526.5962.5962,0,0,1,.4458-.1878.6374.6374,0,0,1,.6382.64v.57a3.4832,3.4832,0,0,1,.9392-.9188,2.561,2.561,0,0,1,1.4257-.3621,2.164,2.164,0,0,1,1.3352.4187,2.33,2.33,0,0,1,.7921,1.0138,2.8007,2.8007,0,0,1,2.5572-1.4325,2.125,2.125,0,0,1,1.3013.3893,2.3313,2.3313,0,0,1,.7717,1.0025,3.3288,3.3288,0,0,1,.2512,1.2786v4.0034a.5964.5964,0,0,1-.1879.4458.6344.6344,0,0,1-.4526.181.6182.6182,0,0,1-.6268-.6268V76.924a2.2164,2.2164,0,0,0-.3191-1.3284,1.29,1.29,0,0,0-1.0976-.4255,1.84,1.84,0,0,0-1.1745.3689,3.5383,3.5383,0,0,0-.8283.9664v4.1708a.5967.5967,0,0,1-.1878.4458.6308.6308,0,0,1-.4527.181.6061.6061,0,0,1-.4435-.181.5991.5991,0,0,1-.1811-.4458V76.924a2.2157,2.2157,0,0,0-.3191-1.3284,1.2942,1.2942,0,0,0-1.1-.4255,1.84,1.84,0,0,0-1.1745.3689,3.6151,3.6151,0,0,0-.8283.9664v4.1708a.5944.5944,0,0,1-.1856.4458.6344.6344,0,0,1-.4526.181A.6076.6076,0,0,1,1083.3591,81.122Z" fill="#0d57a4"/>
    <path d="M1096.1227,84.3129a.6308.6308,0,0,1-.181-.4526V74.6994a.6182.6182,0,0,1,.6269-.6268.6346.6346,0,0,1,.4526.181.5947.5947,0,0,1,.1855.4458v.36a3.2009,3.2009,0,0,1,2.3785-1.0569,3.26,3.26,0,0,1,1.6339.439,3.3186,3.3186,0,0,1,1.2515,1.2787,4.2748,4.2748,0,0,1,0,3.9354,3.3186,3.3186,0,0,1-1.2515,1.2787,3.26,3.26,0,0,1-1.6339.439,3.2013,3.2013,0,0,1-2.3785-1.0569V83.86a.6157.6157,0,0,1-.6381.64A.5964.5964,0,0,1,1096.1227,84.3129Zm4.9358-4.7751a3.0437,3.0437,0,0,0,0-3.7,2.1866,2.1866,0,0,0-1.6543-.6517,2.6246,2.6246,0,0,0-1.2017.2851,3.4438,3.4438,0,0,0-.9958.7559v2.9216a3.4053,3.4053,0,0,0,.9958.7559,2.6246,2.6246,0,0,0,1.2017.2851A2.1863,2.1863,0,0,0,1101.0585,79.5378Z" fill="#0d57a4"/>
    <path d="M1105.39,81.122a1.9837,1.9837,0,0,1-.826-.7287,2.0237,2.0237,0,0,1-.3055-1.1067,1.9453,1.9453,0,0,1,.8125-1.6407,3.9336,3.9336,0,0,1,2.3852-.611h1.6815V76.924a1.6857,1.6857,0,0,0-.4526-1.3216,2.0732,2.0732,0,0,0-1.41-.4028,4.6692,4.6692,0,0,0-.9392.0837,7.5706,7.5706,0,0,0-.91.2489.8147.8147,0,0,1-.1811.0272.4928.4928,0,0,1-.3621-.1516.5087.5087,0,0,1-.1516-.3757.5339.5339,0,0,1,.36-.5273,6.1007,6.1007,0,0,1,2.4057-.5024,3.1577,3.1577,0,0,1,1.62.3893,2.4629,2.4629,0,0,1,.9731,1.0093,2.9343,2.9343,0,0,1,.3123,1.342v3.9332a.5884.5884,0,0,1-.1878.4458.6293.6293,0,0,1-.45.181.6182.6182,0,0,1-.6268-.6268v-.36a3.4944,3.4944,0,0,1-2.6139,1.0569A2.5834,2.5834,0,0,1,1105.39,81.122Zm2.7881-1.161a3.258,3.258,0,0,0,.96-.7445V78.0488h-1.5163q-2.0978,0-2.0978,1.1a1.0326,1.0326,0,0,0,.3394.8056,1.6908,1.6908,0,0,0,1.1338.3056A2.5142,2.5142,0,0,0,1108.178,79.961Z" fill="#0d57a4"/>
    <path d="M1112.6272,72.4884a.6889.6889,0,0,1-.2082-.5024v-.0543a.7108.7108,0,0,1,.7106-.7083h.0815a.7108.7108,0,0,1,.7106.7083v.0543a.7108.7108,0,0,1-.7106.7106h-.0815A.6923.6923,0,0,1,1112.6272,72.4884Zm.0837,8.6336a.6078.6078,0,0,1-.181-.4458V74.713a.6308.6308,0,0,1,.181-.4526.5964.5964,0,0,1,.4459-.1878.6157.6157,0,0,1,.6381.64v5.9632a.5947.5947,0,0,1-.1855.4458.6346.6346,0,0,1-.4526.181A.6079.6079,0,0,1,1112.7109,81.122Z" fill="#0d57a4"/>
    <path d="M1117.6761,84.3627a5.3523,5.3523,0,0,1-1.3488-.516.5254.5254,0,0,1-.2512-.4866.5716.5716,0,0,1,.1607-.396.5165.5165,0,0,1,.396-.1742.707.707,0,0,1,.2512.0565,5.04,5.04,0,0,0,2.2925.5273q2.1283,0,2.1273-2.2653V80.176a3.1289,3.1289,0,0,1-2.3762,1.0569,3.35,3.35,0,0,1-2.8651-1.634,4.1748,4.1748,0,0,1,0-3.9626,3.3188,3.3188,0,0,1,1.2719-1.222,3.3561,3.3561,0,0,1,1.5932-.4119,3.1365,3.1365,0,0,1,2.3762,1.0569V74.713a.6308.6308,0,0,1,.181-.4526.5963.5963,0,0,1,.4458-.1878.6374.6374,0,0,1,.6382.64v6.2144a3.9173,3.9173,0,0,1-.8464,2.6975,3.081,3.081,0,0,1-2.4192.946A6.6188,6.6188,0,0,1,1117.6761,84.3627Zm2.6681-4.5623a4.0785,4.0785,0,0,0,.96-.7491v-2.865a4.1522,4.1522,0,0,0-.96-.7514,2.33,2.33,0,0,0-1.1541-.2783,2.36,2.36,0,0,0-1.7018.6336,2.86,2.86,0,0,0,0,3.6571,2.3582,2.3582,0,0,0,1.7018.6314A2.33,2.33,0,0,0,1120.3442,79.8Z" fill="#0d57a4"/>
    <path d="M1124.9473,81.122a.6075.6075,0,0,1-.1811-.4458V74.713a.63.63,0,0,1,.1811-.4526.5962.5962,0,0,1,.4458-.1878.6374.6374,0,0,1,.6382.64v.57a4.6337,4.6337,0,0,1,1.1406-.9324,2.8922,2.8922,0,0,1,1.4461-.3485,2.4177,2.4177,0,0,1,1.3284.3621,2.3578,2.3578,0,0,1,.8622.9867,3.1593,3.1593,0,0,1,.2987,1.3782v3.9468a.5963.5963,0,0,1-.1878.4458.6308.6308,0,0,1-.4526.181.6181.6181,0,0,1-.6246-.6268V76.8674q0-1.6972-1.53-1.6973a2.2234,2.2234,0,0,0-1.2447.3621,4.5629,4.5629,0,0,0-1.0365.9732v4.1708a.5944.5944,0,0,1-.1856.4458.6344.6344,0,0,1-.4526.181A.6076.6076,0,0,1,1124.9473,81.122Z" fill="#0d57a4"/>
    <polygon points="1128.188 145.922 995.532 145.922 995.532 89.599 997.849 89.599 997.849 143.605 1128.188 143.605 1128.188 145.922" fill="#81d5ff"/>
    <polygon points="1007.101 135.963 1005.576 134.216 1026.74 115.758 1047.92 128.241 1071.618 110.429 1090.719 121.208 1125.244 96.957 1126.574 98.853 1090.854 123.946 1071.799 113.19 1048.074 131.025 1027.002 118.605 1007.101 135.963" fill="#81d5ff"/>
    <path d="M1119.344,116.11a1.1591,1.1591,0,0,1-.6292-1.5134l6.7609-16.3882-17.7095.8036a1.1589,1.1589,0,1,1-.1058-2.3154l19.5273-.8857a1.16,1.16,0,0,1,1.1242,1.6l-7.4545,18.07a1.16,1.16,0,0,1-1.5134.6291Z" fill="#81d5ff"/>
    <rect x="996.6918" y="158.9199" width="131.497" height="8.0442" fill="#b3e5ff"/>
    <circle cx="1026.7209" cy="117.1809" r="4.6347" fill="#81d5ff"/>
    <circle cx="1006.3385" cy="135.0893" r="4.6347" fill="#81d5ff"/>
    <circle cx="1048.0511" cy="129.6472" r="4.6347" fill="#81d5ff"/>
    <circle cx="1071.9254" cy="112.5461" r="4.6347" fill="#81d5ff"/>
    <circle cx="1091.0032" cy="122.5778" r="4.6347" fill="#81d5ff"/>
    <rect x="225.281" y="430.1005" width="140.3657" height="89.7283" rx="4.434" fill="url(#b)"/>
    <path d="M245.3311,450.93a.6076.6076,0,0,1-.1811-.4459v-8.4389a.6253.6253,0,0,1,.1811-.45.5888.5888,0,0,1,.4435-.19h3.2815a3.4783,3.4783,0,0,1,2.3015.6834,2.5023,2.5023,0,0,1,.4322,3.1773,2.35,2.35,0,0,1-.98.7966,3.0953,3.0953,0,0,1,1.3692.8509,2.0988,2.0988,0,0,1,.5341,1.4733,2.4754,2.4754,0,0,1-.8623,2.0028,4.1894,4.1894,0,0,1-2.7111.7219h-3.3652A.6061.6061,0,0,1,245.3311,450.93Zm3.3923-5.325a2.7731,2.7731,0,0,0,1.738-.4164,1.4429,1.4429,0,0,0,.5-1.1678,1.2284,1.2284,0,0,0-.534-1.0432,2.4491,2.4491,0,0,0-1.4688-.3915h-2.5436v3.0189Zm.2919,4.3247a3.288,3.288,0,0,0,1.9123-.4187,1.378,1.378,0,0,0,.5635-1.1813q0-1.5819-2.4622-1.5841h-2.6138V449.93Z" fill="#7700b3"/>
    <path d="M254.6186,451.0005a.6114.6114,0,0,1-.181-.4458v-9.0228a.6344.6344,0,0,1,.181-.4526.5967.5967,0,0,1,.4459-.1879.616.616,0,0,1,.6382.6405v9.0228a.5982.5982,0,0,1-.1856.4458.6343.6343,0,0,1-.4526.1811A.6077.6077,0,0,1,254.6186,451.0005Z" fill="#7700b3"/>
    <path d="M259.1515,450.7923a3.1381,3.1381,0,0,1-1.2446-1.3012,4.4591,4.4591,0,0,1,0-3.85,3.1248,3.1248,0,0,1,1.2446-1.3013,4.0374,4.0374,0,0,1,3.7409,0,3.1548,3.1548,0,0,1,1.2515,1.3013,4.378,4.378,0,0,1,0,3.85,3.1684,3.1684,0,0,1-1.2515,1.3012,4.0554,4.0554,0,0,1-3.7409,0Zm2.9692-.9595a2.1171,2.1171,0,0,0,.8622-.8351,2.7913,2.7913,0,0,0,.3417-1.4461,2.7535,2.7535,0,0,0-.3417-1.43,2.071,2.071,0,0,0-.8622-.8283,2.43,2.43,0,0,0-1.0908-.258,2.4678,2.4678,0,0,0-1.1066.258,2.0564,2.0564,0,0,0-.8555.8283,2.7983,2.7983,0,0,0-.3327,1.43,2.8371,2.8371,0,0,0,.3327,1.4461,2.1023,2.1023,0,0,0,.8555.8351,2.4141,2.4141,0,0,0,1.1066.2625A2.3773,2.3773,0,0,0,262.1207,449.8328Z" fill="#7700b3"/>
    <path d="M268.0363,454.2412a5.3538,5.3538,0,0,1-1.3488-.516.5255.5255,0,0,1-.2512-.4865.5719.5719,0,0,1,.1607-.3961.5093.5093,0,0,1,.396-.1742.7069.7069,0,0,1,.2512.0566,5.0424,5.0424,0,0,0,2.2925.5273q2.1285,0,2.1273-2.2654v-.9323a3.129,3.129,0,0,1-2.3762,1.0568,3.3791,3.3791,0,0,1-1.5932-.41,3.3411,3.3411,0,0,1-1.2718-1.2243,4.1741,4.1741,0,0,1,0-3.9626,3.3632,3.3632,0,0,1,2.865-1.634,3.1367,3.1367,0,0,1,2.3762,1.0569v-.3463a.6308.6308,0,0,1,.181-.4526.5885.5885,0,0,1,.4459-.1878.6373.6373,0,0,1,.6381.64v6.2144a3.9176,3.9176,0,0,1-.8463,2.6976,3.0891,3.0891,0,0,1-2.4193.9459A6.614,6.614,0,0,1,268.0363,454.2412Zm2.6682-4.5623a4.0945,4.0945,0,0,0,.9595-.7513v-2.8651a4.2013,4.2013,0,0,0-.9595-.749,2.33,2.33,0,0,0-1.1542-.2784,2.36,2.36,0,0,0-1.7018.6337,2.86,2.86,0,0,0,0,3.6571,2.3585,2.3585,0,0,0,1.7018.6313A2.3294,2.3294,0,0,0,270.7045,449.6789Z" fill="#7700b3"/>
    <rect x="243.8014" y="464.1312" width="25.417" height="25.417" rx="1.8983" fill="#d580ff"/>
    <rect x="280.8053" y="464.1312" width="66.3211" height="8.0442" fill="#e6b3ff"/>
    <rect x="280.8053" y="481.504" width="53.344" height="8.0442" fill="#e6b3ff"/>
    <path d="M652.6179,451.1114H522.2886a4.499,4.499,0,0,0-4.499,4.499l-6.9521,75.6235a4.499,4.499,0,0,0,4.499,4.499H659.57a4.499,4.499,0,0,0,4.499-4.499L657.1169,455.61A4.499,4.499,0,0,0,652.6179,451.1114Z" fill="url(#c)"/>
    <polygon points="540.206 464.466 536.453 522.378 543.477 522.378 547.231 464.466 540.206 464.466" fill="#e6b3ff"/>
    <polygon points="563.111 464.466 561.675 522.378 568.699 522.378 570.135 464.466 563.111 464.466" fill="#e6b3ff"/>
    <polygon points="586.066 464.466 586.948 522.378 593.972 522.378 593.09 464.466 586.066 464.466" fill="#e6b3ff"/>
    <path d="M608.7259,476.6836,610.24,509.25a4.1959,4.1959,0,0,0,4.1914,4.001h22.23a4.1959,4.1959,0,0,0,4.1914-4.3908l-1.5142-32.5663a4.1958,4.1958,0,0,0-4.1913-4.001h-22.23A4.1958,4.1958,0,0,0,608.7259,476.6836Z" fill="#d580ff"/>
    <rect x="76.3935" width="156.7869" height="77.7143" rx="4.434" fill="url(#d)"/>
    <rect x="103.1245" y="16.2665" width="25.417" height="25.417" rx="1.8983" fill="#d580ff"/>
    <rect x="140.1283" y="16.2665" width="66.3211" height="8.0442" fill="#e6b3ff"/>
    <rect x="140.1283" y="33.6393" width="53.344" height="8.0442" fill="#e6b3ff"/>
    <rect x="124.684" y="54.0491" width="60.206" height="17.2186" rx="2.3174" fill="#7700b3"/>
    <path d="M141.631,67.6885a.6078.6078,0,0,1-.181-.4458V58.7336a.6293.6293,0,0,1,.181-.45.587.587,0,0,1,.4436-.1878h3.1705a4.5784,4.5784,0,0,1,2.1567.4435,2.7574,2.7574,0,0,1,1.1949,1.1406,3.2943,3.2943,0,0,1,0,3.0031,2.7574,2.7574,0,0,1-1.1949,1.1406,4.5772,4.5772,0,0,1-2.1567.4458h-2.53v2.9737a.5967.5967,0,0,1-.1878.4458.6308.6308,0,0,1-.4526.181A.6064.6064,0,0,1,141.631,67.6885Zm3.49-4.6167a2.9071,2.9071,0,0,0,1.9961-.5408,1.865,1.865,0,0,0,0-2.6976,2.8944,2.8944,0,0,0-1.9961-.5431H142.715v3.7815Z" fill="#fff"/>
    <path d="M151.6,67.48a3.1238,3.1238,0,0,1-1.2447-1.3013,4.4589,4.4589,0,0,1,0-3.8494A3.1238,3.1238,0,0,1,151.6,61.0283a4.0372,4.0372,0,0,1,3.7408,0,3.1542,3.1542,0,0,1,1.2515,1.3013,4.3778,4.3778,0,0,1,0,3.8494,3.1542,3.1542,0,0,1-1.2515,1.3013,4.0372,4.0372,0,0,1-3.7408,0Zm2.9691-.96a2.1169,2.1169,0,0,0,.8622-.835,2.7913,2.7913,0,0,0,.3418-1.4461,2.7538,2.7538,0,0,0-.3418-1.43,2.07,2.07,0,0,0-.8622-.8282,2.43,2.43,0,0,0-1.0908-.258,2.4681,2.4681,0,0,0-1.1066.258,2.0555,2.0555,0,0,0-.8555.8282,2.8,2.8,0,0,0-.3326,1.43,2.8381,2.8381,0,0,0,.3326,1.4461,2.1021,2.1021,0,0,0,.8555.835,2.4154,2.4154,0,0,0,1.1066.2648A2.3785,2.3785,0,0,0,154.5689,66.5207Z" fill="#fff"/>
    <path d="M158.5655,67.3128a.5314.5314,0,0,1-.2377-.4594.5648.5648,0,0,1,.1539-.3892.5033.5033,0,0,1,.3893-.1652.6289.6289,0,0,1,.2512.0543,5.307,5.307,0,0,0,.8894.3055,4.0935,4.0935,0,0,0,1,.1131q1.5446,0,1.5434-.9889a.5263.5263,0,0,0-.353-.4866,7.5159,7.5159,0,0,0-1.161-.3756,10.0767,10.0767,0,0,1-1.3555-.4029,2.3721,2.3721,0,0,1-.9188-.6314,1.6058,1.6058,0,0,1-.3825-1.12,1.9989,1.9989,0,0,1,.7016-1.5841,2.9715,2.9715,0,0,1,2.01-.6133,5.8276,5.8276,0,0,1,2.0163.3485.5218.5218,0,0,1,.2988.2082.5534.5534,0,0,1,.1041.3191.5424.5424,0,0,1-.1584.3893.5269.5269,0,0,1-.3983.1674.7788.7788,0,0,1-.1788-.0271,5.328,5.328,0,0,0-1.5864-.2512,2.1693,2.1693,0,0,0-1.1746.2715.8073.8073,0,0,0-.4231.7016.6451.6451,0,0,0,.3892.6133,5.6383,5.6383,0,0,0,1.2085.3756,11.6346,11.6346,0,0,1,1.3352.41,2.2165,2.2165,0,0,1,.8826.6314A1.7118,1.7118,0,0,1,163.78,65.88a1.8418,1.8418,0,0,1-.7015,1.4755,3.0188,3.0188,0,0,1-1.9824.5839A5.1586,5.1586,0,0,1,158.5655,67.3128Z" fill="#fff"/>
    <path d="M165.8389,66.1043V61.7932H164.85a.2626.2626,0,0,1-.2625-.2648.2883.2883,0,0,1,.1244-.2353l1.8919-1.8489a.3459.3459,0,0,1,.2354-.1268.2506.2506,0,0,1,.1878.0838.29.29,0,0,1,.077.1946v1.1134h1.57a.5254.5254,0,0,1,.3893.1516.5606.5606,0,0,1,0,.7717.5071.5071,0,0,1-.3893.1607h-1.57v4.2c0,.36.086.5906.2557.6879a1.2984,1.2984,0,0,0,.6472.1449,1.8985,1.8985,0,0,0,.5568-.0838c.0362-.009.0769-.0181.1176-.0271a.7841.7841,0,0,1,.1607-.0136.4871.4871,0,0,1,.3463.1448.4764.4764,0,0,1,.1538.3553.5259.5259,0,0,1-.319.4866,2.7179,2.7179,0,0,1-1.1542.2512Q165.839,67.94,165.8389,66.1043Z" fill="#fff"/>
    <path d="M750.0806,553.67c-39.5617-33.7718-59.7414-68.9963-69.8436-90.5389-13.6316-29.0674-28.32-60.5275-16.8145-94.4191,2.3716-6.986,12.5441-36.9533,41.389-45.9162,25.6223-7.9617,53.674-1.2369,68.2278,18.1078,17.5239,23.2927,1.7685,45.1625,20.3709,83.4251,4.9889,10.2617,16.3449,32.5274,41.389,45.2695a85.9213,85.9213,0,0,0,39.45,9.0539c-1.4529,6.6636-4.4537,15.5265-11.3175,18.1078-8.64,3.2494-18.3276-6.4163-28.0438-1.91-22.3108,10.3473-8.8907,23.5713-22.7948,28.4216-14.886,5.1928-21.535-8.001-38.2205-2.21C766.4867,523.6251,756.3832,528.1715,750.0806,553.67Z" fill="#58595b" opacity="0.15" style="mix-blend-mode:darken"/>
    <rect x="228.8622" y="158.7025" width="89.0504" height="97.3018" rx="6.9521" fill="#58595b" opacity="0.1" style="mix-blend-mode:darken"/>
    <rect x="311.437" y="108.942" width="226.537" height="226.537" rx="6.3961" fill="#58595b" opacity="0.1" style="mix-blend-mode:darken"/>
    <rect x="306.8022" y="104.3073" width="226.537" height="226.537" rx="6.3961" fill="url(#e)"/>
    <path d="M526.9436,332.0022H313.1979a7.5614,7.5614,0,0,1-7.5541-7.5541V110.7024a7.5614,7.5614,0,0,1,7.5541-7.5541H526.9436a7.5614,7.5614,0,0,1,7.5541,7.5541V324.4481A7.5614,7.5614,0,0,1,526.9436,332.0022ZM313.1979,105.4657a5.2424,5.2424,0,0,0-5.2367,5.2367V324.4481a5.2424,5.2424,0,0,0,5.2367,5.2367H526.9436a5.2425,5.2425,0,0,0,5.2367-5.2367V110.7024a5.2425,5.2425,0,0,0-5.2367-5.2367Z" fill="#81d5ff"/>
    <rect x="306.8025" y="139.3934" width="226.5365" height="2.3174" fill="#81d5ff"/>
    <rect x="356.5853" y="172.5078" width="18.123" height="18.123" rx="4.2641" fill="#81d5ff"/>
    <rect x="383.7697" y="172.5078" width="18.123" height="18.123" rx="4.2641" fill="#81d5ff"/>
    <rect x="410.9541" y="172.5078" width="18.123" height="18.123" rx="4.2641" fill="#81d5ff"/>
    <rect x="438.1386" y="172.5078" width="18.123" height="18.123" rx="4.2641" fill="#81d5ff"/>
    <rect x="465.323" y="172.5078" width="18.123" height="18.123" rx="4.2641" fill="#81d5ff"/>
    <rect x="492.5075" y="172.5078" width="18.123" height="18.123" rx="4.2641" fill="#81d5ff"/>
    <rect x="329.4008" y="208.7537" width="18.123" height="18.123" rx="4.2641" fill="#81d5ff"/>
    <rect x="356.5853" y="208.7537" width="18.123" height="18.123" rx="4.2641" fill="#81d5ff"/>
    <rect x="383.7697" y="208.7537" width="18.123" height="18.123" rx="4.2641" fill="#81d5ff"/>
    <rect x="329.4008" y="244.9996" width="18.123" height="18.123" rx="4.2641" fill="#81d5ff"/>
    <rect x="356.5853" y="244.9996" width="18.123" height="18.123" rx="4.2641" fill="#81d5ff"/>
    <rect x="383.7697" y="244.9996" width="18.123" height="18.123" rx="4.2641" fill="#81d5ff"/>
    <rect x="410.9541" y="244.9996" width="18.123" height="18.123" rx="4.2641" fill="#81d5ff"/>
    <rect x="438.1386" y="244.9996" width="18.123" height="18.123" rx="4.2641" fill="#81d5ff"/>
    <rect x="465.323" y="244.9996" width="18.123" height="18.123" rx="4.2641" fill="#81d5ff"/>
    <rect x="492.5075" y="244.9996" width="18.123" height="18.123" rx="4.2641" fill="#81d5ff"/>
    <rect x="329.4008" y="281.2456" width="18.123" height="18.123" rx="4.2641" fill="#81d5ff"/>
    <rect x="356.5853" y="281.2456" width="18.123" height="18.123" rx="4.2641" fill="#81d5ff"/>
    <rect x="383.7697" y="281.2456" width="18.123" height="18.123" rx="4.2641" fill="#81d5ff"/>
    <rect x="410.9541" y="281.2456" width="18.123" height="18.123" rx="4.2641" fill="#81d5ff"/>
    <rect x="438.1386" y="281.2456" width="18.123" height="18.123" rx="4.2641" fill="#81d5ff"/>
    <rect x="465.323" y="281.2456" width="18.123" height="18.123" rx="4.2641" fill="#81d5ff"/>
    <rect x="420.0164" y="215.4978" width="81.5515" height="4.6347" fill="#4dc4ff"/>
    <rect x="373.6682" y="118.1402" width="92.6948" height="11.5869" fill="#81d5ff"/>
    <path d="M349.0266,132.6586a1.1493,1.1493,0,0,1-.5794-.1562L335.34,124.937a1.1571,1.1571,0,0,1,0-2.005l13.1076-7.5677a1.1579,1.1579,0,1,1,1.1587,2.0051l-11.37,6.5651,11.37,6.5629a1.1585,1.1585,0,0,1-.5793,2.1612Z" fill="#81d5ff"/>
    <path d="M491.176,132.6586a1.1585,1.1585,0,0,1-.5794-2.1612l11.3674-6.5629-11.3674-6.5651a1.1579,1.1579,0,1,1,1.1587-2.0051l13.1054,7.5677a1.1571,1.1571,0,0,1,0,2.005l-13.1054,7.5654A1.1487,1.1487,0,0,1,491.176,132.6586Z" fill="#81d5ff"/>
    <rect x="410.9541" y="208.7537" width="18.123" height="18.123" rx="4.2641" fill="#81d5ff"/>
    <rect x="438.1386" y="208.7537" width="18.123" height="18.123" rx="4.2641" fill="#81d5ff"/>
    <rect x="465.323" y="208.7537" width="18.123" height="18.123" rx="4.2641" fill="#81d5ff"/>
    <rect x="492.5075" y="208.7537" width="18.123" height="18.123" rx="4.2641" fill="#81d5ff"/>
    <rect x="564.5839" y="108.942" width="208.2395" height="125.8473" rx="6.3959" fill="#58595b" opacity="0.1" style="mix-blend-mode:darken"/>
    <rect x="559.9492" y="104.3073" width="208.2395" height="125.8473" rx="6.3959" fill="url(#f)"/>
    <path d="M761.7923,231.3143H566.3457a7.5634,7.5634,0,0,1-7.5541-7.5564V110.7024a7.5614,7.5614,0,0,1,7.5541-7.5541H761.7923a7.5614,7.5614,0,0,1,7.5541,7.5541V223.7579A7.5634,7.5634,0,0,1,761.7923,231.3143ZM566.3457,105.4657a5.2424,5.2424,0,0,0-5.2367,5.2367V223.7579a5.2444,5.2444,0,0,0,5.2367,5.239H761.7923a5.2444,5.2444,0,0,0,5.2367-5.239V110.7024a5.2424,5.2424,0,0,0-5.2367-5.2367Z" fill="#81d5ff"/>
    <path d="M696.6728,164.5134H571.5371a3.48,3.48,0,0,1-3.476-3.4761V116.9552a3.48,3.48,0,0,1,3.476-3.476H696.6728a3.48,3.48,0,0,1,3.4761,3.476v44.0821A3.48,3.48,0,0,1,696.6728,164.5134ZM571.5371,115.7965a1.1609,1.1609,0,0,0-1.1587,1.1587v44.0821a1.1609,1.1609,0,0,0,1.1587,1.1587H696.6728a1.1609,1.1609,0,0,0,1.1587-1.1587V116.9552a1.1609,1.1609,0,0,0-1.1587-1.1587Z" fill="#81d5ff"/>
    <rect x="581.0203" y="178.7277" width="23.1737" height="23.1737" rx="2.3174" fill="#81d5ff"/>
    <rect x="613.4635" y="178.7277" width="35.4072" height="8.0442" fill="#81d5ff"/>
    <rect x="613.4635" y="193.8572" width="14.9827" height="8.0442" fill="#81d5ff"/>
    <path d="M559.9492,213.44h208.24a0,0,0,0,1,0,0v10.3185a6.3959,6.3959,0,0,1-6.3959,6.3959H566.3451a6.3959,6.3959,0,0,1-6.3959-6.3959V213.44A0,0,0,0,1,559.9492,213.44Z" fill="#81d5ff"/>
    <rect x="576.1708" y="121.5893" width="66.3211" height="8.0442" fill="#81d5ff"/>
    <path d="M590.3182,157.8985h-1.0568v-2.3174h1.0568a1.1641,1.1641,0,0,0,.6043-.1675l1.19,1.987A3.4814,3.4814,0,0,1,590.3182,157.8985Zm-3.3742,0h-2.3174v-2.3174h2.3174Zm-4.6347,0h-2.3174v-2.3174h2.3174Zm-5.0195-.2105a3.4679,3.4679,0,0,1-2.1952-2.51l2.2631-.5024a1.1624,1.1624,0,0,0,.7332.835Zm14.1871-3.2v-2.32h2.3174v2.254Zm-14.1464-1.8738h-2.3173v-2.3174h2.3173Zm16.4638-2.7632h-2.3174v-2.3173h2.3174ZM577.3305,147.98h-2.3173v-2.3174h2.3173Zm16.4638-2.7632h-2.3174v-2.3174h2.3174Zm-16.4638-1.8716h-2.3173v-.7513a3.4807,3.4807,0,0,1,.7649-2.1771l1.8059,1.4529a1.1429,1.1429,0,0,0-.2535.7242Zm13.7368-1.6362a.9453.9453,0,0,0-.7445-.2738h-2.3219v-2.3174h2.3309a3.45,3.45,0,0,1,2.2336.8261Zm-5.3838-.2738h-2.3174v-2.3174h2.3174Zm-4.6348,0h-2.3173v-2.3174h2.3173Z" fill="#81d5ff"/>
    <rect x="711.7357" y="104.307" width="2.3174" height="109.1337" fill="#81d5ff"/>
    <path d="M756.6008,187.9315h-32.12a3.48,3.48,0,0,1-3.4761-3.4761V147.081a3.48,3.48,0,0,1,3.4761-3.476h32.12a3.48,3.48,0,0,1,3.4761,3.476v37.3744A3.48,3.48,0,0,1,756.6008,187.9315Zm-32.12-42.0091a1.1609,1.1609,0,0,0-1.1587,1.1586v37.3744a1.1609,1.1609,0,0,0,1.1587,1.1587h32.12a1.1609,1.1609,0,0,0,1.1587-1.1587V147.081a1.1609,1.1609,0,0,0-1.1587-1.1586Z" fill="#81d5ff"/>
    <path d="M756.6008,130.7916h-32.12a3.48,3.48,0,0,1-3.4761-3.4761V117.84a3.48,3.48,0,0,1,3.4761-3.4761h32.12a3.48,3.48,0,0,1,3.4761,3.4761v9.4754A3.48,3.48,0,0,1,756.6008,130.7916Zm-32.12-14.11a1.1609,1.1609,0,0,0-1.1587,1.1587v9.4754a1.1609,1.1609,0,0,0,1.1587,1.1587h32.12a1.1609,1.1609,0,0,0,1.1587-1.1587V117.84a1.1609,1.1609,0,0,0-1.1587-1.1587Z" fill="#81d5ff"/>
    <circle cx="722.1648" cy="165.3817" r="4.8453" fill="#81d5ff"/>
    <rect x="224.2274" y="154.0678" width="89.0504" height="97.3018" rx="6.9521" fill="url(#g)"/>
    <rect x="239.7855" y="165.8529" width="57.9343" height="11.5869" rx="1.935" fill="#e6b3ff"/>
    <rect x="239.7855" y="192.8721" width="13.9042" height="13.9042" rx="1.0384" fill="#d580ff"/>
    <rect x="262.9592" y="192.8721" width="34.7606" height="5.7934" fill="#e6b3ff"/>
    <rect x="262.9592" y="200.9829" width="26.4494" height="5.7934" fill="#e6b3ff"/>
    <rect x="239.7855" y="218.3632" width="13.9042" height="13.9042" rx="1.0384" fill="#d580ff"/>
    <rect x="262.9592" y="218.3632" width="34.7606" height="5.7934" fill="#e6b3ff"/>
    <rect x="262.9592" y="226.4739" width="30.1099" height="5.7934" fill="#e6b3ff"/>
    <path d="M162.0094,357.9875c31.4893-56.8568,37.767-105.8049,38.8024-134.515,1.8919-52.4807-12.5509-70.206-16.8145-75.018-16.3631-18.4677-46.8634-31.8916-73.7248-21.988C88.5,134.494,78.23,154.4882,75.35,160.0953c-8.3156,16.1908-8.6687,31.9764-9.0534,49.15-.5918,26.4509,5.0636,33.6668-1.2933,49.15-4.2263,10.2941-10.8231,17.08-18.1079,24.5748A127.4365,127.4365,0,0,1,15.8533,306.251s0,17.6766,13.5806,23.9281c11.3,5.2018,24.4025-13.05,38.8024-8.4072,12.9571,4.1773,11.1783,21.1322,23.9284,24.5749,11.7566,3.1745,21.8077-13.0736,40.5666-9.687C152.9552,340.3108,144.7635,357.9875,162.0094,357.9875Z" fill="#fff" opacity="0.95"/>
    <circle cx="123.331" cy="174.7995" r="6.6292" fill="#58595b"/>
    <circle cx="160.1583" cy="176.1762" r="6.6292" fill="#58595b"/>
    <ellipse cx="141.1376" cy="189.4346" rx="5.4388" ry="6.6292" fill="#58595b"/>
    <g opacity="0.9">
      <path d="M78.8,218.2989s-15.7672,7.8952-23.7126,14.2275c-6.9507,5.54-9.0539,14.6587-4.7425,19.4012s16.8143-1.2934,25.006-5.1736S86.56,240.55,86.56,240.55" fill="#fff"/>
      <path d="M55.1732,254.83a7.3222,7.3222,0,0,1-5.6871-2.1227,10.647,10.647,0,0,1-2.4939-8.138,19.1151,19.1151,0,0,1,7.3731-12.9469c7.9478-6.3389,23.2665-14.0333,23.916-14.3591a1.1588,1.1588,0,1,1,1.0364,2.0729c-.1561.077-15.7508,7.9117-23.5086,14.0966a16.7849,16.7849,0,0,0-6.5063,11.3221,8.2539,8.2539,0,0,0,1.8987,6.3954c3.6571,4.0282,15.93-1.7856,23.26-5.2571l.3938-.1878c7.9365-3.7567,10.969-6.0515,10.9985-6.0741a1.1587,1.1587,0,0,1,1.4121,1.8376c-.1267.0973-3.209,2.4441-11.4194,6.332l-.3915.1856C69.0774,251.01,61.0141,254.83,55.1732,254.83Z" fill="#a6a8ab"/>
    </g>
    <g opacity="0.9">
      <path d="M192.1887,215.712a160.5338,160.5338,0,0,1,19.2934.4851c10.8761.9274,16.9222,2.5329,16.06,10.2934s-7.6515,8.28-17.6134,9.4931-25.9315,2.3632-25.9315,2.3632" fill="#fff"/>
      <path d="M183.9954,239.5065a1.159,1.159,0,0,1-.0814-2.3151c.1606-.0113,16.0541-1.1632,25.8735-2.3581l1.1157-.1358c9.9665-1.2016,14.7891-2.0571,15.4861-8.3371a6.4767,6.4767,0,0,0-1.1021-5.04c-2.0458-2.4916-6.8367-3.3651-13.9043-3.9694a160.76,160.76,0,0,0-19.1386-.482,1.1578,1.1578,0,0,1-.1132-2.3129,162.0679,162.0679,0,0,1,19.451.4866c7.8664.67,12.9221,1.6724,15.4974,4.8067,1.4008,1.7064,1.93,3.9219,1.6136,6.7688-.9324,8.38-8.2489,9.2627-17.5116,10.3807l-1.1134.1335c-9.876,1.2039-25.826,2.36-25.9867,2.3717C184.052,239.5065,184.0249,239.5065,183.9954,239.5065Z" fill="#a6a8ab"/>
    </g>
    <rect x="618.8773" y="440.9312" width="6.3663" height="47.1106" transform="translate(510.6388 -303.8182) rotate(45)" fill="#58595b"/>
    <path d="M638.8871,444.1865h3.31a1.5279,1.5279,0,0,1,1.5279,1.5279v2.1082a0,0,0,0,1,0,0h-6.3663a0,0,0,0,1,0,0v-2.1082a1.5279,1.5279,0,0,1,1.5279-1.5279Z" transform="translate(502.9834 -322.3001) rotate(45)" fill="#58595b"/>
    <polygon points="600.903 485.644 607.052 483.996 602.551 479.494 600.903 485.644" fill="#58595b"/>
    <path d="M740.8111,551.3528c-39.5617-33.7718-59.7413-68.9963-69.8436-90.5389-13.6315-29.0674-28.32-60.5276-16.8145-94.4192,2.3717-6.986,12.5441-36.9533,41.389-45.9162,25.6223-7.9617,53.6741-1.2369,68.2278,18.1078,17.524,23.2927,1.7686,45.1625,20.3709,83.4251,4.9889,10.2617,16.3449,32.5274,41.389,45.2695a85.92,85.92,0,0,0,39.45,9.0539c-1.4528,6.6636-4.4537,15.5265-11.3175,18.1078-8.64,3.2494-18.3276-6.4163-28.0438-1.91-22.3108,10.3473-8.8907,23.5712-22.7948,28.4215-14.8859,5.1928-21.5349-8.0009-38.2205-2.2095C757.2172,521.3078,747.1137,525.8542,740.8111,551.3528Z" fill="#fff" opacity="0.95"/>
    <circle cx="719.1465" cy="367.6259" r="6.6292" fill="#58595b"/>
    <circle cx="683.8093" cy="378.0868" r="6.6292" fill="#58595b"/>
    <ellipse cx="705.5225" cy="393.1697" rx="5.4388" ry="6.6292" transform="translate(-75.4306 187.1197) rotate(-14.3495)" fill="#58595b"/>
    <g opacity="0.9">
      <path d="M665.5866,423.49s-18.7066,6.6842-27.1761,12.2964c-7.4091,4.91-10.3028,13.8095-6.4233,18.9114s16.863.184,25.363-2.964,14.0185-5.3988,14.0185-5.3988" fill="#fff"/>
      <path d="M637.8764,458.068c-2.9216,0-5.3431-.7377-6.8118-2.6681a10.6489,10.6489,0,0,1-1.772-8.3235A19.1346,19.1346,0,0,1,637.77,434.82c8.491-5.626,26.6588-12.1459,27.4282-12.42a1.1582,1.1582,0,1,1,.7785,2.1816c-.1855.0656-18.67,6.7009-26.9258,12.1707a16.7818,16.7818,0,0,0-7.4726,10.7111,8.2393,8.2393,0,0,0,1.3329,6.5334c3.29,4.3383,16.0179-.38,23.6241-3.1954l.4118-.1539c8.3824-3.1049,13.9292-5.3635,13.9857-5.3861a1.1582,1.1582,0,0,1,.8736,2.1454c-.0543.0226-5.6328,2.2947-14.0536,5.4132l-.4141.1539C651.2148,455.2437,643.5906,458.068,637.8764,458.068Z" fill="#a6a8ab"/>
    </g>
    <g opacity="0.9">
      <path d="M778.217,419.6435a160.543,160.543,0,0,1-4.1,18.859c-2.9537,10.5083-5.6663,16.1452-13.1267,13.8407s-6.6957-9.0705-6.0159-19.083,2.5494-25.9138,2.5494-25.9138" fill="#fff"/>
      <path d="M764.0418,454.0149a11.4665,11.4665,0,0,1-3.3923-.5658c-8.0588-2.4871-7.55-9.842-6.9092-19.1522l.077-1.1157c.6766-9.9258,2.5369-25.81,2.555-25.9708a1.16,1.16,0,0,1,2.3038.2715c-.02.1584-1.8738,15.9885-2.546,25.8577l-.0769,1.118c-.69,10.0163-.7559,14.9135,5.28,16.7783a6.49,6.49,0,0,0,5.16-.1358c2.8311-1.5412,4.5894-6.0831,6.5085-12.913a161.0849,161.0849,0,0,0,4.069-18.7042,1.1585,1.1585,0,1,1,2.2947.3214,163.5887,163.5887,0,0,1-4.1323,19.0119c-2.1363,7.5994-4.069,12.3812-7.6333,14.3206A7.3014,7.3014,0,0,1,764.0418,454.0149Z" fill="#a6a8ab"/>
    </g>
    <path d="M671.9286,392.4665a5.5032,5.5032,0,0,1-5.2458-3.8517l-2.9442-9.4052a5.4925,5.4925,0,0,1,3.6005-6.8843l21.4176-6.7077a5.4981,5.4981,0,0,1,6.8819,3.6006l2.9465,9.4052a5.5006,5.5006,0,0,1-3.6005,6.8842l-21.4176,6.7077A5.4984,5.4984,0,0,1,671.9286,392.4665Zm17.1743-25.7422.3463,1.1066-21.4176,6.7077a3.1722,3.1722,0,0,0-2.082,3.9785l2.9465,9.4052a3.1756,3.1756,0,0,0,3.9784,2.08l21.4176-6.7077a3.1767,3.1767,0,0,0,2.08-3.9785l-2.9443-9.4052a3.171,3.171,0,0,0-3.9784-2.08Z" fill="#929497"/>
    <path d="M735.3711,362.9586a1.1586,1.1586,0,0,1-.5476-2.1794l22.1236-11.872a1.1583,1.1583,0,1,1,1.0953,2.0413l-22.1236,11.872A1.1638,1.1638,0,0,1,735.3711,362.9586Z" fill="#929497"/>
    <rect x="695.795" y="371.697" width="9.6267" height="2.3181" transform="translate(-78.1695 219.9549) rotate(-16.9136)" fill="#929497"/>
    <path d="M655.7749,385.0664a1.1587,1.1587,0,0,1-.1584-2.3061l10.1973-1.4325a1.1585,1.1585,0,0,1,.3214,2.2947l-10.1974,1.4325A1.3116,1.3116,0,0,1,655.7749,385.0664Z" fill="#929497"/>
    <path d="M711.3918,380.3479a5.5,5.5,0,0,1-5.2345-3.854l-2.9442-9.403a5.5014,5.5014,0,0,1,3.6-6.8842l21.4176-6.7077a5.4924,5.4924,0,0,1,6.8842,3.6l2.9442,9.403a5.5024,5.5024,0,0,1-3.6005,6.8842l-21.4176,6.7077A5.5116,5.5116,0,0,1,711.3918,380.3479Zm18.4869-24.785a3.2309,3.2309,0,0,0-.955.1471v.0022L707.5061,362.42a3.1776,3.1776,0,0,0-2.08,3.9785l2.9443,9.403a3.1721,3.1721,0,0,0,3.9784,2.082l21.4176-6.71a3.1784,3.1784,0,0,0,2.08-3.9784l-2.9443-9.403a3.1768,3.1768,0,0,0-3.0234-2.2291Z" fill="#929497"/>
    <path d="M868.6444,285.9875c-16.6742-19.3965-51.867-65.954-55.1858-129.3413-.7955-15.19-4.35-48.6152,13.2027-79.9222,7.06-12.5921,18.806-27.0928,38.533-33.8982,22.6215-7.804,50.034.5773,63.8092,18.1078,7.1456,9.0937,8.5973,19.9826,11.2089,41.3892,4.5917,37.6415-1.9508,43.3223,2.5867,74.1557,2.6149,17.7732,5.9382,38.5808,21.5579,57.7725A90.9352,90.9352,0,0,0,988.5,254.9456c-2.305,6.8735-6.2766,9.5014-7.7612,10.3473-8.7218,4.9691-17.4606-11.6946-31.9034-8.8922-21.76,4.2222-8.7414,18.8227-26.3,20.964-17.6763,2.1557-17.03-11.7485-31.9035-10.8862C871.8483,267.5675,870.2591,281.95,868.6444,285.9875Z" fill="#fff" opacity="0.95"/>
    <g opacity="0.9">
      <path d="M824.9744,146.7792s-24.5825.3266-34.4816,2.615c-8.66,2.0019-14.4887,9.3235-12.643,15.4613s15.7292,6.0817,24.7933,6.1119,19.7412-.7657,19.7412-.7657" fill="#fff"/>
      <path d="M803.1316,172.1263h-.4934l-.4254-.0023c-9.8783-.0294-23.4091-.07-25.473-6.934a10.6458,10.6458,0,0,1,1.256-8.4163,19.144,19.144,0,0,1,12.2363-8.5091c9.9054-2.29,33.7173-2.63,34.7266-2.6432h.0159a1.1587,1.1587,0,0,1,.0158,2.3173c-.2444.0023-24.5722.3508-34.2378,2.5844a16.79,16.79,0,0,0-10.7517,7.4138,8.2566,8.2566,0,0,0-1.0433,6.5855c1.5705,5.2186,15.1489,5.2594,23.2619,5.2843l.4278.0022h.4865c8.8078,0,19.06-.7536,19.1636-.7626a1.1849,1.1849,0,0,1,1.2424,1.07,1.16,1.16,0,0,1-1.07,1.2424C822.363,171.3659,812.03,172.1263,803.1316,172.1263Z" fill="#a6a8ab"/>
    </g>
    <g opacity="0.9">
      <path d="M936.5,130.4143a160.5448,160.5448,0,0,1,18.7921-4.3964c10.7584-1.8454,17.014-1.8166,18.1367,5.91s-5.3158,9.9423-14.65,13.6283-24.4973,8.8267-24.4973,8.8267" fill="#fff"/>
      <path d="M934.2825,155.5426a1.1587,1.1587,0,0,1-.3712-2.2563c.1494-.052,15.2417-5.1756,24.4433-8.8078l1.0365-.41c9.3464-3.6775,13.8-5.721,12.89-11.9738a6.4849,6.4849,0,0,0-2.3378-4.6008c-2.6093-1.8987-7.468-1.5366-14.4541-.3327a160.2233,160.2233,0,0,0-18.6431,4.3587,1.16,1.16,0,0,1-.6925-2.2133,163.9126,163.9126,0,0,1,18.9418-4.4311c7.7827-1.3352,12.9266-1.6452,16.21.7423,1.7878,1.299,2.8582,3.3086,3.27,6.1419,1.2108,8.3485-5.6508,11.0483-14.3364,14.4655l-1.0343.4074c-9.2536,3.6548-24.398,8.7965-24.5519,8.8485A1.1814,1.1814,0,0,1,934.2825,155.5426Z" fill="#a6a8ab"/>
    </g>
    <circle cx="856.1408" cy="96.3023" r="6.7036" fill="#58595b"/>
    <circle cx="892.2123" cy="96.3023" r="6.7036" fill="#58595b"/>
    <path d="M881.7582,114.4977c-.6088.4611-4.8153.6922-7.9274.6916-3.0509-.0006-7.0579-.0127-7.7147-.6118-.7585,5.8678,3.5366,10.6122,7.5814,10.6139C878.4065,125.1934,882.5491,120.5979,881.7582,114.4977Z" fill="#58595b"/>
  </g>
</svg>
