<svg xmlns="http://www.w3.org/2000/svg" xmlns:xlink="http://www.w3.org/1999/xlink" viewBox="0 0 466.71 309.29"><defs><style>.cls-1{isolation:isolate;}.cls-2{fill:url(#radial-gradient);}.cls-13,.cls-15,.cls-22,.cls-3{fill:#58595b;}.cls-3{opacity:0.1;}.cls-13,.cls-3{mix-blend-mode:darken;}.cls-4{fill:url(#radial-gradient-2);}.cls-5{fill:#4dc4ff;}.cls-6{fill:#81d5ff;}.cls-7{fill:#b3e5ff;}.cls-8{fill:url(#radial-gradient-3);}.cls-9{fill:#d580ff;}.cls-10{fill:#7700b3;}.cls-11{fill:#e6b3ff;}.cls-12,.cls-14{fill:#fff;}.cls-13{opacity:0.15;}.cls-14{opacity:0.95;}.cls-16{opacity:0.9;}.cls-17{fill:#a6a8ab;}.cls-18{fill:url(#radial-gradient-4);}.cls-19{fill:url(#radial-gradient-5);}.cls-20{fill:#0d57a4;}.cls-21{fill:#0af;}.cls-22{mix-blend-mode:overlay;}</style><radialGradient id="radial-gradient" cx="233.36" cy="154.64" r="415.28" gradientTransform="matrix(-1, 0, 0, 1, 466.71, 0)" gradientUnits="userSpaceOnUse"><stop offset="0" stop-color="#4dc4ff"/><stop offset="1" stop-color="#0c89db"/></radialGradient><radialGradient id="radial-gradient-2" cx="256.13" cy="158.36" r="304.82" gradientTransform="matrix(1, 0, 0, -1, -45.55, 316.72)" gradientUnits="userSpaceOnUse"><stop offset="0" stop-color="#e1f5ff"/><stop offset="1" stop-color="#b3e5ff"/></radialGradient><radialGradient id="radial-gradient-3" cx="365.13" cy="72.74" r="133.24" gradientTransform="translate(-263.56)" gradientUnits="userSpaceOnUse"><stop offset="0" stop-color="#f7e5ff"/><stop offset="1" stop-color="#e6b3ff"/></radialGradient><radialGradient id="radial-gradient-4" cx="87.8" cy="190.55" r="83.4" gradientTransform="translate(243.28 30.4) rotate(-15.49)" xlink:href="#radial-gradient-3"/><radialGradient id="radial-gradient-5" cx="365.13" cy="194.09" r="125.64" gradientTransform="translate(-263.56)" gradientUnits="userSpaceOnUse"><stop offset="0" stop-color="#b3e5ff"/><stop offset="1" stop-color="#81d5ff"/></radialGradient></defs><title>Asset 26</title><g class="cls-1"><g id="Layer_2" data-name="Layer 2"><g id="Background"><path class="cls-2" d="M22.16,130.7C4.27,181-4.24,195.18,2.07,222.68c8.58,37.4,48.49,62.23,112.42,77,74.15,17.16,235.57,12.84,291.67-25.67,16.77-11.51,56.65-43.52,60.28-90.42,4.91-63.47-58.17-117-91.53-135.07C305.7,11.15,61.44-26.81,32.16,26,15,57,35.28,93.83,22.16,130.7Z"/></g><g id="Linework"><rect class="cls-3" x="116.21" y="62.99" width="194.73" height="194.73" rx="5.5" transform="translate(427.16 320.72) rotate(-180)"/><rect class="cls-4" x="113.21" y="60.99" width="194.73" height="194.73" rx="5.5" transform="translate(421.16 316.72) rotate(-180)"/><rect class="cls-5" x="140.52" y="156.57" width="70.1" height="4"/><rect class="cls-6" x="113.21" y="91.65" width="194.73" height="1"/><rect class="cls-6" x="249.57" y="119.62" width="15.58" height="15.58" rx="3.67" transform="translate(514.73 254.82) rotate(-180)"/><rect class="cls-6" x="226.21" y="119.62" width="15.58" height="15.58" rx="3.67" transform="translate(467.99 254.82) rotate(-180)"/><rect class="cls-6" x="202.84" y="119.62" width="15.58" height="15.58" rx="3.67" transform="translate(421.25 254.82) rotate(-180)"/><rect class="cls-6" x="179.47" y="119.62" width="15.58" height="15.58" rx="3.67" transform="translate(374.52 254.82) rotate(-180)"/><rect class="cls-6" x="156.1" y="119.62" width="15.58" height="15.58" rx="3.67" transform="translate(327.78 254.82) rotate(-180)"/><rect class="cls-6" x="272.94" y="119.62" width="15.58" height="15.58" rx="3.67" transform="translate(561.46 254.82) rotate(-180)"/><path class="cls-5" d="M276.09,166.36a.51.51,0,0,1,.52-.5h4a.5.5,0,0,1,.5.5.51.51,0,0,1-.5.5h-4.05A.48.48,0,0,1,276.09,166.36Zm8,0a.5.5,0,0,1,.5-.5h.25a3.15,3.15,0,0,0,2.71-1.52.5.5,0,0,1,.85.52,4.14,4.14,0,0,1-3.56,2h-.25A.51.51,0,0,1,284.1,166.36Zm-11.21-1.79a4.2,4.2,0,0,1-.45-1.88v-2.28a.5.5,0,0,1,.5-.5.5.5,0,0,1,.5.5v2.28a3.17,3.17,0,0,0,.34,1.43.49.49,0,0,1-.22.67.46.46,0,0,1-.22.06A.49.49,0,0,1,272.89,164.57ZM288,160.7v-4a.5.5,0,0,1,1,0v4a.5.5,0,0,1-1,0Zm-15.58-4.29v-2a4.16,4.16,0,0,1,.63-2.19.5.5,0,0,1,.68-.16.5.5,0,0,1,.17.69,3.14,3.14,0,0,0-.48,1.66v2a.5.5,0,0,1-.5.5A.5.5,0,0,1,272.44,156.41ZM287.67,153a3.15,3.15,0,0,0-2.8-1.72.5.5,0,0,1,0-1h0a4.14,4.14,0,0,1,3.68,2.26.49.49,0,0,1-.22.67.46.46,0,0,1-.22.06A.51.51,0,0,1,287.67,153Zm-11.29-2.22a.5.5,0,0,1,.5-.5h4a.5.5,0,0,1,.5.5.51.51,0,0,1-.5.5h-4A.5.5,0,0,1,276.38,150.78Z"/><rect class="cls-6" x="249.57" y="150.78" width="15.58" height="15.58" rx="3.67" transform="translate(514.73 317.13) rotate(-180)"/><rect class="cls-6" x="226.21" y="150.78" width="15.58" height="15.58" rx="3.67" transform="translate(467.99 317.13) rotate(-180)"/><rect class="cls-6" x="202.84" y="150.78" width="15.58" height="15.58" rx="3.67" transform="translate(421.25 317.13) rotate(-180)"/><rect class="cls-6" x="179.47" y="150.78" width="15.58" height="15.58" rx="3.67" transform="translate(374.52 317.13) rotate(-180)"/><rect class="cls-6" x="156.1" y="150.78" width="15.58" height="15.58" rx="3.67" transform="translate(327.78 317.13) rotate(-180)"/><rect class="cls-6" x="132.73" y="150.78" width="15.58" height="15.58" rx="3.67" transform="translate(281.05 317.13) rotate(-180)"/><rect class="cls-6" x="272.94" y="181.94" width="15.58" height="15.58" rx="3.67" transform="translate(561.46 379.45) rotate(-180)"/><rect class="cls-6" x="249.57" y="181.94" width="15.58" height="15.58" rx="3.67" transform="translate(514.73 379.45) rotate(-180)"/><rect class="cls-6" x="226.21" y="181.94" width="15.58" height="15.58" rx="3.67" transform="translate(467.99 379.45) rotate(-180)"/><rect class="cls-6" x="202.84" y="181.94" width="15.58" height="15.58" rx="3.67" transform="translate(421.25 379.45) rotate(-180)"/><rect class="cls-6" x="179.47" y="181.94" width="15.58" height="15.58" rx="3.67" transform="translate(374.52 379.45) rotate(-180)"/><rect class="cls-6" x="156.1" y="181.94" width="15.58" height="15.58" rx="3.67" transform="translate(327.78 379.45) rotate(-180)"/><rect class="cls-6" x="132.73" y="181.94" width="15.58" height="15.58" rx="3.67" transform="translate(281.05 379.45) rotate(-180)"/><rect class="cls-6" x="132.73" y="213.09" width="15.58" height="15.58" rx="3.67" transform="translate(281.05 441.76) rotate(-180)"/><rect class="cls-6" x="249.57" y="213.09" width="15.58" height="15.58" rx="3.67" transform="translate(514.73 441.76) rotate(-180)"/><rect class="cls-6" x="226.21" y="213.09" width="15.58" height="15.58" rx="3.67" transform="translate(467.99 441.76) rotate(-180)"/><rect class="cls-6" x="202.84" y="213.09" width="15.58" height="15.58" rx="3.67" transform="translate(421.25 441.76) rotate(-180)"/><rect class="cls-6" x="179.47" y="213.09" width="15.58" height="15.58" rx="3.67" transform="translate(374.52 441.76) rotate(-180)"/><rect class="cls-6" x="156.1" y="213.09" width="15.58" height="15.58" rx="3.67" transform="translate(327.78 441.76) rotate(-180)"/><rect class="cls-7" x="170.79" y="72.89" width="79.68" height="9.96" transform="translate(421.25 155.73) rotate(-180)"/><polygon class="cls-6" points="271.9 84.8 283.92 77.86 271.9 70.93 271.4 71.79 281.92 77.86 271.4 83.94 271.9 84.8"/><polygon class="cls-6" points="149.21 84.8 149.71 83.94 139.19 77.86 149.71 71.79 149.21 70.93 137.19 77.86 149.21 84.8"/><rect class="cls-3" x="52.56" y="49.45" width="102.04" height="50.58" rx="2.89" transform="translate(207.16 149.48) rotate(-180)"/><rect class="cls-8" x="50.56" y="47.45" width="102.04" height="50.58" rx="2.89"/><rect class="cls-9" x="66.73" y="58.81" width="15" height="15" rx="1.12"/><rect class="cls-10" x="81.99" y="82.63" width="39.18" height="11.21" rx="1.51"/><rect class="cls-11" x="89.73" y="58.87" width="46.3" height="4.25"/><rect class="cls-11" x="89.73" y="69.56" width="27.48" height="4.25"/><path class="cls-12" d="M93.06,91.5a.36.36,0,0,1-.11-.28V85.71a.41.41,0,0,1,.4-.42H95.4a3,3,0,0,1,1.4.29,1.78,1.78,0,0,1,.77.74,2,2,0,0,1,.24,1,2,2,0,0,1-.24,1,1.68,1.68,0,0,1-.77.74,2.88,2.88,0,0,1-1.4.29H93.76v1.93a.36.36,0,0,1-.12.28.41.41,0,0,1-.58,0Zm2.26-3a1.9,1.9,0,0,0,1.29-.35,1.17,1.17,0,0,0,.38-.88,1.15,1.15,0,0,0-.38-.87,1.9,1.9,0,0,0-1.29-.35H93.76v2.45Z"/><path class="cls-12" d="M99.52,91.37a2,2,0,0,1-.81-.84,2.68,2.68,0,0,1-.28-1.25A2.61,2.61,0,0,1,98.71,88a2,2,0,0,1,.81-.85,2.46,2.46,0,0,1,1.21-.29,2.49,2.49,0,0,1,1.21.29,2.14,2.14,0,0,1,.81.85,2.61,2.61,0,0,1,.28,1.24,2.68,2.68,0,0,1-.28,1.25,2.18,2.18,0,0,1-.81.84,2.39,2.39,0,0,1-1.21.3A2.36,2.36,0,0,1,99.52,91.37Zm1.92-.62a1.44,1.44,0,0,0,.56-.54,1.89,1.89,0,0,0,.22-.94,1.81,1.81,0,0,0-.22-.92,1.38,1.38,0,0,0-.56-.54,1.61,1.61,0,0,0-.71-.17,1.65,1.65,0,0,0-.72.17,1.35,1.35,0,0,0-.55.54,1.82,1.82,0,0,0-.21.92,1.9,1.9,0,0,0,.21.94,1.42,1.42,0,0,0,.55.54,1.65,1.65,0,0,0,.72.17A1.61,1.61,0,0,0,101.44,90.75Z"/><path class="cls-12" d="M104,91.26a.34.34,0,0,1-.15-.29.37.37,0,0,1,.1-.26.34.34,0,0,1,.25-.11.42.42,0,0,1,.16,0,3.63,3.63,0,0,0,.58.2,2.59,2.59,0,0,0,.65.07c.66,0,1-.21,1-.64a.34.34,0,0,0-.23-.31,5.34,5.34,0,0,0-.75-.25,6,6,0,0,1-.88-.26,1.53,1.53,0,0,1-.6-.41,1,1,0,0,1-.24-.72,1.32,1.32,0,0,1,.45-1,1.94,1.94,0,0,1,1.3-.39,3.79,3.79,0,0,1,1.31.22.34.34,0,0,1,.19.14.31.31,0,0,1,.07.2.38.38,0,0,1-.11.26.32.32,0,0,1-.25.1h-.12a3.42,3.42,0,0,0-1-.17,1.4,1.4,0,0,0-.76.18.53.53,0,0,0-.27.45.41.41,0,0,0,.25.4,4.1,4.1,0,0,0,.78.24,6.59,6.59,0,0,1,.87.27,1.44,1.44,0,0,1,.57.41,1.08,1.08,0,0,1,.24.74,1.17,1.17,0,0,1-.46,1,2,2,0,0,1-1.28.38A3.38,3.38,0,0,1,104,91.26Z"/><path class="cls-12" d="M108.73,90.48V87.69h-.64a.17.17,0,0,1-.17-.17.19.19,0,0,1,.08-.15l1.23-1.2a.19.19,0,0,1,.15-.08.13.13,0,0,1,.12,0,.21.21,0,0,1,0,.13V87h1a.33.33,0,0,1,.25.1.32.32,0,0,1,.1.25.36.36,0,0,1-.35.35h-1v2.72c0,.23.06.38.17.44a.87.87,0,0,0,.42.1,1.13,1.13,0,0,0,.36-.06l.07,0h.11a.33.33,0,0,1,.22.09.29.29,0,0,1,.1.23.33.33,0,0,1-.21.31,1.71,1.71,0,0,1-.74.17C109.17,91.67,108.73,91.27,108.73,90.48Z"/><path class="cls-13" d="M326.78,237.21c-12.26-33.13-11.62-60-9.82-75.46,3.29-28.35,12.5-36.69,15.19-38.93,10.3-8.58,27.79-13.29,41.41-5.77,11,6.1,14.92,17.69,16,20.94,3.14,9.38,2,17.89.83,27.15-1.85,14.26-5.48,17.67-3.33,26.51,1.43,5.88,4.41,10.07,7.71,14.69a69.59,69.59,0,0,0,14.77,15.06s-1.45,9.49-9.26,11.74c-6.49,1.87-12-9-20.15-7.7-7.31,1.18-7.74,10.44-14.88,11.24-6.57.74-10.64-8.81-21-8.53C333.09,228.45,336.05,238.62,326.78,237.21Z"/><path class="cls-14" d="M322.78,234.21c-12.26-33.13-11.62-60-9.82-75.46,3.29-28.35,12.5-36.69,15.19-38.93,10.3-8.58,27.79-13.29,41.41-5.77,11,6.1,14.92,17.69,16,20.94,3.14,9.38,2,17.89.83,27.15-1.85,14.26-5.48,17.67-3.33,26.51,1.43,5.88,4.41,10.07,7.71,14.69a69.59,69.59,0,0,0,14.77,15.06s-1.45,9.49-9.26,11.74c-6.49,1.87-12-9-20.15-7.7-7.31,1.18-7.74,10.44-14.88,11.24-6.57.74-10.64-8.81-21-8.53C329.09,225.45,332.05,235.62,322.78,234.21Z"/><circle class="cls-15" cx="334.88" cy="133.2" r="3.33"/><circle class="cls-15" cx="353.4" cy="133.72" r="3.33"/><ellipse class="cls-15" cx="344.8" cy="143.86" rx="2.73" ry="3.33" transform="translate(-1.34 3.24) rotate(-0.54)"/><g class="cls-16"><path class="cls-12" d="M318,167.83s-9.12-.22-14.11.61c-4.38.72-7,3.89-5.65,6.68s8.51,3.06,13.21,3.26a39.24,39.24,0,0,0,6.59-.09"/><path class="cls-17" d="M314.57,179a26.47,26.47,0,0,0,3.52-.16l-.15-1a41.3,41.3,0,0,1-6.49.08h-.23c-4.25-.18-11.38-.48-12.55-3a3.07,3.07,0,0,1,.1-2.81,7.08,7.08,0,0,1,5.18-3.17c4.89-.81,13.93-.6,14-.6l0-1c-.38,0-9.23-.21-14.21.62a7.92,7.92,0,0,0-5.9,3.68,4.06,4.06,0,0,0-.12,3.71c1.42,3,8.35,3.31,13.41,3.53h.23C312.65,178.93,313.7,179,314.57,179Z"/></g><rect class="cls-3" x="350.7" y="177.13" width="58.28" height="28.89" rx="1.65" transform="translate(797.04 274.77) rotate(164.51)"/><rect class="cls-18" x="349.63" y="176.15" width="58.28" height="28.89" rx="1.65" transform="matrix(0.96, -0.27, 0.27, 0.96, -37.18, 108.26)"/><rect class="cls-9" x="358.45" y="186.94" width="8.57" height="8.57" rx="0.64" transform="translate(-37.93 104) rotate(-15.51)"/><rect class="cls-10" x="369.95" y="195.91" width="22.38" height="6.4" rx="0.86" transform="translate(-39.37 109.21) rotate(-15.51)"/><rect class="cls-11" x="369.97" y="181.19" width="26.44" height="2.43" transform="translate(-34.83 109.15) rotate(-15.51)"/><rect class="cls-11" x="371.8" y="188.51" width="15.69" height="2.43" transform="translate(-36.91 108.46) rotate(-15.51)"/><path class="cls-12" d="M377,202.27a.21.21,0,0,1-.1-.14l-.85-3a.27.27,0,0,1,0-.18.22.22,0,0,1,.14-.11l1.13-.32a1.78,1.78,0,0,1,.81-.05,1,1,0,0,1,.54.29,1.18,1.18,0,0,1,.28.5,1.22,1.22,0,0,1,0,.57,1,1,0,0,1-.31.52,1.62,1.62,0,0,1-.73.37l-.9.25.3,1.06a.25.25,0,0,1-.17.29A.23.23,0,0,1,377,202.27Zm.79-2a1,1,0,0,0,.66-.39.68.68,0,0,0,.07-.54.65.65,0,0,0-.34-.42,1.08,1.08,0,0,0-.76,0l-.86.24.37,1.35Z"/><path class="cls-12" d="M380.48,201.21a1.2,1.2,0,0,1-.57-.34,1.52,1.52,0,0,1-.34-.64,1.41,1.41,0,0,1,0-.73,1.11,1.11,0,0,1,.32-.59,1.35,1.35,0,0,1,.62-.35,1.43,1.43,0,0,1,.71,0,1.2,1.2,0,0,1,.57.34,1.6,1.6,0,0,1,.38,1.37,1.16,1.16,0,0,1-.31.59,1.46,1.46,0,0,1-.62.35A1.36,1.36,0,0,1,380.48,201.21Zm1-.64a.75.75,0,0,0,.22-.38,1,1,0,0,0,0-.55,1.11,1.11,0,0,0-.26-.47A.69.69,0,0,0,381,199a1,1,0,0,0-.42,0,.91.91,0,0,0-.36.2.78.78,0,0,0-.23.38,1.05,1.05,0,0,0,0,.55,1,1,0,0,0,.26.48.76.76,0,0,0,.38.21,1,1,0,0,0,.42,0A.91.91,0,0,0,381.45,200.57Z"/><path class="cls-12" d="M383,200.46a.19.19,0,0,1-.13-.14.2.2,0,0,1,0-.15.15.15,0,0,1,.12-.1h.09l.35,0,.37-.06c.36-.11.51-.27.45-.51a.21.21,0,0,0-.17-.14l-.46,0a2.88,2.88,0,0,1-.52,0,.79.79,0,0,1-.39-.13.58.58,0,0,1-.24-.36.73.73,0,0,1,.09-.64,1.07,1.07,0,0,1,.65-.41,2.22,2.22,0,0,1,.76-.08.17.17,0,0,1,.12.05.17.17,0,0,1,.07.1.18.18,0,0,1,0,.16.14.14,0,0,1-.12.09h-.07a2.27,2.27,0,0,0-.59.07.8.8,0,0,0-.39.21.32.32,0,0,0-.08.3.24.24,0,0,0,.2.17,2.07,2.07,0,0,0,.47,0,4,4,0,0,1,.51,0,.88.88,0,0,1,.38.14.58.58,0,0,1,.24.37.68.68,0,0,1-.1.6,1.11,1.11,0,0,1-.65.4A2,2,0,0,1,383,200.46Z"/><path class="cls-12" d="M385.42,199.31l-.43-1.53-.35.09a.06.06,0,0,1-.07,0,.08.08,0,0,1-.05-.05.12.12,0,0,1,0-.1l.49-.85a.15.15,0,0,1,.07-.07.11.11,0,0,1,.08,0,.1.1,0,0,1,.05.06l.11.39.56-.15a.2.2,0,0,1,.15,0,.18.18,0,0,1,.09.13.2.2,0,0,1,0,.15.18.18,0,0,1-.13.09l-.56.16.42,1.5a.28.28,0,0,0,.16.22.51.51,0,0,0,.24,0,.46.46,0,0,0,.19-.08l0,0a.11.11,0,0,1,.06,0,.17.17,0,0,1,.14,0,.27.27,0,0,1,.09.12.19.19,0,0,1-.07.2.91.91,0,0,1-.39.2Q385.6,200,385.42,199.31Z"/><g class="cls-16"><path class="cls-12" d="M378.44,171a106.6,106.6,0,0,1,5.73,9.25c3,5.38,4.2,8.65.86,10.24s-5.63-1.49-9.17-5.88-8.9-11.65-8.9-11.65"/><path class="cls-17" d="M383.28,191.4a4.51,4.51,0,0,0,2-.48,3.71,3.71,0,0,0,2.12-2.2c.64-2-.53-4.71-2.75-8.73a108.7,108.7,0,0,0-5.76-9.3l-.82.58a107.79,107.79,0,0,1,5.71,9.2c2,3.69,3.19,6.3,2.66,7.94a2.72,2.72,0,0,1-1.59,1.61c-2.73,1.3-4.58-.79-8.17-5.26l-.39-.49c-3.5-4.33-8.84-11.56-8.89-11.63l-.81.59c.06.08,5.41,7.32,8.92,11.67l.39.49C378.58,188.78,380.69,191.4,383.28,191.4Z"/></g><rect class="cls-3" x="52.56" y="170.8" width="102.04" height="50.58" rx="2.89" transform="translate(207.16 392.18) rotate(-180)"/><rect class="cls-19" x="50.56" y="168.8" width="102.04" height="50.58" rx="2.89"/><path class="cls-20" d="M71.74,182.38a.43.43,0,0,1-.18-.15.36.36,0,0,1-.07-.22.35.35,0,0,1,.1-.26.33.33,0,0,1,.27-.11.47.47,0,0,1,.17,0,4.22,4.22,0,0,0,1.77.37c1,0,1.58-.34,1.58-1a.59.59,0,0,0-.2-.44,1.64,1.64,0,0,0-.5-.29c-.2-.07-.48-.15-.85-.25a9,9,0,0,1-1.18-.36,2,2,0,0,1-.77-.53,1.29,1.29,0,0,1-.33-.93,1.66,1.66,0,0,1,.27-.93,1.84,1.84,0,0,1,.8-.67,2.86,2.86,0,0,1,1.26-.25,5.05,5.05,0,0,1,1.79.3.35.35,0,0,1,.26.36.42.42,0,0,1-.1.26.33.33,0,0,1-.41.08,4.45,4.45,0,0,0-1.45-.24,2.18,2.18,0,0,0-1.15.27.84.84,0,0,0-.45.75.69.69,0,0,0,.21.53,1.47,1.47,0,0,0,.53.32c.22.07.51.15.87.23a8.61,8.61,0,0,1,1.15.35,1.87,1.87,0,0,1,.75.53,1.46,1.46,0,0,1,.31,1,1.49,1.49,0,0,1-.29.9,1.85,1.85,0,0,1-.81.63,3,3,0,0,1-1.21.22A5.31,5.31,0,0,1,71.74,182.38Z"/><path class="cls-20" d="M78.21,182.53a2.24,2.24,0,0,1-.87-.83,2.4,2.4,0,0,1-.33-1.27,2.38,2.38,0,0,1,.33-1.27,2.17,2.17,0,0,1,.87-.83,2.59,2.59,0,0,1,1.2-.29,2.24,2.24,0,0,1,.82.13,3,3,0,0,1,.65.31.34.34,0,0,1,.18.31A.38.38,0,0,1,81,179a.34.34,0,0,1-.24.11.45.45,0,0,1-.19-.05,3.25,3.25,0,0,0-.51-.22,1.62,1.62,0,0,0-.53-.07,1.65,1.65,0,0,0-1.21.44,1.58,1.58,0,0,0-.44,1.18,1.56,1.56,0,0,0,.44,1.17A1.9,1.9,0,0,0,80,182a3.25,3.25,0,0,0,.51-.22.45.45,0,0,1,.19,0,.34.34,0,0,1,.24.11.38.38,0,0,1,.11.25.36.36,0,0,1-.18.31,3,3,0,0,1-.65.31,2.49,2.49,0,0,1-.82.12A2.58,2.58,0,0,1,78.21,182.53Z"/><path class="cls-20" d="M82.2,182.65a.37.37,0,0,1-.12-.29v-5.84a.4.4,0,0,1,.12-.29.38.38,0,0,1,.29-.12.41.41,0,0,1,.41.41v2.35a3.15,3.15,0,0,1,.74-.6,1.87,1.87,0,0,1,.94-.23,1.49,1.49,0,0,1,.85.24,1.46,1.46,0,0,1,.56.64,2,2,0,0,1,.2.89v2.55a.35.35,0,0,1-.13.29.38.38,0,0,1-.29.12.39.39,0,0,1-.4-.41V179.9c0-.73-.33-1.1-1-1.1a1.5,1.5,0,0,0-.81.23,3.27,3.27,0,0,0-.67.63v2.7a.37.37,0,0,1-.12.29.4.4,0,0,1-.29.12A.38.38,0,0,1,82.2,182.65Z"/><path class="cls-20" d="M87.9,182.19a2.4,2.4,0,0,1-.62-1.76,2.86,2.86,0,0,1,.24-1.18,2,2,0,0,1,.72-.87,2.07,2.07,0,0,1,1.2-.34,2.17,2.17,0,0,1,1.15.31,2.11,2.11,0,0,1,.74.83,2.7,2.7,0,0,1,.25,1.13.39.39,0,0,1-.42.41h-3a1.52,1.52,0,0,0,.47,1,1.64,1.64,0,0,0,1.11.35,2.62,2.62,0,0,0,.66-.07,2.83,2.83,0,0,0,.55-.21.47.47,0,0,1,.16,0,.42.42,0,0,1,.26.1.34.34,0,0,1,.11.25.39.39,0,0,1-.24.34,3.44,3.44,0,0,1-.69.3,3.55,3.55,0,0,1-.88.09A2.28,2.28,0,0,1,87.9,182.19Zm2.87-2.14a1.54,1.54,0,0,0-.23-.74,1.28,1.28,0,0,0-.5-.43,1.38,1.38,0,0,0-1.21,0,1.26,1.26,0,0,0-.49.43,1.54,1.54,0,0,0-.23.74Z"/><path class="cls-20" d="M93.5,182.53a2.16,2.16,0,0,1-.81-.83,2.49,2.49,0,0,1-.31-1.27,2.47,2.47,0,0,1,.31-1.27,2.16,2.16,0,0,1,.81-.83,2.07,2.07,0,0,1,2.6.4v-2.21a.37.37,0,0,1,.12-.29.41.41,0,0,1,.58,0,.39.39,0,0,1,.11.29v5.84a.36.36,0,0,1-.11.29.41.41,0,0,1-.58,0,.37.37,0,0,1-.12-.29v-.23a2.11,2.11,0,0,1-2.6.4Zm2-.66a2.4,2.4,0,0,0,.65-.5v-1.89a2.58,2.58,0,0,0-.65-.49,1.72,1.72,0,0,0-.78-.18,1.42,1.42,0,0,0-1.07.42,2,2,0,0,0,0,2.4,1.42,1.42,0,0,0,1.07.42A1.72,1.72,0,0,0,95.45,181.87Z"/><path class="cls-20" d="M99,182.58a1.58,1.58,0,0,1-.56-.64,2.18,2.18,0,0,1-.19-.89V178.5a.37.37,0,0,1,.12-.29.41.41,0,0,1,.3-.12.36.36,0,0,1,.28.12.37.37,0,0,1,.12.29V181c0,.73.33,1.1,1,1.1a1.5,1.5,0,0,0,.81-.23,3.08,3.08,0,0,0,.67-.64V178.5a.37.37,0,0,1,.12-.29.41.41,0,0,1,.58,0,.36.36,0,0,1,.11.29v3.86a.39.39,0,0,1-.11.29.41.41,0,0,1-.7-.29V182a3.15,3.15,0,0,1-.74.6,1.89,1.89,0,0,1-.94.22A1.54,1.54,0,0,1,99,182.58Z"/><path class="cls-20" d="M103.93,182.65a.4.4,0,0,1-.11-.29v-5.84a.44.44,0,0,1,.11-.29.4.4,0,0,1,.29-.12.41.41,0,0,1,.3.12.37.37,0,0,1,.12.29v5.84a.35.35,0,0,1-.13.29.38.38,0,0,1-.29.12A.4.4,0,0,1,103.93,182.65Z"/><path class="cls-20" d="M106.4,182.19a2.36,2.36,0,0,1-.62-1.76,3,3,0,0,1,.23-1.18,2,2,0,0,1,.72-.87,2.12,2.12,0,0,1,1.2-.34,2.15,2.15,0,0,1,1.15.31,2,2,0,0,1,.74.83,2.56,2.56,0,0,1,.25,1.13.42.42,0,0,1-.11.29.41.41,0,0,1-.3.12h-3a1.47,1.47,0,0,0,.46,1,1.66,1.66,0,0,0,1.11.35,2.62,2.62,0,0,0,.66-.07,2.92,2.92,0,0,0,.56-.21.38.38,0,0,1,.16,0,.39.39,0,0,1,.25.1.34.34,0,0,1,.11.25.39.39,0,0,1-.24.34,3.44,3.44,0,0,1-.69.3,3.55,3.55,0,0,1-.88.09A2.27,2.27,0,0,1,106.4,182.19Zm2.86-2.14a1.44,1.44,0,0,0-.23-.74,1.22,1.22,0,0,0-.5-.43,1.36,1.36,0,0,0-1.2,0,1.22,1.22,0,0,0-.5.43,1.54,1.54,0,0,0-.22.74Z"/><path class="cls-20" d="M113.77,182.65a.37.37,0,0,1-.12-.29v-5.5a.42.42,0,0,1,.12-.3.4.4,0,0,1,.29-.12h2a3,3,0,0,1,1.4.29,1.78,1.78,0,0,1,.77.74,2.16,2.16,0,0,1,0,1.94,1.78,1.78,0,0,1-.77.74,3,3,0,0,1-1.4.29h-1.64v1.92a.37.37,0,0,1-.12.29.41.41,0,0,1-.58,0Zm2.26-3a1.84,1.84,0,0,0,1.29-.35,1.19,1.19,0,0,0,0-1.74,1.84,1.84,0,0,0-1.29-.35h-1.56v2.44Z"/><path class="cls-20" d="M120.22,182.52a2.09,2.09,0,0,1-.8-.84,2.93,2.93,0,0,1,0-2.5,2.09,2.09,0,0,1,.8-.84,2.42,2.42,0,0,1,1.22-.3,2.39,2.39,0,0,1,1.21.3,2.18,2.18,0,0,1,.81.84,2.93,2.93,0,0,1,0,2.5,2.18,2.18,0,0,1-.81.84,2.38,2.38,0,0,1-1.21.29A2.42,2.42,0,0,1,120.22,182.52Zm1.93-.62a1.42,1.42,0,0,0,.55-.54,2.1,2.1,0,0,0,0-1.87,1.33,1.33,0,0,0-.55-.53,1.61,1.61,0,0,0-.71-.17,1.65,1.65,0,0,0-.72.17,1.33,1.33,0,0,0-.55.53,2.1,2.1,0,0,0,0,1.87,1.42,1.42,0,0,0,.55.54,1.65,1.65,0,0,0,.72.17A1.61,1.61,0,0,0,122.15,181.9Z"/><path class="cls-20" d="M124.73,182.41a.36.36,0,0,1,.2-.66.32.32,0,0,1,.16,0,5,5,0,0,0,.58.2,3.16,3.16,0,0,0,.65.07c.66,0,1-.21,1-.64a.36.36,0,0,0-.23-.32,5.61,5.61,0,0,0-.75-.24,6,6,0,0,1-.88-.26,1.65,1.65,0,0,1-.6-.41,1,1,0,0,1-.24-.72,1.31,1.31,0,0,1,.45-1,1.94,1.94,0,0,1,1.3-.4,3.8,3.8,0,0,1,1.31.23.33.33,0,0,1,.19.14.37.37,0,0,1,.07.2.34.34,0,0,1-.11.25.31.31,0,0,1-.25.11.3.3,0,0,1-.12,0,3.74,3.74,0,0,0-1-.16,1.4,1.4,0,0,0-.76.18.52.52,0,0,0-.27.45.42.42,0,0,0,.25.4,4.1,4.1,0,0,0,.78.24,6.59,6.59,0,0,1,.87.27,1.34,1.34,0,0,1,.57.41,1.08,1.08,0,0,1,.24.74,1.19,1.19,0,0,1-.46,1,2,2,0,0,1-1.28.37A3.35,3.35,0,0,1,124.73,182.41Z"/><path class="cls-20" d="M129.44,181.63v-2.79h-.64a.17.17,0,0,1-.12-.05.21.21,0,0,1-.05-.13.21.21,0,0,1,.08-.15l1.22-1.19a.24.24,0,0,1,.16-.09.14.14,0,0,1,.12.06.21.21,0,0,1,0,.12v.72h1a.37.37,0,0,1,.25.1.38.38,0,0,1,.1.26.37.37,0,0,1-.1.24.34.34,0,0,1-.25.11h-1v2.71c0,.24.05.39.17.45a.86.86,0,0,0,.41.09,1.12,1.12,0,0,0,.36-.05l.08,0h.1a.3.3,0,0,1,.23.1.29.29,0,0,1,.1.23.33.33,0,0,1-.21.31,1.71,1.71,0,0,1-.75.16C129.88,182.81,129.44,182.42,129.44,181.63Z"/><g id="layer1"><path id="path3611" class="cls-21" d="M109.86,207.44a9.22,9.22,0,0,0,9.28-9.28c0-.14,0-.28,0-.42a6.51,6.51,0,0,0,1.62-1.69,6.48,6.48,0,0,1-1.87.52,3.32,3.32,0,0,0,1.44-1.81,6.26,6.26,0,0,1-2.07.79,3.26,3.26,0,0,0-5.64,2.23,3.08,3.08,0,0,0,.08.75,9.29,9.29,0,0,1-6.72-3.41,3.26,3.26,0,0,0,1,4.35,3.2,3.2,0,0,1-1.48-.4v0a3.26,3.26,0,0,0,2.62,3.19,3.13,3.13,0,0,1-.86.12,3.18,3.18,0,0,1-.62-.06,3.25,3.25,0,0,0,3,2.26,6.52,6.52,0,0,1-4,1.4,6.81,6.81,0,0,1-.78-.05,9.22,9.22,0,0,0,5,1.47"/></g><path id="Blue" class="cls-21" d="M75.1,208.93a.88.88,0,0,0,.87-.88V193.91a.87.87,0,0,0-.87-.87H61a.87.87,0,0,0-.88.87v14.14a.88.88,0,0,0,.88.88Z"/><path id="f" class="cls-12" d="M71.05,208.93v-6.16h2.06l.31-2.39H71.05v-1.54c0-.69.19-1.16,1.18-1.16H73.5v-2.15a17.14,17.14,0,0,0-1.85-.09,2.88,2.88,0,0,0-3.08,3.17v1.77H66.5v2.39h2.07v6.16Z"/><path class="cls-21" d="M97.19,193H83.64a1.16,1.16,0,0,0-1.17,1.14v13.6a1.17,1.17,0,0,0,1.17,1.15H97.19a1.16,1.16,0,0,0,1.17-1.15v-13.6A1.15,1.15,0,0,0,97.19,193Z"/><path class="cls-12" d="M84.83,199h2.36v7.59H84.83ZM86,195.22a1.37,1.37,0,1,1-1.37,1.37A1.37,1.37,0,0,1,86,195.22"/><path class="cls-12" d="M88.66,199h2.26v1h0a2.46,2.46,0,0,1,2.23-1.22c2.38,0,2.82,1.57,2.82,3.61v4.16H93.66v-3.69c0-.88,0-2-1.23-2s-1.41,1-1.41,2v3.75H88.66Z"/><path class="cls-21" d="M143.1,198.17a5.72,5.72,0,0,0-.37-1.92,4.09,4.09,0,0,0-2.33-2.33,6,6,0,0,0-1.92-.37c-.85,0-1.12-.05-3.28-.05s-2.43,0-3.28.05a6,6,0,0,0-1.92.37,3.87,3.87,0,0,0-1.41.92,3.79,3.79,0,0,0-.92,1.41,6,6,0,0,0-.37,1.92c0,.85,0,1.12,0,3.28s0,2.43,0,3.28a6,6,0,0,0,.37,1.92A4.09,4.09,0,0,0,130,209a6,6,0,0,0,1.92.37c.85,0,1.12.05,3.28.05s2.43,0,3.28-.05a6,6,0,0,0,1.92-.37,4.05,4.05,0,0,0,2.33-2.33,5.72,5.72,0,0,0,.37-1.92c0-.85.05-1.12.05-3.28S143.14,199,143.1,198.17Zm-1.43,6.49a4.44,4.44,0,0,1-.28,1.48,2.58,2.58,0,0,1-1.5,1.5,4.44,4.44,0,0,1-1.48.28c-.84,0-1.09,0-3.21,0s-2.37,0-3.21,0a4.44,4.44,0,0,1-1.48-.28,2.6,2.6,0,0,1-1.5-1.5,4.44,4.44,0,0,1-.28-1.48c0-.84,0-1.09,0-3.21s0-2.37,0-3.21a4.44,4.44,0,0,1,.28-1.48,2.6,2.6,0,0,1,1.5-1.5A4.44,4.44,0,0,1,132,195c.84,0,1.09,0,3.21,0h0c2.12,0,2.37,0,3.21,0a4.44,4.44,0,0,1,1.48.28,2.6,2.6,0,0,1,1.5,1.5,4.44,4.44,0,0,1,.28,1.48c0,.84,0,1.09,0,3.21S141.71,203.82,141.67,204.66Z"/><polygon class="cls-21" points="135.2 193.5 135.2 193.5 135.2 193.5 135.2 193.5"/><path class="cls-21" d="M135.2,197.37a4.08,4.08,0,1,0,4.08,4.08A4.08,4.08,0,0,0,135.2,197.37Zm0,6.73a2.65,2.65,0,1,1,2.65-2.65A2.65,2.65,0,0,1,135.2,204.1Z"/><circle class="cls-21" cx="139.44" cy="197.21" r="0.95"/><ellipse class="cls-22" cx="361.91" cy="252.83" rx="35.53" ry="4.9"/></g></g></g></svg>