<svg xmlns="http://www.w3.org/2000/svg" xmlns:xlink="http://www.w3.org/1999/xlink" width="389.817" height="290.44"><style><![CDATA[.B{fill:#58595b}.C{fill:#81d5ff}.D{fill:#b3e5ff}]]></style><defs><radialGradient id="A" cx="194.909" cy="145.22" r="361.437" gradientTransform="matrix(-1, 0, 0, 1, 389.8169, 0)" gradientUnits="userSpaceOnUse"><stop offset="0" stop-color="#4dc4ff"/><stop offset="1" stop-color="#0c89db"/></radialGradient><radialGradient id="B" cx="115.103" cy="92.096" r="132.876" gradientTransform="translate(157.6114)" gradientUnits="userSpaceOnUse"><stop offset="0" stop-color="#e1f5ff"/><stop offset="1" stop-color="#b3e5ff"/></radialGradient><radialGradient id="C" cx="104.959" cy="201.335" r="140.439" gradientTransform="translate(177.8992)" xlink:href="#B"/><radialGradient id="D" cx="141.965" cy="88.98" r="125.808" gradientTransform="matrix(1, 0, 0, 1, 0, 0)" xlink:href="#B"/><radialGradient id="E" cx="176.849" cy="137.198" r="171.422" gradientTransform="translate(3 2) translate(33.6021)" gradientUnits="userSpaceOnUse"><stop offset="0" stop-color="#f7e5ff"/><stop offset="1" stop-color="#e6b3ff"/></radialGradient><path id="F" d="M92.538 261.86c9.077-10.56 28.234-35.902 30.04-70.407.433-8.27 2.368-26.464-7.187-43.506-3.843-6.855-10.237-14.748-20.975-18.453-12.314-4.248-27.236.314-34.734 9.857-3.9 4.95-6.625 9.625-7.4 21.338-1.535 23.15 2.362 24.775-.108 41.56-1.424 9.675-3.233 21-11.735 31.448a49.501 49.501 0 0 1-13.143 11.265 9.643 9.643 0 0 0 4.225 5.633c4.748 2.705 9.505-6.366 17.367-4.84 11.845 2.298 4.758 10.246 14.316 11.412 9.622 1.173 9.27-6.395 17.367-5.926 10.225.593 11.1 8.422 11.97 10.62z"/><path id="G" d="M213.45 75.336a19.303 19.303 0 0 1 8.52-5.781c8.865-2.908 16.615 2.195 18.257 3.347a23.381 23.381 0 0 1 8.969 13.16l-.004-.01a16.257 16.257 0 0 1 4.119-.979c10.357-1.052 18.556 8.852 20.996 17.344 2.523 8.782-1.015 16.376-2.13 18.56 1.524.88 10.24 6.103 12.476 16.736.43 2.043 2.956 14.062-5.477 20.69a16.574 16.574 0 0 1-6.656 3.116l-.001-.003a21.414 21.414 0 0 1 6.048 16.057c-.053 1.338-.653 11.872-9.737 17.344a21.106 21.106 0 0 1-15.823 2.13 14.894 14.894 0 0 1-3.347 7.303c-6.152 7-19.707 7.1-27.994.61-7.832-6.144-8.2-16.03-8.216-18.257-.015 2.228-.383 12.113-8.215 18.257-8.287 6.502-21.842 6.392-27.994-.61a14.894 14.894 0 0 1-3.347-7.303 21.106 21.106 0 0 1-15.823-2.13c-9.084-5.472-9.684-16.006-9.737-17.344a21.414 21.414 0 0 1 6.048-16.057l-.001.003a16.574 16.574 0 0 1-6.656-3.116c-8.434-6.63-5.907-18.648-5.477-20.69 2.236-10.633 10.952-15.856 12.476-16.736-1.115-2.185-4.653-9.78-2.13-18.56 2.44-8.493 10.64-18.396 20.996-17.344a16.257 16.257 0 0 1 4.119.979l-.004.01a23.381 23.381 0 0 1 8.969-13.16c1.642-1.152 9.392-6.255 18.257-3.347a19.304 19.304 0 0 1 8.52 5.781z"/></defs><path d="M205.183 256.165c59.34.596 72.466 32.753 113.86 20.093 40.157-12.28 75.16-57.028 70.325-92.93-4.032-29.936-32.924-32.646-42.697-72.837-8.06-33.152 8.246-45.086-1.675-66.977C328.854 7.895 269.012 2.717 247.044.817 157.66-6.918 91.62 42.737 86.3 46.863c-11.863 9.202-102.62 79.6-83.72 163.256 5.99 26.52 25.388 64.935 60.28 77.023 46.315 16.046 69.688-31.707 142.325-30.977z" fill="url(#A)"/><use xlink:href="#F" opacity=".15" style="mix-blend-mode:darken" class="B"/><use xlink:href="#F" x="4" y="-2" fill="#fff" opacity=".95"/><path d="M113.8 180.947a1.161 1.161 0 0 0 1.053-1.648l-7.306-15.804a1.161 1.161 0 0 0-2.107.975l7.306 15.804a1.162 1.162 0 0 0 1.055.674z" class="B"/><circle cx="102.005" cy="154.273" r="10.691" transform="matrix(.962018 -.272987 .272987 .962018 -38.2401 33.7056)" fill="#fff"/><g class="B"><path d="M98.143 164.776a11.119 11.119 0 0 1-6.296-5.807 11.225 11.225 0 1 1 6.296 5.807zm-.414-19.754a10.121 10.121 0 1 0 4.269-.946 10.204 10.204 0 0 0-4.269.946zM92.29 158.76z"/><circle cx="81.258" cy="155.482" r="3.839"/><circle cx="102.555" cy="154.099" r="5.183"/><ellipse cx="92.381" cy="166.924" rx="3.15" ry="3.839" transform="matrix(.994783 -.102015 .102015 .994783 -16.5468 10.2951)"/></g><g opacity=".9"><path d="M62.322 192.236s6.337 6.14 10.43 8.835c3.58 2.357 7.5 1.808 8.4-1.04s-4.04-7.757-7.25-10.984a38.821 38.821 0 0 0-4.732-4.265" fill="#fff"/><path d="M77.23 203.05a5.59 5.59 0 0 0 1.872-.307 3.957 3.957 0 0 0 2.525-2.565c.976-3.092-3.76-7.853-7.216-11.33l-.155-.155a38.876 38.876 0 0 0-4.805-4.325l-.564.826a39.078 39.078 0 0 1 4.659 4.204l.154.155c2.904 2.922 7.766 7.81 6.973 10.325a2.943 2.943 0 0 1-1.907 1.923 6.84 6.84 0 0 1-5.74-1.148c-4.007-2.64-10.293-8.715-10.356-8.776l-.695.72c.26.252 6.417 6.203 10.5 8.894a8.829 8.829 0 0 0 4.754 1.562z" fill="#a6a8ab"/></g><g opacity=".9"><path d="M125.323 184.33a94.643 94.643 0 0 0-6.543-6.991c-3.89-3.76-6.393-5.545-8.52-3.064s-.038 5.134 2.886 9.152 7.857 10.237 7.857 10.237" fill="#fff"/><path d="M120.612 193.973l.783-.62c-.05-.062-4.96-6.258-7.844-10.22l-.324-.445c-2.954-4.05-4.3-6.087-2.586-8.087a2.392 2.392 0 0 1 1.698-.97l.098-.002c1.48 0 3.4 1.562 5.995 4.07 3.748 3.62 6.478 6.917 6.505 6.95l.772-.637a95.968 95.968 0 0 0-6.581-7.032c-2.917-2.818-4.977-4.41-6.835-4.348a3.331 3.331 0 0 0-2.411 1.318c-2.303 2.7-.273 5.473 2.537 9.326l.324.444c2.897 3.98 7.82 10.192 7.87 10.254z" fill="#a6a8ab"/></g><path d="M245.593 52.674h58.243a2.887 2.887 0 0 1 2.886 2.886v77.07a2.886 2.886 0 0 1-2.886 2.886h-58.243a2.886 2.886 0 0 1-2.886-2.886V55.56a2.886 2.886 0 0 1 2.886-2.886z" opacity=".1" style="mix-blend-mode:darken" class="B"/><path d="M243.593 50.674h58.243a2.887 2.887 0 0 1 2.886 2.886v77.07a2.886 2.886 0 0 1-2.886 2.886h-58.243a2.886 2.886 0 0 1-2.886-2.886V53.56a2.886 2.886 0 0 1 2.886-2.886z" fill="url(#B)"/><rect x="246.478" y="59.486" width="16.049" height="16.049" rx="2.075" class="C"/><path d="M268.27 59.486h30.704v4.567H268.27zm0 11.482h30.704v4.567H268.27zm-21.792 11.374h52.497v4.567h-52.497zm0 11.483h52.497v4.567h-52.497z" class="D"/><rect x="259.178" y="116.695" width="27.097" height="7.75" rx="1.043" class="C"/><path d="M246.478 105.307h44.103v4.567h-44.103z" class="D"/><path d="M266.838 122.833a.271.271 0 0 1-.081-.199v-3.8a.284.284 0 0 1 .081-.202.266.266 0 0 1 .199-.084h1.42a2.043 2.043 0 0 1 .965.199 1.229 1.229 0 0 1 .535.511 1.474 1.474 0 0 1 0 1.344 1.229 1.229 0 0 1-.535.511 2.043 2.043 0 0 1-.965.199h-1.133v1.332a.266.266 0 0 1-.084.199.281.281 0 0 1-.202.081.271.271 0 0 1-.199-.081zm1.563-2.066a1.293 1.293 0 0 0 .893-.243.833.833 0 0 0 0-1.207 1.293 1.293 0 0 0-.893-.243h-1.077v1.693zm2.9 1.973a1.397 1.397 0 0 1-.557-.582 1.99 1.99 0 0 1 0-1.724 1.398 1.398 0 0 1 .557-.582 1.811 1.811 0 0 1 1.674 0 1.413 1.413 0 0 1 .561.582 1.964 1.964 0 0 1 0 1.724 1.412 1.412 0 0 1-.561.582 1.81 1.81 0 0 1-1.674 0zm1.33-.43a.948.948 0 0 0 .386-.373 1.247 1.247 0 0 0 .152-.647 1.233 1.233 0 0 0-.152-.641.928.928 0 0 0-.386-.37 1.107 1.107 0 0 0-.983 0 .905.905 0 0 0-.383.37 1.252 1.252 0 0 0-.149.641 1.266 1.266 0 0 0 .149.647.924.924 0 0 0 .383.373 1.075 1.075 0 0 0 .983 0zm1.8.355a.238.238 0 0 1-.106-.206.248.248 0 0 1 .068-.174.226.226 0 0 1 .174-.075.272.272 0 0 1 .112.025 2.557 2.557 0 0 0 .398.137 1.851 1.851 0 0 0 .448.05q.7 0 .7-.44a.235.235 0 0 0-.158-.218 3.207 3.207 0 0 0-.519-.168 4.898 4.898 0 0 1-.607-.181 1.072 1.072 0 0 1-.41-.283.721.721 0 0 1-.172-.501.899.899 0 0 1 .314-.71 1.33 1.33 0 0 1 .899-.273 2.6 2.6 0 0 1 .902.155.232.232 0 0 1 .134.094.246.246 0 0 1-.025.317.237.237 0 0 1-.178.074.329.329 0 0 1-.081-.013 2.395 2.395 0 0 0-.709-.111.972.972 0 0 0-.526.121.361.361 0 0 0-.19.314.287.287 0 0 0 .174.273 2.448 2.448 0 0 0 .542.168 5.371 5.371 0 0 1 .597.184.991.991 0 0 1 .396.283.767.767 0 0 1 .165.517.823.823 0 0 1-.315.66 1.35 1.35 0 0 1-.887.261 2.316 2.316 0 0 1-1.132-.279zm3.254-.542v-1.93h-.442a.118.118 0 0 1-.118-.119.131.131 0 0 1 .056-.105l.847-.828a.156.156 0 0 1 .106-.056.114.114 0 0 1 .084.037.129.129 0 0 1 .034.088v.497h.703a.245.245 0 0 1 .174.414.231.231 0 0 1-.174.072h-.703v1.88c0 .162.038.265.115.3a.583.583 0 0 0 .289.066.847.847 0 0 0 .249-.038l.053-.012a.293.293 0 0 1 .071-.007.223.223 0 0 1 .156.065.215.215 0 0 1 .068.159.236.236 0 0 1-.144.218 1.226 1.226 0 0 1-.517.111q-.908 0-.908-.82z" fill="#fff"/><rect x="238.979" y="171.783" width="91.758" height="63.105" rx="2.886" opacity=".1" style="mix-blend-mode:darken" class="B"/><rect x="236.979" y="169.783" width="91.758" height="63.105" rx="2.886" fill="url(#C)"/><path d="M319.388 225.297h-73.6v-31.25h1.286v29.964h72.314v1.285z" class="C"/><path d="M255.637 176.27h54.444v5.46h-54.444zm40.263 9.318h14.13v5.46H295.9z" class="D"/><path d="M257 224.655v-8.42h5.46v8.42zm11.9 0v-12.722h5.46v12.722zm11.9 0v-10.78h5.46v10.78zm11.9 0v-16.84h5.46v16.84zm11.9 0v-22.92h5.46v22.92z" class="C"/><g class="B"><ellipse cx="68.554" cy="267.299" rx="28.818" ry="4.9" style="mix-blend-mode:overlay"/><rect x="109.261" y="67.113" width="69.408" height="47.734" rx="2.886" opacity=".1" style="mix-blend-mode:darken"/></g><rect x="107.261" y="65.113" width="69.408" height="47.734" rx="2.886" fill="url(#D)"/><g class="C"><circle cx="111.464" cy="69.396" r="1.065"/><circle cx="114.765" cy="69.396" r="1.065"/><circle cx="118.058" cy="69.396" r="1.065"/><path d="M107.26 73.322h69.408v1H107.26z"/></g><path d="M119.567 82.068h44.795v3.578h-44.795zm0 8.995h44.795v3.578h-44.795zm0 8.997h26.376v3.578h-26.376z" class="D"/><use xlink:href="#G" opacity=".1" style="mix-blend-mode:darken" class="B"/><use xlink:href="#G" x="-3" y="-2" fill="url(#E)"/><g fill="#d580ff"><path d="M269.632 119.206l-.9-.455c1.75-3.43 4.35-10.353 2.095-18.196-2.2-7.7-10.034-18.034-20.465-16.985-6.203.63-11.877 5.066-14.8 11.575l-.912-.4c3.078-6.835 9.063-11.494 15.62-12.16 11.033-1.135 19.223 9.68 21.527 17.704 2.35 8.173-.35 15.366-2.165 18.927zm-14.147 77.026a22.649 22.649 0 0 1-5.594-.697l.252-.97a20.428 20.428 0 0 0 15.438-2.074c8.608-5.184 9.42-15.017 9.495-16.936a20.901 20.901 0 0 0-5.901-15.684l.707-.707a21.912 21.912 0 0 1 6.194 16.43c-.08 2-.933 12.305-9.98 17.754a20.39 20.39 0 0 1-10.612 2.882z"/><path d="M245.72 84.187a22.722 22.722 0 0 0-8.772-12.876c-2.078-1.46-9.506-6-17.814-3.28a18.748 18.748 0 0 0-8.298 5.633l-.758-.654a19.758 19.758 0 0 1 8.743-5.929c8.752-2.87 16.525 1.887 18.7 3.413a23.724 23.724 0 0 1 9.166 13.444zm19.723 76.287a21.765 21.765 0 0 1-11.43-3.339l.527-.85c7.02 4.354 15.592 4.24 21.336-.273 7.392-5.8 6.167-16.06 5.297-20.195-2.074-9.865-9.9-15.05-12.236-16.405l.5-.865c2.436 1.406 10.556 6.794 12.715 17.065.908 4.32 2.176 15.03-5.658 21.188a17.772 17.772 0 0 1-11.05 3.675zm-32.437 47.71a23.987 23.987 0 0 1-14.64-4.828c-7.728-6.06-8.4-15.805-8.407-18.647a26.311 26.311 0 0 1 5.582-16.133l.8.613a25.311 25.311 0 0 0-5.371 15.514c.018 2.728.65 12.08 8.024 17.866 8.163 6.405 21.435 6.14 27.3-.545a14.274 14.274 0 0 0 3.231-7.06l.984.176a15.263 15.263 0 0 1-3.464 7.545c-3.2 3.652-8.5 5.5-14.04 5.5z"/><path d="M209.96 73.335h1v111.37h-1zm37.14 66.648c-1.318-.892-7.937-5.783-8.737-14.57-1.005-11.025 7.94-17.62 8.32-17.895l.586.8c-.362.262-8.863 6.53-7.9 16.995.76 8.336 7.05 12.983 8.302 13.83z"/><path d="M256.453 171.306a28.517 28.517 0 0 1-22.298-15.279l.9-.46a27.519 27.519 0 0 0 21.519 14.744zM238.54 121a15.987 15.987 0 0 0-4.874-7.514 16.175 16.175 0 0 0-9.935-3.836l.033-1a17.183 17.183 0 0 1 10.554 4.077 16.984 16.984 0 0 1 5.18 7.983z"/><path d="M234.003 191.47a31.075 31.075 0 0 1 2.889-18.556 29.786 29.786 0 0 1 5.674-7.737l.7.713a28.746 28.746 0 0 0-5.482 7.478 30.056 30.056 0 0 0-2.791 17.958zm-82.725-72.264c-1.816-3.56-4.514-10.754-2.165-18.927 2.305-8.026 10.518-18.834 21.526-17.704a16.797 16.797 0 0 1 4.246 1.009l-.355.936a15.801 15.801 0 0 0-3.992-.95c-10.46-1.064-18.255 9.294-20.464 16.985-2.254 7.844.345 14.768 2.095 18.196z"/><path d="M165.426 196.232a20.394 20.394 0 0 1-10.613-2.883c-9.046-5.45-9.9-15.745-9.978-17.754a21.897 21.897 0 0 1 6.194-16.43l.707.707a20.887 20.887 0 0 0-5.901 15.684c.075 1.92.888 11.752 9.494 16.935a20.422 20.422 0 0 0 15.44 2.074l.25.97a22.688 22.688 0 0 1-5.592.697zM175.2 84.187l-.97-.25a23.725 23.725 0 0 1 9.166-13.444c2.174-1.526 9.947-6.28 18.7-3.414a19.751 19.751 0 0 1 8.742 5.931l-.758.652a18.753 18.753 0 0 0-8.297-5.633c-8.3-2.724-15.734 1.823-17.814 3.282a22.723 22.723 0 0 0-8.771 12.876z"/><path d="M151.272 160a16.99 16.99 0 0 1-6.856-3.211c-7.833-6.157-6.565-16.868-5.657-21.187 2.16-10.272 10.278-15.66 12.715-17.065l.5.865c-2.346 1.355-10.162 6.54-12.236 16.405-.87 4.137-2.096 14.386 5.296 20.195a15.98 15.98 0 0 0 6.457 3.022zm36.632 48.184c-5.54 0-10.828-1.848-14.04-5.5a15.245 15.245 0 0 1-3.464-7.546l.984-.174a14.264 14.264 0 0 0 3.232 7.059c5.873 6.684 19.144 6.95 27.3.545 7.374-5.784 8.006-15.138 8.024-17.866l1 .006c-.02 2.843-.68 12.587-8.406 18.647a23.99 23.99 0 0 1-14.64 4.829z"/><path d="M151.56 118.48h41.708v1H151.56z"/><path d="M193.767 145.807h-1V84.562h-18.062v-1h19.062v62.245z"/><path d="M193.267 130.067h10.498v1h-10.498zm-4.217 57.68h-1v-26.06h15.714v1H189.05v25.06z"/><path d="M173.9 161.687h14.64v1H173.9zm-10.013-15.88h-1v-15.74h11.308V118.98h1v12.088h-11.308v14.74z"/><path d="M163.897 160.02H151.56v-1h11.338v-13.212h1v14.212zm1.267-41.04h-1v-18.5h10.544v1h-9.544v17.5zm6.39 76.07h-1v-19.583h-7.156v-1h8.156v20.583z"/></g><g fill="#7700b3"><circle cx="174.705" cy="84.062" r="3.651"/><circle cx="193.267" cy="101.52" r="3.651"/><circle cx="173.911" cy="162.187" r="3.651"/><circle cx="151.559" cy="118.979" r="3.651"/><circle cx="203.765" cy="130.567" r="3.651"/><circle cx="193.267" cy="145.807" r="3.651"/><circle cx="203.765" cy="162.187" r="3.651"/><circle cx="151.559" cy="159.519" r="3.651"/><circle cx="171.053" cy="195.05" r="3.651"/><circle cx="188.551" cy="187.747" r="3.651"/><circle cx="163.396" cy="145.807" r="3.651"/><circle cx="173.911" cy="100.987" r="3.651"/><circle cx="163.396" cy="174.967" r="3.651"/></g></svg>