<svg xmlns="http://www.w3.org/2000/svg" xmlns:xlink="http://www.w3.org/1999/xlink" viewBox="0 0 361.02 249.95"><defs><style>.cls-1{isolation:isolate;}.cls-2{fill:url(#radial-gradient);}.cls-15,.cls-3,.cls-4,.cls-5{fill:#58595b;}.cls-3{opacity:0.75;mix-blend-mode:overlay;}.cls-4{opacity:0.15;}.cls-4,.cls-5{mix-blend-mode:darken;}.cls-5{opacity:0.1;}.cls-6{fill:url(#radial-gradient-2);}.cls-7{fill:#d580ff;}.cls-8{fill:#e6b3ff;}.cls-9{fill:#7700b3;}.cls-10{fill:url(#radial-gradient-3);}.cls-11{fill:#b3e5ff;}.cls-12{fill:#81d5ff;}.cls-13{fill:url(#radial-gradient-4);}.cls-14,.cls-17{fill:#fff;}.cls-14{opacity:0.95;}.cls-16{opacity:0.9;}.cls-18{fill:#a6a8ab;}</style><radialGradient id="radial-gradient" cx="180.51" cy="124.98" r="289.95" gradientTransform="matrix(-1, 0, 0, 1, 361.02, 0)" gradientUnits="userSpaceOnUse"><stop offset="0" stop-color="#4dc4ff"/><stop offset="1" stop-color="#0c89db"/></radialGradient><radialGradient id="radial-gradient-2" cx="204.5" cy="118.3" r="230.42" gradientTransform="translate(-47.97)" gradientUnits="userSpaceOnUse"><stop offset="0" stop-color="#f7e5ff"/><stop offset="1" stop-color="#e6b3ff"/></radialGradient><radialGradient id="radial-gradient-3" cx="285.49" cy="121.07" r="85.82" gradientTransform="translate(-209.95)" gradientUnits="userSpaceOnUse"><stop offset="0" stop-color="#e1f5ff"/><stop offset="1" stop-color="#b3e5ff"/></radialGradient><radialGradient id="radial-gradient-4" cx="286.55" cy="188.46" r="88.85" gradientTransform="translate(-212.08)" xlink:href="#radial-gradient-3"/></defs><title>Asset 24</title><g class="cls-1"><g id="Layer_2" data-name="Layer 2"><g id="Background"><path class="cls-2" d="M72.76,26.67C58.19,35.16,15.35,60.13,3.27,109.55c-13.61,55.71,17,121.58,60.28,137.3,37.7,13.68,52.07-22.59,117.21-18.42,51,3.27,65.83,27,107.16,17.58,7.29-1.66,42.51-10.54,61.12-40.18,27.35-43.59,3-106.91-24.28-141.49C268-7.63,149-17.78,72.76,26.67Z"/></g><g id="Linework"><ellipse class="cls-3" cx="284.34" cy="226.7" rx="30.8" ry="4.9"/><path class="cls-4" d="M260.79,220c-9.39-10.91-29.19-37.12-31.06-72.79-.45-8.55-2.45-27.36,7.43-45,4-7.08,10.59-15.25,21.69-19.08,12.73-4.39,28.16.33,35.91,10.2,4,5.11,6.18,10,7.65,22.06,2.58,21.18-2.44,25.61.11,43,1.47,10,3.34,21.72,12.13,32.52a51.29,51.29,0,0,0,13.59,11.64,10,10,0,0,1-4.37,5.83c-4.9,2.79-9.82-6.59-17.95-5-12.25,2.38-4.92,10.59-14.8,11.8s-9.59-6.61-18-6.13C262.59,209.59,261.7,217.68,260.79,220Z"/><rect class="cls-5" x="98.51" y="48.77" width="122.04" height="143.06" rx="2.76" transform="translate(319.05 240.61) rotate(-180)"/><rect class="cls-6" x="95.51" y="46.77" width="122.04" height="143.06" rx="2.76"/><rect class="cls-7" x="112.86" y="84.51" width="14.51" height="14.51" rx="1.06"/><rect class="cls-8" x="130.91" y="84.51" width="68.99" height="4.25"/><rect class="cls-8" x="130.91" y="94.77" width="51.98" height="4.25"/><path class="cls-9" d="M113.24,61.8a.38.38,0,0,1-.12-.29V56.14a.61.61,0,0,1,.17-.42.57.57,0,0,1,.42-.17h.3a.53.53,0,0,1,.32.1.58.58,0,0,1,.22.27l2,5.1,2-5.1a.64.64,0,0,1,.22-.27.56.56,0,0,1,.33-.1h.3a.53.53,0,0,1,.41.17.61.61,0,0,1,.17.42v5.37a.38.38,0,0,1-.12.29.36.36,0,0,1-.28.12.41.41,0,0,1-.3-.12.38.38,0,0,1-.12-.29V56.4l-2.08,5.14a.54.54,0,0,1-.23.27.6.6,0,0,1-.34.11.63.63,0,0,1-.35-.11.67.67,0,0,1-.23-.27l-2.08-5.14v5.11a.38.38,0,0,1-.12.29.4.4,0,0,1-.29.12A.38.38,0,0,1,113.24,61.8Z"/><path class="cls-9" d="M122.09,61.8a1.34,1.34,0,0,1-.53-.47,1.26,1.26,0,0,1-.2-.72,1.24,1.24,0,0,1,.53-1.06,2.55,2.55,0,0,1,1.54-.4h1.09v-.07a1.07,1.07,0,0,0-.3-.85,1.29,1.29,0,0,0-.91-.26,2.84,2.84,0,0,0-.61.05c-.17,0-.37.09-.59.16l-.11,0a.33.33,0,0,1-.24-.1.35.35,0,0,1-.1-.24.34.34,0,0,1,.24-.34,3.9,3.9,0,0,1,1.56-.33,2.08,2.08,0,0,1,1,.25,1.53,1.53,0,0,1,.63.66,1.81,1.81,0,0,1,.21.87v2.54a.38.38,0,0,1-.12.29.42.42,0,0,1-.3.12.36.36,0,0,1-.28-.12.38.38,0,0,1-.12-.29v-.23a2.29,2.29,0,0,1-1.69.68A1.67,1.67,0,0,1,122.09,61.8Zm1.81-.75a2.29,2.29,0,0,0,.62-.48v-.76h-1c-.91,0-1.36.24-1.36.71a.65.65,0,0,0,.22.52,1,1,0,0,0,.73.2A1.62,1.62,0,0,0,123.9,61.05Z"/><path class="cls-9" d="M126.83,61.8a.38.38,0,0,1-.12-.29V57.65a.4.4,0,0,1,.12-.29.38.38,0,0,1,.29-.12.41.41,0,0,1,.41.41V58a1.76,1.76,0,0,1,1.42-.85h0a.36.36,0,0,1,.28.12.38.38,0,0,1,.12.29.38.38,0,0,1-.12.28.44.44,0,0,1-.3.1h0a1.54,1.54,0,0,0-.79.22,1.69,1.69,0,0,0-.61.58v2.73a.38.38,0,0,1-.12.29.4.4,0,0,1-.29.12A.38.38,0,0,1,126.83,61.8Z"/><path class="cls-9" d="M130.28,61.8a.38.38,0,0,1-.12-.29V55.67a.4.4,0,0,1,.12-.29.38.38,0,0,1,.29-.12.41.41,0,0,1,.41.41v3.68l2.14-2a.41.41,0,0,1,.27-.12.35.35,0,0,1,.3.12.4.4,0,0,1,.1.28.45.45,0,0,1-.16.31l-1.29,1.16L134,61.28a.4.4,0,0,1,.09.24.37.37,0,0,1-.12.29.44.44,0,0,1-.3.11.41.41,0,0,1-.18-.05.44.44,0,0,1-.15-.12l-1.55-2.11-.78.71v1.16a.38.38,0,0,1-.12.29.4.4,0,0,1-.29.12A.38.38,0,0,1,130.28,61.8Z"/><path class="cls-9" d="M135.32,61.34a2.42,2.42,0,0,1-.62-1.76,2.86,2.86,0,0,1,.24-1.18,2,2,0,0,1,1.92-1.21,2.17,2.17,0,0,1,1.15.31,2.11,2.11,0,0,1,.74.83,2.67,2.67,0,0,1,.25,1.13.44.44,0,0,1-.11.29.41.41,0,0,1-.31.12h-3.05a1.52,1.52,0,0,0,.47,1,1.62,1.62,0,0,0,1.11.35,3.18,3.18,0,0,0,.66-.07,2.83,2.83,0,0,0,.55-.21.32.32,0,0,1,.16,0,.37.37,0,0,1,.26.1.34.34,0,0,1,.11.25.39.39,0,0,1-.24.34,2.9,2.9,0,0,1-.69.29,3.09,3.09,0,0,1-.88.1A2.32,2.32,0,0,1,135.32,61.34Zm2.87-2.14a1.51,1.51,0,0,0-.23-.74,1.31,1.31,0,0,0-.5-.44,1.47,1.47,0,0,0-1.21,0,1.28,1.28,0,0,0-.49.44,1.51,1.51,0,0,0-.23.74Z"/><path class="cls-9" d="M140.35,60.77V58h-.64a.13.13,0,0,1-.12,0,.17.17,0,0,1-.05-.12.19.19,0,0,1,.08-.15l1.22-1.2a.27.27,0,0,1,.16-.08.16.16,0,0,1,.12.06.17.17,0,0,1,0,.12v.72h1a.34.34,0,0,1,.26.1.36.36,0,0,1,0,.5.34.34,0,0,1-.26.1h-1V60.7c0,.24.05.38.16.45a.87.87,0,0,0,.42.09,1.49,1.49,0,0,0,.36-.05l.08,0h.1a.34.34,0,0,1,.33.32.34.34,0,0,1-.21.32,1.71,1.71,0,0,1-.75.16C140.79,62,140.35,61.57,140.35,60.77Z"/><path class="cls-9" d="M143.58,56.21a.45.45,0,0,1-.14-.32v0a.43.43,0,0,1,.14-.32.45.45,0,0,1,.32-.14H144a.45.45,0,0,1,.32.14.43.43,0,0,1,.14.32v0a.48.48,0,0,1-.46.46h-.06A.45.45,0,0,1,143.58,56.21Zm0,5.59a.42.42,0,0,1-.11-.29V57.65a.44.44,0,0,1,.11-.29.4.4,0,0,1,.29-.12.44.44,0,0,1,.3.11.41.41,0,0,1,.12.3v3.86a.39.39,0,0,1-.13.29.41.41,0,0,1-.58,0Z"/><path class="cls-9" d="M145.87,61.8a.42.42,0,0,1-.11-.29V57.65a.44.44,0,0,1,.11-.29.4.4,0,0,1,.29-.12.38.38,0,0,1,.29.12.37.37,0,0,1,.13.29V58a2.92,2.92,0,0,1,.73-.6,1.9,1.9,0,0,1,.94-.23,1.52,1.52,0,0,1,.86.24,1.55,1.55,0,0,1,.56.63,2,2,0,0,1,.19.9v2.55a.38.38,0,0,1-.12.29.4.4,0,0,1-.29.12.41.41,0,0,1-.41-.41V59.05c0-.74-.33-1.1-1-1.1a1.44,1.44,0,0,0-.8.23,3,3,0,0,0-.67.63v2.7a.36.36,0,0,1-.13.29.38.38,0,0,1-.29.12A.4.4,0,0,1,145.87,61.8Z"/><path class="cls-9" d="M152.33,63.9a3.17,3.17,0,0,1-.88-.34.35.35,0,0,1-.16-.31.42.42,0,0,1,.1-.26.36.36,0,0,1,.26-.11.34.34,0,0,1,.16,0,3.39,3.39,0,0,0,1.49.34q1.38,0,1.38-1.47v-.6a2.06,2.06,0,0,1-1.54.68,2.22,2.22,0,0,1-1-.26,2.12,2.12,0,0,1-.83-.8,2.43,2.43,0,0,1-.32-1.28,2.45,2.45,0,0,1,.32-1.28,2.16,2.16,0,0,1,.83-.79,2.11,2.11,0,0,1,1-.27,2,2,0,0,1,1.54.69v-.23a.39.39,0,0,1,.11-.29.41.41,0,0,1,.7.29v4a2.56,2.56,0,0,1-.54,1.75,2,2,0,0,1-1.57.61A4.19,4.19,0,0,1,152.33,63.9ZM154.06,61a3.41,3.41,0,0,0,.62-.49V58.6a3,3,0,0,0-.62-.48,1.51,1.51,0,0,0-2.28,1.41,1.56,1.56,0,0,0,.43,1.19,1.53,1.53,0,0,0,1.1.41A1.66,1.66,0,0,0,154.06,61Z"/><path class="cls-9" d="M160.18,61.67a2.21,2.21,0,0,1-.87-.82,2.4,2.4,0,0,1-.33-1.27,2.38,2.38,0,0,1,.33-1.27,2.24,2.24,0,0,1,.87-.83,2.59,2.59,0,0,1,1.2-.29,2.49,2.49,0,0,1,.82.12,3.25,3.25,0,0,1,.65.31.37.37,0,0,1,.18.32.42.42,0,0,1-.1.25.34.34,0,0,1-.24.11.36.36,0,0,1-.2-.06A4.6,4.6,0,0,0,162,58a2,2,0,0,0-.53-.06,1.65,1.65,0,0,0-1.21.44,1.79,1.79,0,0,0,0,2.35,1.61,1.61,0,0,0,1.21.45,1.94,1.94,0,0,0,.53-.07,4.6,4.6,0,0,0,.51-.22.36.36,0,0,1,.2-.06.31.31,0,0,1,.24.12.39.39,0,0,1,.1.25.36.36,0,0,1-.18.31,2.78,2.78,0,0,1-.65.31,2.72,2.72,0,0,1-2-.17Z"/><path class="cls-9" d="M164.49,61.8a1.34,1.34,0,0,1-.53-.47,1.36,1.36,0,0,1,.32-1.78,2.58,2.58,0,0,1,1.55-.4h1.09v-.07a1.07,1.07,0,0,0-.3-.85,1.3,1.3,0,0,0-.91-.26,2.84,2.84,0,0,0-.61.05c-.17,0-.37.09-.59.16l-.11,0a.33.33,0,0,1-.24-.1.35.35,0,0,1-.1-.24.34.34,0,0,1,.24-.34,3.89,3.89,0,0,1,1.55-.33,2.09,2.09,0,0,1,1.05.25,1.53,1.53,0,0,1,.63.66,1.8,1.8,0,0,1,.2.87v2.54a.38.38,0,0,1-.12.29.41.41,0,0,1-.58,0,.42.42,0,0,1-.11-.29v-.23a2.3,2.3,0,0,1-1.7.68A1.66,1.66,0,0,1,164.49,61.8Zm1.81-.75a2.29,2.29,0,0,0,.62-.48v-.76h-1c-.9,0-1.35.24-1.35.71a.65.65,0,0,0,.22.52,1,1,0,0,0,.73.2A1.65,1.65,0,0,0,166.3,61.05Z"/><path class="cls-9" d="M169.23,61.8a.38.38,0,0,1-.12-.29V57.65a.4.4,0,0,1,.12-.29.38.38,0,0,1,.29-.12.41.41,0,0,1,.41.41V58a2.14,2.14,0,0,1,.61-.59,1.59,1.59,0,0,1,.92-.24,1.38,1.38,0,0,1,.86.27,1.5,1.5,0,0,1,.52.66,1.8,1.8,0,0,1,1.65-.93,1.45,1.45,0,0,1,.85.25,1.5,1.5,0,0,1,.49.65,2.16,2.16,0,0,1,.17.83v2.59a.38.38,0,0,1-.12.29.42.42,0,0,1-.3.12.4.4,0,0,1-.29-.12.42.42,0,0,1-.11-.29V59.08a1.43,1.43,0,0,0-.21-.86.84.84,0,0,0-.71-.27,1.17,1.17,0,0,0-.76.24,2.36,2.36,0,0,0-.54.62v2.7a.38.38,0,0,1-.12.29.41.41,0,0,1-.58,0,.38.38,0,0,1-.12-.29V59.08a1.44,1.44,0,0,0-.2-.86.85.85,0,0,0-.71-.27,1.17,1.17,0,0,0-.76.24,2.2,2.2,0,0,0-.54.62v2.7a.38.38,0,0,1-.12.29.4.4,0,0,1-.29.12A.38.38,0,0,1,169.23,61.8Z"/><path class="cls-9" d="M177.49,63.87a.42.42,0,0,1-.12-.3V57.64a.4.4,0,0,1,.12-.29.42.42,0,0,1,.29-.11.44.44,0,0,1,.29.11.4.4,0,0,1,.12.29v.24a2.06,2.06,0,0,1,1.54-.69,2.12,2.12,0,0,1,1.87,1.11,2.53,2.53,0,0,1,.31,1.28,2.49,2.49,0,0,1-.31,1.27,2.23,2.23,0,0,1-.81.83,2.11,2.11,0,0,1-2.6-.4v2.29a.44.44,0,0,1-.11.3.41.41,0,0,1-.3.12A.38.38,0,0,1,177.49,63.87Zm3.2-3.1a2,2,0,0,0,0-2.39,1.43,1.43,0,0,0-1.08-.42,1.71,1.71,0,0,0-.77.18,2.23,2.23,0,0,0-.65.49v1.89a2.07,2.07,0,0,0,.65.49,1.6,1.6,0,0,0,.77.19A1.4,1.4,0,0,0,180.69,60.77Z"/><path class="cls-9" d="M183.49,61.8a1.37,1.37,0,0,1-.54-.47,1.34,1.34,0,0,1-.19-.72,1.25,1.25,0,0,1,.52-1.06,2.58,2.58,0,0,1,1.55-.4h1.09v-.07a1.07,1.07,0,0,0-.3-.85,1.3,1.3,0,0,0-.91-.26,2.84,2.84,0,0,0-.61.05c-.18,0-.37.09-.59.16l-.12,0a.32.32,0,0,1-.23-.1.35.35,0,0,1-.1-.24.34.34,0,0,1,.24-.34,3.89,3.89,0,0,1,1.55-.33,2.09,2.09,0,0,1,1.05.25,1.53,1.53,0,0,1,.63.66,1.8,1.8,0,0,1,.2.87v2.54a.38.38,0,0,1-.12.29.41.41,0,0,1-.58,0,.38.38,0,0,1-.11-.29v-.23a2.3,2.3,0,0,1-1.7.68A1.63,1.63,0,0,1,183.49,61.8Zm1.8-.75a2.19,2.19,0,0,0,.63-.48v-.76h-1c-.9,0-1.35.24-1.35.71a.65.65,0,0,0,.22.52,1,1,0,0,0,.73.2A1.59,1.59,0,0,0,185.29,61.05Z"/><path class="cls-9" d="M188.17,56.21a.44.44,0,0,1-.13-.32v0a.42.42,0,0,1,.13-.32.45.45,0,0,1,.33-.14h.05a.45.45,0,0,1,.33.14.42.42,0,0,1,.13.32v0a.44.44,0,0,1-.13.32.45.45,0,0,1-.33.14h-.05A.45.45,0,0,1,188.17,56.21Zm.06,5.59a.38.38,0,0,1-.12-.29V57.65a.4.4,0,0,1,.12-.29.38.38,0,0,1,.29-.12.42.42,0,0,1,.29.11.41.41,0,0,1,.12.3v3.86a.38.38,0,0,1-.12.29.4.4,0,0,1-.29.12A.38.38,0,0,1,188.23,61.8Z"/><path class="cls-9" d="M191.44,63.9a3.22,3.22,0,0,1-.87-.34.33.33,0,0,1-.16-.31.37.37,0,0,1,.1-.26.35.35,0,0,1,.26-.11.37.37,0,0,1,.16,0,3.35,3.35,0,0,0,1.48.34q1.38,0,1.38-1.47v-.6a2.06,2.06,0,0,1-1.54.68,2.25,2.25,0,0,1-1-.26,2.1,2.1,0,0,1-.82-.8,2.34,2.34,0,0,1-.33-1.28,2.37,2.37,0,0,1,.33-1.28,2.18,2.18,0,0,1,1.85-1.06,2,2,0,0,1,1.54.69v-.23a.4.4,0,0,1,.12-.29.36.36,0,0,1,.28-.12.41.41,0,0,1,.3.12.4.4,0,0,1,.12.29v4a2.52,2.52,0,0,1-.55,1.75,2,2,0,0,1-1.57.61A4.31,4.31,0,0,1,191.44,63.9ZM193.17,61a3.1,3.1,0,0,0,.62-.49V58.6a2.73,2.73,0,0,0-.62-.48,1.51,1.51,0,0,0-2.28,1.41,1.56,1.56,0,0,0,.43,1.19,1.53,1.53,0,0,0,1.1.41A1.66,1.66,0,0,0,193.17,61Z"/><path class="cls-9" d="M196.15,61.8a.38.38,0,0,1-.12-.29V57.65a.4.4,0,0,1,.12-.29.38.38,0,0,1,.29-.12.41.41,0,0,1,.41.41V58a3,3,0,0,1,.74-.6,1.83,1.83,0,0,1,.93-.23,1.52,1.52,0,0,1,.86.24,1.49,1.49,0,0,1,.56.63,2,2,0,0,1,.2.9v2.55a.39.39,0,0,1-.13.29.41.41,0,0,1-.58,0,.38.38,0,0,1-.11-.29V59.05c0-.74-.33-1.1-1-1.1a1.5,1.5,0,0,0-.81.23,3,3,0,0,0-.67.63v2.7a.38.38,0,0,1-.12.29.4.4,0,0,1-.29.12A.38.38,0,0,1,196.15,61.8Z"/><rect class="cls-7" x="112.86" y="104.02" width="14.51" height="14.51" rx="1.06"/><rect class="cls-8" x="130.91" y="104.02" width="68.99" height="4.25"/><rect class="cls-8" x="130.91" y="114.28" width="25.99" height="4.25"/><path class="cls-9" d="M113.74,78.63a.36.36,0,0,1-.11-.26V73.52a.36.36,0,0,1,.11-.26.31.31,0,0,1,.25-.11h1.61a2.84,2.84,0,0,1,1.55.4,2.59,2.59,0,0,1,.95,1,3,3,0,0,1,0,2.68,2.59,2.59,0,0,1-.95,1,2.84,2.84,0,0,1-1.55.4H114A.33.33,0,0,1,113.74,78.63Zm1.77-.58a2.35,2.35,0,0,0,1.15-.27,1.83,1.83,0,0,0,.77-.74,2.38,2.38,0,0,0,0-2.2,1.89,1.89,0,0,0-.77-.74,2.35,2.35,0,0,0-1.15-.27h-1.15v4.22Z"/><path class="cls-9" d="M119.8,78.67a1.19,1.19,0,0,1-.47-.42,1.17,1.17,0,0,1-.18-.64,1.12,1.12,0,0,1,.47-.94,2.22,2.22,0,0,1,1.37-.35h1v-.07a1,1,0,0,0-.26-.76,1.21,1.21,0,0,0-.81-.23,2.92,2.92,0,0,0-.54,0,5.31,5.31,0,0,0-.53.14l-.1,0a.29.29,0,0,1-.21-.09.29.29,0,0,1-.09-.22.31.31,0,0,1,.21-.3,3.57,3.57,0,0,1,1.39-.29,1.83,1.83,0,0,1,.93.23,1.42,1.42,0,0,1,.56.58,1.65,1.65,0,0,1,.18.77v2.26a.36.36,0,0,1-.11.26.36.36,0,0,1-.62-.26v-.2a2,2,0,0,1-1.5.6A1.59,1.59,0,0,1,119.8,78.67Zm1.61-.67a1.81,1.81,0,0,0,.55-.43V76.9h-.87c-.81,0-1.21.21-1.21.63a.62.62,0,0,0,.2.47,1,1,0,0,0,.65.17A1.4,1.4,0,0,0,121.41,78Z"/><path class="cls-9" d="M124.51,80.51a.33.33,0,0,1-.1-.25.69.69,0,0,1,0-.13L125,78.8l-1.5-3.67a.4.4,0,0,1,0-.15.35.35,0,0,1,.1-.26.35.35,0,0,1,.26-.11.31.31,0,0,1,.2.07.34.34,0,0,1,.13.16l1.23,3,1.26-3a.35.35,0,0,1,.34-.24.34.34,0,0,1,.25.11.36.36,0,0,1,.11.26.35.35,0,0,1,0,.14l-2.18,5.24a.36.36,0,0,1-.34.25A.31.31,0,0,1,124.51,80.51Z"/><path class="cls-9" d="M130.76,78.64a.37.37,0,0,1-.1-.24.37.37,0,0,1,.1-.25.33.33,0,0,1,.24-.1H132V74l-.81.4a.54.54,0,0,1-.19,0,.31.31,0,0,1-.34-.34.35.35,0,0,1,.21-.33l1.08-.56a.49.49,0,0,1,.23-.06h.17a.38.38,0,0,1,.38.38v4.52h.79a.34.34,0,0,1,.35.35.33.33,0,0,1-.35.33H131A.32.32,0,0,1,130.76,78.64Z"/><rect class="cls-7" x="112.86" y="136" width="14.51" height="14.51" rx="1.06"/><rect class="cls-8" x="130.91" y="136" width="68.99" height="4.25"/><rect class="cls-8" x="130.91" y="146.26" width="38.36" height="4.25"/><path class="cls-9" d="M113.74,130.12a.34.34,0,0,1-.11-.25V125a.36.36,0,0,1,.11-.26.34.34,0,0,1,.25-.11h1.61a2.84,2.84,0,0,1,1.55.41,2.5,2.5,0,0,1,.95,1,2.88,2.88,0,0,1,.32,1.34,2.92,2.92,0,0,1-.32,1.35,2.63,2.63,0,0,1-.95,1,2.84,2.84,0,0,1-1.55.4H114A.33.33,0,0,1,113.74,130.12Zm1.77-.57a2.35,2.35,0,0,0,1.15-.27,1.92,1.92,0,0,0,.77-.75,2.16,2.16,0,0,0,.27-1.1,2.21,2.21,0,0,0-.27-1.1,2,2,0,0,0-.77-.74,2.35,2.35,0,0,0-1.15-.27h-1.15v4.23Z"/><path class="cls-9" d="M119.8,130.16a1.16,1.16,0,0,1-.65-1.06,1.13,1.13,0,0,1,.47-.94,2.29,2.29,0,0,1,1.37-.35h1v-.06a1,1,0,0,0-.26-.77,1.21,1.21,0,0,0-.81-.23,2.92,2.92,0,0,0-.54,0,3.65,3.65,0,0,0-.53.15h-.1a.31.31,0,0,1-.3-.3.31.31,0,0,1,.21-.31,3.57,3.57,0,0,1,1.39-.29,1.83,1.83,0,0,1,.93.23,1.42,1.42,0,0,1,.56.58,1.68,1.68,0,0,1,.18.77v2.27a.34.34,0,0,1-.11.25.39.39,0,0,1-.52,0,.33.33,0,0,1-.1-.25v-.21a2,2,0,0,1-1.5.61A1.45,1.45,0,0,1,119.8,130.16Zm1.61-.67a1.67,1.67,0,0,0,.55-.43v-.67h-.87c-.81,0-1.21.21-1.21.63a.6.6,0,0,0,.2.47.94.94,0,0,0,.65.18A1.41,1.41,0,0,0,121.41,129.49Z"/><path class="cls-9" d="M124.51,132a.33.33,0,0,1-.1-.25.5.5,0,0,1,0-.12l.52-1.34-1.5-3.66a.5.5,0,0,1,0-.16.37.37,0,0,1,.1-.26.35.35,0,0,1,.26-.11.37.37,0,0,1,.2.07.34.34,0,0,1,.13.16l1.23,3.06,1.26-3a.35.35,0,0,1,.34-.25.34.34,0,0,1,.25.11.38.38,0,0,1,.11.26.32.32,0,0,1,0,.14l-2.18,5.25a.37.37,0,0,1-.34.24A.31.31,0,0,1,124.51,132Z"/><path class="cls-9" d="M130.22,130.11a.41.41,0,0,1-.12-.3,1.36,1.36,0,0,1,.25-.77,2.88,2.88,0,0,1,.59-.62c.23-.18.54-.39.92-.63s.58-.39.77-.53a2.68,2.68,0,0,0,.48-.47,1,1,0,0,0-.11-1.27,1.41,1.41,0,0,0-1-.27,3.37,3.37,0,0,0-1.37.29.42.42,0,0,1-.15,0,.29.29,0,0,1-.3-.32.3.3,0,0,1,.17-.29,4,4,0,0,1,1.78-.41,2.18,2.18,0,0,1,.93.2,1.62,1.62,0,0,1,.66.58,1.43,1.43,0,0,1,.25.84,1.49,1.49,0,0,1-.28.88,3,3,0,0,1-.66.71,11.55,11.55,0,0,1-1,.7c-.37.25-.65.46-.84.61a1.42,1.42,0,0,0-.4.47h2.79a.36.36,0,0,1,.24.09.33.33,0,0,1,.1.25.33.33,0,0,1-.1.24.36.36,0,0,1-.24.09h-3.09A.41.41,0,0,1,130.22,130.11Z"/><rect class="cls-7" x="112.86" y="167.99" width="14.51" height="14.51" rx="1.06"/><rect class="cls-8" x="130.91" y="167.99" width="68.99" height="4.25"/><rect class="cls-8" x="130.91" y="178.26" width="60.91" height="4.25"/><path class="cls-9" d="M113.74,162.11a.34.34,0,0,1-.11-.25V157a.36.36,0,0,1,.11-.26.34.34,0,0,1,.25-.11h1.61a2.84,2.84,0,0,1,1.55.41,2.56,2.56,0,0,1,.95,1,3,3,0,0,1,0,2.69,2.56,2.56,0,0,1-.95,1,2.84,2.84,0,0,1-1.55.41H114A.34.34,0,0,1,113.74,162.11Zm1.77-.57a2.35,2.35,0,0,0,1.15-.27,2,2,0,0,0,.77-.74,2.21,2.21,0,0,0,.27-1.1,2.16,2.16,0,0,0-.27-1.1,1.92,1.92,0,0,0-.77-.75,2.35,2.35,0,0,0-1.15-.27h-1.15v4.23Z"/><path class="cls-9" d="M119.8,162.15a1.06,1.06,0,0,1-.47-.42,1.11,1.11,0,0,1-.18-.63,1.14,1.14,0,0,1,.47-.95,2.29,2.29,0,0,1,1.37-.35h1v-.06a1,1,0,0,0-.26-.76,1.15,1.15,0,0,0-.81-.23,3,3,0,0,0-.54,0c-.16,0-.33.08-.53.15h-.1a.32.32,0,0,1-.21-.08.31.31,0,0,1-.09-.22.3.3,0,0,1,.21-.3,3.4,3.4,0,0,1,1.39-.29,1.83,1.83,0,0,1,.93.22,1.42,1.42,0,0,1,.56.58,1.71,1.71,0,0,1,.18.77v2.27a.34.34,0,0,1-.11.25.36.36,0,0,1-.52,0,.33.33,0,0,1-.1-.25v-.21a2,2,0,0,1-1.5.61A1.45,1.45,0,0,1,119.8,162.15Zm1.61-.66a2,2,0,0,0,.55-.43v-.67h-.87c-.81,0-1.21.21-1.21.63a.6.6,0,0,0,.2.46.94.94,0,0,0,.65.18A1.52,1.52,0,0,0,121.41,161.49Z"/><path class="cls-9" d="M124.51,164a.33.33,0,0,1-.1-.24.51.51,0,0,1,0-.13l.52-1.34-1.5-3.66a.49.49,0,0,1,0-.15.34.34,0,0,1,.1-.26.31.31,0,0,1,.26-.11.36.36,0,0,1,.2.06.4.4,0,0,1,.13.16l1.23,3.06,1.26-3a.35.35,0,0,1,.34-.24.31.31,0,0,1,.25.11.35.35,0,0,1,.11.26.31.31,0,0,1,0,.13l-2.18,5.25a.38.38,0,0,1-.34.25A.32.32,0,0,1,124.51,164Z"/><path class="cls-9" d="M130.26,162a.44.44,0,0,1-.15-.12.29.29,0,0,1-.05-.19.32.32,0,0,1,.09-.23.29.29,0,0,1,.23-.1l.15,0a3.46,3.46,0,0,0,1.27.23,2.49,2.49,0,0,0,1-.2.71.71,0,0,0,.43-.69c0-.67-.59-1-1.77-1h-.13a.34.34,0,0,1-.23-.1.34.34,0,0,1,0-.48.34.34,0,0,1,.23-.1h.05a2.55,2.55,0,0,0,1.23-.24.78.78,0,0,0,.42-.72.71.71,0,0,0-.32-.61,1.63,1.63,0,0,0-.94-.23,2.85,2.85,0,0,0-1.24.27l-.15,0a.32.32,0,0,1-.21-.08.32.32,0,0,1,.08-.49,3.35,3.35,0,0,1,1.58-.41,2.33,2.33,0,0,1,1.42.38,1.23,1.23,0,0,1,.51,1.06,1.25,1.25,0,0,1-.28.87,1.61,1.61,0,0,1-.69.47,1.78,1.78,0,0,1,.81.43,1.31,1.31,0,0,1,.36,1,1.33,1.33,0,0,1-.58,1.14,2.57,2.57,0,0,1-1.49.41A4.48,4.48,0,0,1,130.26,162Z"/><rect class="cls-7" x="95.51" y="68.59" width="122.04" height="1"/><rect class="cls-5" x="48.53" y="106.02" width="58.02" height="34.11" rx="2.76" transform="translate(155.07 246.14) rotate(-180)"/><rect class="cls-10" x="46.53" y="104.02" width="58.02" height="34.11" rx="2.76"/><rect class="cls-11" x="54.36" y="108.15" width="42.34" height="4.25"/><rect class="cls-11" x="85.72" y="115.15" width="10.99" height="4.25"/><path class="cls-12" d="M74.09,129.38c-6.38,0-13.15-1.54-13.15-4.4s6.77-4.41,13.15-4.41,13.15,1.55,13.15,4.41S80.46,129.38,74.09,129.38Zm0-7.81c-7.16,0-12.15,1.8-12.15,3.41s5,3.4,12.15,3.4,12.15-1.79,12.15-3.4S81.25,121.57,74.09,121.57Z"/><path class="cls-12" d="M74.09,135.38c-6.38,0-13.15-1.54-13.15-4.4v-6h1v6c0,1.61,5,3.4,12.15,3.4s12.15-1.79,12.15-3.4v-6h1v6C87.24,133.84,80.46,135.38,74.09,135.38Z"/><polygon class="cls-12" points="65.83 128.36 65.5 127.41 73.73 124.57 75.59 120.85 76.49 121.3 74.44 125.38 65.83 128.36"/><rect class="cls-12" x="77.69" y="122.1" width="1" height="8.73" transform="translate(-67.34 156.92) rotate(-70.09)"/><rect class="cls-12" x="65.16" y="127.88" width="1" height="5.95"/><rect class="cls-12" x="81.79" y="127.95" width="1" height="6.11"/><rect class="cls-5" x="41.79" y="166.02" width="68.95" height="48.87" rx="2.76" transform="translate(152.52 380.91) rotate(-180)"/><rect class="cls-13" x="40" y="164.02" width="68.95" height="48.87" rx="2.76"/><polygon class="cls-12" points="102.88 207.09 45.64 207.09 45.64 182.79 46.64 182.79 46.64 206.09 102.88 206.09 102.88 207.09"/><polygon class="cls-12" points="50.63 202.8 49.97 202.04 59.1 194.08 68.25 199.46 78.47 191.78 86.71 196.43 101.61 185.96 102.19 186.78 86.77 197.61 78.55 192.97 68.31 200.66 59.22 195.31 50.63 202.8"/><path class="cls-12" d="M99.07,194.23a.5.5,0,0,1-.28-.65l2.92-7.08-7.64.35a.5.5,0,0,1,0-1l8.43-.38a.49.49,0,0,1,.43.21.51.51,0,0,1,.06.48L99.72,194a.55.55,0,0,1-.18.22A.49.49,0,0,1,99.07,194.23Z"/><circle class="cls-12" cx="59.1" cy="194.69" r="2"/><circle class="cls-12" cx="50.3" cy="202.42" r="2"/><circle class="cls-12" cx="68.3" cy="200.07" r="2"/><circle class="cls-12" cx="78.6" cy="192.69" r="2"/><circle class="cls-12" cx="86.84" cy="197.02" r="2"/><rect class="cls-11" x="53.3" y="168.96" width="42.34" height="4.25"/><rect class="cls-11" x="84.61" y="176.21" width="10.99" height="4.25"/><path class="cls-14" d="M255.79,217c-9.39-10.91-29.19-37.12-31.06-72.79-.45-8.55-2.45-27.36,7.43-45,4-7.08,10.59-15.25,21.69-19.08,12.73-4.39,28.16.33,35.91,10.2,4,5.11,6.18,10,7.65,22.06,2.58,21.18-2.44,25.61.11,43,1.47,10,3.34,21.72,12.13,32.52a51.29,51.29,0,0,0,13.59,11.64,10,10,0,0,1-4.37,5.83c-4.9,2.79-9.82-6.59-17.95-5-12.25,2.38-4.92,10.59-14.8,11.8s-9.59-6.61-18-6.13C257.59,206.59,256.7,214.68,255.79,217Z"/><circle class="cls-15" cx="271.59" cy="109.04" r="3.97"/><circle class="cls-15" cx="249.57" cy="107.61" r="3.97"/><ellipse class="cls-15" cx="260.09" cy="116.67" rx="3.97" ry="3.26" transform="translate(117.5 363.49) rotate(-84.14)"/><g class="cls-16"><path class="cls-17" d="M286.08,153s-6.55,6.35-10.78,9.14c-3.7,2.43-7.76,1.87-8.69-1.08s4.18-8,7.5-11.36a40.43,40.43,0,0,1,4.89-4.41"/><path class="cls-18" d="M270.66,164.15a9.07,9.07,0,0,0,4.91-1.62c4.22-2.78,10.59-8.93,10.86-9.19l-.7-.72c-.06.07-6.57,6.35-10.71,9.08a7.09,7.09,0,0,1-5.95,1.19,3.06,3.06,0,0,1-2-2c-.82-2.61,4.21-7.67,7.21-10.7l.16-.15a40,40,0,0,1,4.82-4.35l-.56-.83a40.23,40.23,0,0,0-5,4.47l-.15.16c-3.58,3.59-8.47,8.51-7.46,11.7a4.06,4.06,0,0,0,2.59,2.64A5.83,5.83,0,0,0,270.66,164.15Z"/></g><g class="cls-16"><path class="cls-17" d="M226.25,135.39a96.91,96.91,0,0,0-9.9.2c-5.58.4-8.68,1.1-8.24,4.45s3.93,3.57,9,4.09,13.3,1,13.3,1"/><path class="cls-18" d="M230.42,145.65l.06-1c-.08,0-8.24-.5-13.28-1l-.57-.06c-5.16-.53-7.66-.9-8-3.61a2.49,2.49,0,0,1,.43-2c1-1.2,3.54-1.61,7.35-1.89a95.77,95.77,0,0,1,9.84-.2l0-1s-4.52-.18-10,.21c-4.18.3-6.84.76-8.06,2.25a3.44,3.44,0,0,0-.64,2.75c.47,3.62,4,4,8.91,4.47l.57.06C222.16,145.15,230.34,145.65,230.42,145.65Z"/></g></g></g></g></svg>