<svg xmlns="http://www.w3.org/2000/svg" width="1600" height="81" viewBox="0 0 1600 81">
    <defs>
        <linearGradient id="a" x1="50%" x2="50%" y1="0%" y2="68.671%">
            <stop offset="0%" stop-color="#FFF"/>
            <stop offset="100%" stop-color="#FFF" stop-opacity="0"/>
        </linearGradient>
    </defs>
    <path fill="url(#a)" fill-rule="evenodd" d="M599.263 987.731c106.69 0 135.98-59.795 221.338-59.795s93.597 54.777 257.425 54.777c159.497 0 195.8-71.713 311.588-71.713 115.788 0 148.404 71.713 250.091 71.713 209.727 0 209.727 30.096 0 90.287H608.308c-512.441-49.616-735.385-78.04-668.833-85.269 7.77-.844 176.87 6.057 245.515-5.018 80.02-12.909 88.182-50.358 145.926-50.358 78.12 0 78.12 55.376 268.347 55.376z" opacity=".424" transform="matrix(-1 0 0 1 1725 -911)"/>
</svg>
