<svg xmlns="http://www.w3.org/2000/svg" width="568" height="333" viewBox="0 0 568 333">
    <defs>
        <linearGradient id="a" x1="10.866%" x2="86.61%" y1="72.35%" y2="23.531%">
            <stop offset="0%" stop-color="#04F0FA"/>
            <stop offset="100%" stop-color="#05A4FF"/>
        </linearGradient>
    </defs>
    <path fill="url(#a)" fill-rule="evenodd" d="M508.766 2532.394c21.326-29.193 48.912-52.712 78.128-73.109 79.313-55.382 172.56-89.272 268.774-97.69 31.665-2.77 64.182-2.75 95.044 6.787 30.86 9.538 60.13 29.603 76.097 59.102 21.408 39.545 15.199 90.175-7.413 127.344-22.611 37.17-59.196 62.554-97.624 80.745-94.738 44.85-202.5 50.942-307.498 56.369-27.16 1.402-54.923 2.736-81.33-5.303-23.416-7.129-44.125-22.307-56.234-44.888-11.533-21.503.629-50.648 9.654-70.887 6.093-13.663 13.686-26.538 22.402-38.47z" transform="translate(-472 -2360)"/>
</svg>
