
<svg  xmlns="http://www.w3.org/2000/svg" xmlns:xlink="http://www.w3.org/1999/xlink" viewBox="0 0 1440 1005"
  preserveAspectRatio="none"
>
<defs>
  <radialGradient id="a" cx="720" cy="502.7025" r="1214.8393" gradientUnits="userSpaceOnUse">
<stop offset="0" stop-color="#4dc4ff"/>
<stop offset="1" stop-color="#0c89db"/>
</radialGradient>
</defs>
          <path
            d="M1440,867.42c-166.2521-10.7877-216.9881-1.8151-219.88,12.9341-2.043,10.4176,20.6815,19.13,18.1079,31.042-4.4679,20.6781-78.4766,19.9972-175.9041,23.2814-87.8541,2.9615-149.8658-4.9695-152.6228,7.7605-2.22,10.2506,36.588,19.6919,35.3535,32.7664-2.1437,22.7028-114.6037,30.665-225.0542,30.18-112.0166.4853-222.91-7.4769-225.0542-30.18-1.2345-13.0745,37.5735-22.5158,35.3535-32.7664-2.757-12.73-64.7687-4.799-152.6228-7.7605-97.4275-3.2842-171.4362-2.6033-175.9041-23.2814-2.5736-11.9117,20.1509-20.6244,18.1079-31.042C216.9881,865.6051,166.2521,856.6325,0,867.42V0H1440Z"
            fill="url(#a)"
          />
          <path
            d="M0,867.42c166.2521-10.7877,216.9881-1.8151,219.88,12.9341,2.043,10.4176-20.6815,19.13-18.1079,31.042,4.4679,20.6781,78.4766,19.9972,175.9041,23.2814,87.8541,2.9615,149.8658-4.9695,152.6228,7.7605,2.22,10.2506-36.588,19.6919-35.3535,32.7664,2.1437,22.7028,113.0376,30.665,225.0542,30.18,110.4505.4853,222.91-7.4769,225.0542-30.18,1.2345-13.0745-37.5735-22.5158-35.3535-32.7664,2.757-12.73,64.7687-4.799,152.6228-7.7605,97.4275-3.2842,171.4362-2.6033,175.9041-23.2814,2.5736-11.9117-20.1509-20.6244-18.1079-31.042,2.8922-14.7492,53.6282-23.7218,219.88-12.9341V596.5765H0Z"
            fill="#fff"
            opacity="0.15"
          />
</svg>
