<svg xmlns="http://www.w3.org/2000/svg" xmlns:xlink="http://www.w3.org/1999/xlink" width="685" height="672" viewBox="0 0 685 672">
    <defs>
        <radialGradient id="c" cx="54.046%" cy="21.13%" r="90.113%" fx="54.046%" fy="21.13%">
            <stop offset="0%" stop-color="#04F0FA" stop-opacity=".079"/>
            <stop offset="100%" stop-color="#04F0FA"/>
        </radialGradient>
        <circle id="b" cx="23.5" cy="23.5" r="23.5"/>
        <filter id="a" width="427.7%" height="427.7%" x="-163.8%" y="-117%" filterUnits="objectBoundingBox">
            <feOffset dy="22" in="SourceAlpha" result="shadowOffsetOuter1"/>
            <feGaussianBlur in="shadowOffsetOuter1" result="shadowBlurOuter1" stdDeviation="22"/>
            <feColorMatrix in="shadowBlurOuter1" values="0 0 0 0 0.0156862745 0 0 0 0 0.749019608 0 0 0 0 0.992156863 0 0 0 0.203719429 0"/>
        </filter>
        <linearGradient id="d" x1="10.866%" x2="86.61%" y1="72.35%" y2="23.531%">
            <stop offset="0%" stop-color="#04F0FA"/>
            <stop offset="100%" stop-color="#05A4FF"/>
        </linearGradient>
        <path id="e" d="M7.595 139.767c-23.766 91.749 12.318 180.405 80.599 198.016 68.277 17.608 142.894-42.493 166.664-134.245 23.766-91.752-12.319-180.408-80.6-198.016a96.707 96.707 0 0 0-24.213-3.064c-60.88.007-121.478 56.33-142.45 137.309"/>
        <linearGradient id="f" x1="-.001%" y1="50%" y2="50%">
            <stop offset="0%" stop-color="#00DDFB"/>
            <stop offset="100%" stop-color="#00A1FF"/>
        </linearGradient>
        <path id="h" d="M6.07 80.528c-13.442 51.824 6.97 101.896 45.59 111.841 38.617 9.949 80.824-23.999 94.266-75.823 13.44-51.82-6.97-101.896-45.59-111.841a54.809 54.809 0 0 0-13.695-1.73c-34.432.003-68.704 31.817-80.57 77.553"/>
        <linearGradient id="i" x1="0%" y1="50%" y2="50%">
            <stop offset="0%" stop-color="#00DDFB"/>
            <stop offset="100%" stop-color="#00A1FF"/>
        </linearGradient>
        <path id="k" d="M2.045 25.172c-3.931 15.173 2.038 29.834 13.337 32.746 11.298 2.915 23.64-7.027 27.571-22.2C46.888 20.545 40.915 5.88 29.62 2.972a16.001 16.001 0 0 0-4.005-.508C15.54 2.467 5.516 11.78 2.045 25.172"/>
        <linearGradient id="l" x1=".003%" y1="50.001%" y2="50.001%">
            <stop offset="0%" stop-color="#00DDFB"/>
            <stop offset="100%" stop-color="#00A1FF"/>
        </linearGradient>
        <linearGradient id="n" x1="50.41%" x2="50%" y1="44.865%" y2="58.042%">
            <stop offset="0%" stop-color="#008CE1"/>
            <stop offset="100%" stop-color="#005095"/>
        </linearGradient>
        <path id="o" d="M.433 43.749l.813 5.253 291.472-43.5-.806-5.253z"/>
        <linearGradient id="p" x1="49.895%" x2="50.089%" y1="45.17%" y2="54.015%">
            <stop offset="0%" stop-color="#008CE1"/>
            <stop offset="100%" stop-color="#005095"/>
        </linearGradient>
        <linearGradient id="r" x1="50.295%" x2="49.662%" y1="47.792%" y2="52.538%">
            <stop offset="0%" stop-color="#008CE1"/>
            <stop offset="100%" stop-color="#005095"/>
        </linearGradient>
        <circle id="t" cx="68" cy="68" r="68"/>
        <filter id="s" width="213.2%" height="213.2%" x="-56.6%" y="-40.4%" filterUnits="objectBoundingBox">
            <feOffset dy="22" in="SourceAlpha" result="shadowOffsetOuter1"/>
            <feGaussianBlur in="shadowOffsetOuter1" result="shadowBlurOuter1" stdDeviation="22"/>
            <feColorMatrix in="shadowBlurOuter1" values="0 0 0 0 0.0156862745 0 0 0 0 0.749019608 0 0 0 0 0.992156863 0 0 0 0.203719429 0"/>
        </filter>
    </defs>
    <g fill="none" fill-rule="evenodd">
        <g transform="translate(145 225)">
            <use fill="#000" filter="url(#a)" xlink:href="#b"/>
            <use fill="url(#c)" xlink:href="#b"/>
        </g>
        <path fill="#FFF" d="M163.846 239.874c-1.417 0-2.72.568-3.666 1.6-.962 1.046-1.491 2.494-1.491 4.075 0 1.668.617 3.16 2.002 4.837 1.338 1.622 3.329 3.325 5.633 5.297l.004.004c.806.689 1.72 1.47 2.67 2.305.956-.836 1.871-1.619 2.678-2.31 2.305-1.971 4.295-3.674 5.633-5.296 1.384-1.677 2.002-3.17 2.002-4.837 0-1.581-.53-3.029-1.49-4.076a4.918 4.918 0 0 0-3.667-1.6 4.526 4.526 0 0 0-2.833.986c-.75.582-1.273 1.319-1.58 1.834a.856.856 0 0 1-.741.423.856.856 0 0 1-.742-.423c-.306-.515-.829-1.252-1.579-1.834a4.526 4.526 0 0 0-2.833-.985M169 259.367c-.333 0-.653-.121-.903-.341a270.918 270.918 0 0 0-2.656-2.294l-.004-.003c-2.353-2.014-4.385-3.753-5.8-5.466-1.58-1.915-2.316-3.73-2.316-5.714 0-1.928.658-3.706 1.853-5.007a6.27 6.27 0 0 1 4.672-2.042c1.349 0 2.583.428 3.67 1.272a7.527 7.527 0 0 1 1.484 1.556 7.527 7.527 0 0 1 1.484-1.556c1.087-.844 2.322-1.272 3.67-1.272a6.27 6.27 0 0 1 4.672 2.042c1.195 1.301 1.853 3.08 1.853 5.007 0 1.983-.736 3.799-2.316 5.714-1.414 1.713-3.446 3.452-5.8 5.465-.803.688-1.714 1.468-2.66 2.298-.25.22-.57.34-.903.34"/>
        <path fill="url(#d)" d="M216.788 165.054c-9.279-15.111-20.383-28.964-32.107-42.206-7.47-8.445-15.2-17.98-21.53-27.728-15.228-23.446-13.941-54.017 8.07-77.726C187.69-.343 218.349-3.18 241.532 2.916c39.937 10.5 61.929 56.666 101.359 68.91 42.855 13.304 86.365-17.952 130.99-23.879 32.89-4.366 67.327 5.99 92.237 27.739 24.909 21.75 39.886 54.542 40.116 87.831.206 30.176-11.04 60.18-7.082 90.063 8.018 60.502 74.264 99.246 84.576 159.38 4.96 28.904-4.795 60.084-25.378 81.119-20.581 21.032-51.454 31.37-80.316 26.89-60.727-9.42-99.74-76.346-160.4-86.21-33.919-5.52-67.754 8.036-101.39 15.588-33.637 7.552-73.87 7.017-96.084-19.187-20.254-23.89-17.429-59.987-7.591-89.983 9.84-29.999 25.609-58.674 28.072-90.102 2.37-30.256-8.061-60.303-23.852-86.021z" transform="translate(0 39)"/>
        <path fill="#F2F2F2" d="M197.964 594.312c-13.134 0-23.777-3.225-23.777-7.206 0-3.977 10.643-7.202 23.777-7.202 13.133 0 23.776 3.225 23.776 7.202 0 3.981-10.643 7.206-23.776 7.206zM405.872 662.215c0 5.007-13.383 9.062-29.898 9.062-16.51 0-29.9-4.055-29.9-9.062s13.39-9.062 29.9-9.062c16.515 0 29.898 4.055 29.898 9.062M496.331 578.235c0 3.715-9.934 6.724-22.184 6.724-12.25 0-22.185-3.009-22.185-6.724 0-3.71 9.935-6.72 22.185-6.72 12.25 0 22.184 3.01 22.184 6.72"/>
        <path fill="#36539B" d="M378.035 663.781a6.67 6.67 0 0 1-7.877-5.198l-24.74-120.755a6.675 6.675 0 0 1 5.195-7.881 6.68 6.68 0 0 1 7.881 5.202l24.74 120.755a6.672 6.672 0 0 1-5.199 7.877M195.333 587.418c-3.19-1.845-4.286-5.926-2.441-9.116l61.632-106.75a6.674 6.674 0 1 1 11.557 6.675l-61.632 106.75a6.672 6.672 0 0 1-9.116 2.441M477.98 579.556a6.671 6.671 0 0 1-9.326-1.448l-72.767-99.497a6.673 6.673 0 0 1 1.448-9.325 6.674 6.674 0 0 1 9.325 1.444l72.767 99.497a6.675 6.675 0 0 1-1.448 9.329"/>
        <path fill="#36539B" d="M476.687 402.52c-25.719 99.496-106.459 164.67-180.343 145.572-73.885-19.098-112.928-115.234-87.213-214.727 25.716-99.497 106.46-164.67 180.344-145.577 73.88 19.098 112.927 115.234 87.212 214.731"/>
        <path fill="#FFF" d="M466.63 402.52c-25.714 99.496-106.454 164.67-180.339 145.572-73.884-19.098-112.93-115.234-87.212-214.727 25.715-99.497 106.458-164.67 180.34-145.577 73.884 19.098 112.93 115.234 87.212 214.731"/>
        <g transform="translate(201 196)">
            <mask id="g" fill="#fff">
                <use xlink:href="#e"/>
            </mask>
            <path fill="url(#f)" d="M7.595 139.767c-23.766 91.749 12.318 180.405 80.599 198.016 68.277 17.608 142.894-42.493 166.664-134.245 23.766-91.752-12.319-180.408-80.6-198.016a96.707 96.707 0 0 0-24.213-3.064c-60.88.007-121.478 56.33-142.45 137.309" mask="url(#g)"/>
        </g>
        <path fill="#FFF" d="M414.64 389.965c-17.424 67.514-72.13 111.742-122.191 98.78-50.058-12.956-76.515-78.193-59.087-145.708 17.424-67.514 72.13-111.742 122.187-98.782 50.059 12.959 76.515 78.196 59.091 145.71"/>
        <g transform="translate(244 267)">
            <mask id="j" fill="#fff">
                <use xlink:href="#h"/>
            </mask>
            <path fill="url(#i)" d="M6.07 80.528c-13.442 51.824 6.97 101.896 45.59 111.841 38.617 9.949 80.824-23.999 94.266-75.823 13.44-51.82-6.97-101.896-45.59-111.841a54.809 54.809 0 0 0-13.695-1.73c-34.432.003-68.704 31.817-80.57 77.553" mask="url(#j)"/>
        </g>
        <path fill="#FFF" d="M358.516 374.93c-8.077 31.455-33.434 52.058-56.64 46.019-23.206-6.036-35.468-36.428-27.391-67.88 8.076-31.452 33.433-52.055 56.64-46.02 23.202 6.037 35.467 36.43 27.39 67.881"/>
        <g transform="translate(290 331)">
            <mask id="m" fill="#fff">
                <use xlink:href="#k"/>
            </mask>
            <path fill="url(#l)" d="M2.045 25.172c-3.931 15.173 2.038 29.834 13.337 32.746 11.298 2.915 23.64-7.027 27.571-22.2C46.888 20.545 40.915 5.88 29.62 2.972a16.001 16.001 0 0 0-4.005-.508C15.54 2.467 5.516 11.78 2.045 25.172" mask="url(#m)"/>
        </g>
        <g stroke="#231F20" stroke-width="3" opacity=".135">
            <path d="M312.097 368.05l-9.418 178.857M304.097 359.05L271.632 533.6M314.507 355l31.641 190.133"/>
        </g>
        <g>
            <path fill="url(#d)" d="M80.71 163.783l-58.801 9.377-7.604 16.984 59.309-9.885zM78.937 159.18L68.29 146.506 9.235 155.63l11.661 12.674z" transform="translate(0 242)"/>
            <path fill="url(#d)" d="M71.283 26.502L12.107 19 0 33.018l59.809 7.162zM72.004 22.828L65.35 7.812 6 0l7.628 15.299z" transform="translate(0 304)"/>
            <path fill="url(#n)" d="M12.046 19.366l292.065 39.86.718-5.302L12.76 14.061z" transform="translate(0 304)"/>
            <g fill="url(#d)" transform="translate(23 242)">
                <path d="M71.263 37.213L14.772 18 0 29.244 57.182 48.25zM71.021 35.537L67.598 19.55 11 0l4.32 16.46z"/>
            </g>
        </g>
        <g transform="translate(21 366)">
            <mask id="q" fill="#fff">
                <use xlink:href="#o"/>
            </mask>
            <path fill="url(#p)" d="M.433 43.749l.813 5.253 291.472-43.5-.806-5.253z" mask="url(#q)"/>
        </g>
        <path fill="url(#r)" d="M37 223.073L314.215 322l1.785-5.07L38.788 218z" transform="translate(0 39)"/>
        <g>
            <g transform="translate(336 21)">
                <use fill="#000" filter="url(#s)" xlink:href="#t"/>
                <use fill="url(#c)" xlink:href="#t"/>
            </g>
            <g fill="#FFF">
                <path d="M413.906 54.907h1.88a.941.941 0 0 1 0 1.88h-1.88a.94.94 0 0 0 0 1.881h1.88a.941.941 0 0 1 0 1.88h-1.88a.94.94 0 0 0 0 1.881.941.941 0 0 1 0 1.88h-7.877a8.442 8.442 0 0 1-2.676-.434l-3.55-1.183V51.057c1.474-.28 2.918-1.214 4.221-2.743 1.273-1.493 2.304-3.473 2.76-5.296l.334-1.337h.206c1.037 0 1.88.844 1.88 1.88v.94c0 1.262-.394 3.684-.9 4.765h-1.92a.94.94 0 0 0 0 1.88h9.403a.941.941 0 0 1 0 1.88h-1.88a.94.94 0 0 0 0 1.881zm-15.984 8.462c0 .519-.422.94-.94.94h-4.702V49.267h4.702c.518 0 .94.421.94.94v13.163zm19.965-9.402c.448-.5.72-1.16.72-1.88a2.824 2.824 0 0 0-2.82-2.821h-5.475c.542-1.646.773-3.83.773-4.765v-.94a3.766 3.766 0 0 0-3.76-3.76h-.94a.94.94 0 0 0-.913.712l-.512 2.049c-.718 2.87-2.996 6.035-5.354 6.61a2.825 2.825 0 0 0-2.624-1.787h-5.642a.94.94 0 0 0-.94.94V65.25c0 .519.421.94.94.94h5.642a2.824 2.824 0 0 0 2.546-1.608l3.23 1.077a10.32 10.32 0 0 0 3.271.531h7.877a2.824 2.824 0 0 0 2.623-3.86 2.826 2.826 0 0 0 2.078-2.722 2.81 2.81 0 0 0-.72-1.88 2.81 2.81 0 0 0 0-3.761z"/>
                <path d="M395.101 60.549a.94.94 0 1 1 0 1.88.94.94 0 0 1 0-1.88M408.265 34.096a.94.94 0 0 0-.94.94v1.944a.94.94 0 0 0 1.88 0v-1.943a.94.94 0 0 0-.94-.94M404.276 38.243l-1.33-1.33a.94.94 0 1 0-1.33 1.33l1.33 1.33a.94.94 0 0 0 1.33-1.33M414.913 36.913a.94.94 0 0 0-1.33 0l-1.33 1.33a.94.94 0 0 0 1.33 1.33l1.33-1.33a.94.94 0 0 0 0-1.33"/>
            </g>
            <text fill="#FFF" font-family="Quicksand-Regular, Quicksand" font-size="30" letter-spacing="-.375" transform="translate(336 21)">
                <tspan x="31.085" y="87.422">66.1 K</tspan>
            </text>
        </g>
    </g>
</svg>
