<svg xmlns="http://www.w3.org/2000/svg" xmlns:xlink="http://www.w3.org/1999/xlink" width="358" height="273" viewBox="0 0 358 273">
    <defs>
        <rect id="b" width="334" height="249" rx="10"/>
        <filter id="a" width="112%" height="116.1%" x="-6%" y="-6.4%" filterUnits="objectBoundingBox">
            <feOffset dy="4" in="SourceAlpha" result="shadowOffsetOuter1"/>
            <feGaussianBlur in="shadowOffsetOuter1" result="shadowBlurOuter1" stdDeviation="6"/>
            <feComposite in="shadowBlurOuter1" in2="SourceAlpha" operator="out" result="shadowBlurOuter1"/>
            <feColorMatrix in="shadowBlurOuter1" values="0 0 0 0 0.00636668858 0 0 0 0 0.237824784 0 0 0 0 0.415869473 0 0 0 0.0974014946 0"/>
        </filter>
        <rect id="d" width="89" height="38" x="35" y="32" rx="5"/>
        <filter id="c" width="122.5%" height="152.6%" x="-11.2%" y="-21.1%" filterUnits="objectBoundingBox">
            <feOffset dy="2" in="SourceAlpha" result="shadowOffsetOuter1"/>
            <feGaussianBlur in="shadowOffsetOuter1" result="shadowBlurOuter1" stdDeviation="3"/>
            <feComposite in="shadowBlurOuter1" in2="SourceAlpha" operator="out" result="shadowBlurOuter1"/>
            <feColorMatrix in="shadowBlurOuter1" values="0 0 0 0 0.0180516098 0 0 0 0 0.686470283 0 0 0 0 1 0 0 0 0.183763587 0"/>
        </filter>
        <rect id="f" width="161" height="101" x="35" y="110" rx="5"/>
        <filter id="e" width="112.4%" height="119.8%" x="-6.2%" y="-7.9%" filterUnits="objectBoundingBox">
            <feOffset dy="2" in="SourceAlpha" result="shadowOffsetOuter1"/>
            <feGaussianBlur in="shadowOffsetOuter1" result="shadowBlurOuter1" stdDeviation="3"/>
            <feComposite in="shadowBlurOuter1" in2="SourceAlpha" operator="out" result="shadowBlurOuter1"/>
            <feColorMatrix in="shadowBlurOuter1" values="0 0 0 0 0.0180516098 0 0 0 0 0.686470283 0 0 0 0 1 0 0 0 0.183763587 0"/>
        </filter>
        <rect id="h" width="89" height="179" x="214" y="32" rx="5"/>
        <filter id="g" width="122.5%" height="111.2%" x="-11.2%" y="-4.5%" filterUnits="objectBoundingBox">
            <feOffset dy="2" in="SourceAlpha" result="shadowOffsetOuter1"/>
            <feGaussianBlur in="shadowOffsetOuter1" result="shadowBlurOuter1" stdDeviation="3"/>
            <feComposite in="shadowBlurOuter1" in2="SourceAlpha" operator="out" result="shadowBlurOuter1"/>
            <feColorMatrix in="shadowBlurOuter1" values="0 0 0 0 0.0180516098 0 0 0 0 0.686470283 0 0 0 0 1 0 0 0 0.183763587 0"/>
        </filter>
        <linearGradient id="i" x1="24.329%" x2="73.148%" y1="10.069%" y2="85.813%">
            <stop offset="0%" stop-color="#04DCFA"/>
            <stop offset="100%" stop-color="#05A4FF"/>
        </linearGradient>
        <linearGradient id="l" x1="91.26%" x2="10.714%" y1="93.739%" y2="9.492%">
            <stop offset="0%" stop-color="#FD5642"/>
            <stop offset="100%" stop-color="#FF9464"/>
        </linearGradient>
        <circle id="k" cx="237" cy="90" r="5"/>
        <filter id="j" width="630%" height="630%" x="-265%" y="-185%" filterUnits="objectBoundingBox">
            <feOffset dy="8" in="SourceAlpha" result="shadowOffsetOuter1"/>
            <feGaussianBlur in="shadowOffsetOuter1" result="shadowBlurOuter1" stdDeviation="7.5"/>
            <feColorMatrix in="shadowBlurOuter1" values="0 0 0 0 0.97254902 0 0 0 0 0.317647059 0 0 0 0 0.239215686 0 0 0 0.35 0"/>
        </filter>
        <circle id="n" cx="237" cy="107" r="5"/>
        <filter id="m" width="630%" height="630%" x="-265%" y="-185%" filterUnits="objectBoundingBox">
            <feOffset dy="8" in="SourceAlpha" result="shadowOffsetOuter1"/>
            <feGaussianBlur in="shadowOffsetOuter1" result="shadowBlurOuter1" stdDeviation="7.5"/>
            <feColorMatrix in="shadowBlurOuter1" values="0 0 0 0 0.97254902 0 0 0 0 0.317647059 0 0 0 0 0.239215686 0 0 0 0.35 0"/>
        </filter>
        <circle id="p" cx="237" cy="124" r="5"/>
        <filter id="o" width="630%" height="630%" x="-265%" y="-185%" filterUnits="objectBoundingBox">
            <feOffset dy="8" in="SourceAlpha" result="shadowOffsetOuter1"/>
            <feGaussianBlur in="shadowOffsetOuter1" result="shadowBlurOuter1" stdDeviation="7.5"/>
            <feColorMatrix in="shadowBlurOuter1" values="0 0 0 0 0.97254902 0 0 0 0 0.317647059 0 0 0 0 0.239215686 0 0 0 0.35 0"/>
        </filter>
    </defs>
    <g fill="none" fill-rule="evenodd" transform="translate(12 8)">
        <use fill="#000" filter="url(#a)" xlink:href="#b"/>
        <rect width="333" height="248" x=".5" y=".5" fill="#FFF" stroke="#C2DCF0" stroke-linejoin="square" rx="10"/>
        <use fill="#000" filter="url(#c)" xlink:href="#d"/>
        <rect width="88" height="37" x="35.5" y="32.5" fill="#FFF" stroke="#C2DCF0" stroke-linejoin="square" rx="5"/>
        <use fill="#000" filter="url(#e)" xlink:href="#f"/>
        <rect width="160" height="100" x="35.5" y="110.5" fill="#FFF" stroke="#C2DCF0" stroke-linejoin="square" rx="5"/>
        <rect width="20" height="20" x="162" y="175" fill="#C2DCF0" opacity=".453" rx="2"/>
        <rect width="20" height="20" x="138" y="175" fill="#C2DCF0" opacity=".453" rx="2"/>
        <use fill="#000" filter="url(#g)" xlink:href="#h"/>
        <rect width="88" height="178" x="214.5" y="32.5" fill="#FFF" stroke="#C2DCF0" stroke-linejoin="square" rx="5"/>
        <circle cx="55.5" cy="51.5" r="12.5" fill="url(#i)"/>
        <use fill="#000" filter="url(#j)" xlink:href="#k"/>
        <use fill="url(#l)" xlink:href="#k"/>
        <use fill="#000" filter="url(#m)" xlink:href="#n"/>
        <use fill="url(#l)" xlink:href="#n"/>
        <use fill="#000" filter="url(#o)" xlink:href="#p"/>
        <use fill="url(#l)" xlink:href="#p"/>
        <path fill="#FFF" d="M54.513 47.97H53v2.525h1.513V58h3.108v-7.505h2.085s.196-1.21.29-2.534h-2.363v-1.726c0-.26.339-.606.674-.606H60V43h-2.303c-3.261 0-3.184 2.529-3.184 2.906v2.064zM55.513 188.97H54v2.525h1.513V199h3.108v-7.505h2.085s.196-1.21.29-2.534h-2.363v-1.726c0-.26.339-.606.674-.606H61V184h-2.303c-3.261 0-3.184 2.529-3.184 2.906v2.064z"/>
        <rect width="33" height="4" x="76" y="49" fill="#C2DCF0" rx="2"/>
        <rect width="50" height="4" x="47" y="123" fill="#C2DCF0" opacity=".453" rx="2"/>
        <rect width="50" height="4" x="231" y="48" fill="#C2DCF0" opacity=".453" rx="2"/>
        <rect width="35" height="4" x="248" y="87" fill="#C2DCF0" rx="2"/>
        <rect width="35" height="4" x="248" y="105" fill="#C2DCF0" rx="2"/>
        <rect width="35" height="4" x="248" y="123" fill="#C2DCF0" rx="2"/>
        <rect width="40" height="4" x="35" y="85" fill="#C2DCF0" opacity=".402" rx="2"/>
        <rect width="29" height="29" x="47" y="170" fill="url(#i)" rx="2"/>
        <g stroke="#FFF" stroke-linecap="round" stroke-linejoin="round" stroke-width="2">
            <path d="M61.5 177.326v14.348M68.674 184.5H54.326"/>
        </g>
        <path stroke="#C2DCF0" stroke-linecap="square" d="M36.398 159.5h158.204M214.5 67.5h87"/>
    </g>
</svg>
