<svg xmlns="http://www.w3.org/2000/svg" width="910" height="751" viewBox="0 0 910 751">
    <path fill="#F2F2F2" fill-rule="evenodd" d="M308.474 169.394c-24.661 46.625-50.774 94.11-89.332 126.309-29.11 24.31-63.617 38.449-97.006 54.095-33.388 15.647-67.028 33.816-91.605 63.914-24.578 30.1-38.388 74.806-25.778 113.303 16.199 49.452 69.978 71.222 115.848 63.384 45.871-7.838 86.087-37.712 126.038-64.526 39.952-26.814 83.88-51.944 130.175-48.657 67.266 4.774 119.228 66.89 161.514 126.601 42.285 59.712 87.65 125.484 153.26 143.016 70.08 18.728 145.383-27.759 182.988-97.596 37.604-69.838 42.211-157.55 28.035-237.846-18.155-102.83-78.841-191.27-134.116-269.143C735.512 95.779 633.792-8.323 480.817.53c-31.234 1.808-61.483 17.653-85.601 39.926-37.136 34.294-62.08 82.31-86.742 128.937z"/>
</svg>
