<?xml version="1.0" encoding="UTF-8" standalone="no"?>
<svg
   xmlns:dc="http://purl.org/dc/elements/1.1/"
   xmlns:cc="http://creativecommons.org/ns#"
   xmlns:rdf="http://www.w3.org/1999/02/22-rdf-syntax-ns#"
   xmlns:svg="http://www.w3.org/2000/svg"
   xmlns="http://www.w3.org/2000/svg"
   xmlns:xlink="http://www.w3.org/1999/xlink"
   xmlns:sodipodi="http://sodipodi.sourceforge.net/DTD/sodipodi-0.dtd"
   xmlns:inkscape="http://www.inkscape.org/namespaces/inkscape"
   viewBox="0 0 1172.65 580.45003"
   version="1.1"
   id="svg1177"
   sodipodi:docname="home-main.svg"
   width="1172.65"
   height="580.45001"
   inkscape:version="0.92.3 (2405546, 2018-03-11)">
  <metadata
     id="metadata1181">
    <rdf:RDF>
      <cc:Work
         rdf:about="">
        <dc:format>image/svg+xml</dc:format>
        <dc:type
           rdf:resource="http://purl.org/dc/dcmitype/StillImage" />
        <dc:title>Asset 22</dc:title>
      </cc:Work>
    </rdf:RDF>
  </metadata>
  <sodipodi:namedview
     pagecolor="#ffffff"
     bordercolor="#666666"
     borderopacity="1"
     objecttolerance="10"
     gridtolerance="10"
     guidetolerance="10"
     inkscape:pageopacity="0"
     inkscape:pageshadow="2"
     inkscape:window-width="1920"
     inkscape:window-height="986"
     id="namedview1179"
     showgrid="false"
     fit-margin-top="0"
     fit-margin-left="0"
     fit-margin-right="0"
     fit-margin-bottom="0"
     inkscape:zoom="0.7588944"
     inkscape:cx="575.68"
     inkscape:cy="374.53502"
     inkscape:window-x="-11"
     inkscape:window-y="-11"
     inkscape:window-maximized="1"
     inkscape:current-layer="Linework" />
  <defs
     id="defs837">
    <style
       id="style815">.cls-1{isolation:isolate;}.cls-2{fill:url(#radial-gradient);}.cls-21,.cls-25,.cls-3{fill:#fff;}.cls-3,.cls-6{opacity:0.15;}.cls-4,.cls-5,.cls-6,.cls-7{fill:#58595b;}.cls-5{mix-blend-mode:overlay;}.cls-6,.cls-7{mix-blend-mode:darken;}.cls-7{opacity:0.1;}.cls-8{fill:#e1f5ff;}.cls-9{fill:#24b7ff;}.cls-10{fill:#4dc4ff;}.cls-11{fill:#81d5ff;}.cls-12{fill:#b3e5ff;}.cls-13{fill:url(#radial-gradient-2);}.cls-14{fill:#0d57a4;}.cls-15{fill:url(#radial-gradient-3);}.cls-16{fill:#7700b3;}.cls-17{fill:#d580ff;}.cls-18{fill:#e6b3ff;}.cls-19{fill:url(#radial-gradient-4);}.cls-20{fill:url(#radial-gradient-5);}.cls-22{fill:url(#radial-gradient-6);}.cls-23{fill:url(#radial-gradient-7);}.cls-24{fill:url(#radial-gradient-8);}.cls-25{opacity:0.95;}.cls-26{opacity:0.9;}.cls-27{fill:#a6a8ab;}.cls-28{fill:#929497;}</style>
    <radialGradient
       id="radial-gradient-2"
       cx="1208.22"
       cy="419.37"
       r="226.75999"
       gradientUnits="userSpaceOnUse">
      <stop
         offset="0"
         stop-color="#e1f5ff"
         id="stop822" />
      <stop
         offset="1"
         stop-color="#b3e5ff"
         id="stop824" />
    </radialGradient>
    <radialGradient
       id="radial-gradient-3"
       cx="439.79001"
       cy="771.76001"
       r="205.08"
       gradientUnits="userSpaceOnUse">
      <stop
         offset="0"
         stop-color="#f7e5ff"
         id="stop827" />
      <stop
         offset="1"
         stop-color="#e6b3ff"
         id="stop829" />
    </radialGradient>
    <radialGradient
       id="radial-gradient-4"
       cx="731.77002"
       cy="790.21002"
       r="284.13"
       xlink:href="#radial-gradient-3" />
    <radialGradient
       id="radial-gradient-5"
       cx="299.10999"
       cy="335.64999"
       r="159.75999"
       xlink:href="#radial-gradient-3" />
    <radialGradient
       id="radial-gradient-6"
       cx="564.39001"
       cy="514.37"
       r="291.94"
       xlink:href="#radial-gradient-2" />
    <radialGradient
       id="radial-gradient-7"
       cx="808.39001"
       cy="464.01999"
       r="265.20999"
       xlink:href="#radial-gradient-2" />
    <radialGradient
       id="radial-gradient-8"
       cx="413.07001"
       cy="499.51001"
       r="190.21001"
       xlink:href="#radial-gradient-3" />
    <radialGradient
       inkscape:collect="always"
       xlink:href="#radial-gradient-2"
       id="radialGradient1183"
       gradientUnits="userSpaceOnUse"
       cx="1208.22"
       cy="419.37"
       r="226.75999" />
    <radialGradient
       inkscape:collect="always"
       xlink:href="#radial-gradient-3"
       id="radialGradient1185"
       gradientUnits="userSpaceOnUse"
       cx="439.79001"
       cy="771.76001"
       r="205.08" />
  </defs>
  <title
     id="title839">Asset 22</title>
  <g
     class="cls-1"
     id="g1175"
     style="isolation:isolate"
     transform="translate(-144.32,-296.79001)">
    <g
       id="Layer_2"
       data-name="Layer 2">
      <g
         id="Linework">
        <path
           class="cls-4"
           d="m 355.8,513 c -3.88,-0.33 -7.49,-0.48 -10.51,-0.55 0.26,-46.43 -12.93,-62.63 -17,-67.19 -16.36,-18.47 -46.86,-31.9 -73.73,-22 -21.77,8 -32,28 -34.92,33.63 -8.31,16.19 -8.67,32 -9,49.15 -0.14,6.15 0.07,11.23 0.38,15.65 a 102.16,102.16 0 0 0 -11.59,7.63 c -6.95,5.54 -9.06,14.66 -4.74,19.4 3.06,3.37 10.24,1.3 17.09,-1.57 a 41,41 0 0 1 -2.43,8 c -4.23,10.29 -10.83,17.08 -18.11,24.57 A 127.27,127.27 0 0 1 160.17,603 c 0,0 0,17.68 13.59,23.93 11.3,5.2 24.4,-13.05 38.8,-8.41 12.95,4.18 11.18,21.14 23.93,24.58 11.75,3.17 21.8,-13.07 40.56,-9.69 20.23,3.65 12,21.33 29.28,21.33 27,-48.72 35.45,-91.62 38,-121 3.46,-0.33 7,-0.68 9.95,-1 10,-1.22 16.75,-1.74 17.61,-9.5 0.86,-7.76 -5.21,-9.32 -16.09,-10.24 z"
           id="path845"
           inkscape:connector-curvature="0"
           style="fill:#58595b" />
        <path
           class="cls-4"
           d="m 969.85,764.07 c -25,-12.74 -36.4,-35 -41.39,-45.27 -18.6,-38.26 -2.84,-60.13 -20.37,-83.42 -14.55,-19.35 -42.6,-26.07 -68.23,-18.11 -28.84,9 -39,38.93 -41.39,45.92 -7.17,21.13 -4.16,41.31 2.43,60.56 -6,2.44 -13.58,5.79 -18.17,8.83 -7.41,4.91 -10.3,13.81 -6.42,18.91 3.88,5.1 16.86,0.18 25.36,-3 3.12,-1.16 5.83,-2.19 8,-3 1.84,4.09 3.73,8.12 5.6,12.12 10.1,21.54 30.28,56.76 69.84,90.53 6.31,-25.49 16.41,-30 23.79,-32.6 16.69,-5.8 23.34,7.4 38.22,2.21 13.91,-4.85 0.49,-18.08 22.8,-28.43 9.72,-4.5 19.4,5.16 28,1.91 6.87,-2.58 9.87,-11.44 11.32,-18.1 a 85.87,85.87 0 0 1 -39.39,-9.06 z"
           id="path847"
           inkscape:connector-curvature="0"
           style="fill:#58595b" />
        <ellipse
           class="cls-5"
           cx="1076.76"
           cy="644.10999"
           rx="64.099998"
           ry="11.36"
           id="ellipse849"
           style="mix-blend-mode:overlay;fill:#58595b" />
        <ellipse
           class="cls-5"
           cx="955.25"
           cy="865.88"
           rx="70.389999"
           ry="11.36"
           id="ellipse851"
           style="mix-blend-mode:overlay;fill:#58595b" />
        <ellipse
           class="cls-5"
           cx="228"
           cy="701.32001"
           rx="83.68"
           ry="11.36"
           id="ellipse853"
           style="mix-blend-mode:overlay;fill:#58595b" />
        <path
           class="cls-6"
           d="m 1022.24,587.41 c -16.68,-19.39 -51.87,-65.95 -55.19,-129.34 -0.8,-15.19 -4.35,-48.61 13.2,-79.92 7.06,-12.59 18.81,-27.09 38.54,-33.9 22.62,-7.8 50,0.58 63.8,18.11 7.15,9.09 8.6,20 11.21,41.39 4.6,37.64 -2,43.32 2.59,74.16 2.62,17.77 5.94,38.58 21.56,57.77 a 90.88,90.88 0 0 0 24.14,20.69 c -2.3,6.88 -6.28,9.5 -7.76,10.35 -8.72,5 -17.46,-11.7 -31.9,-8.89 -21.76,4.22 -8.74,18.82 -26.3,21 -17.56,2.18 -17,-11.75 -31.91,-10.88 -18.78,1.05 -20.37,15.43 -21.98,19.46 z"
           id="path855"
           inkscape:connector-curvature="0"
           style="opacity:0.15;mix-blend-mode:darken;fill:#58595b" />
        <path
           class="cls-6"
           d="m 297.06,659.41 c 31.49,-56.85 37.77,-105.8 38.8,-134.51 1.9,-52.48 -12.55,-70.21 -16.81,-75 -16.36,-18.47 -46.86,-31.89 -73.73,-22 -21.77,8 -32,28 -34.92,33.63 -8.31,16.19 -8.67,32 -9.05,49.15 -0.59,26.45 5.06,33.67 -1.29,49.15 -4.23,10.3 -10.83,17.08 -18.11,24.58 a 127.65,127.65 0 0 1 -31,23.28 c 0,0 0,17.67 13.58,23.93 11.3,5.2 24.4,-13.05 38.8,-8.41 13,4.18 11.18,21.13 23.93,24.57 11.74,3.22 21.74,-13.08 40.52,-9.69 20.22,3.65 12.04,21.32 29.28,21.32 z"
           id="path857"
           inkscape:connector-curvature="0"
           style="opacity:0.15;mix-blend-mode:darken;fill:#58595b" />
        <rect
           class="cls-7"
           x="436.16"
           y="356.64999"
           width="519.09003"
           height="324.42999"
           rx="13.9"
           id="rect859"
           style="opacity:0.1;mix-blend-mode:darken;fill:#58595b" />
        <rect
           class="cls-7"
           x="225.35001"
           y="301.42999"
           width="156.78999"
           height="77.709999"
           rx="4.4299998"
           id="rect861"
           style="opacity:0.1;mix-blend-mode:darken;fill:#58595b" />
        <rect
           class="cls-7"
           x="374.23999"
           y="731.53003"
           width="140.37"
           height="89.730003"
           rx="4.4299998"
           id="rect863"
           style="opacity:0.1;mix-blend-mode:darken;fill:#58595b" />
        <path
           class="cls-7"
           d="M 806.21,757.17 H 675.88 a 4.51,4.51 0 0 0 -4.5,4.5 l -7,75.63 a 4.49,4.49 0 0 0 4.5,4.49 h 144.28 a 4.49,4.49 0 0 0 4.5,-4.49 l -6.95,-75.63 a 4.51,4.51 0 0 0 -4.5,-4.5 z"
           id="path865"
           inkscape:connector-curvature="0"
           style="opacity:0.1;mix-blend-mode:darken;fill:#58595b" />
        <rect
           class="cls-7"
           x="1108.73"
           y="361.07999"
           width="208.24001"
           height="125.85"
           rx="6.4000001"
           id="rect867"
           style="opacity:0.1;mix-blend-mode:darken;fill:#58595b" />
        <rect
           class="cls-8"
           x="429.20001"
           y="352.01001"
           width="519.09003"
           height="324.42999"
           rx="13.9"
           id="rect869"
           style="fill:#e1f5ff" />
        <circle
           class="cls-9"
           cx="457.57001"
           cy="371.88"
           r="6.3699999"
           id="circle871"
           style="fill:#24b7ff" />
        <circle
           class="cls-10"
           cx="477.32001"
           cy="371.88"
           r="6.3699999"
           id="circle873"
           style="fill:#4dc4ff" />
        <circle
           class="cls-11"
           cx="497.01999"
           cy="371.88"
           r="6.3699999"
           id="circle875"
           style="fill:#81d5ff" />
        <rect
           class="cls-7"
           x="708.90997"
           y="545.48999"
           width="208.24001"
           height="86.790001"
           rx="6.4000001"
           id="rect877"
           style="opacity:0.1;mix-blend-mode:darken;fill:#58595b" />
        <rect
           class="cls-12"
           x="704.27002"
           y="540.84998"
           width="208.24001"
           height="86.790001"
           rx="6.4000001"
           id="rect879"
           style="fill:#b3e5ff" />
        <path
           class="cls-11"
           d="m 710.62,628.8 a 7.55,7.55 0 0 1 -7.46,-6.77 l 2.3,-0.24 a 5.23,5.23 0 0 0 5.18,4.69 z m 186.79,0 h -9.34 v -2.31 h 9.34 z m -18.68,0 h -9.34 v -2.31 h 9.34 z m -18.68,0 h -9.34 v -2.31 h 9.34 z m -18.68,0 H 832 v -2.31 h 9.33 z m -18.67,0 h -9.34 v -2.31 h 9.34 z m -18.68,0 h -9.34 v -2.31 H 804 Z m -18.68,0 H 776 v -2.31 h 9.34 z m -18.68,0 h -9.34 v -2.31 h 9.34 z m -18.67,0 h -9.34 v -2.31 H 748 Z m -18.68,0 H 720 v -2.31 h 9.34 z m 177.55,0 -0.23,-2.31 a 5.22,5.22 0 0 0 4.72,-5.15 h 2.32 a 7.55,7.55 0 0 1 -6.81,7.42 z M 705.43,612.58 h -2.32 v -9.34 h 2.32 z m 208.24,-0.6 h -2.32 v -9.34 h 2.32 z M 705.43,593.9 h -2.32 v -9.34 h 2.32 z m 208.24,-0.6 h -2.32 V 584 h 2.32 z M 705.43,575.22 h -2.32 v -9.34 h 2.32 z m 208.24,-0.6 h -2.32 v -9.34 h 2.32 z M 705.43,556.54 h -2.32 v -9.29 h 2.32 z M 913.67,556 h -2.32 v -8.7 a 4.58,4.58 0 0 0 0,-0.53 l 2.31,-0.22 c 0,0.24 0,0.5 0,0.75 z m -203.54,-14 -0.26,-2.31 a 7,7 0 0 1 0.8,0 h 8.67 V 542 h -8.67 z m 196.06,0 h -9.42 v -2.32 h 9.34 z m -18.75,0 h -9.34 v -2.32 h 9.34 z m -18.68,0 h -9.34 v -2.32 h 9.34 z m -18.68,0 h -9.34 v -2.32 h 9.34 z m -18.68,0 h -9.34 v -2.32 h 9.34 z m -18.68,0 h -9.33 v -2.32 h 9.33 z m -18.67,0 h -9.34 v -2.32 h 9.34 z m -18.68,0 H 766 v -2.32 h 9.34 z m -18.68,0 h -9.34 v -2.32 h 9.34 z M 738,542 h -9.34 v -2.32 H 738 Z"
           id="path881"
           inkscape:connector-curvature="0"
           style="fill:#81d5ff" />
        <rect
           class="cls-13"
           x="1104.1"
           y="356.45001"
           width="208.24001"
           height="125.85"
           rx="6.4000001"
           id="rect883"
           style="fill:url(#radialGradient1183)" />
        <path
           class="cls-14"
           d="m 1141.18,377.91 a 0.6,0.6 0 0 1 -0.18,-0.44 v -8.3 a 0.89,0.89 0 0 1 0.27,-0.65 0.85,0.85 0 0 1 0.64,-0.27 h 0.46 a 0.84,0.84 0 0 1 0.5,0.17 1,1 0 0 1 0.34,0.41 l 3.16,7.88 3.16,-7.88 a 1,1 0 0 1 0.34,-0.41 0.84,0.84 0 0 1 0.5,-0.17 h 0.46 a 0.85,0.85 0 0 1 0.64,0.27 0.89,0.89 0 0 1 0.27,0.65 v 8.3 a 0.6,0.6 0 0 1 -0.18,0.44 0.62,0.62 0 0 1 -0.45,0.19 0.64,0.64 0 0 1 -0.45,-0.19 0.61,0.61 0 0 1 -0.19,-0.44 v -7.9 l -3.21,7.94 a 0.85,0.85 0 0 1 -0.35,0.42 1,1 0 0 1 -0.54,0.17 0.93,0.93 0 0 1 -0.53,-0.17 0.82,0.82 0 0 1 -0.36,-0.42 l -3.21,-7.94 v 7.9 a 0.58,0.58 0 0 1 -0.19,0.44 0.64,0.64 0 0 1 -0.45,0.19 0.62,0.62 0 0 1 -0.45,-0.19 z"
           id="path885"
           inkscape:connector-curvature="0"
           style="fill:#0d57a4" />
        <path
           class="cls-14"
           d="m 1154.86,377.91 a 2,2 0 0 1 -0.83,-0.72 2.07,2.07 0 0 1 -0.3,-1.11 2,2 0 0 1 0.81,-1.64 3.91,3.91 0 0 1 2.38,-0.61 h 1.69 v -0.11 a 1.67,1.67 0 0 0 -0.46,-1.33 2.12,2.12 0 0 0 -1.41,-0.4 4.48,4.48 0 0 0 -0.94,0.09 7.33,7.33 0 0 0 -0.91,0.24 h -0.18 a 0.49,0.49 0 0 1 -0.36,-0.15 0.56,0.56 0 0 1 0.21,-0.9 6,6 0 0 1 2.4,-0.51 3.28,3.28 0 0 1 1.63,0.39 2.54,2.54 0 0 1 1,1 2.9,2.9 0 0 1 0.31,1.34 v 3.94 a 0.58,0.58 0 0 1 -0.19,0.44 0.62,0.62 0 0 1 -0.89,0 0.6,0.6 0 0 1 -0.18,-0.44 v -0.36 a 3.53,3.53 0 0 1 -2.62,1.06 2.54,2.54 0 0 1 -1.16,-0.22 z m 2.79,-1.16 a 3.24,3.24 0 0 0 1,-0.74 v -1.17 h -1.52 c -1.4,0 -2.1,0.37 -2.1,1.1 a 1,1 0 0 0 0.34,0.81 1.72,1.72 0 0 0 1.13,0.3 2.53,2.53 0 0 0 1.15,-0.3 z"
           id="path887"
           inkscape:connector-curvature="0"
           style="fill:#0d57a4" />
        <path
           class="cls-14"
           d="m 1162.18,377.91 a 0.6,0.6 0 0 1 -0.18,-0.44 v -6 a 0.64,0.64 0 0 1 0.18,-0.45 0.61,0.61 0 0 1 0.44,-0.19 0.66,0.66 0 0 1 0.46,0.19 0.64,0.64 0 0 1 0.18,0.45 v 0.6 a 2.76,2.76 0 0 1 2.19,-1.31 h 0.07 a 0.57,0.57 0 0 1 0.43,0.19 0.59,0.59 0 0 1 0.18,0.44 0.55,0.55 0 0 1 -0.18,0.43 0.67,0.67 0 0 1 -0.46,0.17 h -0.07 a 2.41,2.41 0 0 0 -1.22,0.32 2.79,2.79 0 0 0 -0.94,0.9 v 4.23 a 0.6,0.6 0 0 1 -0.18,0.44 0.66,0.66 0 0 1 -0.46,0.19 0.61,0.61 0 0 1 -0.44,-0.16 z"
           id="path889"
           inkscape:connector-curvature="0"
           style="fill:#0d57a4" />
        <path
           class="cls-14"
           d="m 1167.5,377.91 a 0.6,0.6 0 0 1 -0.18,-0.44 v -9 a 0.65,0.65 0 0 1 0.18,-0.46 0.64,0.64 0 0 1 1.09,0.46 v 5.68 l 3.31,-3.06 a 0.65,0.65 0 0 1 0.42,-0.18 0.56,0.56 0 0 1 0.46,0.18 0.66,0.66 0 0 1 0.15,0.43 0.69,0.69 0 0 1 -0.24,0.48 l -2,1.79 2.51,3.34 a 0.55,0.55 0 0 1 0.14,0.37 0.58,0.58 0 0 1 -0.18,0.45 0.65,0.65 0 0 1 -0.46,0.17 0.56,0.56 0 0 1 -0.27,-0.08 0.57,0.57 0 0 1 -0.24,-0.19 l -2.39,-3.25 -1.21,1.1 v 1.79 a 0.58,0.58 0 0 1 -0.19,0.44 0.63,0.63 0 0 1 -0.9,0 z"
           id="path891"
           inkscape:connector-curvature="0"
           style="fill:#0d57a4" />
        <path
           class="cls-14"
           d="m 1175.3,377.2 a 3.7,3.7 0 0 1 -1,-2.72 4.35,4.35 0 0 1 0.36,-1.82 3.05,3.05 0 0 1 1.11,-1.35 3.23,3.23 0 0 1 1.85,-0.52 3.33,3.33 0 0 1 1.78,0.48 3.16,3.16 0 0 1 1.14,1.29 3.9,3.9 0 0 1 0.39,1.74 0.59,0.59 0 0 1 -0.18,0.44 0.57,0.57 0 0 1 -0.46,0.18 h -4.72 a 2.31,2.31 0 0 0 0.73,1.52 2.51,2.51 0 0 0 1.71,0.54 3.89,3.89 0 0 0 1,-0.11 3.8,3.8 0 0 0 0.85,-0.32 0.7,0.7 0 0 1 0.25,-0.05 0.56,0.56 0 0 1 0.39,0.15 0.48,0.48 0 0 1 0.17,0.39 0.6,0.6 0 0 1 -0.36,0.51 4.67,4.67 0 0 1 -1.07,0.46 5.07,5.07 0 0 1 -1.36,0.16 3.55,3.55 0 0 1 -2.58,-0.97 z m 4.43,-3.31 a 2.19,2.19 0 0 0 -0.36,-1.13 1.85,1.85 0 0 0 -0.77,-0.68 2.26,2.26 0 0 0 -0.93,-0.22 2.19,2.19 0 0 0 -0.93,0.22 1.85,1.85 0 0 0 -0.77,0.68 2.29,2.29 0 0 0 -0.35,1.13 z"
           id="path893"
           inkscape:connector-curvature="0"
           style="fill:#0d57a4" />
        <path
           class="cls-14"
           d="M 1183.06,376.33 V 372 h -1 a 0.27,0.27 0 0 1 -0.27,-0.27 0.27,0.27 0 0 1 0.13,-0.23 l 1.89,-1.85 a 0.37,0.37 0 0 1 0.23,-0.13 0.23,0.23 0 0 1 0.19,0.09 0.27,0.27 0 0 1 0.08,0.19 v 1.11 h 1.57 a 0.5,0.5 0 0 1 0.39,0.16 0.53,0.53 0 0 1 0.15,0.39 0.55,0.55 0 0 1 -0.15,0.38 0.5,0.5 0 0 1 -0.39,0.16 h -1.57 v 4.2 c 0,0.36 0.09,0.59 0.26,0.69 a 1.35,1.35 0 0 0 0.64,0.14 2.16,2.16 0 0 0 0.56,-0.08 h 0.12 0.16 a 0.45,0.45 0 0 1 0.34,0.14 0.46,0.46 0 0 1 0.16,0.36 0.52,0.52 0 0 1 -0.32,0.48 2.7,2.7 0 0 1 -1.16,0.26 c -1.33,-0.02 -2.01,-0.64 -2.01,-1.86 z"
           id="path895"
           inkscape:connector-curvature="0"
           style="fill:#0d57a4" />
        <path
           class="cls-14"
           d="m 1188.05,369.28 a 0.72,0.72 0 0 1 -0.2,-0.5 v -0.06 a 0.72,0.72 0 0 1 0.2,-0.5 0.69,0.69 0 0 1 0.51,-0.2 h 0.08 a 0.68,0.68 0 0 1 0.5,0.2 0.69,0.69 0 0 1 0.21,0.5 v 0.06 a 0.72,0.72 0 0 1 -0.71,0.71 h -0.08 a 0.69,0.69 0 0 1 -0.51,-0.21 z m 0.09,8.63 a 0.6,0.6 0 0 1 -0.18,-0.44 v -6 a 0.64,0.64 0 0 1 0.18,-0.45 0.61,0.61 0 0 1 0.44,-0.19 0.63,0.63 0 0 1 0.46,0.19 0.61,0.61 0 0 1 0.18,0.45 v 6 a 0.6,0.6 0 0 1 -0.18,0.44 0.66,0.66 0 0 1 -0.46,0.19 0.61,0.61 0 0 1 -0.44,-0.19 z"
           id="path897"
           inkscape:connector-curvature="0"
           style="fill:#0d57a4" />
        <path
           class="cls-14"
           d="m 1191.6,377.91 a 0.6,0.6 0 0 1 -0.18,-0.44 v -6 a 0.64,0.64 0 0 1 0.18,-0.45 0.62,0.62 0 0 1 0.45,-0.19 0.65,0.65 0 0 1 0.45,0.19 0.64,0.64 0 0 1 0.18,0.45 v 0.58 a 4.75,4.75 0 0 1 1.15,-0.94 2.87,2.87 0 0 1 1.44,-0.35 2.44,2.44 0 0 1 1.33,0.37 2.34,2.34 0 0 1 0.86,1 3.17,3.17 0 0 1 0.3,1.38 v 4 a 0.58,0.58 0 0 1 -0.19,0.44 0.62,0.62 0 0 1 -0.89,0 0.6,0.6 0 0 1 -0.18,-0.44 v -3.81 c 0,-1.13 -0.51,-1.7 -1.53,-1.7 a 2.23,2.23 0 0 0 -1.25,0.36 4.75,4.75 0 0 0 -1,1 v 4.17 a 0.6,0.6 0 0 1 -0.18,0.44 0.65,0.65 0 0 1 -0.45,0.19 0.62,0.62 0 0 1 -0.49,-0.25 z"
           id="path899"
           inkscape:connector-curvature="0"
           style="fill:#0d57a4" />
        <path
           class="cls-14"
           d="m 1201.57,381.15 a 5.46,5.46 0 0 1 -1.35,-0.51 0.52,0.52 0 0 1 -0.25,-0.49 0.54,0.54 0 0 1 0.16,-0.39 0.52,0.52 0 0 1 0.4,-0.18 0.69,0.69 0 0 1 0.25,0.06 5.07,5.07 0 0 0 2.29,0.53 c 1.42,0 2.13,-0.76 2.13,-2.27 V 377 a 3.15,3.15 0 0 1 -2.38,1 3.3,3.3 0 0 1 -2.86,-1.63 4.17,4.17 0 0 1 0,-4 3.23,3.23 0 0 1 1.27,-1.22 3.26,3.26 0 0 1 1.59,-0.42 3.16,3.16 0 0 1 2.38,1.06 v -0.35 a 0.64,0.64 0 0 1 0.18,-0.45 0.61,0.61 0 0 1 0.44,-0.19 0.66,0.66 0 0 1 0.46,0.19 0.64,0.64 0 0 1 0.18,0.45 v 6.22 a 3.93,3.93 0 0 1 -0.84,2.7 3.1,3.1 0 0 1 -2.42,0.94 6.57,6.57 0 0 1 -1.63,-0.15 z m 2.67,-4.56 a 4,4 0 0 0 1,-0.75 V 373 a 4,4 0 0 0 -1,-0.75 2.29,2.29 0 0 0 -1.16,-0.28 2.37,2.37 0 0 0 -1.7,0.63 2.87,2.87 0 0 0 0,3.66 2.37,2.37 0 0 0 1.7,0.63 2.29,2.29 0 0 0 1.16,-0.3 z"
           id="path901"
           inkscape:connector-curvature="0"
           style="fill:#0d57a4" />
        <path
           class="cls-14"
           d="m 1213.71,377.72 a 3.42,3.42 0 0 1 -1.36,-1.28 4,4 0 0 1 0,-3.92 3.42,3.42 0 0 1 1.36,-1.28 3.86,3.86 0 0 1 1.85,-0.45 4,4 0 0 1 1.27,0.19 5.34,5.34 0 0 1 1,0.48 0.55,0.55 0 0 1 0.28,0.49 0.52,0.52 0 0 1 -0.16,0.38 0.49,0.49 0 0 1 -0.37,0.18 0.58,0.58 0 0 1 -0.3,-0.09 6.45,6.45 0 0 0 -0.79,-0.34 2.71,2.71 0 0 0 -0.81,-0.1 2.53,2.53 0 0 0 -1.88,0.69 2.75,2.75 0 0 0 0,3.62 2.53,2.53 0 0 0 1.88,0.69 2.71,2.71 0 0 0 0.81,-0.1 5.19,5.19 0 0 0 0.79,-0.34 0.58,0.58 0 0 1 0.3,-0.09 0.49,0.49 0 0 1 0.37,0.18 0.52,0.52 0 0 1 0.16,0.38 0.56,0.56 0 0 1 -0.28,0.49 5.34,5.34 0 0 1 -1,0.48 4,4 0 0 1 -1.27,0.19 3.86,3.86 0 0 1 -1.85,-0.45 z"
           id="path903"
           inkscape:connector-curvature="0"
           style="fill:#0d57a4" />
        <path
           class="cls-14"
           d="m 1220.36,377.91 a 2,2 0 0 1 -0.83,-0.72 2.07,2.07 0 0 1 -0.3,-1.11 2,2 0 0 1 0.81,-1.64 3.92,3.92 0 0 1 2.39,-0.61 h 1.68 v -0.11 a 1.67,1.67 0 0 0 -0.46,-1.33 2.12,2.12 0 0 0 -1.41,-0.4 4.31,4.31 0 0 0 -0.93,0.09 6.51,6.51 0 0 0 -0.91,0.24 h -0.19 a 0.49,0.49 0 0 1 -0.36,-0.15 0.56,0.56 0 0 1 0.21,-0.9 6,6 0 0 1 2.41,-0.51 3.24,3.24 0 0 1 1.62,0.39 2.47,2.47 0 0 1 1,1 2.9,2.9 0 0 1 0.31,1.34 v 3.94 a 0.58,0.58 0 0 1 -0.19,0.44 0.62,0.62 0 0 1 -0.89,0 0.6,0.6 0 0 1 -0.18,-0.44 v -0.36 a 3.53,3.53 0 0 1 -2.62,1.06 2.57,2.57 0 0 1 -1.16,-0.22 z m 2.79,-1.16 a 3.24,3.24 0 0 0 1,-0.74 v -1.17 h -1.52 c -1.4,0 -2.1,0.37 -2.1,1.1 a 1.08,1.08 0 0 0 0.34,0.81 1.73,1.73 0 0 0 1.14,0.3 2.52,2.52 0 0 0 1.14,-0.3 z"
           id="path905"
           inkscape:connector-curvature="0"
           style="fill:#0d57a4" />
        <path
           class="cls-14"
           d="m 1227.68,377.91 a 0.6,0.6 0 0 1 -0.18,-0.44 v -6 a 0.64,0.64 0 0 1 0.18,-0.45 0.62,0.62 0 0 1 0.45,-0.19 0.65,0.65 0 0 1 0.45,0.19 0.64,0.64 0 0 1 0.18,0.45 v 0.58 a 3.57,3.57 0 0 1 0.94,-0.92 2.59,2.59 0 0 1 1.43,-0.37 2.13,2.13 0 0 1 1.33,0.42 2.31,2.31 0 0 1 0.8,1 2.78,2.78 0 0 1 2.55,-1.44 2.21,2.21 0 0 1 1.31,0.39 2.42,2.42 0 0 1 0.77,1 3.42,3.42 0 0 1 0.25,1.27 v 4 a 0.61,0.61 0 0 1 -0.19,0.44 0.65,0.65 0 0 1 -0.45,0.19 0.62,0.62 0 0 1 -0.45,-0.19 0.6,0.6 0 0 1 -0.18,-0.44 v -3.75 a 2.22,2.22 0 0 0 -0.32,-1.33 1.27,1.27 0 0 0 -1.1,-0.43 1.86,1.86 0 0 0 -1.17,0.37 3.63,3.63 0 0 0 -0.83,1 v 4.17 a 0.58,0.58 0 0 1 -0.19,0.44 0.62,0.62 0 0 1 -0.89,0 0.6,0.6 0 0 1 -0.18,-0.44 v -3.75 a 2.22,2.22 0 0 0 -0.32,-1.33 1.28,1.28 0 0 0 -1.1,-0.43 1.87,1.87 0 0 0 -1.18,0.37 3.82,3.82 0 0 0 -0.83,1 v 4.17 a 0.6,0.6 0 0 1 -0.18,0.44 0.65,0.65 0 0 1 -0.45,0.19 0.62,0.62 0 0 1 -0.45,-0.18 z"
           id="path907"
           inkscape:connector-curvature="0"
           style="fill:#0d57a4" />
        <path
           class="cls-14"
           d="m 1240.44,381.1 a 0.61,0.61 0 0 1 -0.18,-0.45 v -9.16 a 0.59,0.59 0 0 1 0.18,-0.44 0.63,0.63 0 0 1 0.9,0 0.56,0.56 0 0 1 0.19,0.44 v 0.36 a 3.22,3.22 0 0 1 2.38,-1.06 3.27,3.27 0 0 1 1.63,0.44 3.42,3.42 0 0 1 1.25,1.28 4.28,4.28 0 0 1 0,3.94 3.42,3.42 0 0 1 -1.25,1.28 3.27,3.27 0 0 1 -1.63,0.44 3.22,3.22 0 0 1 -2.38,-1.06 v 3.54 a 0.62,0.62 0 0 1 -0.64,0.64 0.58,0.58 0 0 1 -0.45,-0.19 z m 4.94,-4.77 a 3,3 0 0 0 0,-3.7 2.21,2.21 0 0 0 -1.65,-0.65 2.66,2.66 0 0 0 -1.21,0.28 3.45,3.45 0 0 0 -1,0.76 v 2.92 a 3.45,3.45 0 0 0 1,0.76 2.66,2.66 0 0 0 1.21,0.28 2.21,2.21 0 0 0 1.65,-0.65 z"
           id="path909"
           inkscape:connector-curvature="0"
           style="fill:#0d57a4" />
        <path
           class="cls-14"
           d="m 1249.71,377.91 a 2,2 0 0 1 -0.82,-0.72 2,2 0 0 1 -0.31,-1.11 2,2 0 0 1 0.81,-1.64 3.94,3.94 0 0 1 2.39,-0.61 h 1.68 v -0.11 a 1.71,1.71 0 0 0 -0.45,-1.33 2.14,2.14 0 0 0 -1.41,-0.4 4.35,4.35 0 0 0 -0.94,0.09 6.51,6.51 0 0 0 -0.91,0.24 h -0.18 a 0.53,0.53 0 0 1 -0.37,-0.15 0.56,0.56 0 0 1 0.21,-0.9 6,6 0 0 1 2.41,-0.51 3.24,3.24 0 0 1 1.62,0.39 2.47,2.47 0 0 1 1,1 2.9,2.9 0 0 1 0.31,1.34 v 3.94 a 0.6,0.6 0 0 1 -0.18,0.44 0.65,0.65 0 0 1 -0.45,0.19 0.62,0.62 0 0 1 -0.45,-0.19 0.6,0.6 0 0 1 -0.18,-0.44 v -0.36 a 3.52,3.52 0 0 1 -2.61,1.06 2.58,2.58 0 0 1 -1.17,-0.22 z m 2.79,-1.16 a 3.24,3.24 0 0 0 1,-0.74 v -1.17 h -1.52 c -1.4,0 -2.09,0.37 -2.09,1.1 a 1.07,1.07 0 0 0 0.33,0.81 1.73,1.73 0 0 0 1.14,0.3 2.49,2.49 0 0 0 1.14,-0.3 z"
           id="path911"
           inkscape:connector-curvature="0"
           style="fill:#0d57a4" />
        <path
           class="cls-14"
           d="m 1257,369.28 a 0.69,0.69 0 0 1 -0.21,-0.5 v -0.06 a 0.69,0.69 0 0 1 0.21,-0.5 0.68,0.68 0 0 1 0.5,-0.2 h 0.08 a 0.7,0.7 0 0 1 0.51,0.2 0.72,0.72 0 0 1 0.2,0.5 v 0.06 a 0.72,0.72 0 0 1 -0.2,0.5 0.71,0.71 0 0 1 -0.51,0.21 h -0.08 a 0.69,0.69 0 0 1 -0.5,-0.21 z m 0.08,8.63 a 0.6,0.6 0 0 1 -0.18,-0.44 v -6 a 0.64,0.64 0 0 1 0.18,-0.45 0.62,0.62 0 0 1 0.45,-0.19 0.64,0.64 0 0 1 0.46,0.19 0.61,0.61 0 0 1 0.18,0.45 v 6 a 0.58,0.58 0 0 1 -0.19,0.44 0.65,0.65 0 0 1 -0.45,0.19 0.62,0.62 0 0 1 -0.53,-0.19 z"
           id="path913"
           inkscape:connector-curvature="0"
           style="fill:#0d57a4" />
        <path
           class="cls-14"
           d="m 1262,381.15 a 5.46,5.46 0 0 1 -1.35,-0.51 0.52,0.52 0 0 1 -0.25,-0.49 0.54,0.54 0 0 1 0.16,-0.39 0.5,0.5 0 0 1 0.39,-0.18 0.69,0.69 0 0 1 0.26,0.06 5,5 0 0 0 2.29,0.53 c 1.42,0 2.13,-0.76 2.13,-2.27 V 377 a 3.17,3.17 0 0 1 -2.38,1 3.35,3.35 0 0 1 -1.59,-0.4 3.42,3.42 0 0 1 -1.28,-1.23 4.17,4.17 0 0 1 0,-4 3.32,3.32 0 0 1 1.28,-1.22 3.26,3.26 0 0 1 1.59,-0.42 3.18,3.18 0 0 1 2.38,1.06 v -0.35 a 0.64,0.64 0 0 1 0.18,-0.45 0.64,0.64 0 0 1 1.08,0.45 v 6.22 a 3.89,3.89 0 0 1 -0.85,2.7 3.07,3.07 0 0 1 -2.42,0.94 6.49,6.49 0 0 1 -1.62,-0.15 z m 2.67,-4.56 a 4,4 0 0 0 1,-0.75 V 373 a 4,4 0 0 0 -1,-0.75 2.32,2.32 0 0 0 -1.16,-0.28 2.37,2.37 0 0 0 -1.7,0.63 2.87,2.87 0 0 0 0,3.66 2.37,2.37 0 0 0 1.7,0.63 2.32,2.32 0 0 0 1.16,-0.3 z"
           id="path915"
           inkscape:connector-curvature="0"
           style="fill:#0d57a4" />
        <path
           class="cls-14"
           d="m 1269.27,377.91 a 0.6,0.6 0 0 1 -0.18,-0.44 v -6 a 0.64,0.64 0 0 1 0.18,-0.45 0.61,0.61 0 0 1 0.44,-0.19 0.66,0.66 0 0 1 0.46,0.19 0.64,0.64 0 0 1 0.18,0.45 v 0.58 a 4.91,4.91 0 0 1 1.14,-0.94 2.94,2.94 0 0 1 1.45,-0.35 2.44,2.44 0 0 1 1.33,0.37 2.41,2.41 0 0 1 0.86,1 3.17,3.17 0 0 1 0.3,1.38 v 4 a 0.58,0.58 0 0 1 -0.19,0.44 0.62,0.62 0 0 1 -0.45,0.19 0.58,0.58 0 0 1 -0.44,-0.19 0.61,0.61 0 0 1 -0.19,-0.44 v -3.81 c 0,-1.13 -0.51,-1.7 -1.53,-1.7 a 2.22,2.22 0 0 0 -1.24,0.36 4.75,4.75 0 0 0 -1,1 v 4.17 a 0.6,0.6 0 0 1 -0.18,0.44 0.66,0.66 0 0 1 -0.46,0.19 0.61,0.61 0 0 1 -0.48,-0.25 z"
           id="path917"
           inkscape:connector-curvature="0"
           style="fill:#0d57a4" />
        <polygon
           class="cls-11"
           points="1139.85,386.39 1142.17,386.39 1142.17,440.4 1272.51,440.4 1272.51,442.71 1139.85,442.71 "
           id="polygon919"
           style="fill:#81d5ff" />
        <polygon
           class="cls-11"
           points="1171.06,412.55 1192.24,425.03 1215.94,407.22 1235.04,418 1269.57,393.75 1270.9,395.64 1235.18,420.74 1216.12,409.98 1192.39,427.82 1171.32,415.4 1151.42,432.75 1149.9,431.01 "
           id="polygon921"
           style="fill:#81d5ff" />
        <path
           class="cls-11"
           d="m 1263.67,412.9 a 1.14,1.14 0 0 1 -0.63,-1.51 l 6.76,-16.39 -17.71,0.8 a 1.16,1.16 0 1 1 -0.11,-2.31 l 19.53,-0.89 a 1.15,1.15 0 0 1 1.12,1.6 l -7.45,18.07 a 1.15,1.15 0 0 1 -0.41,0.51 1.13,1.13 0 0 1 -1.1,0.12 z"
           id="path923"
           inkscape:connector-curvature="0"
           style="fill:#81d5ff" />
        <rect
           class="cls-12"
           x="1141.01"
           y="455.70999"
           width="131.5"
           height="8.04"
           id="rect925"
           style="fill:#b3e5ff" />
        <circle
           class="cls-11"
           cx="1171.04"
           cy="413.97"
           r="4.6300001"
           id="circle927"
           style="fill:#81d5ff" />
        <circle
           class="cls-11"
           cx="1150.66"
           cy="431.88"
           r="4.6300001"
           id="circle929"
           style="fill:#81d5ff" />
        <circle
           class="cls-11"
           cx="1192.37"
           cy="426.44"
           r="4.6300001"
           id="circle931"
           style="fill:#81d5ff" />
        <circle
           class="cls-11"
           cx="1216.25"
           cy="409.34"
           r="4.6300001"
           id="circle933"
           style="fill:#81d5ff" />
        <circle
           class="cls-11"
           cx="1235.3199"
           cy="419.37"
           r="4.6300001"
           id="circle935"
           style="fill:#81d5ff" />
        <rect
           class="cls-15"
           x="369.60001"
           y="726.89001"
           width="140.37"
           height="89.730003"
           rx="4.4299998"
           id="rect937"
           style="fill:url(#radialGradient1185)" />
        <path
           class="cls-16"
           d="m 389.65,747.72 a 0.6,0.6 0 0 1 -0.18,-0.44 v -8.44 a 0.61,0.61 0 0 1 0.18,-0.45 0.58,0.58 0 0 1 0.45,-0.19 h 3.28 a 3.51,3.51 0 0 1 2.3,0.68 2.26,2.26 0 0 1 0.81,1.83 2.19,2.19 0 0 1 -1.36,2.14 3.12,3.12 0 0 1 1.37,0.86 2,2 0 0 1 0.53,1.47 2.45,2.45 0 0 1 -0.86,2 4.18,4.18 0 0 1 -2.71,0.72 h -3.36 a 0.61,0.61 0 0 1 -0.45,-0.18 z m 3.4,-5.32 a 2.72,2.72 0 0 0 1.73,-0.42 1.42,1.42 0 0 0 0.5,-1.17 1.24,1.24 0 0 0 -0.53,-1 2.47,2.47 0 0 0 -1.47,-0.39 h -2.54 v 3 z m 0.29,4.32 a 3.29,3.29 0 0 0 1.91,-0.42 1.38,1.38 0 0 0 0.56,-1.18 c 0,-1 -0.82,-1.58 -2.46,-1.58 h -2.61 v 3.18 z"
           id="path939"
           inkscape:connector-curvature="0"
           style="fill:#7700b3" />
        <path
           class="cls-16"
           d="m 398.94,747.79 a 0.6,0.6 0 0 1 -0.18,-0.44 v -9 a 0.64,0.64 0 0 1 0.18,-0.45 0.62,0.62 0 0 1 0.45,-0.19 0.65,0.65 0 0 1 0.46,0.18 0.63,0.63 0 0 1 0.17,0.46 v 9 a 0.6,0.6 0 0 1 -0.18,0.44 0.64,0.64 0 0 1 -0.45,0.18 0.61,0.61 0 0 1 -0.45,-0.18 z"
           id="path941"
           inkscape:connector-curvature="0"
           style="fill:#7700b3" />
        <path
           class="cls-16"
           d="m 403.47,747.58 a 3.11,3.11 0 0 1 -1.24,-1.3 4.12,4.12 0 0 1 -0.44,-1.92 4.16,4.16 0 0 1 0.44,-1.93 3.17,3.17 0 0 1 1.24,-1.3 3.82,3.82 0 0 1 1.88,-0.46 3.72,3.72 0 0 1 1.86,0.46 3.22,3.22 0 0 1 1.26,1.3 4.16,4.16 0 0 1 0.44,1.93 4.12,4.12 0 0 1 -0.44,1.92 3.16,3.16 0 0 1 -1.26,1.3 3.62,3.62 0 0 1 -1.86,0.46 3.72,3.72 0 0 1 -1.88,-0.46 z m 3,-1 a 2,2 0 0 0 0.86,-0.83 3.14,3.14 0 0 0 0,-2.88 2,2 0 0 0 -0.86,-0.82 2.33,2.33 0 0 0 -1.09,-0.26 2.38,2.38 0 0 0 -1.11,0.26 2,2 0 0 0 -0.85,0.82 3.31,3.31 0 0 0 0,2.88 2.05,2.05 0 0 0 0.85,0.83 2.39,2.39 0 0 0 1.11,0.27 2.34,2.34 0 0 0 1.06,-0.23 z"
           id="path943"
           inkscape:connector-curvature="0"
           style="fill:#7700b3" />
        <path
           class="cls-16"
           d="m 412.36,751 a 5.46,5.46 0 0 1 -1.35,-0.51 0.53,0.53 0 0 1 -0.25,-0.49 0.57,0.57 0 0 1 0.16,-0.4 0.54,0.54 0 0 1 0.39,-0.17 0.69,0.69 0 0 1 0.26,0.06 5,5 0 0 0 2.29,0.52 c 1.42,0 2.13,-0.75 2.13,-2.26 v -0.93 a 3.15,3.15 0 0 1 -2.38,1 3.25,3.25 0 0 1 -1.59,-0.41 3.32,3.32 0 0 1 -1.28,-1.22 4.17,4.17 0 0 1 0,-4 3.37,3.37 0 0 1 2.87,-1.64 3.16,3.16 0 0 1 2.38,1.06 v -0.35 a 0.64,0.64 0 0 1 0.18,-0.45 0.58,0.58 0 0 1 0.44,-0.19 0.62,0.62 0 0 1 0.46,0.19 0.64,0.64 0 0 1 0.18,0.45 v 6.22 a 3.9,3.9 0 0 1 -0.85,2.7 3.1,3.1 0 0 1 -2.41,0.94 6.51,6.51 0 0 1 -1.63,-0.12 z m 2.67,-4.56 a 4,4 0 0 0 1,-0.75 v -2.87 a 4.27,4.27 0 0 0 -1,-0.74 2.32,2.32 0 0 0 -1.16,-0.28 2.37,2.37 0 0 0 -1.7,0.63 2.87,2.87 0 0 0 0,3.66 2.37,2.37 0 0 0 1.7,0.63 2.32,2.32 0 0 0 1.13,-0.25 z"
           id="path945"
           inkscape:connector-curvature="0"
           style="fill:#7700b3" />
        <rect
           class="cls-17"
           x="388.12"
           y="760.91998"
           width="25.42"
           height="25.42"
           rx="1.9"
           id="rect947"
           style="fill:#d580ff" />
        <rect
           class="cls-18"
           x="425.13"
           y="760.91998"
           width="66.32"
           height="8.04"
           id="rect949"
           style="fill:#e6b3ff" />
        <rect
           class="cls-18"
           x="425.13"
           y="778.29999"
           width="53.34"
           height="8.04"
           id="rect951"
           style="fill:#e6b3ff" />
        <path
           class="cls-19"
           d="M 796.94,747.9 H 666.61 a 4.51,4.51 0 0 0 -4.5,4.5 l -7,75.63 a 4.49,4.49 0 0 0 4.5,4.49 h 144.28 a 4.49,4.49 0 0 0 4.5,-4.49 l -6.95,-75.63 a 4.51,4.51 0 0 0 -4.5,-4.5 z"
           id="path953"
           inkscape:connector-curvature="0"
           style="fill:url(#radial-gradient-4)" />
        <polygon
           class="cls-18"
           points="687.8,819.17 691.55,761.26 684.53,761.26 680.77,819.17 "
           id="polygon955"
           style="fill:#e6b3ff" />
        <polygon
           class="cls-18"
           points="713.02,819.17 714.46,761.26 707.43,761.26 706,819.17 "
           id="polygon957"
           style="fill:#e6b3ff" />
        <polygon
           class="cls-18"
           points="738.29,819.17 737.41,761.26 730.39,761.26 731.27,819.17 "
           id="polygon959"
           style="fill:#e6b3ff" />
        <path
           class="cls-17"
           d="m 753.05,773.48 1.51,32.52 a 4.2,4.2 0 0 0 4.19,4 H 781 a 4.19,4.19 0 0 0 4.19,-4.39 l -1.51,-32.56 a 4.2,4.2 0 0 0 -4.19,-4 h -22.25 a 4.2,4.2 0 0 0 -4.19,4.43 z"
           id="path961"
           inkscape:connector-curvature="0"
           style="fill:#d580ff" />
        <rect
           class="cls-20"
           x="220.72"
           y="296.79001"
           width="156.78999"
           height="77.709999"
           rx="4.4299998"
           id="rect963"
           style="fill:url(#radial-gradient-5)" />
        <rect
           class="cls-17"
           x="247.45"
           y="313.06"
           width="25.42"
           height="25.42"
           rx="1.9"
           id="rect965"
           style="fill:#d580ff" />
        <rect
           class="cls-18"
           x="284.45001"
           y="313.06"
           width="66.32"
           height="8.04"
           id="rect967"
           style="fill:#e6b3ff" />
        <rect
           class="cls-18"
           x="284.45001"
           y="330.42999"
           width="53.34"
           height="8.04"
           id="rect969"
           style="fill:#e6b3ff" />
        <rect
           class="cls-16"
           x="269.01001"
           y="350.84"
           width="60.209999"
           height="17.219999"
           rx="2.3199999"
           id="rect971"
           style="fill:#7700b3" />
        <path
           class="cls-21"
           d="m 286,364.48 a 0.61,0.61 0 0 1 -0.18,-0.45 v -8.5 a 0.61,0.61 0 0 1 0.18,-0.45 0.58,0.58 0 0 1 0.45,-0.19 h 3.17 a 4.49,4.49 0 0 1 2.15,0.44 2.77,2.77 0 0 1 1.2,1.14 3.25,3.25 0 0 1 0.36,1.5 3.19,3.19 0 0 1 -0.36,1.5 2.73,2.73 0 0 1 -1.2,1.15 4.61,4.61 0 0 1 -2.15,0.44 H 287 v 3 a 0.62,0.62 0 0 1 -0.19,0.45 0.64,0.64 0 0 1 -0.45,0.18 0.61,0.61 0 0 1 -0.36,-0.21 z m 3.49,-4.62 a 2.92,2.92 0 0 0 2,-0.54 1.85,1.85 0 0 0 0,-2.69 2.87,2.87 0 0 0 -2,-0.55 H 287 v 3.78 z"
           id="path973"
           inkscape:connector-curvature="0"
           style="fill:#ffffff" />
        <path
           class="cls-21"
           d="m 295.92,364.27 a 3.11,3.11 0 0 1 -1.24,-1.3 4.43,4.43 0 0 1 0,-3.85 3.17,3.17 0 0 1 1.24,-1.3 4,4 0 0 1 3.74,0 3.13,3.13 0 0 1 1.25,1.3 4.34,4.34 0 0 1 0,3.85 3.08,3.08 0 0 1 -1.25,1.3 4,4 0 0 1 -3.74,0 z m 3,-1 a 2,2 0 0 0 0.86,-0.83 3.22,3.22 0 0 0 0,-2.88 2.08,2.08 0 0 0 -0.86,-0.83 2.45,2.45 0 0 0 -1.09,-0.25 2.5,2.5 0 0 0 -1.11,0.25 2.11,2.11 0 0 0 -0.85,0.83 3.31,3.31 0 0 0 0,2.88 2.05,2.05 0 0 0 0.85,0.83 2.39,2.39 0 0 0 1.11,0.27 2.34,2.34 0 0 0 1.06,-0.23 z"
           id="path975"
           inkscape:connector-curvature="0"
           style="fill:#ffffff" />
        <path
           class="cls-21"
           d="m 302.89,364.1 a 0.52,0.52 0 0 1 -0.24,-0.45 0.56,0.56 0 0 1 0.15,-0.39 0.52,0.52 0 0 1 0.39,-0.17 0.54,0.54 0 0 1 0.25,0.06 5.49,5.49 0 0 0 0.89,0.3 3.88,3.88 0 0 0 1,0.11 c 1,0 1.55,-0.33 1.55,-1 a 0.52,0.52 0 0 0 -0.36,-0.48 7.06,7.06 0 0 0 -1.16,-0.38 10.31,10.31 0 0 1 -1.35,-0.4 2.37,2.37 0 0 1 -0.92,-0.63 1.59,1.59 0 0 1 -0.38,-1.12 2,2 0 0 1 0.7,-1.59 3,3 0 0 1 2,-0.61 5.82,5.82 0 0 1 2,0.35 0.55,0.55 0 0 1 0.3,0.21 0.56,0.56 0 0 1 0.11,0.32 0.57,0.57 0 0 1 -0.16,0.39 0.54,0.54 0 0 1 -0.4,0.16 h -0.18 a 5.27,5.27 0 0 0 -1.59,-0.25 2.16,2.16 0 0 0 -1.17,0.27 0.8,0.8 0 0 0 -0.42,0.7 0.64,0.64 0 0 0 0.39,0.61 5.89,5.89 0 0 0 1.2,0.38 10.54,10.54 0 0 1 1.34,0.41 2.11,2.11 0 0 1 0.88,0.63 1.69,1.69 0 0 1 0.37,1.15 1.83,1.83 0 0 1 -0.7,1.48 3,3 0 0 1 -2,0.58 5.13,5.13 0 0 1 -2.49,-0.64 z"
           id="path977"
           inkscape:connector-curvature="0"
           style="fill:#ffffff" />
        <path
           class="cls-21"
           d="m 310.16,362.9 v -4.31 h -1 a 0.25,0.25 0 0 1 -0.18,-0.08 0.22,0.22 0 0 1 -0.08,-0.19 0.28,0.28 0 0 1 0.12,-0.23 l 1.9,-1.85 a 0.32,0.32 0 0 1 0.23,-0.13 0.26,0.26 0 0 1 0.19,0.08 0.32,0.32 0 0 1 0.08,0.2 v 1.11 H 313 a 0.51,0.51 0 0 1 0.54,0.54 0.52,0.52 0 0 1 -0.15,0.38 0.54,0.54 0 0 1 -0.39,0.17 h -1.57 v 4.2 c 0,0.36 0.08,0.59 0.25,0.68 a 1.28,1.28 0 0 0 0.65,0.15 1.87,1.87 0 0 0 0.56,-0.09 h 0.11 0.16 a 0.51,0.51 0 0 1 0.5,0.5 0.51,0.51 0 0 1 -0.32,0.49 2.65,2.65 0 0 1 -1.15,0.25 c -1.35,-0.04 -2.03,-0.65 -2.03,-1.87 z"
           id="path979"
           inkscape:connector-curvature="0"
           style="fill:#ffffff" />
        <path
           class="cls-6"
           d="m 894.4,850.46 c -39.56,-33.77 -59.74,-69 -69.84,-90.54 -13.63,-29.06 -28.32,-60.52 -16.82,-94.42 2.38,-7 12.55,-37 41.39,-45.91 25.63,-8 53.68,-1.24 68.23,18.11 17.52,23.29 1.77,45.16 20.37,83.42 5,10.26 16.35,32.53 41.39,45.27 a 86,86 0 0 0 39.45,9.05 c -1.45,6.67 -4.45,15.53 -11.32,18.11 -8.64,3.25 -18.32,-6.41 -28,-1.91 -22.31,10.35 -8.89,23.57 -22.8,28.42 -14.88,5.2 -21.53,-8 -38.22,-2.21 -7.42,2.57 -17.53,7.15 -23.83,32.61 z"
           id="path981"
           inkscape:connector-curvature="0"
           style="opacity:0.15;mix-blend-mode:darken;fill:#58595b" />
        <rect
           class="cls-7"
           x="373.17999"
           y="455.48999"
           width="89.050003"
           height="97.300003"
           rx="6.9499998"
           id="rect983"
           style="opacity:0.1;mix-blend-mode:darken;fill:#58595b" />
        <rect
           class="cls-7"
           x="455.76001"
           y="405.73001"
           width="226.53999"
           height="226.53999"
           rx="6.4000001"
           id="rect985"
           style="opacity:0.1;mix-blend-mode:darken;fill:#58595b" />
        <rect
           class="cls-22"
           x="451.12"
           y="401.10001"
           width="226.53999"
           height="226.53999"
           rx="6.4000001"
           id="rect987"
           style="fill:url(#radial-gradient-6)" />
        <path
           class="cls-11"
           d="M 671.27,628.79 H 457.52 a 7.55,7.55 0 0 1 -7.55,-7.55 V 407.49 a 7.56,7.56 0 0 1 7.55,-7.55 h 213.75 a 7.56,7.56 0 0 1 7.55,7.55 v 213.75 a 7.56,7.56 0 0 1 -7.55,7.55 z M 457.52,402.26 a 5.24,5.24 0 0 0 -5.24,5.23 v 213.75 a 5.25,5.25 0 0 0 5.24,5.24 h 213.75 a 5.24,5.24 0 0 0 5.23,-5.24 V 407.49 a 5.24,5.24 0 0 0 -5.23,-5.23 z"
           id="path989"
           inkscape:connector-curvature="0"
           style="fill:#81d5ff" />
        <rect
           class="cls-11"
           x="451.12"
           y="436.19"
           width="226.53999"
           height="2.3199999"
           id="rect991"
           style="fill:#81d5ff" />
        <rect
           class="cls-11"
           x="500.91"
           y="469.29999"
           width="18.120001"
           height="18.120001"
           rx="4.2600002"
           id="rect993"
           style="fill:#81d5ff" />
        <rect
           class="cls-11"
           x="528.09003"
           y="469.29999"
           width="18.120001"
           height="18.120001"
           rx="4.2600002"
           id="rect995"
           style="fill:#81d5ff" />
        <rect
           class="cls-11"
           x="555.28003"
           y="469.29999"
           width="18.120001"
           height="18.120001"
           rx="4.2600002"
           id="rect997"
           style="fill:#81d5ff" />
        <rect
           class="cls-11"
           x="582.46002"
           y="469.29999"
           width="18.120001"
           height="18.120001"
           rx="4.2600002"
           id="rect999"
           style="fill:#81d5ff" />
        <rect
           class="cls-11"
           x="609.64001"
           y="469.29999"
           width="18.120001"
           height="18.120001"
           rx="4.2600002"
           id="rect1001"
           style="fill:#81d5ff" />
        <rect
           class="cls-11"
           x="636.83002"
           y="469.29999"
           width="18.120001"
           height="18.120001"
           rx="4.2600002"
           id="rect1003"
           style="fill:#81d5ff" />
        <rect
           class="cls-11"
           x="473.72"
           y="505.54999"
           width="18.120001"
           height="18.120001"
           rx="4.2600002"
           id="rect1005"
           style="fill:#81d5ff" />
        <rect
           class="cls-11"
           x="500.91"
           y="505.54999"
           width="18.120001"
           height="18.120001"
           rx="4.2600002"
           id="rect1007"
           style="fill:#81d5ff" />
        <rect
           class="cls-11"
           x="528.09003"
           y="505.54999"
           width="18.120001"
           height="18.120001"
           rx="4.2600002"
           id="rect1009"
           style="fill:#81d5ff" />
        <rect
           class="cls-11"
           x="473.72"
           y="541.78998"
           width="18.120001"
           height="18.120001"
           rx="4.2600002"
           id="rect1011"
           style="fill:#81d5ff" />
        <rect
           class="cls-11"
           x="500.91"
           y="541.78998"
           width="18.120001"
           height="18.120001"
           rx="4.2600002"
           id="rect1013"
           style="fill:#81d5ff" />
        <rect
           class="cls-11"
           x="528.09003"
           y="541.78998"
           width="18.120001"
           height="18.120001"
           rx="4.2600002"
           id="rect1015"
           style="fill:#81d5ff" />
        <rect
           class="cls-11"
           x="555.28003"
           y="541.78998"
           width="18.120001"
           height="18.120001"
           rx="4.2600002"
           id="rect1017"
           style="fill:#81d5ff" />
        <rect
           class="cls-11"
           x="582.46002"
           y="541.78998"
           width="18.120001"
           height="18.120001"
           rx="4.2600002"
           id="rect1019"
           style="fill:#81d5ff" />
        <rect
           class="cls-11"
           x="609.64001"
           y="541.78998"
           width="18.120001"
           height="18.120001"
           rx="4.2600002"
           id="rect1021"
           style="fill:#81d5ff" />
        <rect
           class="cls-11"
           x="636.83002"
           y="541.78998"
           width="18.120001"
           height="18.120001"
           rx="4.2600002"
           id="rect1023"
           style="fill:#81d5ff" />
        <rect
           class="cls-11"
           x="473.72"
           y="578.03998"
           width="18.120001"
           height="18.120001"
           rx="4.2600002"
           id="rect1025"
           style="fill:#81d5ff" />
        <rect
           class="cls-11"
           x="500.91"
           y="578.03998"
           width="18.120001"
           height="18.120001"
           rx="4.2600002"
           id="rect1027"
           style="fill:#81d5ff" />
        <rect
           class="cls-11"
           x="528.09003"
           y="578.03998"
           width="18.120001"
           height="18.120001"
           rx="4.2600002"
           id="rect1029"
           style="fill:#81d5ff" />
        <rect
           class="cls-11"
           x="555.28003"
           y="578.03998"
           width="18.120001"
           height="18.120001"
           rx="4.2600002"
           id="rect1031"
           style="fill:#81d5ff" />
        <rect
           class="cls-11"
           x="582.46002"
           y="578.03998"
           width="18.120001"
           height="18.120001"
           rx="4.2600002"
           id="rect1033"
           style="fill:#81d5ff" />
        <rect
           class="cls-11"
           x="609.64001"
           y="578.03998"
           width="18.120001"
           height="18.120001"
           rx="4.2600002"
           id="rect1035"
           style="fill:#81d5ff" />
        <rect
           class="cls-10"
           x="564.34003"
           y="512.28998"
           width="81.550003"
           height="4.6300001"
           id="rect1037"
           style="fill:#4dc4ff" />
        <rect
           class="cls-11"
           x="517.98999"
           y="414.92999"
           width="92.690002"
           height="11.59"
           id="rect1039"
           style="fill:#81d5ff" />
        <path
           class="cls-11"
           d="m 493.35,429.45 a 1.1,1.1 0 0 1 -0.58,-0.16 l -13.11,-7.56 a 1.16,1.16 0 0 1 0,-2 l 13.11,-7.56 a 1.14,1.14 0 0 1 1.58,0.42 1.16,1.16 0 0 1 -0.42,1.58 l -11.37,6.57 11.37,6.56 a 1.16,1.16 0 0 1 -0.58,2.16 z"
           id="path1041"
           inkscape:connector-curvature="0"
           style="fill:#81d5ff" />
        <path
           class="cls-11"
           d="m 635.5,429.45 a 1.16,1.16 0 0 1 -0.58,-2.16 l 11.37,-6.56 -11.37,-6.57 a 1.14,1.14 0 0 1 -0.42,-1.58 1.15,1.15 0 0 1 1.58,-0.42 l 13.1,7.56 a 1.16,1.16 0 0 1 0,2 l -13.1,7.56 a 1.16,1.16 0 0 1 -0.58,0.17 z"
           id="path1043"
           inkscape:connector-curvature="0"
           style="fill:#81d5ff" />
        <rect
           class="cls-11"
           x="555.28003"
           y="505.54999"
           width="18.120001"
           height="18.120001"
           rx="4.2600002"
           id="rect1045"
           style="fill:#81d5ff" />
        <rect
           class="cls-11"
           x="582.46002"
           y="505.54999"
           width="18.120001"
           height="18.120001"
           rx="4.2600002"
           id="rect1047"
           style="fill:#81d5ff" />
        <rect
           class="cls-11"
           x="609.64001"
           y="505.54999"
           width="18.120001"
           height="18.120001"
           rx="4.2600002"
           id="rect1049"
           style="fill:#81d5ff" />
        <rect
           class="cls-11"
           x="636.83002"
           y="505.54999"
           width="18.120001"
           height="18.120001"
           rx="4.2600002"
           id="rect1051"
           style="fill:#81d5ff" />
        <rect
           class="cls-7"
           x="708.90997"
           y="405.73001"
           width="208.24001"
           height="125.85"
           rx="6.4000001"
           id="rect1053"
           style="opacity:0.1;mix-blend-mode:darken;fill:#58595b" />
        <rect
           class="cls-23"
           x="704.27002"
           y="401.10001"
           width="208.24001"
           height="125.85"
           rx="6.4000001"
           id="rect1055"
           style="fill:url(#radial-gradient-7)" />
        <path
           class="cls-11"
           d="M 906.11,528.11 H 710.67 a 7.57,7.57 0 0 1 -7.56,-7.56 V 407.49 a 7.56,7.56 0 0 1 7.56,-7.55 h 195.44 a 7.56,7.56 0 0 1 7.56,7.55 v 113.06 a 7.57,7.57 0 0 1 -7.56,7.56 z M 710.67,402.26 a 5.24,5.24 0 0 0 -5.24,5.23 v 113.06 a 5.25,5.25 0 0 0 5.24,5.24 h 195.44 a 5.25,5.25 0 0 0 5.24,-5.24 V 407.49 a 5.24,5.24 0 0 0 -5.24,-5.23 z"
           id="path1057"
           inkscape:connector-curvature="0"
           style="fill:#81d5ff" />
        <path
           class="cls-11"
           d="M 841,461.31 H 715.86 a 3.48,3.48 0 0 1 -3.48,-3.48 v -44.08 a 3.48,3.48 0 0 1 3.48,-3.48 H 841 a 3.48,3.48 0 0 1 3.48,3.48 v 44.08 A 3.48,3.48 0 0 1 841,461.31 Z M 715.86,412.59 a 1.16,1.16 0 0 0 -1.16,1.16 v 44.08 a 1.16,1.16 0 0 0 1.16,1.16 H 841 a 1.16,1.16 0 0 0 1.16,-1.16 V 413.75 A 1.16,1.16 0 0 0 841,412.59 Z"
           id="path1059"
           inkscape:connector-curvature="0"
           style="fill:#81d5ff" />
        <rect
           class="cls-11"
           x="725.34003"
           y="475.51999"
           width="23.17"
           height="23.17"
           rx="2.3199999"
           id="rect1061"
           style="fill:#81d5ff" />
        <rect
           class="cls-11"
           x="757.78998"
           y="475.51999"
           width="35.41"
           height="8.04"
           id="rect1063"
           style="fill:#81d5ff" />
        <rect
           class="cls-11"
           x="757.78998"
           y="490.64999"
           width="14.98"
           height="8.04"
           id="rect1065"
           style="fill:#81d5ff" />
        <path
           class="cls-11"
           d="m 704.27,510.23 h 208.24 v 10.32 a 6.4,6.4 0 0 1 -6.4,6.4 H 710.67 a 6.4,6.4 0 0 1 -6.4,-6.4 z"
           id="path1067"
           inkscape:connector-curvature="0"
           style="fill:#81d5ff" />
        <rect
           class="cls-11"
           x="720.48999"
           y="418.38"
           width="66.32"
           height="8.04"
           id="rect1069"
           style="fill:#81d5ff" />
        <path
           class="cls-11"
           d="m 734.64,454.69 h -1.06 v -2.32 h 1.06 a 1.15,1.15 0 0 0 0.6,-0.16 l 1.19,2 a 3.43,3.43 0 0 1 -1.79,0.48 z m -3.37,0 H 729 v -2.32 h 2.32 z m -4.64,0 h -2.32 v -2.32 h 2.32 z m -5,-0.21 a 3.46,3.46 0 0 1 -2.19,-2.51 l 2.26,-0.5 a 1.14,1.14 0 0 0 0.73,0.83 z m 14.19,-3.2 V 449 h 2.32 v 2.25 z m -14.15,-1.87 h -2.32 v -2.32 h 2.32 z m 16.47,-2.77 h -2.34 v -2.31 h 2.32 z m -16.47,-1.87 h -2.32 v -2.32 h 2.32 z M 738.12,442 h -2.32 v -2.32 h 2.32 z m -16.47,-1.87 h -2.32 v -0.75 a 3.49,3.49 0 0 1 0.77,-2.18 l 1.81,1.45 a 1.14,1.14 0 0 0 -0.26,0.73 z m 13.74,-1.64 a 1,1 0 0 0 -0.75,-0.27 h -2.32 v -2.32 h 2.33 a 3.43,3.43 0 0 1 2.24,0.83 z m -5.38,-0.27 h -2.32 V 435.9 H 730 Z m -4.64,0 h -2.32 v -2.32 h 2.32 z"
           id="path1071"
           inkscape:connector-curvature="0"
           style="fill:#81d5ff" />
        <rect
           class="cls-11"
           x="856.06"
           y="401.10001"
           width="2.3199999"
           height="109.13"
           id="rect1073"
           style="fill:#81d5ff" />
        <path
           class="cls-11"
           d="M 900.92,484.72 H 868.8 a 3.48,3.48 0 0 1 -3.47,-3.47 v -37.38 a 3.48,3.48 0 0 1 3.47,-3.47 h 32.12 a 3.48,3.48 0 0 1 3.48,3.47 v 37.38 a 3.48,3.48 0 0 1 -3.48,3.47 z m -32.12,-42 a 1.16,1.16 0 0 0 -1.16,1.16 v 37.38 a 1.16,1.16 0 0 0 1.16,1.16 h 32.12 a 1.16,1.16 0 0 0 1.16,-1.16 v -37.39 a 1.16,1.16 0 0 0 -1.16,-1.16 z"
           id="path1075"
           inkscape:connector-curvature="0"
           style="fill:#81d5ff" />
        <path
           class="cls-11"
           d="M 900.92,427.58 H 868.8 a 3.48,3.48 0 0 1 -3.47,-3.47 v -9.48 a 3.48,3.48 0 0 1 3.47,-3.47 h 32.12 a 3.48,3.48 0 0 1 3.48,3.47 v 9.48 a 3.48,3.48 0 0 1 -3.48,3.47 z M 868.8,413.47 a 1.16,1.16 0 0 0 -1.16,1.16 v 9.48 a 1.16,1.16 0 0 0 1.16,1.16 h 32.12 a 1.16,1.16 0 0 0 1.16,-1.16 v -9.48 a 1.16,1.16 0 0 0 -1.16,-1.16 z"
           id="path1077"
           inkscape:connector-curvature="0"
           style="fill:#81d5ff" />
        <circle
           class="cls-11"
           cx="866.48999"
           cy="462.17001"
           r="4.8499999"
           id="circle1079"
           style="fill:#81d5ff" />
        <rect
           class="cls-24"
           x="368.54999"
           y="450.85999"
           width="89.050003"
           height="97.300003"
           rx="6.9499998"
           id="rect1081"
           style="fill:url(#radial-gradient-8)" />
        <rect
           class="cls-18"
           x="384.10999"
           y="462.64001"
           width="57.93"
           height="11.59"
           rx="1.9400001"
           id="rect1083"
           style="fill:#e6b3ff" />
        <rect
           class="cls-17"
           x="384.10999"
           y="489.66"
           width="13.9"
           height="13.9"
           rx="1.04"
           id="rect1085"
           style="fill:#d580ff" />
        <rect
           class="cls-18"
           x="407.28"
           y="489.66"
           width="34.759998"
           height="5.79"
           id="rect1087"
           style="fill:#e6b3ff" />
        <rect
           class="cls-18"
           x="407.28"
           y="497.76999"
           width="26.450001"
           height="5.79"
           id="rect1089"
           style="fill:#e6b3ff" />
        <rect
           class="cls-17"
           x="384.10999"
           y="515.15997"
           width="13.9"
           height="13.9"
           rx="1.04"
           id="rect1091"
           style="fill:#d580ff" />
        <rect
           class="cls-18"
           x="407.28"
           y="515.15997"
           width="34.759998"
           height="5.79"
           id="rect1093"
           style="fill:#e6b3ff" />
        <rect
           class="cls-18"
           x="407.28"
           y="523.27002"
           width="30.110001"
           height="5.79"
           id="rect1095"
           style="fill:#e6b3ff" />
        <path
           class="cls-25"
           d="m 306.33,654.78 c 31.49,-56.86 37.77,-105.81 38.8,-134.52 1.9,-52.48 -12.55,-70.2 -16.81,-75 -16.36,-18.47 -46.86,-31.9 -73.73,-22 -21.77,8 -32,28 -34.92,33.63 -8.31,16.19 -8.67,32 -9,49.15 -0.59,26.45 5.06,33.66 -1.29,49.15 -4.23,10.29 -10.83,17.08 -18.11,24.57 A 127.27,127.27 0 0 1 160.17,603 c 0,0 0,17.68 13.59,23.93 11.3,5.2 24.4,-13.05 38.8,-8.41 13,4.18 11.18,21.14 23.93,24.58 11.75,3.17 21.8,-13.07 40.56,-9.69 20.23,3.69 12.04,21.37 29.28,21.37 z"
           id="path1097"
           inkscape:connector-curvature="0"
           style="opacity:0.95;fill:#ffffff" />
        <circle
           class="cls-4"
           cx="267.64999"
           cy="471.59"
           r="6.6300001"
           id="circle1099"
           style="fill:#58595b" />
        <circle
           class="cls-4"
           cx="304.48001"
           cy="472.97"
           r="6.6300001"
           id="circle1101"
           style="fill:#58595b" />
        <ellipse
           class="cls-4"
           cx="285.45999"
           cy="486.23001"
           rx="5.4400001"
           ry="6.6300001"
           id="ellipse1103"
           style="fill:#58595b" />
        <g
           class="cls-26"
           id="g1109"
           style="opacity:0.9">
          <path
             class="cls-21"
             d="m 223.12,515.09 c 0,0 -15.77,7.9 -23.71,14.23 -6.95,5.54 -9.06,14.66 -4.74,19.4 4.32,4.74 16.81,-1.29 25,-5.17 8.19,-3.88 11.21,-6.21 11.21,-6.21"
             id="path1105"
             inkscape:connector-curvature="0"
             style="fill:#ffffff" />
          <path
             class="cls-27"
             d="m 199.49,551.62 a 7.31,7.31 0 0 1 -5.68,-2.12 10.65,10.65 0 0 1 -2.5,-8.14 19.14,19.14 0 0 1 7.38,-13 c 7.94,-6.33 23.26,-14 23.91,-14.36 a 1.16,1.16 0 0 1 1,2.08 c -0.16,0.07 -15.75,7.91 -23.51,14.09 a 16.83,16.83 0 0 0 -6.51,11.33 8.28,8.28 0 0 0 1.9,6.39 c 3.66,4 15.93,-1.78 23.26,-5.26 l 0.4,-0.18 c 7.93,-3.76 11,-6 11,-6.08 a 1.16,1.16 0 0 1 1.41,1.84 c -0.13,0.1 -3.21,2.44 -11.42,6.33 l -0.39,0.19 c -6.34,3.07 -14.4,6.89 -20.25,6.89 z"
             id="path1107"
             inkscape:connector-curvature="0"
             style="fill:#a6a8ab" />
        </g>
        <g
           class="cls-26"
           id="g1115"
           style="opacity:0.9">
          <path
             class="cls-21"
             d="m 336.51,512.5 a 160.93,160.93 0 0 1 19.29,0.49 c 10.88,0.93 16.93,2.53 16.06,10.29 -0.87,7.76 -7.65,8.28 -17.61,9.5 -9.96,1.22 -25.93,2.36 -25.93,2.36"
             id="path1111"
             inkscape:connector-curvature="0"
             style="fill:#ffffff" />
          <path
             class="cls-27"
             d="m 328.32,536.3 a 1.1606895,1.1606895 0 0 1 -0.08,-2.32 c 0.16,0 16.05,-1.16 25.87,-2.35 l 1.11,-0.14 c 10,-1.2 14.79,-2.06 15.49,-8.34 a 6.44,6.44 0 0 0 -1.1,-5 c -2.05,-2.49 -6.84,-3.36 -13.91,-4 a 161.89,161.89 0 0 0 -19.13,-0.48 1.16,1.16 0 1 1 -0.12,-2.31 162.2,162.2 0 0 1 19.45,0.48 c 7.87,0.67 12.93,1.68 15.5,4.81 1.4,1.71 1.93,3.92 1.61,6.77 -0.93,8.38 -8.24,9.26 -17.51,10.38 l -1.11,0.13 c -9.88,1.21 -25.83,2.36 -26,2.38 z"
             id="path1113"
             inkscape:connector-curvature="0"
             style="fill:#a6a8ab" />
        </g>
        <rect
           class="cls-4"
           x="763.20001"
           y="737.71997"
           width="6.3699999"
           height="47.110001"
           transform="rotate(45,766.37964,761.27484)"
           id="rect1117"
           style="fill:#58595b" />
        <path
           class="cls-4"
           d="m 783.21,741 h 3.31 a 1.53,1.53 0 0 1 1.53,1.53 v 2.11 h -6.37 v -2.11 a 1.53,1.53 0 0 1 1.53,-1.53 z"
           transform="rotate(45,784.86197,742.80047)"
           id="path1119"
           inkscape:connector-curvature="0"
           style="fill:#58595b" />
        <polygon
           class="cls-4"
           points="746.87,776.29 745.23,782.44 751.37,780.79 "
           id="polygon1121"
           style="fill:#58595b" />
        <path
           class="cls-25"
           d="m 885.13,848.14 c -39.56,-33.77 -59.74,-69 -69.84,-90.53 -13.63,-29.07 -28.32,-60.53 -16.82,-94.42 2.38,-7 12.55,-37 41.39,-45.92 25.63,-8 53.68,-1.24 68.23,18.11 17.53,23.29 1.77,45.16 20.37,83.42 5,10.27 16.35,32.53 41.39,45.27 a 85.87,85.87 0 0 0 39.45,9.06 c -1.45,6.66 -4.45,15.52 -11.32,18.1 -8.64,3.25 -18.32,-6.41 -28,-1.91 -22.31,10.35 -8.89,23.58 -22.8,28.43 -14.88,5.19 -21.53,-8 -38.22,-2.21 -7.42,2.56 -17.52,7.11 -23.83,32.6 z"
           id="path1123"
           inkscape:connector-curvature="0"
           style="opacity:0.95;fill:#ffffff" />
        <circle
           class="cls-4"
           cx="863.46997"
           cy="664.41998"
           r="6.6300001"
           id="circle1125"
           style="fill:#58595b" />
        <circle
           class="cls-4"
           cx="828.13"
           cy="674.88"
           r="6.6300001"
           id="circle1127"
           style="fill:#58595b" />
        <ellipse
           class="cls-4"
           cx="849.84003"
           cy="689.96002"
           rx="5.4400001"
           ry="6.6300001"
           transform="rotate(-14.35,849.82362,689.92705)"
           id="ellipse1129"
           style="fill:#58595b" />
        <g
           class="cls-26"
           id="g1135"
           style="opacity:0.9">
          <path
             class="cls-21"
             d="m 809.91,720.28 c 0,0 -18.71,6.69 -27.18,12.3 -7.41,4.91 -10.3,13.81 -6.42,18.91 3.88,5.1 16.86,0.18 25.36,-3 8.5,-3.18 14,-5.4 14,-5.4"
             id="path1131"
             inkscape:connector-curvature="0"
             style="fill:#ffffff" />
          <path
             class="cls-27"
             d="m 782.2,754.86 c -2.92,0 -5.35,-0.74 -6.81,-2.67 a 10.64,10.64 0 0 1 -1.78,-8.32 19.18,19.18 0 0 1 8.48,-12.26 c 8.49,-5.62 26.66,-12.14 27.43,-12.42 a 1.16,1.16 0 1 1 0.78,2.18 c -0.19,0.07 -18.67,6.7 -26.93,12.17 a 16.83,16.83 0 0 0 -7.47,10.72 8.28,8.28 0 0 0 1.33,6.53 c 3.29,4.34 16,-0.38 23.63,-3.2 l 0.41,-0.15 c 8.38,-3.11 13.93,-5.36 14,-5.39 a 1.1615614,1.1615614 0 0 1 0.88,2.15 c -0.06,0 -5.63,2.29 -14.06,5.41 l -0.41,0.16 c -6.14,2.23 -13.77,5.09 -19.48,5.09 z"
             id="path1133"
             inkscape:connector-curvature="0"
             style="fill:#a6a8ab" />
        </g>
        <g
           class="cls-26"
           id="g1141"
           style="opacity:0.9">
          <path
             class="cls-21"
             d="m 922.54,716.44 a 161.88,161.88 0 0 1 -4.1,18.85 c -3,10.51 -5.67,16.15 -13.13,13.85 -7.46,-2.3 -6.69,-9.08 -6,-19.09 0.69,-10.01 2.55,-25.91 2.55,-25.91"
             id="path1137"
             inkscape:connector-curvature="0"
             style="fill:#ffffff" />
          <path
             class="cls-27"
             d="m 908.36,750.81 a 11.45,11.45 0 0 1 -3.39,-0.57 c -8.06,-2.49 -7.55,-9.84 -6.91,-19.15 l 0.08,-1.12 c 0.68,-9.92 2.54,-25.81 2.55,-26 a 1.1628628,1.1628628 0 0 1 2.31,0.27 c 0,0.16 -1.88,16 -2.55,25.86 l -0.08,1.12 c -0.69,10 -0.75,14.91 5.28,16.78 a 6.5,6.5 0 0 0 5.16,-0.14 c 2.84,-1.54 4.59,-6.08 6.51,-12.91 a 160.14,160.14 0 0 0 4.07,-18.71 1.1617767,1.1617767 0 0 1 2.3,0.33 162.66,162.66 0 0 1 -4.14,19 c -2.13,7.6 -4.06,12.38 -7.63,14.32 a 7.39,7.39 0 0 1 -3.56,0.92 z"
             id="path1139"
             inkscape:connector-curvature="0"
             style="fill:#a6a8ab" />
        </g>
        <path
           class="cls-28"
           d="M 816.25,689.26 A 5.52,5.52 0 0 1 811,685.41 L 808.06,676 a 5.47,5.47 0 0 1 3.6,-6.88 l 21.42,-6.71 A 5.5,5.5 0 0 1 840,666 l 2.95,9.41 a 5.5,5.5 0 0 1 -3.6,6.88 L 817.89,689 a 5.54,5.54 0 0 1 -1.64,0.26 z m 17.17,-25.74 0.35,1.1 -21.42,6.71 a 3.19,3.19 0 0 0 -2.08,4 l 3,9.4 a 3.17,3.17 0 0 0 4,2.08 l 21.41,-6.7 a 3.18,3.18 0 0 0 2.08,-4 l -2.94,-9.41 a 3.17,3.17 0 0 0 -4,-2.08 z"
           id="path1143"
           inkscape:connector-curvature="0"
           style="fill:#929497" />
        <path
           class="cls-28"
           d="m 879.69,659.75 a 1.16,1.16 0 0 1 -0.54,-2.18 l 22.12,-11.87 a 1.16,1.16 0 1 1 1.09,2 l -22.12,11.87 a 1.07,1.07 0 0 1 -0.55,0.18 z"
           id="path1145"
           inkscape:connector-curvature="0"
           style="fill:#929497" />
        <rect
           class="cls-28"
           x="840.12"
           y="668.48999"
           width="9.6300001"
           height="2.3199999"
           transform="rotate(-16.91,845.12807,669.7545)"
           id="rect1147"
           style="fill:#929497" />
        <path
           class="cls-28"
           d="m 800.1,681.86 a 1.16,1.16 0 0 1 -0.16,-2.31 l 10.2,-1.43 a 1.16,1.16 0 0 1 0.32,2.29 l -10.2,1.44 z"
           id="path1149"
           inkscape:connector-curvature="0"
           style="fill:#929497" />
        <path
           class="cls-28"
           d="m 855.71,677.14 a 5.39,5.39 0 0 1 -2.53,-0.63 5.46,5.46 0 0 1 -2.7,-3.22 l -3,-9.41 a 5.5,5.5 0 0 1 3.61,-6.88 l 21.41,-6.71 a 5.49,5.49 0 0 1 6.89,3.6 l 2.94,9.4 a 5.51,5.51 0 0 1 -3.6,6.89 l -21.42,6.71 a 5.46,5.46 0 0 1 -1.6,0.25 z m 18.49,-24.79 a 3.09,3.09 0 0 0 -1,0.15 v 0 l -21.42,6.71 a 3.18,3.18 0 0 0 -2.08,4 l 2.94,9.4 a 3.18,3.18 0 0 0 4,2.09 l 21.45,-6.7 a 3.19,3.19 0 0 0 2.08,-4 l -2.95,-9.41 a 3.21,3.21 0 0 0 -3,-2.23 z"
           id="path1151"
           inkscape:connector-curvature="0"
           style="fill:#929497" />
        <path
           class="cls-25"
           d="m 1013,582.78 c -16.68,-19.4 -51.87,-65.95 -55.19,-129.34 -0.8,-15.19 -4.35,-48.62 13.2,-79.92 7.06,-12.6 18.81,-27.1 38.54,-33.9 22.62,-7.81 50,0.58 63.81,18.11 7.14,9.09 8.59,20 11.2,41.38 4.6,37.65 -2,43.33 2.59,74.16 2.62,17.77 5.94,38.58 21.56,57.77 a 91,91 0 0 0 24.14,20.7 c -2.3,6.87 -6.27,9.5 -7.76,10.34 -8.72,5 -17.46,-11.69 -31.9,-8.89 -21.76,4.22 -8.74,18.83 -26.3,21 -17.56,2.17 -17,-11.75 -31.91,-10.89 -18.81,1.06 -20.4,15.44 -21.98,19.48 z"
           id="path1153"
           inkscape:connector-curvature="0"
           style="opacity:0.95;fill:#ffffff" />
        <g
           class="cls-26"
           id="g1159"
           style="opacity:0.9">
          <path
             class="cls-21"
             d="m 969.3,443.57 c 0,0 -24.59,0.33 -34.49,2.62 -8.66,2 -14.48,9.32 -12.64,15.46 1.84,6.14 15.73,6.08 24.79,6.11 9.06,0.03 19.75,-0.77 19.75,-0.77"
             id="path1155"
             inkscape:connector-curvature="0"
             style="fill:#ffffff" />
          <path
             class="cls-27"
             d="m 947.45,468.92 h -0.92 c -9.87,0 -23.4,-0.07 -25.47,-6.94 a 10.62,10.62 0 0 1 1.26,-8.41 19.13,19.13 0 0 1 12.23,-8.51 c 9.91,-2.29 33.72,-2.63 34.73,-2.65 v 0 a 1.16,1.16 0 0 1 0,2.32 c -0.24,0 -24.57,0.35 -34.24,2.59 a 16.74,16.74 0 0 0 -10.75,7.41 8.25,8.25 0 0 0 -1,6.58 c 1.57,5.22 15.15,5.26 23.26,5.29 h 0.92 c 8.8,0 19,-0.75 19.16,-0.76 a 1.18,1.18 0 0 1 1.24,1.07 1.16,1.16 0 0 1 -1.07,1.24 c -0.12,0.01 -10.45,0.77 -19.35,0.77 z"
             id="path1157"
             inkscape:connector-curvature="0"
             style="fill:#a6a8ab" />
        </g>
        <g
           class="cls-26"
           id="g1165"
           style="opacity:0.9">
          <path
             class="cls-21"
             d="m 1080.82,427.21 a 160.56,160.56 0 0 1 18.79,-4.4 c 10.76,-1.85 17,-1.82 18.14,5.91 1.14,7.73 -5.32,9.94 -14.65,13.63 -9.33,3.69 -24.5,8.83 -24.5,8.83"
             id="path1161"
             inkscape:connector-curvature="0"
             style="fill:#ffffff" />
          <path
             class="cls-27"
             d="m 1078.6,452.33 a 1.16,1.16 0 0 1 -0.37,-2.25 c 0.15,-0.05 15.24,-5.18 24.45,-8.81 l 1,-0.41 c 9.35,-3.68 13.8,-5.72 12.89,-12 a 6.46,6.46 0 0 0 -2.33,-4.6 c -2.61,-1.9 -7.47,-1.54 -14.46,-0.34 a 163.07,163.07 0 0 0 -18.64,4.36 1.16,1.16 0 0 1 -0.69,-2.21 162.18,162.18 0 0 1 18.94,-4.43 c 7.78,-1.34 12.92,-1.65 16.21,0.74 1.79,1.3 2.86,3.31 3.27,6.14 1.21,8.35 -5.65,11.05 -14.34,14.47 l -1,0.4 c -9.26,3.66 -24.4,8.8 -24.55,8.85 a 1.26,1.26 0 0 1 -0.38,0.09 z"
             id="path1163"
             inkscape:connector-curvature="0"
             style="fill:#a6a8ab" />
        </g>
        <circle
           class="cls-4"
           cx="1000.46"
           cy="393.09"
           r="6.6999998"
           id="circle1167"
           style="fill:#58595b" />
        <circle
           class="cls-4"
           cx="1036.53"
           cy="393.09"
           r="6.6999998"
           id="circle1169"
           style="fill:#58595b" />
        <path
           class="cls-4"
           d="m 1026.08,411.29 c -0.61,0.46 -4.82,0.69 -7.93,0.69 -3.11,0 -7.06,0 -7.71,-0.61 -0.76,5.87 3.53,10.61 7.58,10.61 4.71,0.02 8.85,-4.59 8.06,-10.69 z"
           id="path1171"
           inkscape:connector-curvature="0"
           style="fill:#58595b" />
      </g>
    </g>
  </g>
</svg>
